<mxfile host="app.diagrams.net" modified="2023-08-03T14:35:34.892Z" agent="Mozilla/5.0 (Macintosh; Intel Mac OS X 10_15_7) AppleWebKit/537.36 (KHTML, like Gecko) Chrome/115.0.0.0 Safari/537.36" etag="GaqCQFfDpubnqsrztlnD" version="21.6.5" type="github">
  <diagram name="第 1 页" id="UpC9NeFV0irCesd2P4u0">
    <mxGraphModel dx="2385" dy="1463" grid="0" gridSize="10" guides="1" tooltips="1" connect="1" arrows="1" fold="1" page="1" pageScale="1" pageWidth="3300" pageHeight="4681" math="0" shadow="0">
      <root>
        <mxCell id="0" />
        <mxCell id="1" parent="0" />
        <mxCell id="8R89M9rb_P1rOZR24Cu9-4" value="" style="rounded=0;whiteSpace=wrap;html=1;" vertex="1" parent="1">
          <mxGeometry x="394" y="108" width="773" height="1023" as="geometry" />
        </mxCell>
        <mxCell id="8R89M9rb_P1rOZR24Cu9-3" value="" style="shape=image;verticalLabelPosition=bottom;labelBackgroundColor=default;verticalAlign=top;aspect=fixed;imageAspect=0;image=data:image/png,iVBORw0KGgoAAAANSUhEUgAAAwAAAAQACAIAAADZRKlXAAAgAElEQVR42u3dS4wc54HY8Y8STVny6MWl4l5D4crQyGCUVTBYAivE6LYXAZJdQDnsIsmFtoEAAdTIMYcAzHUPCZEccm4BOVkeBFgnudiAnT1s4J41ogB0BnBCENbIlhnC7gXHlCjRokRRUqq7unv6Ud1d/a7H76fCqKfnRdZQmj+/R1UIAAAAAAAAAAAAAAAAAAAAAAAAAAAAAAAAAAAAAAAAAAAAAAAAAAAAAAAAAAAAAAAAAAAAAAAAAAAAAAAAAAAAAAAAAAAAAAAAAAAAAAAAAAAAAAAAAAAAAAAAAAAAAAAAAAAAAAAAAAAAAAAAAAAAAAAAAAAAAAAAAAAAAAAAAAAAAAAAAAAAAAAAAAAAAAAAAAAAAAAAAAAAAAAAAAAAAAAAAAAAAAAAAAAAAAAAAAAAAAAAAAAAAAAAAAAAAAAAAAAAAAAAAAAAAAAAAAAAAAAAAAAAAAAAAAAAAAAAAAAAAAAAAAAAAAAAAAAAAAAAAAAAAAAAAAAAAAAAAAAAAAAAAAAAAAAAAAAAAAAAAAAAAAAAQBGdcgoAIq+GxviTr4W6MwMCCKBE9SODoMAecgqAtWpEdZHn+knzDkDuGAECNhc99fBa7uonZhAIBBDAIvWTwQaaa2hHA0GRmAIDNlc/IQ8zYkAZnHYKgI3VT//dMjgXNuJcqA2+ehyavr8ggAAK5cJA7jwIlXdDa7yHLnbmy66aCINCMAUGbEF2JsKi9LkwPNgzXZRBF20Kg/wzAgSsvmlqvaRodmaOalFmdF+9nqlf81zpM5JBwWgQCCCAwe4ZfubWwKtZKaF4/9f10Fy4gWQQ5Jpt8MAKNDopUAuPjb+pEp5qhTfHn48aaFtLoQd3vycG0PHYMz+ctQhaBoEAAkqXPrH0ATQ4ArThDBq/9s94Ax3PWT8aCAQQUMb0mRJAg1NgiQG0yQyadOXDkQa6Hpr9bfA/nGcDvAYCAQSUq34mN9CtmfWzmQyaed3nOIOu94rn6qJfSAaBAALKkj6JDTSyC2xmAK2vgdLf9aJ/y4tltrtrIMg41wECVlk/nb75YPKbrs/c/7WOSwQtdjv3ZSLGtYIg44wAAStLn4SEWMKqhoKWvOOpcSAQQID6matg6sOf5NX5P8OyDTTv2E/iLd81EBSPKTBgE/Wz6JdeajpsJfUTzIVBERkBAjZXP4sFzcLjQEtOfi2fMvFe+vE7yRsWAgEElKV+lmmgBTJoVcM/C2fQuYFrC2kgEEBAeetnYw20pvpJ30DnEq4urYFAAAGFS58wz7qftTbQWusnTQadS76/WMIVpTUQbItF0MBqzLXqeeFlPeu4StBitAsIIKA4Nrbna00NtJnhn34DySAQQID6yUQDbaZ+JmVQ4vzXJDbJgwACylU/SzZQotXue18mg4CMswga2Fr9DHz1FVwfaIv1M2hwUGfSdYBGyskfP9g8I0DAlusnLDoOlJ0F0ZOCJkof9QMCCFA/0xpogQzqN1BGhn+AvDAFBmUvnlqoNaeOUqw7fSY1TRq18NtmuB49uNBbevyd8HeyUD9pVjcb/gEBBGwhfeL66T9Ok0H1jfzMTtNAUfoM/MqvXxjeezUpgzY29iOAQAABGa2fkQCa2UD1zf7AnpJBg/UTOR1e+HV4d+R9xhtowzNfUxpI+oAAArYWQLWkK9YkNlB9Sz+wExtopH4mBdBgA21x0c94BqkfyILTTgGUs35Sqm/1p3W8LHrJ3V7bXfIsdyCb7AIDMlo/gxm08PUSbfgCEpkCg+KbNPxTm3DThmZo1jPZDY3w6vj8V5gwBXa9M5dXD1f9AQCS/r8BMJA+ITMDP+Pq4bVGuNhJtwuDzz8Ib4bwzEj6AAggYGLu5PNXfn3w1Vo490w4boZj31MgJWuAoPjmGtGpZ3vRzPiUVlQ/6d8ZQAABAAIIAEAAAYWRcmKrnodN44MTW+a/AAEELBU39fxcMicxbgZjSP0A07kOEJTO+GWB6rm9WuC18MeDrzbDsfQBBBBQ7JK7OFZy6gdIxRQYACCAAAAEEEAGjc9/AQggAAABBAAggAAAAQSQGxYAAQIIAEAAAQAIIAAAAQQACCCA/LACGhBAAF3uhAoIIAAAAQQAIICAPLIACBBAAAACCABAAAEACCAAAAEE5IcV0IAAAgAQQAAAAggAQAABAAggAEAAAWSWLWCAAAIAEEBAudXDVScBEEAAAAIIAEAAATliBTQggAAABBAAgAACABBAAAACCAAQQACZZQsYIIAAAAQQAIAAAsrGjcAAAQQAIIAAAAQQkCO2gAECCABAAAEACCAAAAEEACCAAAAB5BQAmWULGCCAAAAEEID7YAACCABAAAEACCAAAAEEAAgggKywBx4QQAAAAggAQAABAAggoPhcBREQQAAAAggAQAABeWEPPCCAAAAEEACAAAIAEEAAAAIIAEAAAXnnKoiAAAKKwx54QAABAAggAAABBAAggAAABBAAgAACAAQQQM64CBAggIDicBEgQAABAAggAAABBAAggAAABBAAgAACAAQQQM64CBAggIDicBEgQAABAAggAAABBAAggAAABBAAgAAC8s4eeEAAAQAIICC3XAQIEEAAAAIIAEAAAQAIIAAAAQQUjj3wgAACABBAAAACCABAAAEZ5SqIgAACABBAAAACCCghe+ABAQQAIIAAAAQQAIAAAgAQQACAAALILFvAAAEEFIrLQAMCCABAAAEACCAAAAEEACCAAAAEEJBr9sADAggAQAABAAggAAABBABw4pRTAGzXzPtgWAENrJwRIABAAAEACCAAAAEEACCAAAAEEMCq2AIGCCAAAAEEACCAAAAEEACAAAIABJBTAGSWLWCAAAIKaOadUAEEEACAAAIAEEAAAAIIyCsroAEBBAAggAAABBAAgAACABBAQH5YAQ0IIAAAAQQAIIAAAAQQkGMWAAHrdtopoMwaY3cir/vJC1ACRoAob/qM109iEgEggKAg9bNAGwEggKCY9cPWWQAEbIA1QDCxk6avB1phSFl4BCCAYPtq51acODNjSz8BCCDYQmrE0VOw35ROAhBAMF/9RE82j0sRf9nJIwuAAAEEm6qfCyEcl/0kTMkjQ0eAAIIi1k/kXGheHx0Hah47PdPaaMkwasTnP/zSGQY275RTQMl/nHcDKLQD6OTJcwJoESmTqDF4/sNQdTY7Y3F1pxJYMyNAkCBOn+jHuYsGLROXiUnUmHLazUQCm2IEiFL/nO4P/4ThEaAwYTBDDy0jPqUjATQ4AjQYQAaBAAEE62qgSQGUfnWLJJpLrbfgpz+92A+g8eGfxAZ6tZH2a72moQABBOOufWPo1TiAlt/xJInSBFA/g0YC6ELt5K3f+eY2f6n6CQQQFFPj1aFX66+t+csJo7EA6jo+d6uWsPpnuwEkkqDYLIKGDZk0tiSMTtfyuvZ55nycQgIBBMwXRiUppPYsWLO9FKiQJhWSMAIBBNsxMv+V60LKXSeNX2DperP98kKtLH/8hBFsnTVACKBeZ7xW+nOydELNHs0ae6bfPM2BJ6MSyv4CoI1RRSCAQADl/8ynCKAwsAc+/b53SZTG+PkUWAggKG/9CKBtNVBiANVT//BmroKZcgJlEAIIyhhA6mdbDTQeQOl/EOuh9CmT5lxpIErFImhgC+rDGTRv+iT+wNZD4+dhrqaJPlADIYAANpFBK4yW8R/ekig+A/H2uutNf+JAAFFiOdoAz8qTqMxVlCaDDAIhgABKVEXlCSOjQSCAAGaHUd7bKPHyktGTGggBBMCCbZT9PIpCZ7yBjkM4VwvHGggBBCVhARAbzqNMdVJ/1OdczfcNAQRAZjpp3pZK82kntdf4IJAV0AggAIrZUoZ/IPKQUwBsS2Pqq2w4mAz/IICgoD9uJywAch8MNJD6QQABUMwGmlQ56ocSsgYIoFwZdHFgrvGq9KGsjAABlMjFxrRXQQBB0bgCEAACCAAQQAAAAggAQABBjlkABIAAArKaqk4BIIBgA1wGmvKw6R0EEAAggAAoJcNCCCAoJiugARBAAIAAAgAQQAAAAghyzAIgAAQQDHERIAABBAAggAA2zlVpAAEEwGq44CEIIMrCCmgABBAAgAACAAQQAIAAgiJzESAAAQRFYwU0AAIIAEAAAQACCABAAAFQCi4SjQCCgrACGgABBKPsgc90vzoFgAACYEkmuUAAAQACCABAAEHeWQENgAACABBAAIAAgrKxBx5AAAEACCDIMyugARBAAAACCAAQQE4BACCAAAAEEORHmhXQ9sADIICATLasUwAIIAAAAQQAIIAAAAQQJeQa0AAIIADaLlpSDgKIkrMHHgABBAAIIAAAAQR5YQU0AAIIAEAAAQAIIErIFjAABBAAIIAAAAQQ5IUtYAAIIKAQXesUAAIIAEAAAQAIIJjKHngABBDFYQU0AAIIAEAAAQAIIABAAAEACCAoHFvAABBAFIctYAAIIAAAAQQAIIAAAAQQACCAID9SroC2BQwAAQQACCAAAAEEkBENpwAQQAAAAgiAGS4aRgMBRJHYAgaAAALyp+4UAAIIAEAAAQAIIAAAAQQAIIAoC1vAABBAAAACCABAAAEACCAAQAABAAggyCxbwAAQQAAAAggAQAABAAggIDcaTgEggCAlK6ABEEAUR8otYAAggAAABBAAIIAAAAQQAIAAgvywBQwAAURx2AIGgAACABBAAAACCABAAAEACCAKxxYwAAQQxWELGAACCABAAAEACCAAAAFE8VkBDYAAAgAQQEAONZwCQABR0h+B9sADIIAAWJWrdecAAQS5ZQU0AAIIAEAAAQAIIABAAEFG2QIGgAACABBAYAtYfr9xTgEggAAABBAAgAACABBAAAACiKJJswfeCmgABBAAgAACABBAAIAAAgAQQJAfVkADIIAAAAQQeeY+8AAIIAAAAQSUQ8MpAAQQ9FkBDYAAAgAQQAAAAgiAQVfrzgECCLLEHngABBCMsgIaAAEEACCAAErPEh8QQAAAAggAEECQI1ZAAyCAKBp74AEQQAAAAggAQAABAAggiswKaAAEEACAAAIAEEBAZrlVAyCAoG36RYAsAIJVcacwBBAAgAACABBAAAACCABAAMH6WQFdWg2nABBAAAACCABAAJFb0y8CBAACiHKxAAgAAQQAIIAAAAQQAG74BQIIAGEEAoj8sAIaAAEEACCAAAAEEACAACIHJl0G2gIgAAQQAIAAAgAQQAAAAogcswAIVs5VEBFAAAACCIBiMd4DAggAEECQbRYAAbByp50CYPuZG0LDWVini41wruY0wAkjQADFr58Rx832kxdVJwIIsmDSfTCAFdZP+reCAILtsAAI1lc/GggBBEDB6+e46ZSAAAJgQiqBAIJtMv8F62AoCAQQkCfGKaQPCCAKqHahfQBr+28sHHdeAi6ESAb+Wv/qaAZFmtedGFhjCQWjQZSbESCyVT8p3wSsoIF63CoVAQRZqR8NBEuSNSCAyFn9DM5/aSBYl5pOQgABUDgz4+aqc4QAgswyCATLNNCkDLpqHTQlZhcYGWqa5vX2FjD7v2AdGdT5Dy/xv8YQzIJRPkaAyJhnnAIABBAFlXibi5rrs8FWuMY2AgjyUkvA/P8tOQUggMgq40CwBQaBEECwob+Lvpaqewz/ACCAKHIDAdtkEAgBBFlooOhNCgmAdTjlFJAR17598vjFbzkfpZNy9MEq3rWfaKeYcjACRFY0Pzg5GobiYU30DQggwM9lRvnrBwIIAEAAAQAIIFgRi34gS/9BOgUIIAAKxnorEEAAJDAIhAACABBAsJG/f/oLKAACCICVSbMMyF9CEEAAAAIIgBIwCIQAAgAQQADkmasBIYAAIJlZMAQQAIAAAtg04xGAAAJgCSmXAalOBBCs5e/0/vcKgAACYQQZ+6/RKUAAAVAYNsMjgAAABBAA9JgFQwABAAgggBWwHMV5BwEEQMaYBUMAAQAIIAByyywYAggAQAABQI9lQAggAIrDLBgCCABAAAFAj1kwBBCs/f+0/lcLG2MWDAEEACCAAKDH0CwCCIDiMAuGAAIAEEAAAAIIgOJJOQtmGRACCABAAAGQZ5ZCI4AAIJlZMAQQAIAAgtR/h/SXSMggs2AIIAA/dgEBBAAdRnARQAAUiuE4BBAAgAACoAQMAiGAAAAEEABYB40AAqB4zIIhgAAABBBsgktFw5YZBEIAAcDYX1OcAgQQAMVjEAgBBAAggAAoAYNACCCALbLgBBBAAGyKQSAEEACcMC6HAAKgsAwCIYAAAHLqtFMAZErddEpevkO14ecbvbdCHhgBAmB+tQnPNwQsAgiActJACCAAxA0IIADyr6mTEEAAlERjngYCAQRAATXFEHllGzwAq2ggyBUjQACAAAIAEEAA0OVCzwggAJBKCCAAlI36IR/sAgNg/gYavs5h9e1q//HBvztwhhBAAORVdXoDhZNbola+GFovdB41Q7VaPTjQQAggAArTPSM6FwGqVKuhFSqt6EXvM2ggBBAAReueMY9WwkfvPf+7Ifz6g7ecSQQQADkonko4GbyZV6XarZ/o8Wefdp80/IMAAphb3a3E1+ZS78GNgfpZuIEqnYa6+dfPPvNS+Cx69OBTZxgBBECGimfEbu/B3YU+baU3fPTDh//kD0L4m59+9MmDEO49OLhr7AcBBCvSaIS6y4rA0tGzKnH9tEI4qpz/g79+6uQNd1tOPgIIgKx3z1G/adJ/TLU7WRbVz51bL8bPxcM/vgUIIAAynT73Qzgz8Op305TPwD6xuH7+8GdPdeun4yCY/0IAAZDJ9Intz/n+I/UTvRypHxBAAGQ3fVZSP/3Jr657DywAQgABkNH62Z//Q6pjV0gcn/wCAQTAeqNnd2Dx8lrTZ7x+4uGf2En9dJY/WwCEAAJgjfUzbwPtL/pFE+snHv4ZHfsx/4UAAiAL9pf42PFpr+Sxn2D3OwIIgLXZ6z24u7boSVM/3eGfkTcb/kEAAbBal4df3QnhcHWtk6Z++uKdX4nDPxYAkTsPOQUA2a+f270Hm6+fwcmvi9eeGq8fyCMjQABZr5/BBtpf25ebXj93br14717Sh5n/Ip+MAAHkoH7WbcrMVyyqn+ovkod/zH8hgABWo65+klzZbP30h39aN15Mfg/DPwggANZaP2syu37GI8fqHwQQAJupn3UM/8yc+WrXz/328M/Q/NcA818IIADWVT/rMKV+4uGfVuIEV3/4x/wXAgiAtdbPyod/0tbPyPCPyS8EEAA5teDYz6DO8I/5LwQQAIvb5PBPqnU/McM/CCAACl8/R5XzrTQLe6z+QQABsD5bG/sJ3eGfE2PDP+a/EEAALGhjO79m1s9BOJ/wUfH8l8kvBBAAm6mfFQ7/zF0/91+c+K7mvxBAAKzJRutnwlzWlOEf818IIAByXj9Vwz8IIAA2YgN3PF2kfkYY/kEAAWxSOW8Iv/2Zr97wT3v+a6R+DP9QIKedAoANi8d+9jovD7dbP9OHf6C4jAABbK1+Bh9kon4GV/9MGP4x/0UxGAEC2ILD9aRPGgcpAqZ6bcf3CAEEwCrVeg+aa/jk04d/Tupn+vDPCMM/FI4pMIDt1M86pK2f6Vp3fZsQQACsTCOEm8PPbGzpz1D9TFn73LpbvV0ZesbwD0VkCgxgc/UTu7nZ+kk18DNl/guKyAgQwEbrZx3mq5+pwz+jz7j2DwIIgHxJWz/x8E+nfkbnv/qfyvwXAgiAuWxl+OdgrmJJXPhs+AcBBEDu62fK8M9Uhn8oHougAbZj+ZudJdbPwQKt0hv+GZr/MvxDoRkBAoqcCFvX2OyXm1Y/k9Y+z7rqj+EfCskIEEDOrGbRT6w9/2X1DwIIgI1YeHCrXz+VzmxVq5UufVIM/5zMfw3Uj+EfisoUGMC6rHz+a6R+uo2ycKLcOO97RGkZAQLIjd3d7oO7nYGbVitd/SQO/xzcCOeTnjf8QzkYAWLL6nXngPL9sZ//Qy5dah99Ozvdya8FRfUDAgiAlVvh/Fc/fe7fn/+DJ63+OT+0lLq7AMjwD6VhCgxgo+Ya/hkc9ek30Jkz4ehoiaU/hn/ACBBAjuqn30Bp62d8+GdK/Rj+QQABsF2T6mcp/fo5X51SP1AGpsAA1qLWe9DsPUg//DO9fvb3l6ufme9o+AcBBMACGsMl1Nxw/cQzX5Wd9sv4UoeT66e9/PluqxLai6BboaV+KAlTYECm5fE6CY0lfhcrmPkaWfcTZdCs+jl531DxR46SMAIEsBbN3thPnEQrKbnZwz+XXgpnHm4/OLrdfWb8XqedBUCXbv9h9PLMh/dC2DkKR933DVYCIYAAWLqBYinrZ9Lwz794oz2odPRW2J/0maLuGbF79qSBBjx//p+H04+evP7gXvt9w26/gUAAAbCI+kJXQZxZP5Fr4Vqzl1X1OIbG02fS5w+X3jh/pv/qG3/r3ss/vxPCGd8vBBAAK26gJcd+BtU6G8uil90GmpQ+9z/pzoLF7lTDS+HSzd03zr3bfeaTj9svH9yLeujlG/fPDDSQFdAIIACWbaC0Xmm88Uz34cu3hj5ucPin79knno9efv97/7H5zE+uvPzt5Aa69/VwpzsFFtXP0Fsf/lz46L2T9w33pQ8CCIDNeqXx/ECffO9vX3vmw2a/hP7Ty/Wv77cbqNa7rtAXPvdECL+KH+/deuE/f+/PD595c/DzXfl7nT1fRxPqZ8DLN7q3FtsP+74PlI1t8ABZcevz/asnhjeeaXfP6LavJx75P49ejx++H/0z4pPfjY7L//vly/9jb7x+Xj5+qvtoYPhH/VBaRoAAtqk//DNYP900udPePh8vdm48/xfxk8/eejr5E0X1E7vz0dkPHvz7n33tbmhvgD967L3RBnrnWP2AAAJypl6U30i88Pn6E51oGRqUCW/derb9rydDqF7u/q53f9H48T9qPzr1cfjsTvOZn+zdemFS/Qx+qt0PnhhsoPDOkfqBYAoMUDxbrJ/IPz7V/v09+cRY/cQqe+1j92z7PHz1v0cvX/mzv2pW3g8Pd+unvQAorp87H7WP6Xr1s9+eW1M/lJoRIICNutwZ0zl7tvvq3bvdBvrOh4234j55shdAT3auy3zm4XCn14KdBrry1c6q5/cf2Yve/unTf/LrMFf6+BaAAALYdPqM2NkJh4ftB299uRLitcvvda7UfKYVPj0dPuzMZz33s/D2V4Y+7P1HoheHZ+/u/fqRH5z77Z/cGf2f+eFjv+o/3n/nz518GGEKDGBr9dO1V2kfn/yH4Wd/M/Ra1EDD9RPe+yh89juHX/hVdPzg+ZN1P7cfO31SP+8cqR9IZAQIYAv1c/t2+KuXq/Hj4/DoW2+078nVbaAvhHD3n4bwcHjovfD5J8KTzdEPfq834fXLH4Wz7V1k7Qx6duBmXj81zwUCCCBj9RP5wV41dDLmMFTa/9p7MhwO3Il957vhbO+WpR/u9f6H/Xe7D576TXi39863jxQPLMAUGMB662dvr30s6Kkoj37bfnDjj06efPJ32s8/9bjTCwszAgTkQHxv0VoIzc1/7VcbC3/o5a++3omY9qatvT8Kh60XwvWh30F7+fOkNrp9L1yohR8/1/vr6s2htz7d+Rvs3/96eK3ujwcIIKCA4gCp9V7OdZf1dWTNfPUzYK/y5mHvll7hqS+2e+hCCB+GUOnc1OLCcB4N1g8ggICypc+UN83OoPWHTsKv7Rvt9Hn29Mk9St8fu23X4X/9h+Grb3dfaT1+Ej2x298Kt0M7j643Z/8GDQKBAALKUD+D71Pfdu4k1s9o7rRe2Ku0e+jKj7958uyUAZ4LYTSJrjf9kQABBGzlZ/vFNX7y+tUFPzAD0ZNYPzcfvNAfBKq98GbzzReG6mdeUQlpIBBAQJ7iZv5fQOP1X7b/1TyeFgTxe/7o9frXvpnNkzrYQEvVT2z3n4Wjv/BHFQQQlK9LFh4myU7ozKV2rv+w2Tzu7gLrzwrlQdRA7e/bd1aRaO+2/AcBAghKlj6DT6bMoHy1TpoYah5nuX4a33i99kJ3vKf55gur/NTXm+Fc5zcevTw2EQYCCEpVP4NvTWygghXPmGbUQLeyWz9DtdZZ9BM/XmT4JyqeOPWs+wEBBOonoYGKHj3DBXTcngTL1RTYIuJt7SkXd9sDDwKInKrXQ6PhNMypdi5c++Npa4QLmD498aBIJjMoHvXpT4SlHftJjJjoyZkNpH5AAEFBTB/RGVgUXPAs/ubvzdgI1psbaidAxnaBxRmUXD9zJcv0BlI/IICg+EqTPp2omXOz26QU2OAlgqLc6S4D6pRZvf0rWsXynfHpsHO18G9f9B8ECCCgmNFTT3Ex6PpiYbSm38Fra/vUV8NW7gMLAgjYqtqFEAq33CfFMM/0BjIDBAggKHb99JbC5HQibInrN8aV05A+gACCIotaYco66P6K4AyW0PJXqZ6VQQACCMqhdmFiCW3yWojrjBsAAQTMGgRSKgBLe8gpgIw2kNABWBsjQJDhBrr2DekDIICgZJpf0D0kuNgIV60Lh6WYAgPIfO4AAgjKovGqcwAggAAABBAAgACC4jD/BSCAAAAEEACAAIIiGZ//qr/mrAAIIAAAAUSh1V3zFgABhMQBAAEEBWIDPIAAAiCBG4SBAAIAEECQW+a/AAQQ0OYiQGVmqgsEEACAAAIAEECQaxYAAQggAAABBAAggKBIzH8BCCCgyx54AAEEACCAAAAEELlVr5f4N28BEIAAAgAQQAAAAggAQABBjk1ZAGQPPIAAAgAQQAAAAogiKvX2eAAEEBSQKwCxsIsN5wAEEACAAIK8swUMQAABAAggCqh0650tAGI6q3xAAAEACCAAAAEEACCAINOmLwCyBQxAAAEACCAAAAFEQbkRGAACCMVTFK4ABCCAYESt1j4AYE1OOwVkR6PRrZ9+BsXPlG4izBYwAAFEqeqn7y//shq9bLXiNx1YDATACpkCI7v10/f229VGkfKTR8cAAA7YSURBVO6JZAEQgACC6fVTzAYCQADBoHjaq//g/TfbBwAIIErh5z95/o2fPxs/jhro7dfDv7E1DAABRAFMmtj6nz98/rPPwrl3Hvn40aHnq52jyGwBAxBAlNBzzx282ax8+mk4dar96q9O70QvH/+bg5EMym3xWQENIIBgzNuvV1uHIXw2+NzB+LsVfygIAAFEUSVe4OfOx6ePr33UPv7vRwc3Tp5vNhMyCAAEEPn29uvVN39d6b96KsWfUA0EgAAif9Jc5fn9LyYM/ww2UD4yyAIgAAEEIw0UD//c+XjoDi0PnWm/7F8caIoiDAXZAgYggChhAyX6bjif8pOYDgNAAJEn1VBtNkdHeh48CB980H1cqab8PAAggMiRnfby53sftI8ofaKjrzXPp8loA1kABCCAYDhZkqPlf33l3cUaCAAEEPnx6OnpoZS6qHLICmgAAUTp7FTSvNdB6s9nMRAAAojsqk5tlSefuVaEBrIACEAAwZIOnAIABBD5VZ1zmKZana+BTIRRZBcbzgEIIPIsaQHQ4BawRAcpMqjivvEACCAybfoWsMkZNCl9Kr0HIfsNZAsYgACiJKorypKsT4dZAQ0ggGAdRqbDKs4IAAKITNuZL1eq1bQZ1P30Iew6yQAIILJg+vzXzBXQUxx07psRHzu9J3dlEAACiGKbtCro0uZ/KWkWAFkBDSCAKIOUy5/HLwO9jPvbaiAABBAMmbAA6N69ZT/x4Hqg+736CRoIAAFEhgxcBOjgyzMWAFVT72gfSR8AEEBsRzUDVyU0CETWuc0FCCDIawO5BCKAAIJROy5YaAsYgACCFAuA5rI/9a0mwgAEEGzCqhYAVVe0jkgDAQggyJDVXgRoCywAAhBAkMZq579SMggEIIBgjYbmv2atgG61VvNF97N8RqyABhBAsC0GgQAEEBTNvlMAgABiK6bt/+rcB2MrC4DWxQpoAAEEczszewtYdaV31DALBiCAoGiyOAtmBTSAAKJcxraAZWH+yyAQgACCVcrCHeA3NwhkARCAAIKFrepSQAAggMic0fmvM+u6CYb98AAIIPJht3VjYw20uWVAVkADCCCKLQsLgABAALFVw1vADs4uvtJnsUsBrXcizApoAAEE2WQxEIAAgiwZXgG9yY1gu50DAAEE67XM/NeS9iekz6UNLIW2AhpAAFFsWV4Bvd+rn5WxAAhAAEH2TVoM5LYYAAII1iJh/mttl0Cc4qhz9B8DIIAgA510sImvstM59joHAAIIVhsa3YsAbXH580x7a90nbwU0gACi2FawAvrgxrp/kfurGvWxAhpAAEGO3O4cg48vOykAxXXaKWArkue/trECOgy0zm3fGIByMAJEToJp8jro6touM2QQCEAAwepqJsPLn9fOCmgAAQQntjT/tTJWQAMIIJgkX8M/ZsEABBDMJxd74AEQQLBeB2Hxizpv5nrQAAgg2JSSLACyAhogG1wHiHWphmolVPqvtkJrmeEfAFghI0Csq35GnhmMoYWZBQNAAJF1rdBKfDzqhq4BQACRc+PDP3H9zL0pLBtbwOyEBygea4BYo93onzKwAhogb4wAsXrxYufB+okfJy+CnnP+yzIgAAQQGbXJsZ/lk+iKbxiAAILl3Y/+GXY++qf9r2rYqZwc/eGfeZb7GAQCQACROZeifzoNNHh062c0iyYvi56aRJXKyVGtOuUACCAy6Y3zZ0afurvgXVHHi2etDTRjgswKaAABBLPF3dOvn/OLxEurtdEGAkAAwYKej1dGn90NZ3baL2PxMqDq+VDZOTkm64dO3ECt1mp+bdZBAwggWFy8AGjcyzfud+un7+zwTrHW3eHSOZ/4eQZXQO/shN3d9gEAAoi8GWmdkRKaYLB7oser3Qy/1zkAEECwrO4gUN8n98OTi6RPokuXVvOLHEyf2Q1kBTSAAIIZnt5tR0//GLd7Nuycab+c6uBgaLwn3me/wgYCQADBNsxqoH733L+/xl/FYeelm6ECCCCYZtIK6GleutS95uFI9Jx/cpFfwNKDQIe97jn07QQQQLBeI9d9vv/JFn8ttRAe77ys+b4ACCBYytOzdqtH0dM/YpdeWuDrLDkIVBt7deIlgqyABhBAsBabbaAvO+EAAgg25KUMbd+6Ofw4Ohq+QQACCBa2/+zRKj/b/hob6OZwCQEggGCzNjULZqQHQAABU9vICmgAAQSx/bCeealtbAcDQAABAAggmNNqV0B3P+es8SaDQAAIIPJsoVmwLbMACEAAwTQv5WqsJuUKaAAEECWxH/Z3w+7gEVIujt7/6SJfziwYAAKIrRu/IXzcQAAggCiyo3A05dUl2uol5xYAAUTmjA//xPUz/vwKre+eGEuxAhpAAFE2UffshJ3o2At78RF+urVOSbkMqJ7y01kBDSCAYFB/sXO7eIZdjv6Z/fE/dQ4BEEAUxO3on6iBbv6DdYXXvnMMgABie8Z3vMf1E5vYQCknyLa0Drru+woggGC68+F8FD39Y+StaxoHWskgUBw6teFjoU9kBTSAAII5QmYty4DSXw6xNv0ZK6ABBBAkuhL9k+id7gWBsjwI1Ex6puGbCiCAoNiaU3sIAAEEa7DELNiqtoM1e8ciLAACEECU08RZsHyyCwxAAMESBpcBne3dJHWlF4keHwTaXdXNWK2AZpOuCm8QQOTQpEGgvQ++9IPnH0RH+5Wogc4m5clye8HiBoq6Jz7ix+lviFEfewaAgjntFLAx8f0x/t9jH33j7Wd/87kPDr/yq+4bXrq0mTuFRQ2UcpGQ6AEoNiNArNHgIFC3fp5+pP/M5Z/9fvtft4+SP3ilFwQ6OtrU79kKaAABBHEDjd4b9ZOPKx8+VvnkXO3e79ce/dNQ2Zv9iXbPto85oyfuni99qXdL+j3fEAAEEJtqoMNw2H/18fD458Ln2o8++/Sf/KLdNLU7zzUqb4Tq2O3i40GgwfSJHsx5O7CdnfDeeyevXr7cPhZhBTSAAIJ5RQ0UHb95540Pw4ft109/PnrxX758cqewxtGftRuoOjVPjm6n/HLT1/os2EAACCBIr78YqJZ0d9Fv3vi9oddHGmg8eha9J/zt2xoIAAHENrzwzqnoCL3hn9H6mdJAO2fCXqV7pLC/PzQOdHuso1bfQFZAAwggGHQlXBncFPbow49H6dOvn9qd56Lj2tV/NbGBovoZipdq+0gh6p74SGQcCEAAwdrdDDfjI7QOB9On/w7tlUCzo+beSQZthhXQAAIIVmUwfSLNJ98eaqDq5dlXA1q6gQwCAQggWK/6vNdYjhuon0G3750M/6RroCsbuyurBUAAAghmN1DrcPD5ePhnosT0SddAMxkEAhBAsIkG6mbQvd/E6TOtfqrp8mRj64EgO9wxHgQQecygF8OLMwZ++q4cLNxAy86CWQENIIBgxYYnwtphtPvfRt+nmnqOak0NBIAAghVqT4e1Xo6jJ3qZUD8nFXOwzBdKbKD+TVKXXQZkBTSAAIK5HVxJTp/KXvdYehAosX6GPs5SaAABBJtvoIT6GRQ1UMpBoMkTYf1xoJH60UAAAggy0ECVpEJJ30CTJc6F1Wrdo9HoHgAIINhGA/W1DsP5WvcIS+0I6zfQYW/tdfTg8ccT3qfbQGm2gFkABJA3p50CMtpA1cvdQaAzj3e7J/ZKHCbfXv7rxA1Uq018h6iBXGUFoJCMAJFhrcPxTfJdP/1WePhfr/wL3rw51kC1H/k+AAgg2Ko7A4Vy2EpuoL1K97hcnTIRNr4SaLx+ABBAsFnji4HujBXKeANF3TNiagNFR9Q98TGJQSCA4rEGiMw30CtfnvY+UQOFb4WXvp1cP0torw2qPBVCK26gevNrye9nBTRADhkBohAS94XVzneP71+a8qH1+oT6GWYcCEAAwQZ9P8VOrFca7QY6bJ0cj585eevNO6HxSvtYSLNV0UAAAggy6ZUU1y6ckEEjg0BTNsYDIIBgU76f7nI8/Ymw2vkZGZTUQIlzYf3hn2QWAAEIINi+uIGaN7qv3rzTPtI1UD+DXnwxNJudY7h+Jq6DBkAAwVrMHAQ6X+vOgkUNFB2T0mdWA52oXXDWAQQQZLWB+vcI6zdQSpMbqD0UNDzeY/gHoEhOOQXkzEjinB9esXyjeZJKKbd91b8/IY9m3QbVAiDW7eKsoL/qbnWwICNA5M3gOFBi/YQw3zgQAAII8tFAafaFTRraGbHo9YEAyC+3wiDPGTRzpCdqoMX6Zub8FwB5ZgSInDfQzOdnjgPVzodr/9K5BBBAUCyTGii+U1hs3ntlWAENIIBga0bWA01aHjTeQIlXi7YeCKAcrAGiKBk008LrgQAoHCNAlEnUQInTYf1bZ0CmuMwPrI0RIEqZQWHqbJdLIAIUnREgAEAAQUkkzoWlvHYiADlnCozSN1A8FyZ9AAQQlC6D5nh/C4AAcs8UGAAggKDk3AWMvLBJHgQQAIAAgvWwAAhAAAEACCAAAAEEACCAINOmbwGzAAhAAAEACCAAAAEEACCAIMcsAAIQQAAAAgjyz13AAAQQAIAAghKzAAhAAAGwIVfrzgEIIAAAAQQAIIBgQVO2gFkABCCAAAAEEACAAAJg3ewOAwEEa2QBEIAAAgAQQFAI7gIGIIAAAAQQlJUFQAACCABAAAEACCAAAAEEOWYBEBnhmocggGD17IEHEEAAAAIISsn8F4AAAiBDrAoCAQQAIIAAAAQQzMsCIAABBAAggKBAXAQIQAAB5r/Ionjb17maMwGrctopAMi0i42T+olfRs/YCQ8CCKDI6TPiuHnyJhkEizIFBlCsQgIEEMzHAiDEDQggALJePzoJBBBAYcVLfwABBCtm/gsZBAIIAPUDRWUbPKUUXwC6duHkmeZ1ZwWgPIwAUb70mXT7C7fFABBAUMz6WfIdYDNc4RAEEABSCQQQLGTK6M7gAiCDQOSobNQPCCCAcjWQ+oElnHIKKIXEcZ14F1ji/i/XBCJTRi73LH1gabbBU2K2vpMXigdWzRQYAFA6psAojfSrm81/ARSdESAAQAABABSdKTDKJM0smPkvAAEE5Wog9QMggKBcDaR+AAAAAAAAAAAAAHLh/wMYHPtlHFNh9AAAAABJRU5ErkJggg==;" vertex="1" parent="1">
          <mxGeometry x="1268.0028571428575" y="107.00142857142896" width="768" height="1024" as="geometry" />
        </mxCell>
        <mxCell id="8R89M9rb_P1rOZR24Cu9-1" value="" style="shape=image;verticalLabelPosition=bottom;labelBackgroundColor=default;verticalAlign=top;aspect=fixed;imageAspect=0;image=data:image/jpeg,/9j/4AAQSkZJRgABAQAAAQABAAD/2wBDAAIBAQEBAQIBAQECAgICAgQDAgICAgUEBAMEBgUGBgYFBgYGBwkIBgcJBwYGCAsICQoKCgoKBggLDAsKDAkKCgr/2wBDAQICAgICAgUDAwUKBwYHCgoKCgoKCgoKCgoKCgoKCgoKCgoKCgoKCgoKCgoKCgoKCgoKCgoKCgoKCgoKCgoKCgr/wAARCAQAAwADASIAAhEBAxEB/8QAHwAAAQUBAQEBAQEAAAAAAAAAAAECAwQFBgcICQoL/8QAtRAAAgEDAwIEAwUFBAQAAAF9AQIDAAQRBRIhMUEGE1FhByJxFDKBkaEII0KxwRVS0fAkM2JyggkKFhcYGRolJicoKSo0NTY3ODk6Q0RFRkdISUpTVFVWV1hZWmNkZWZnaGlqc3R1dnd4eXqDhIWGh4iJipKTlJWWl5iZmqKjpKWmp6ipqrKztLW2t7i5usLDxMXGx8jJytLT1NXW19jZ2uHi4+Tl5ufo6erx8vP09fb3+Pn6/8QAHwEAAwEBAQEBAQEBAQAAAAAAAAECAwQFBgcICQoL/8QAtREAAgECBAQDBAcFBAQAAQJ3AAECAxEEBSExBhJBUQdhcRMiMoEIFEKRobHBCSMzUvAVYnLRChYkNOEl8RcYGRomJygpKjU2Nzg5OkNERUZHSElKU1RVVldYWVpjZGVmZ2hpanN0dXZ3eHl6goOEhYaHiImKkpOUlZaXmJmaoqOkpaanqKmqsrO0tba3uLm6wsPExcbHyMnK0tPU1dbX2Nna4uPk5ebn6Onq8vP09fb3+Pn6/9oADAMBAAIRAxEAPwD92KKKKACiiigAooooAKKKKACiiigAooooAKKKKACiiigAooooAKKKKACiiigAooooAKKKKACiiigAooooAKKKKACiiigAooooAKKKKACiiigAooooAKKKKACiiigAooooAKKKKACiiigAooooAKKKKACiiigAooooAKKKKACiiigAooooAKKKKACiiigAooooAKKKKACiiigAooooAKKKKACiiigAooooAKKKKACiiigAooooAKKKKACiiigAooooAKKKKACiiigAooooAKKKKACiiigAooooAKKKKACiiigAooooAKKKKACiiigAooooAKKKKACiiigAooooAKKKKACiiigAooooAKKKKACiiigAooooAKKKKACiiigAooooAKKKKACiiigAooooAKKKKACiiigAooooAKKKKACiiigAooooAKKKKACiiigAooooAKKKKACiiigAooooAKKKKACiiigAooooAKKKKACiiigAooooAKKKKACiiigAooooAKKKKACiiigAooooAKKKKACiiigAooooAKKKKACiiigAooooAKKKKACiiigAooooAKKKKACiiigAooooAKKKKACiiigAooooAKKKKACiiigAooooAKKKKACiiigAooooAKKKKACiiigAooooAKKKKACiiigAooooAKKKKACiiigAooooAKKKKACiiigAooooAKKKKACiiigAooooAKKKKACiiigAooooAKKKKACiiigAooooAKKKKACiiigAooooAKKKKACiiigAooooAKKKKACiiigAooooAKKKKACiiigAooooAKKKKACiiigAooooAKKKKACiiigAooooAKKKKACiiigAooooAKKKKACiiigAooooAKKKKACiiigAooooAKKKKACiiigAooooAKKKKACiiigAooooAKKKKACiiigAooooAKKKKACiiigAooooAKKKKACiiigAooooAKKKKACiiigAooooAKKKKACiiigAooooAKKKKACiiigAooooAKKKKACiiigAooooAKKKKACiiigAooooAKKKKACiiigAooooAKKKKACiiigAooooAKKKKACiiigAooooAKKKKACiiigAooooAKKKKACiiigAooooAKKKKACiiigAooooAKKKKACiiigAooooAKKKKACiiigAooooAKKKKACiiigAooooAKKKKACiiigAooooAKKKKACiiigAooooAKKKKACiiigAooooAKKKKACiiigAooooAKKKKACiiigAooooAKKKKACiiigAooooAKKKKACiiigAooooAKKKKACiiigAooooAKKKKACiiigAooooAKKKKACiiigAooooAKKKKACiiigAooooAKKKKACiiigAooooAKKKKACiiigAooooAKKKKACiiigAooooAKKKKACiiigAooooAKKKKACiiigAooooAKKKKACiiigAooooAKKKKACiiigAooooAKKKKACiiigAooooAKKKKACiiigAooooAKKKKACiiigAooooAKKKKACiiigAooooAKKKKACiiigAooooAKKKKACiiigAooooAKKKKACiiigAooooAKKKKACiiigAooooAKKKMH074p2DqB4GT09aUggZIOD0NULvxFo1pwbyKV9+0rGwPljvuPQfjVFPH/hJrr7It9J5xcqIo4jIxI7ZGR0/Ss3UinYv2bfU3MHOMUAFhlRn6Vg+MPHukeD/AA5N4i1pfsdrbpvNzfvsRfcYDMW/2QBmvGp/+Ch3wqTUfsFro97cxqQDcx2ior/7QDNn8+fYUvaIXKfQYIPQ0EgdTXnHgD9qb4T/ABGkcaZqLQGIDeLmHyyD7npXodldWepwLd2V0k0bjKvGwYEfUU1OLDlJMg9DRSMURipYClb5PvcfWqJCigEHkGimAUUUUAFFFFABRRRQAUUUUAFFFFABRRRQAUUUoViMgHFAncSijvR05NK6GrtBketGCOopSqIpklZUAGd8hwoHrXJeLfjn8I/A0Ms+veO9OR4gd8UL73/ADrUupFMdmdaFY9FPPTikwfSvET+378BsOLO21m7MeQWS0UKffmtbwN+2P8EPG90tjaas1nOT8sV5CIyT7NnH50vaRBWex6weOtHbNUdN8S6Tq0avDcLiQbo2Y/fHqD0YfSryZYAowZT90qciqjOMh8ktwoowcbscZ60VT0E9GFFFFAgooooAKKKKACiiigAooooAKKKKACiiigAooooAKKKKACiiigAooooAKKKKACiiigAooooAKKKKACiiigAooooAKKKKACiiigAooooAKKKKACiiigAooooAKKKKACiiigAooooAKKKKACijp1oCkgsBwOpoDQM0Dk4HX0oIIIUjBPQHvUdxPbWyGS5nijUctLM21U9qTlFdR2vsSdeB260L85woJOM8CsO/8f6BZnZBNJdSD7qRJhT/AN9Y/Suf8Q+LdU1+1e2iu5rJXXBtrYlZWH++QSPwxUOpHoWoL7Wh1WteMPDOhDZq2rRllGfsyHfJn2UVy2qfFq/u4WfR9IW0ifKQ3l84MmemVUfdH1rFs7K00OCVI4mt5ZsZbGZG4/vEmtDS9AuTZ7TBFNvbA3IMr7kVjKcpFc8IqyVzlFHjpJPs0GsQSz3RYTMsJC/MxA+uQBUV9pXi/wAM2r+IW1+4s4YbZ55vI6MANzHpxxXoHh60e21Sy069ERe4h3RAjBUx3PP/AI7Vr4paXC3hDUtKjgCwpo1wFJGS26KTAx9RiosYNJs+Fvi3+1Bq/wAUbSPQNbDpp0N0Wt4hIS0mDw7Hv9K5nStN0nXIHdL3yJW3MzxIJkKg9Sv3vyFcVfXctvfm4e3Z0WQ7/Ifa3TgEHqKjtr63gQXem6kqNGMyQyKYpAW7DsaE1saXsj2nwZ4Q8X2MTT6FfRXa7AVbTJN52kZy8bfMPxFbXhf9oL4hfCjX/Ij1VnVCBJbyJ+7Y/wC0hPH4V5XoHxQXSJ4ZdcshcNCVVJzmOReOPmUjPHrXbt408O+PkI1O/tr0bMLFqgKSrz0WZMH6ZzTWjJUmfT3gj9tvwbrEEUfi20+yy7QPNgBZGb8eRXqvhr4heCvFFut5oviK3l8wZ2xyhiPqoORXwPffDayt9t7p/iS40wcbDcRedAc9t6fzIplpp/xE0K8S40UR6iozuuNJug/H+6CCPyqudj5j9FAwZQ4KkHoVOQaUnacGviPwr+1h8S/Ak39m6jqNw0W0DY5OUPptbmvRfCv/AAUC08KbPxTogcjkOilDgd8HjNWqrCyZ9L9OtGR1zXnXhj9qv4PeJoYp1102hnXI84Yx7cV2Gk+N/BmtoJNK8TWsu7oFnUk/hmtVOLDlNXIPQ0U1XinI8i6jfIyNjjmnCGQgMGyD0IPWjmiFkFFHkS5xnnvzS+RL1yfzp8yZNmJRSCJycBwfxqM3dogO++iyOoDg0c0BqMmSjnpRgkZA4qpPr2kWsPm3Goxou7DEsBWTf/FX4f6SSJvEMTc4CBsk/TFS6kUxqLOh7Z7Um9f7wrzbVf2nfCcM7QaNpcs4U7fMxhc/1rA1X9qTXYi8Wn+HINh+XeXxgdc9etT7QLLqe0+W7cgkcd6ilubO3JFxdRgr13PwBXzf4j/ab8e3dtJL9nSBcEMyXQAXH5153rf7Q/iG7iFxduZnfKoEd2Ymj2jDS+h9Y+Ivi74G8OxMkmrRyyZwwBwqe+a808Y/tmaHY+aNECYUYDKhBbH1r5svfFninxRK6xaXdSSsMsiR5wPoKrHwh4wuZhNqNtDp8BTAN5OBK59kGWJqHdu4Xa6HXfEr9q/xL4xlks7TUbswOhBj+0bUHsQteT3Dah4kulaTSzLLMxBhtULE+nXk16Dpnww0vw/YG71LSpbkEb1a4H2eNj7k5cn0AArM1r4g6rpls1hof2bS4XZlEWnQbHPuXJ8z/wAexSsg5l1OSu/h74g09S1xb29gBztuD+9A/wB0HIH1qldwRad+9iu0d1TczA/KwBHTHINLqHiOGe6ksIg0jSRkP5ZyWPfiufnlgN4Eu9SMUQG2O2t/mbPvjhaTshXXQ+0P2QvFsnjn4TS6A7eZJo19JDbBpSwZSoYDPXHNer+G9Ym8J6YbdLtQn7vFvdMSr7nw6gnkY45968S/4Jn6LLd+Gtd1UWhgiOsW0KK553CE5z+le7eItKFxqQhnWNXaby3iIyCu4ZA9Cf6UlfdDU2jo/D/ibR/EcW/TrlWmBYSQbwWQBiAOOo461oBlK7gcj1rze58JaVbym50aGe3lQuI57RmWQfN93ng4/rSQ+OfiVochgMkeqRKo/dXMeyRQPUjgk/0rWM2lqVaMtbnpWR1zRXA2vx90OEKviHQ73TyTj54zgHv25FdboHi7wz4otxPo+tRS57Ftp+mDVKpHqS4NGjRSBHVirUpIBwTz6VpddCbNbhRQQQMkUZGcZoAKKKKACiiigAooooAKKKKACiiigAooooAKKKKACiiigAooooAKKKKACiiigAooooAKKKKACiiigAooooAKKKKACiiigAooooAKKKKACiiigAooooAKKKO2aACgkDqaMj1FKVUKdzhABlnf09qG0gWomR60HjGe/SsjWPGegaNGbs3IcAYLv8gB9PX9K5qX4tz3bO1hbPHGhxhVAZ/cE9qz9ojT2btqzvJXit4zLcyqg6LvbGfzrL1HxXpOno0vmAsnDszYC/8AAj0/DNeb6x40v764YpcMzsu3ZEhk2j1B7mqa+FfEV/G9xdQ3MkWfme4bJ/IdKzlUcg9yB1+rfE6VtzWWoxKp4jFrkkn3JNZAfVNevVkjtC8jcF5GL49/T8araR4F1i5YQ/ZptsQGP3YQEfU9a7bR9HmsIA13eRxgAKqRSquPY+tYvmYe1l0MO28OW2nwS3mo3EDTuw8xxGZHyOAMn2x0q/b6XoU6pqF2ryPt+RRlNtaMyW9uJIFhlnkC7sx42A/XrSi3uLOMSvIimZPkVBx9C7dPwFNKxDcpbmLPokeoXwknSGBVTAaMliG7fXitKygmKCPStMNvGBseYPlnb3z/AJxTtQs9cjAdJVSEABokh4T3B6mreg6HNFIs2pw7kKlkWIHluzH8K1jqZ3aZkro2oWPiPTLu4VZHhadd+8cZUHp+NbviC2idrS31BTLFfMbaZ8/dzv2/qaiu9Nks7xLqK6ZlhnWSVpFAUK3ykfpWjfT2N+k9mbhd0eJg23BUrlun0IFBZ+V/xK0UeGPGuqaJOTG+n6hPBJuHA2SFev4ViytpV7AsF1YJIpIxIpwRXrH7efgeTwz+0lrdxbSMkGqmPUbVY/l3LIBu68N8+a8Wm/tK1VWuQN7IDnZjBzXO1aRdronuZrqwDjS7h5IzwkE+GQuP/rVWj8QWloQLyxubQsuTLpp3qpzzuVqRrgOh2vsk8zgkfLVqOxn1G2luRbRybBtbbwfrV3RDL+jeP9au2a18O+LklCyLstzN5Mj89djcHB7d66bR/ihd6fdJBrOnByrM6ygG3mb12kYB5rzVvBumXjH7OwLbvmtph82fUEcirVrYazpitDY+I7qFD8rW18fPiJ9BkZUUXQ1HQ9z034oaX4gsEN1qQeRc74Nat1kU+28c5981cD+BdaxFc+HGtJF2kNp2ob0fPfY38q8E0zVvEthdPHfaEkaqwH2jT5toVe+FPBNbFn498KXFz5Vv4uFvJuOV1C3aLBHRd68Zq7pol3TPUrj4aW1xILzw344WKRpCoE6NGQP7vGR+PetTQtJ+ItrN9gtLq0vVA/5YXIZwPzBrzTT/AB94mgBhtNQMiMA6iwlWQH6/571qy/FiZ2Fre6F5bhcyu1sykE+pGKWhSkz1LS/G/wAX/D0zPaXGrWnlttdQzMq/Tr1rasf2svirpFwbW7vblGj+V3cbgB6ivNdN+JNrbH5LqWL5QWSHUnVW46EHPNaVl8Y9OX/SV8Q6hbs6nEUsUc6EdD1GcCi0h8x6haftX+ML50S81+4j3HCMIMhj7ntU4/aL+JMaSRyeLnhQDkRpj8ea8ptfiFbyXccNnrkEyCXcWbTUwR1yR+npW3YeP11NYWV9LRSzARTaWCDzxkg+tPUW/U6F/wBoDxrdSsE+IDCRRkR3L/L+Q9az779oX4h3kq2ya/NNbysc/Z2wFx+HSpI/FtlDIqXGneF/PVdksp075Qc5X8v608fEDQZnFnb3eihs4T7JpwBRh1Jz1Bp2C9upXj+J3jrWmW28i6kOCMhj09x60tzdeKZII1Hg+83HO5zuyT7elWb74maW0YhTxJdKx6C1gSPYOnGBySc/hUM3ibRp1ie/a5aJSWybtiS319O+PrRZC0bIUsvHk0Hnz3EFqvIjD3KpuPuM5pZzrhAt9S16xbzEAzCHm57gY4BqG28X+BfDs7XS2Vpc3LjcGfdJs9wOaS/+NbXgFpYWMcS7sK0FjtUH64pcoaIfDB4defEtjqd8scLMSLMW4Yj3bJqTz7GW4aLQvBen277QxuNUkMjA+hAwPxFc5e/GKCCV57u/XzWfy5GnlVUGB35zXH+Ivi34ekWQ3Xi6e6nCkGHTtOdlHPAVjjP1ppWBS10PVtR15fLeLWtfeOJ9qNaWUSxY+hHOKpah8W/CvhaVbPwvFbNcBsqCnmPkDHU5bNeGnx1fa1Ks1rDcley3s2zp32jpVWfxL4jubWayi8TDTPMzuOnwAMx7Zc8/lQ3YV3c9F8Q63438XX7XUhmaSRSypPLswev3V+dh+Vect4ul117q0t2EsUEvlT7gYPLcfezn58V9d/s4Q+DvEnws0nxRpmk2y3ccRt7y4ChpJJY+GYseec18s/to/D7/AIV38b7nVtODRWurRCdVi+6zd/51zOq+e1jRxio3OZ1HUTcxCG51E+Up2m3sFCKcdCe5/E0y2vrGxCxx4XIKjCY7Z/pXMWniO7m22qxApg4YqBiur+Ffhe+8feNdK8HWUqyTatfR2kCjnBdhk/8AfIatIu8hWufoZ+wp4GHhL9nPSZNTLG51u5OpzygYKhztT9F/WvSddjkufEEVjc+V50k+I1A+YrjJcH1GP1q9oOk2vh7TbDQNNgAsrOKK3gVONkcSlR+bAmkvtPi8QajPdGNWa2tjBGVOD5jEFzn1+7XSkrCehzLTmOOVGvZ/KlZ/IjncLtAODk9c1HY2dofKSS0uJUY4WaOXfnPXH04/OukXwnp9qRN/ZcmcbXDEOCQPvH65/SlXTbK0AWG2kQjJXyYSnPpu7VEr3Fs7mONAt7u3fTRFNJHuO37dZiTb6c9hXNar8NdG857yy0R7W4j+9JYZQk+u08Gu9tLK5lkOJw7OcLHJOzH3GRxxVLXbvUYkKO7oY2AAAJJx796nlu7lKbRx9hJ8XvDSi60/Xmu7bOBa38JDAentmugtvi9PYKB4y8IX1iQMmaCMSxfXI6U611PUdTVg15MjjlSRjp9RU8X29bN7u8tizNw5ikByPcdDQ277le0Texf0n4geB9e2yad4mgct0DPtI/A1rpNBKAILmOXPIZGBz+VebX/hPwrrV759/oFoZB1kRvJfH0HH41k33gRrIpdeDfGlzZsMgW95NlAc9AQeDVKo4qw0oSersewkEdRQeBkivI9L+InxV8H3SWvifS/t9rnKylgzbfYj+tegeEviD4b8ZWpOmz+W+cPHM2GU+laRqJ7i9m7XWxuZ7f0oyPWlIZVxJ/D/ABe1IMEbh3rS6exnoFFFFABRRRQAUUUUAFFFFABRRRQAUUUUAFFFFABRRRQAUUUUAFFFFABRRRQAUUUUAFFFFABRRRQAUUUUAFFFFABRRRQAUUUUAFFFHbPtQAZHr060jyKu4swXYuXZuij1qrrOsaPoVqLnWLhIw+dis2MkV5r42+Jl/qIVdKjkdD8q4GEz7f3z9azlUjHYtQ7nb6r490vTI2livVMYXiZlxuPoq9XPt0rhdd+Jmsamxa0llt4A3ysV5k98dqxbHw9rOquL3VrqRUHzFDES49hjtW9beEy8QvGtCYSBlbgeWjDseeT+Fc7nJg2uhgy3F1rF8ZTb+fNKNpeQ5P5dqsaN4e1qNjE7xhmbaUI5A+ldzYaBJbQqI7mGDam7bbRABye2TyKE8MW7XP2p552CjlICCZD7v1oI06mZpnhhNLQ3GoXMW2TkHOMe3HNbdnomoX9gRaTSQxqco0UR2k/U/eNWjcaPpQKWWixSThBmOV9zfWrdvqGu6vZpaw6Q8S5y7u+0fhTswMyPw1fQhLvWp3cluI7i72A+5A6/QVfTw0kEZnhQlS2I1hgJJP49vetKzsUgtUuRbrNLv2EPyPrlv6VYZSrKv25g/wDcVt2KqyAZbaZY2myO1txDKV/ebOTn3zSS2KQ5QM2+Vs+YsZkx/hQ8WoL+9e0jcocB5W24+gHNPaSUQA3moNwcMIlIx7CrUQIdTvJI7VhBalzEuctIACf51JHcTC1hlvpBEhwQsXP61DYxWyDybWzkhDsSGRNzHnuT0qdtsLEN5UbJ80hkl3Ns9cetStGTymP4iuNNvbSTT91wFnV4ykanczH7mf8AgQqTSJGuNKg19rEPcNZCO8Vu+w7ZD/I1pz3cl3b406ykYsSY7gqOCORx2z0rO8PW2oxSXdlrEKw75DcbUkJUK67WQfRsn8aq1yj5R/4KX+Br54fDXji1thM9us2lXLn+JR+8jb8Qa+SRd7Ayz2rg4xkcjP0Nfpj+058Lx8RfgFrfh2aMNeadbfabJk5LNByCPquPxr80tTVp3MTtgpw3HeueouVlrYpGa2eFbd2UO5PDDjr2qJI76J2fT7948dQvI/HPapZtPhMbPPAGKf6tw2DTPslsWD+eU3JjLP8AdP1qNSXuRz7Z5VurhCDHx51q+DuPQ4NW4/E17b2pgvLjzQDjM8Y/mKge0ng2ie23bx8jxvuGPWoVa2Sba9wOAd6kdaNS1sacWsQ+WsUbhhJ13j/PFUbo2Ut2sI05BtyWkQgkE9PlPBqs4t5V2JGNw6YpsLrbEvcvtPTGaXM0FkO+z2tu7iwUedKuCyrsOR344FWdL1fxDp8DfYdZvY5JAAytKJFJHs4NR3F1YNEu2d0bqCBwarPrtzFMscpjWPGQ+zrijnZD3OktPF/jg7RLPY3gSXcHl01QTx3Ip91421uGE2994b0tgsbJ8qFSd3vmuUuvEN1gXMsKqpbiaMkGooNS1K+uN/23zY1GRG6gk/jVc0ugWR1em+PLG0QvL4PCgIsbSRX7DAH+NbMfxa0xZY20zwvd2RV+THfbwVwODngdz+NcG8lpdI0VzF8nWRGO3k9ORSQ27W6LHbzSRnblg43IwqubuS1qej3HxW0Myf6LpV/LkZw12hZz6j+X4Vb/AOFxeD5YVkn0XVY5YFHyrLGvPvgc15YlsQry3V2jqeYxtIaP6Y7UQWzQR+dJfFgcHcMnJ9Dmn7WK0CyPSX+LVrG4fS9Bkdi6ttlu+HAOcHA680tx8WPEF3cNcwaHp1oxYyp5rs6lunGenHavN5b66aSRRfqOeF8rGOBxVc6neSKY3u3wOm1s5p+0QuU9EvPiJ4weNmi8U/Ym2lVS0t0Qfng8Vzuqanr2sLFDL4kvJ5A2WJvcL+QxXKfb7afKXF7MMHHAJ/lQv2BEPlRykA58xQd1HtBpI6OK1tY5vtY063O1vvyTEk+pIPerD6hPITJBqsSKe3lZ/KuehBmw2Xk3Lxuj2kD8etLHmEF52+VeAW6mj2gW1NuTXdTtFwXQqeN+3GayVu72RHa1n3MX+6B3JqEXUEqsY5ty5+6e1WLOGUt5jxqOPkwalzbGe3/sqfHWz+Fvh/XPDvii4lFrMy3VqxOcSjh1H14/KsD4/wDx20H40fZrRdHEX2KQm2nLEttJ6GvNhagYku7hoQejKM59qjFzaJceT9r8vZ3ji5NZuF3cbdyaHw3HdKFjvPLVePLSPlvavpL/AIJxfBEXvxI1P4lCxYx+G7IixaVeDdTAqP8AvlQ3518/6BZzXN4DHDcyKw+8i8nPA/w/Gv0v/Za+E0Pwb+C+n6FeFvt16Rd6pMy5PmyAEKf91cD860pwaY72R6LBFDZW/nXbtstwiq6/8tEVOv8A30awbaw8Vo32m02oZcyzIeTuY8cfQCtHVNctra/h06cFoB8886DO5R0UfU/yp8N/pcfm3d5Dc4kUyu/lk7D2HHtXStib31E0a21Hfs1m0UOxy8nmsrcdOKt3Fi0snn2Ny8Zf5Nkrlk9qr291ZIYrtdfwhUkq/cH69OlTRXlq8ogtdXVgx7AYWnZAV7pNQSaNNNVQyPtnVAw3+uKhln8URlLO10WN0KEi5mfJT0HNbFtbS2ql0uppCXO1ZWHH/wBakld7ZiZ4WbGC2OcZ71LSA56XVvESeVBqdmrPuw3kxgArVeTRFa8eaK8RIpCMwFSSPWtq51eO2k8htNlnZ3+UIo5B96g1G6s5ZEFldzRFTtbyU+4fespRbegGcfCc08/nRyBygxA11GNuB29ay9Xs52327aTp7SRjzHe1GD+XeuiTR9UiZ3fxAs+QSTLjKioZvC2oy2n/ABLdQsypUklotz/hQog9TlRavbKr6hoyRvKC28yMmB7nkCsPVNAttZYzWdpJZzr/AKqaCYKc564H3q6++XUI9PXTxdzzopKSbrI8fSudltp7Rw66o7CJiFLxbccdKOXUpS5dUWvD3jLx74fQi7jXXrKEYnaIbLmIf7UZ6/UV2nhnxj4b8W2/2nRdQV3/AI4GG14/Yqa4ESK9oZGvZI58ZWaFiCD9azZ765mYTX0oMkJ2fbYf3U4Hr8vD1Sk4s051P4tz2TBBwRRXnOi/E7xDolss+t27atpsZw+px/LKq/8ATRexFdRofxN8Fa/D5ljqi4B288E961jUT3IcGnob1FNilinQS2syvEwyrLTsg9DWmj2JaaYUUUUCCiiigAooooAKKKKACiiigAooooAKKKKACiiigAooooAKKKKACiiigAooooAKKKKACiiigAooooAKKKKACuH+IfxJ1vT9Ul8K+DoLZbqK233N1ePhVz0QDucc10HjjxXH4W0KS5iZGupR5drGR1Y9/wAK8un8E+IBp66xqV0bq6Nyby4Mc6l3QIFYY9Ae1ZTbbsXH3VcrXN5qPiSUW2va9caldry8drH8g9ST2ra8KeHBFN9qmtZGj2lYlUElTnnJPSruiW1lpUb2WlHzFkADSiNSBjsT2roNMnaACH7eGctnyj8qAHsMferFxZm5tix6Rc3UhhsdlsowWm3hiB9ema0rHSNEtpXuBdC6mx81xcuGVf6D8KdCYHkazsrL7aMjeijEUPv9au3VloZlS4vIIFMYwI5X4Q/7nc+9O3kMpJci6lSytrV704+9FHtjUfXvVqTQb+9QW6Pa20OcsIIyT9C1Amea782xBkjhTd58hxGp9ML1/Gq0Nxrs90LlmdUk4ZlKog/765/KtFEDWg0m202LdFbqpA+d0j3Mw9Nx5p0U8AQyX1oLZ/4DLNuOKq208U6tLdahJMd+FWINtFWLzSYpSZJJQVyMJ6UfIAiudL1GQ2kd40h/ukU+GwmS+F4kziOMYMCpgH6nvRAoicvaWipsjwjuMAt9aVkvNm6SZPm67DkUcoEzsGGWdAmfnOPun0zVYvMrhnCRKX+SQHIapLe2CSeSrFmkGTIx4T2pfKsTuaGNnMfHy9DRdgQvay3zGeS9O2M/vChwGoTSYbZTeW9vHuLc+dISG46gmpYYf3LPFGUbPzIp5NRytIT5BgMJ++of5iMegotcCO3eCwheLzXk3MT5kAyYyTUVzI1reW11JKwVGKTSSjBeNhwceoPH4VJDd3cs6/YWkKHPmtJDjn6Ut3YAwyNe3InEn7sl4uEJ+6wPsaoCfEPky6coDqsQV45erLn5h+KnNfm5+038Jp/hV8YNf8ODyorWS4a606Nxw1vIdwA/3ScfhX6KWEd5bQob62Es+TDcc/MSPut+Iwa8J/4KF/BC38dfDNPiHYaa8mo+HxmZU++9ux+bP0JzWVROSGpHwdNb3doSWTe+cMrdMetQFI7sFYkiyPvBRU91pd3bosCaiSrH93LJJ29xSS6Z5ii4+yN5iDDSQy4B98VgD3M6aCHy8RSNGwO1vKfHWqMmleIFYxpF5sY5Rhg4x79a1Zo7mKT920chccIY+RWVeXNvJdG3aVYyv+sVhtNA+YrNMYXEiqyynoWQ7Qe+c1Ab4u4g1G3D/NkyxjAz7VfuVuYtstvKGXt5nzrWfqMM0j+ZcW7gnoY1wKnlDmJZ4rOZdkF2ytnpKvGKjMDwRn7MxUsMOxO9T+FU5LYyANJO29OQrPk4pJGvI8T+X8pHcYqXoSWraW6s4nS5YNHxlQeCK8o+Kn7X/hP4VfFzTfhNr3hC/K38VvONZt5FEVoJZWiVpATkICpz9RXpsupeVgPFkYzxXnvxX+BvwZ+Jut3fjHxpa6k91d+G5tFnW0uAq/Z3YSBwMH51ZdwPtWkfdHFczLXws/an+HHxp+Jep/B7wl/aX9p6ely7zXNqIopkt38tmikzhwWZcD2rWt/j9ot34Eb4iaFpmpvp66ha2ZiWIK0clzGHjd93Cp8wUk8EsPSuB8I/Db4H/s+eLtD8a+G9M16bULHRToNrPInmRuhkZzJKFXIdx5hLfStDQl+CNt4D1Hwjonim/t9K1WaBb55rvYwQLKI03MAAhxIMH7xRR2pSV3cGrOx3svxL1qH4n6b8Nj4LlRL7SG1P7bPcqxSONkSRViHOVaQBvpnvXG6h+1Bd23w9k8cJ4NUJZ+MJtD1Swa45iRJHQzAjtlUbHpJSyeMvhj4T1Hw9reqXF3a/2B4ZKaTqW92iSwnaKLdM+CWz5S59GDdsVR0PTfg5b6TdWGhT3Fxb6jqlvqd0FuHcPcxuNpUsuBuLDI/uhaOWPYfKZ/xJ/a78QaJefDTw/wCFPDemTXPxDto5473UJnFvaI20sSUGSdyn8CK6T9nX4peJPiZbaxqXi/VNPe907UXs7jS9Ek32tuVAKsSQHDEEHbXP6l8LPgP8RdF0HwQ+l3ci+FkJ8PmzuZLe5slBVjsfbyB8pwOOa6f4ffC7wz8M31fUvCHhjUIW1u/W61W6l1J7h55uRvIOME1WlrA1Y9DLxuxmWcI/dCP6dqkh1KAKwbyhj727gk/WudKTxusbW00QUgu5fGfXINXLRbiSfzZLWOaPGU34YY98VKVkCRsJr1tIojisUfZySJgcfnRJqP2xN8drk5/urkfSstlmectDZeWGHLKuAPYVe02yundVhcgHoxI/rTE9CSOSCZzE7qGzyMDI/KrlpCg+U3W3HRlGcVdttEOP3kMeT3Qj5vrirFnptpaO5ktMqepp3QirM15bxb0uYXTHUYJP50aVc2srCT7I7vnAXAAJ/Cr11YWS2wkiIYsflQik8GaHrmteJLTR9Gt5J7q7u1gt7fbnc7HAA/z0qlLyKSue/wD7DHwkf4o/FCLUdb0hl0vw+yXN4McTSZ/dx++W5/4DX34jpKA0hVUNxsBA4UjIIP51w/7PXwdsPgr4B0/wwHja5P7/AFK4Rcebckcj6L0H41211LN5CrbRkOvz4253HNbQVlcT7DbixWORkhTZsKiTEW4bVz09M5pLyEz3DySlvJmjCLE0DYx7YqdNSiihaecqs0gG8Fs4FUrfxZp11dmC1eLKghdxxyP/ANdU3YlaCmztNNEklxeCSCRxGsHlZ/z1qyyRiFYodPiCqQFDgD8qTTZwpJmsnyx3bkYkc/SnT3UJmJ8tgOn/AB7H+ZoTurjFnimlhkhKrGDyWWTcwHsKrjS5rhSk2oXExkXYWTEeE7cfnUk2rWj7PMLoxOxWERYDHrjp1qz5sQOfKuSwAO9bdsN9KTjdgUF8LaTb7NPSaVWQg7zId34+tTWlhaW6q7hXO5jukXrT2ub65k8yNUhUghmmhwwx9adHExRbmW6jkdhhA4wD9KaVkBFdS2CQtMsMb9tkcKjd9SetVraWBLZRFpk0qs5G2EbdmOeeRxWgUmjlECIVU8lVPGanmi8uMxrFuJHO8jA/OlygY11P50I8ixuY42PLb8FT+LVj3Gm30lyCsKyBT8i3Hl4b8j1roZ4lnt286724GNiwLtH0qkkOlzhZYkuAFQq6JEgH1qXoBlLpEUMzRXtnbI+dw82PC/TIPNZl14Fj1/UHvdM8uEqcYjdSScdge1bUsULRiE3DE7vkjvbUE4z6jtWc1l5GoKn/AAjtuEkJCzx3ZhG7r3qWrsZzcNi2k3b2dzHcWV0qsDPJDhHPbI6EGsTWvBGmX2oObmb+ztQlkJWeCT9y2cYGR9wk468V3gl1dJJzp63yvu5jvCrJH/un+IVS8Q2mr3kZY+F4fOcbHuLW3w3IxuI6Y75pcutx8zRkfD3xvf8AgJRpmu3X2nTVeRSxbLxOo+bGOqZ7juRXqkUkciLJAymNkBRh1YFQQf1ryi98PQR+HUaZljkuJJnlVh8wtxIQgH+8QT+Fdf8ADbxX9vWbwxfoFubKNDDIv3ZoiOAP93p+NawlbQLOWp1dFGR60VsSFFFFABRRRQAUUUUAFFFFABRRRQAUUUUAFFFFABRRRQAUUUUAFFFFABRRRQAUUUUAFFFFABRRRQAVDqepW2kadPqmoXCrb2ybpAPvZPQD61M0iKrPIyjCFgzfdQDqTXkHj/xrH4512DRtNvtumW0jGJBE7C6kU/MW/wBn+77VMpcpUY8peRvEnjjxMuuXdmY7BmARM7lt1A4yP72OtazeGV1i2ms4tTUQ+W4WRj5ciE84Q+h71N4D04y2iapodw6y7WM0QTb8rfwbT0AzjNdJZaNbRWlssFkFWMh7m2YeYeSeh71G7uTKd2cB4Tluk0yOKSBJJYsWuQ2UUJxnPfpXaW2naTaLCbtjLcKNyyoclAf7g5wD9K5bwTLA+r3nhu8LW8aXs02ySHDHPI/Cu/hhujD5CXduruMFoRhsD0p2RmTWbMumiNA8eDnbcxYIHoTUcNpo2pXUs3kpI24OC33Vx6U4aZYxCO8ZJp5EH35uxNTXKSRLHBbRICx+Z3O0A/TvSsi1sR3MVqpX7ddhEBzFFH90/wD16hto7LUW8yC0keJR8jzruwPpRLpxhkQ6iWupfXYdqj2VeMe5qaASKqixtEVdvLPMML+VMZZaOAqGBLIvynYu0KfYVGIPJ2pBIhJb5zIGyfpiiE3KYkkuVKJyShyM0skZjZgbrllyvs1PQBY4BErMkBY92foPzpsYmLsrSq4bsnVaeskUSeVJIWRhtZG6MfWoUkCSBLd84PJEWAfx70aAOawtbUGYAFpDtMsknI9gO1Tl3c7QpAHGGpXH2hRIf4Gx1qvJGEUxlJHBb5lj/rRoBPHCsjjcflVvnxUX+ieYN4HmmQ7TvwAM96LhRbqsdlag4G8jztm3/GoZra5kBhN2ixyEGZBF8xXuKQEhgsZSLZZdzEklbY/KOe9LFCs9q1v5A5+6w9qLee2sZGsLa0ZiQMxKMbhjjP4UitE0omjuIoyPlaFduV/OgCBP9BkJuQ2ZfkEw/hbt+lM1KztdatbrRtdVJrW4tmt5VbqVYYcH3xgipb6exu4pBJOqR7djscZU/wALce9RxXdq5ggvn3SOu1mHQOvRvxxmjS1gWh+bP7Qnwq8Q/CH4maj4Mv7aIW0bCbTrhh8s1sxyv4jOD9K4B7ieytgLrR0n5wZEfH41+hv7ZfwFj+Mnwzl1rRrRF1zRlae0ZF+aVOrxk+45r88tSgvtLkkRNOLQltuyOfJVx2xXNKLRVrle5jsdSCQ29uQ7Z+Rp/mH4Vl3enalb7pFQTYfaYpoN5x7elac16bhUS+04QuBn/SE+bA681DLesmJxLK8TH5Ijzj8aglmJfacWLi2gktSuPMBbINNu96QxfaIw6ldoMMuGHviuhnu7p0HlSDYBl1Zs8VQ1GztJHVzZy4lGS8Azs/CgDnFgNrIy2+sxuQuBFc8H6ZouYriK0Zr21eMyDAYSbkNav2PSdRZrSWPiLgPJHtJz7VWm063sVMEMrqwJAlRvlwO2KNAOenaaF44XISPOG+zH5sHviqdzYRiZo7W5nOxsBri12qB6V0TWEN6fMaNZSfmz5PPFPi0/TplM01yfnP3Z1wqe9AHKXlgt9cQLHCZJIn3rIqb1jcAgNj6Fh/wKqMvhKx1SC2sr7w5ZPDAn7gPFl0AJ2R+wBJ4ruz4ak8pxDBBKgAcYXcW99v4VmS6LFNfgziaNM5Jhk5B7cUDsc/ceC9IHlwajoen3QtrYxwxX1qWCxHLsvUZAIJA7Ek96ht/hxoyKYV8P24jYhYthcgbeAeG54AH4Y7VoeKI9ei8T6PpOmXouLe5AS+8yyy+PMCuQ3barKfxrUfS7J4IlZ13NGBBcRyYDA85H4H86B3sZtl4KtPtPm3FrDA0efJnjikVlyAGOcnqAB+FaX9lz2CiO3v3G8ADbJuCntn3xipo4tRttltFcSGDdhRIm8H8e1Wba6tfPeTyY0YNlpUbjHTkUCbuQwQarb4e51neo+VluV3KatJexaemGsIJAx+9AmDUkYW7mEyGJ0bkMqYqzZ/ZvtBVYoiwGMGXbn6e9A07ECazpN9NFaS24BU8bEyR9a0Ibq3t/3dteW+0nG0phvxq1baLokmJZdJm3kd5Vb881cii0jToSVKzGQbfJNqMr75FAmNs5FLpCdgwOWVctj2qxLJZyyEWmrMSn/LOSPmqJ8P8A2+PfZWEwcn5WV8HP0qK1triCP7JetmUHBzCcqc98U7aAtWWzbtc3AuhfEKeiiP5ffPp9a+wP+Cf37O8GkeX8cPENkwLgxeH47qD72etwfp0B74ryb9jb9l27+Pfi2PVtVimh8N6ZPv1C4AYLdkc+SinrnHNfoNo+m6VHBDBaWX2a3ttsdrZsuFijUYUY7A8flWlON9R3sXLmeG0RrieBZYdowQmXkc919DVW+0++1CaKYX9zbqyZl2JjAHQN79arWVvfaxrclw0zSWVvLmHaeGm759hx+dXtQtp5mIS6uJFcMTEm7LNxnGOw4xW+nQm9yW4t7gQsUgiH7sKJJmzgetUD4cmlkkhjFrIpkBDQHayn+9+FXEs57a1i5iYjBVLliCx9Dn0qKO/u7uUNqmnSwbX3M9pL5g46fQUmrgQ6faeKbQbSbe4JkIEzXBCbR1OB1P8AhVu0bxGN322+tyCx8tYrckBfqasWiTzslzLLDJ5jnZIo2soPp6n1+lK95ZWcpSW4cM0hRneIk/mKErKwD0Vo1LzMzMcYHb8qiNq/2s3Cy3JyB8gPyj6VH/aOm3O+3huW3qxHmfZyf51Kjb4xJaS7w3yl9ufr9KYDpYIZV3X+nq5PDAqDkHp1pkdlbkhfsyDyuI02qNv5VDe2+qCYG01Mxw42P+5jOPy6U63tmglWSWWSQA4DuRg/gKAJ7iC5lUiGZFYKSRsz0qiz6/bo0l21ooJ3GVX+ZR24wa05WiLh8DJ6bu1ULnX9NMpsbvUrRAAd/wDpHIoApLrF5Nblbt5lAfG+OBzkfUgVJbabFM/k20CSmQ5DvuBqSabR4YoknvI2STIjcXAO786LbVdMt0aS3SXKMArCRCKlq4GNqnhPTE33sWnLLOkgDqkzAjnqAetZtzqGt6bILN1kmst/zpIfNI56e30rt5cTyiSRhlf7pTPPrUV5o9rNaNGlkGdm3KZVUg/lUtWYHB6n4pSKZpNKvrqzfcUkH2JmTPuDwRTbjxHqtzYDUf7VgeOCEgm3PkybiQPnX05rr7uDU7x2i/smBI2j27l5JYe1c1d+Hra/mgjeZPLklJmhWDy3TYC5Yt3GFxj3oAyNUtpHwcpI1lGiXBPK+uSfbdn8KzNbsLnQ3i17w5byC4tZ1eEvc4Aba3Lj/arSuZrjXbkWdvD9msvMMsrodxljILKD7ZUVbv7eXWbT7PfSQxmW9zemNMGGEbeB7kClYum7PU6nwN4ut/F2iJdsIkvI+L2CM5Eb+3sa2a8judST4feOV8UWdyy2skxT7HAuS0GON3vxn8K9YsL221DT4b6zffFPGHjcpg89vwrSEuhU4rdElFFFamb0CiiigQUUUUAFFFFABRRRQAUUUUAFFFFABRRRQAUUUUAFFFFABRRRQAUUUUAFFFFABRRXJfF/4iw+AfDv/EvWObUrtwlrCe+eCfwpN2Vyox5nYyfi14ubWLpPh1o120Qn+bU7iI7ikQ6rj3NZegWltoMLeHLHT47iZ4hxcwvbSKM/e3nhx7DrUHw/8HajLcSa01nez3Mrn7TcwTQt5soP3MHkYHFdlqfhaxu7SPU5YpPs6tuG4DzEI7NjjA9qz3HKV9CAWDTf6PqUNsCibYGhl8p+DyQO9aj2TJqFt5ctzLbNL5cOZNrqQMEZTj/vrn1rOs9StkF1f3EkgikX5AsYmjlHYeW3zD6rU9klpcWi3GlB7JGwLqCGIlAOx2HmT6HpTMuUwNdvYdG8XeUJ7ho7hRlbg72ZR/CrdjnrXbaX/bF/p8MWq6jHbedgrHC+Nv8AsH+9XIeNvDl1pcsGoaZc2tzGyggeRhwSeWA7V3Gg2sEGnw28CKEMQLCMYLtj7ze9VzByheXVvahre714QlDuWNAIifwblvwq7FcJd24EUckxVf8AWMpUD6k804bpvuiNWVcK+d2fwqv5U8wME4lmd8YZVwkeO+KkoWeOG4Qi5mEgKhfl4hQj/a/iPtTfLItwbic/JyrGMcf7sY6fVqW9u7SF1S7Dl1bOyFXCg+5FVTdx3E4aFzNNKu5LcsyRoPcj7x/3qCeYuRJFChmhlklIGHnlYEj2AXj8qgk1eRFaKxsZ5NjbZJpINoU+mafFfzorbdTDSqceSqBgo9OOKswR+a6vLa5IHyvt24/DtQUZN5ceJMrK8AiVH4IZU3f8Cap47e/udk07JndkCecShfoBxV8RxPIUnl8zcclvSmm5sRKYnuonQcABstn6UrMB8M7xRiOQB5B1YJtzz6dqdJcwrHuvCif3SetNZJXTcFIB6Arj9KaXtrdVMskUUxf5GH3mpgJEROjTQTRsAfmlMTkr7DHFSSQwSlbxY5iyjCo8hjz7nPWoy9w8rLH5ki5+YBcfrStZCQFZS0cTHKRo2SfXJ+tAEkTPBb/6VfRylnPQfLu7D8BgU23ghuVMcRgUNJiYJBuLH61K8p2AcRqBgIvQUyZ5VtWa2cBm+4zyAD9OaAIQtgszwHT2BY7HRbTkr6/dP86qTNbW0nlZdiEIAdNrtH2IGB0PHTtV6wmliYpd3EEg7BGlJz+PFTTT7ipEUkeG3E+opJ3ArWZmS2V7ibeSoyytn2wR9K+P/wBur9liDwzPP8YPh/GLawuJCdctIrfcsEp6TY7A96+t4rOG0mkjQKVlmDoJOsbHnA+vX8aW5htNVM+lz2LXVrMjRXtrN056ofqKU/eViuY/KSS/u9PRYZ4InDoNjr0b3FV5L7T5gZDZgNGMFkuthyfbvX0L+1x+xnqHwyurzx/8Mru5bw7IxaWwWHzDpzE5w8f8Uee/avnp9V+2j7Bq2m6ddCPhflZXJ9QwrmaaFbqyqhvhIsOnX8Kb3+5ewbM/j/WtG5tNRlDJLa2quB/yxAbdj361l3lgZZFb+zLyKAH5kcm4H4Z5AqNRDFLt0648vcMeSzbd/wBPSkIffuzJt1Oy+zLjO9oTg/nVVbG11FDJZm2lMf3EYFR9fTNWY725mlNi91cRoP4Lh1kRj6DNRXWlSSSeeLl4GjHCxQgMwPqB2oAyrrQILmcSRRSrOuTse4BRj6DFDWpsbdZprIo8g2sXXcg/Grdz4Z8RrMklrq9hIqZZ1QeW4HoR606xW+TebkQSpt+eC4g3bx7P2+lAFW3f7MyvCQzZ5IONvvii7m09mMsxj35w8jxYLD61fOm6J9n+0SWVxbRlfmdF81Ix9O1MfSNJmt0S1u1eJ25nkVm3Af7A6UC1KS2sF3G0cM0M0QAYxi4Xp9DVK88PyTS4jskxI37ry3G847YHatldJ0e9LvaWFvLIq5R4LggqP7209O9V5dKu7mJYPtlw6Fskzx55HpQMpx6RGdxl0y6SZsK2xyg/3SOhPfNWodBVJGe2kKlVxJbyIhIpBo+pxs15Fq00LMMRi5jKA/7rdPwrQtdX1K1hS3u4YZmQ5aXIJ/EjqaAKMelTRDzFkCofuD7PkA/VelRzrqKzLIHtyQMM4cgqfoa2m1HTAGm1C6MHmY2sgY5PpgVaGreG57fy4taE0kZCsHiKlOOnPWgDCjvfENnOk2opFc2u3iSWHBJ9jWgLnTLrayagqux+ZS2VUVuHSNJvrNJLORZW7ovPP0rL1DR4VlDTYglBKu7w7VUY/iPpQBO9kxCDTp/OOcoofGPcV6X+zn+zj4h+P2uNY29rJaaRauH1XWZ2ykS9wv8AtHtW5+zZ+w14w+Lkdr4x8XEaT4ZyD9oeF4Li5UdfJjXjn+8etfePgbwR4d8AeHbbwb4U0KKx021QCG3jOWfj7zHux6mqhByZfLZXKPw88E6L4B8LWfhfwzo8NnptmoFhAv3nOOZZP97rWvcXMpkOlQSumctdXQTJQHqR/IfU1clvrcXflQGNZVGGJ++oPpTreK2V1e03FkJyw6nI7102srEdbkKaRbrDGiTOnl5CZDBVHoVHUnvUq2FrOrCYuI16Isrg59h2p0kk8yxLbn94R8wZMsR7HtTb2BJVZFsjuUDmL5nz6n0FK9gFLoVCSQMrEYjRmYs4Hrmq97ciw2u1uYjyMm0Miqfcr8y/hUdtKiB1XViyoP3xWZePQDP45q08l0777cRXEflfLsuVEi/XHUf4UcwBafariDbcS28p4ZwEJB9MBvmHfrT9SjglgP26A/vAIzHjYPbnt0pNq3bJHcWcqhVB2RJuRjVjLSJ8q+WxUh12YO0dqadwIIoS1soknjCjGyNH3Ffqe/SpV2hyFfPFQzmAMsckkkW1Cy28aZYqOhFMQm6hSazkuYmYZIuUlH82AP4UwLREbOqSjg/xGTaB9fX6VQuJZ4SZbqR8btqssLBW/wCAAHP14qwyamgDzXNoVBGGaFlK/iWOajmUXZL+YrMjfLKqZx/hQA0yLKPMFrNcTJgebHDtGPQBicfkKYW1Mxl7PQ44gXw0c0q7vrxU0kM+8PJq9wDjqPmB/DtSyLdSoI4rtWP9x7fO/wBj8woArTmV5Bb3FvaAoMee7E4/2eOlTLZyiLcNPjGSPkjnbj8DSxPaQFVvGUSA5DRDCr7Y3Gkurq6YCWF7eQAkxktgk0APWZ7EvK1jH034jfcx7dO9VrXUob+Xy00a4kidSUmaDIX0Ge3Pas2/t1lcS6jaW7yyjct0L8bo+egBU81KYEV/tn9tXMTIAC0ib8j1+aPH5VLVxN2NBLq002FIJ1kgikUt5Ih5Zh941z2qNb6t9qmErxeQogl+02/lFWZg0hA/iyoAz710M0K/ZlvLrUo54jgpJc2a7Qvfoo+lcL4m+332mi/s/LR5TNPISMeVGDtG0f7uaOUE7mdqWrTarNdR6VczQIIImWCNSRBDkqvT1wTVy9ty+msmm7FEKoA0kbAtJkEEZ703wh4SttR0SW+k1FoyTEZ3T/WSDny8f8B3V0eqaZHY2MOmAo80OTCVXLICQNx9+cfjUtWYzmNS8JW+oWl1qlzKQ87YhuJuk0oHzZ9gcUvwm8Vy6Rqz+DtVvkeK7bdpzHvIOHQe3P6VoTINY0+O1vr5V02K4aCQCD97KRkgD23AflXHeJPDGp3DStYeRA8cm+3kR+Q684Ueh4zSWjuaQfRntTFieQoAOFA/h9RSVh/D3xinjPw1b6nKiJdKvl3qJ2lXgn/dPb8a3K3i7ohqzCiiiqEFFFFABRRRQAUUUUAFFFFABRRRQAUUUUAFFFFABRRRQAUUUUAFFFFABRRRQBX1rWrPw9pM+t6jcxxwQRFnJ/vDoPxrxbQ2uvH/AIrk8c68N8ErE2ccsyKYkBxwvcAVufG3X5PFepr4C026WKztWWTVJQeXJ6Rj+Zqz4c0yzsbcWNsBdhFXcjRpIoXHQD0qPiZr8MTe0m1a0kxoQeW3gXMVxZFIpFJ67v749qvyXpuY1OpmKRZMoLtE8iUAcYIPBP0pbTS7CC2EtpZRwI53xvFH5W0/xVa/tWxWJZJ7NbiO4k/1kYVu3VmHBPseaRhzGBHoV40wXRtWRo1nEu10AlAYZxgfePPXvWhbm2urjyb5huigP2kwxbHIB43r3qOC4FndLqVkht7aVVTzTANhI7bRwPoOlWNbksSq3jQyI8hOZo0+XPYhew96CjG8eXBBt1jsjHCzLsuok2xY/hGOx9q63wyrR6aEmuN8pAaQH1rkb2/uptK8jxA0pmQ4guHkUAuPujJ68VufD/Uk/s5rd43mmWQ7lhUNt9yR1oA3Jobsu9wNX+zQ7ASnlIcmnwX0Uw+yreCRlXcWIwo/LvT4oIblVuJ7ZJsuShMKrgfU0l1FaRv50kTEhl2ovQflQTzFM2VhDceddqZdyMJJ5znA7ACkjme6RYYo0NvKcPFCmXYdif7oqrdXl3fasI7ayl8tR/q4NpcnuSX4UfTmrlrbWdnbvNCZSjt86GcuM/7IPJPvQFrllpHV1tkgO9BuEFsUPHuTUNxHql0/2WK4itkJyWeEO7/7II6VEZXvbtYbYwwIo+fy23OD7n1q5b2KWpd2lZ3ZuWbqaAvYi/4R6ykUi8K3AIBLTuzEn2Aqw8floVjd1UpgxL+7x+JpY7mNZHSRkIT+Etnn6VCFurxmuI5tkqnGEXG0UBzEtvC0KM7wrvbrvl3n8+9K4WFHKBIZD80kqddvpUMNteRo6QXUtw7HKtLLsUf41IA0qSfalhmJTY4SPgLQUQCOGe5KqZUITIYtnrznFXPL+YBZneXaMTbceWMelQyy21siorJGwAEUe/bvH070JC8q+ZPdFlP3YQvlKPw70AOja2ZfJtbhZSpO/f1PNOFxHCd0yxxofun3oSLau0qkUY+85XCpSxBLi3aOSfKufkMfQ4oAjlvLcDy/NE/mdVQLgfXNCNZNGqW4jAB6RYx+lPRmRTCzspHG4PgtUaiF42jmt5QFO4NOisPwJpJWAdIhQMx70I6LIJlgXgfvHHf/AHqNqSfPHKckd1A/lQY3SPc5BO4chsGtLICG40q0vY5IZY/MjmUiVLhQyuh6rjqV9u9fIv7Xv7FNxpST/ET4OaaJrGNWlv8AQIIiXjPUyQg847le1fXcl3dQguttJLGG5/e7mH0H8VJDrOnXEzW0MxR+qecu3n0x/SspxUh37n5GLcxR3YntL87FPCykko3fIP3TmrE1/evII7jT0kUnd5iTecCP93tX6CfGz9hP4VfGG+n8QaZaxeH9cn+aS+sYwYZ2774m4J9SOa+XviN+w98a/hw8x07wv/atkrHM+mkSrIv+595foOKwlTlEfKraHi8l5ZtvR7B4xjkgVDFcWq2zx2V6Qz43o+3GB9a1NQ8M67pU8tnqtnPaEHHkMrKy/wDAW5qudKkmt/Jn1OWNT8u25s8ofx7Vm3ZEmVePdwSqZtHguIJRuZ0cAgD6UkF+l4ALO0K71wvzZOPSp7vRo7KExWOnSTqpyzwOHGf5j6UukCKcMlvPPFOD8qyRlT9MGlzCujLnl1Qu9vZxzWZjHzSSSYA9/wAen4VXs4tRhL3jnc4XcGjbIB9P6/jXXy2zSlF1TS2YKvzTH1NWD4ds5IN2nIj+WuNrnA3fw8/iaOYLo5i1kS/iBmlugxjy7W6qWLZ+7g/55qOz1LUIJSnmyywKcPHeWRAX/gS8VrSeEW04SrBDdwIw/eMkm7cepA9RknimwrqENt5MemFoXTduEmCF6cp2PFHMhiW2oXZiaawvYIo423Mv2kYYdNuG5o+zWs4Z5NNkVHHzPbsMDv0HU1TGnWWofKg24OB58Wwf/X+tauleHLxyFtNKd0Tlgj4U+9Ckm7BqUTDYbFmju53j3YVJItv/AI9V2zMeZFn0KB42XIHkcn3z3rY0DwWPEepeRpuhXc94v+rtrK3aY5+i85r3b4P/ALBHxV8ZypdeNYpNB07Ikae9KvcMD/CIxyn4801du1ilHQ8U8JeBbrxpq9p4e8OeE7q8u7k7Y7O1VlYj6joPU19cfs3fsFeFfCjxeLPinBHqF5Ed0OkqzPbW7dt46ysPyr2b4TfAb4e/BvR/7M8F6J5VwwAu74xqbi4+rnoPauxEv2K3a6lvYkQAgbsD9R3reFPW4XSC1ggiKxNbqqxKBHEoA2rj24A9AOlQTXDvHtsrhEeVuJZE3Zx2Ud29u3WmWsyXabrSUNakbmUvl355Jb+Ee1WopPPTkKcMQCjZGO2D3rZWSE22MggWMFEKgdSAvOT1z6n371MkMbgiU8Y42/ez7UBRAwJjU5/vU9LlZA6hArdBs6kelAhhuI3gFoYd8o5AP3qQJ55R7i5uEXcN0e/AB7VWW0Mkj2rXaCMHKwR/ez/tVM8VpbQBpmQMxxsnfGCOhHvUtdQJrlVudzyLyGwrDa/H49KqX0ZgUmW7iKswULLEuMn2FQW+oWs6NJZaqZULlAXZSd469fSrEEN/9qhWfyZQisZZ5EBY5xt246dD+lJK4FcS4DWuo3ssiIdu2Cywsfpg+/8ASrc2l2SWCJNdXDkOCivMydfpTRNcRSNLLYvGMMz3KNu+Ueq1NA63UK+W6qCN6BnK5HY4HSqWgDY554LgRvYyCI/8tvOd9v8AhTBJcyS/PD8mfuPu5HrywqSdblAFEECk5ZHkkdsE9Pl71AtrdXsQhkvm3btztCjRgkdiDVaATPaQhhMqBQOioxB/RjTbm4ks4WbyrmRVGSh3MDn69KfEhjXyZp2ZXYnAbJX2rNv7y/mvRDDaho16LJDv3/T0pAXTd3sgTy9InkUoCmZRg/gfSq0V1YXU5tZrXbchj8s21ZP94EdRUCyTMpu70DzQQI0kAQZ7AZq0gmJbzrb7RLwzhZEyPYUAV7+Twzd2x0+71KOdoeMNcYcHPb1xVtINMuYYoYojONmFuZV3Ee9VzPDqAIGnJbzCXA86Fc/mKtbpG2eZfwh1BDIJcZGfSgCW0hjRlEaKuxcBkh5+tVntLVL8wyyXkssxwD5rhfxBIH5UXS2rEM2vS2x7BXyKjvY9VsLRPs2qQyB1yJZ+h9qCHuZnjrUo/DOhSz6daSvKziJFgdj87HAzhj3rkfFamzUxaugY+Uu6zTcUjTG1Rg9RuQnHqK6bXtM0aLU7a9YJBLC0s7xQXGVnKpnAFcdrqXT3sWsXk5mumkL3GPmhEeMKo/3QDn3oKWxf0Keb+z0isg63BAMrTcqpBGJH/u7RnArcu7251SCaewvIsvsjDSDLP03yEdwV3Y+me1UfDtjbSaQly4E0UxM0nmHI2g4VAPTn9K2be0tILx7VJIopPILltmI7ZWHLH/gOR+NQ9xmfpum3d5fLYfaI1tbezUTXQbKJLkk/N/EcbR7ZxUWuQfaNGW3n0qNJZgVaBOyg8EjuD978K6WO2s3S3htllNrBB8kHmbTKnaQ/rj2qnDZvO76pqRMvmK/nRy8pIoHyZPpjNIXU4bwhq/8Awr3xslpfyRR6fqrBGcReWUfs4HoSK9UdcvvdsEdF9fU/yrzXxl4STWDPq7C5RfJkaxHm58pVUHOPTOAPrXX+APEP/CSeF7W8kbEyRiO4Ruu8ADNaU5K9jTlurm1RRRWhAUUUUAFFFFABRRRQAUUUUAFFFFABRRRQAUUUUAFFFFABRRRQAUUUUABrG8eeKofBvhq41uZgsuPLtkJ3ZkPQ4+lazMkKtPO22NELlv7ijqa8r1zUpPih4imliSZdNsXxa7pVUOc4Lfj1pN2NIKyuxnhbwveXNomragiO7ytLJkczFjkHK9OtddYaDEsIaSKW3lJ3SzI3zMB2Dd/pWLp2j+KdGV7rT7l4ULqpmkG5WXttHsOprqNPgvr6dL2K9/fLlZAkwKTY7475qU7GMpXGw6hb2s62UEUyxP8APHLJDhWJ5IKHjPuOaZfyCxZ30uzezFwRmSFlZCfXaeefzqcR2+qztpuuWEljJvzBOGUxHB4wD0PtWpcxWKqLHUZYZkCfJJMRkE+gH3frSJMOyfVbq7+0QLDJ9mQyC5jDRlhnBBh7/WujjFlqcW0xRsiDYVAwBiuc+w2GjTu0Ejz+TkrGs+JVJ/uSDnHqDwa09N122mt4ZZXkhZiwaSSHa0b9844wTQVc5zx3YR29+2mw28YhdUKxk/LIobn8Qa2PAkd7BpoJlaOR5TmKK3UkD+8W7Zqj4ni1wWUksEttdQyP++DplcA8BW/gI/WpvBWppHD5olcOH+fc+I+fSgOY6hCFd2lZI3U/Kd+4498VFc2yXrCUtNIvUbZNin6jvVllCL5hhXOMGRj196ga2NyrWUtzgEZzEGUhfTNAWuKsEYtzJ5iIqHAij/maVla5thLZ3AT5sNKV3A+y+lQWGn2FpbeRYxzbTISWmf8Ax+9T7tG8mSeOZ4Ej5E27hvw7UFFW+1S10SNbea3L3Lf6pFj3s3uT2q1pIu5o2m1JnMjjKRg52CqcS6esqoNKd3ZtxlOPmPrz0/CrbRzoyXmozgRIrF4Q20MffPU0E8o2KG1jmltonkkLsCwT+H61O0E8T+TZLHHvYkyDbkf7XNFvPZGNZNiornKMRgmlS4bz/svlNtOcSKODQHKR20DJC0t5fyuCxRXLAKOfapXtraCBYBGp3n7u/d+lI8kTqYvN6t0NSXK21qgV7hI27MzZ3fhQUMujBakSxRojsAidEx/U00rcXKiWK9QAfeZYB246tzTBaRTTrNcMsjH5VxH0qWVRM4jkj8wrwQXwo/CgBFKLCbjzDclf7mM/pxUgnJiCsrDvhxzSsDGogji4PJMQ+UfWonka5YC1vIXUcSKpoAkjmVUKvJgU1ZhKpjgRW9yacnlrPtkuPmcbfLVen41HJJbPKd0EuVBDZXIGPegB9qHWJ4rm2CgdGFNZZkkx58WwjhfL+b86fF5E0Bmg2yIhGCDt5oYytvhurYqDyrbs/rQA1oWhXG04PzDPamFFlhkYtFPHKMP/AHhT3kluD5QOVUYBoWaGEFDcxqwHyxv/ABUAZdvOsSpJo96EWFyjxTxbkP1P8P1q5FPeFyktoYW/glgdWU/n2pSDPkw3cCnBGYEyQSe9VmsYGuwltLNHMrcyLkjIHUqeKLt7gtDC8e/Bb4e/E5MeOvDthe4G1ZWtVjmQ+okXkH614B8S/wDgm99qlkufAXi5DE54sdQyGA9N8Z5/EV9H3HiPUop1t3sXmeTOJ7JgGGO5jf8AmKu2WpXV1AtxvLOeGQgRP9eepqJQjIfPY+BPEv7GXxf8Egxf8IFqEsStxLpkonB98YB/CuM1T4b+LoZxban4R1dpIzhPtGiyrsPruFfp5tKkOPMYkZ5xkfXFJcWpuYXbaEkx8mUBNZOhruHuvofmJb+BvGmc/wDCO6ncqDh0S2lO72Aq3H4GvppCT4Q1eEqmTHLpswCmv0kt9HITL38u4n5lEKgZ+vWmXOn4BtTbyFXAxKrklTnr1FHsH3D3ex+b6fB34ianOr6N4a16cv8A6oQ6fINp/wCBdq3dG/Yz/aB8RuHT4cXZPV5buVICffOen4V+htvaPYyLFeXUZWMZDRbizjHTHNORpI0NxauZQ5yA5MYUehJ7/wCNUqKsPmR8YeEv+CafxC1Rku/FXiSx0mNRlkjxcu3tnAFeseCf+Cd/wa8MtHdeJtR1LX54Pmfz7kRRN/wBOT9K93lvoIH3TyQ4CbmDOQAfqflP86zx4mt/tKw2sDXLz8I0OSqEepPX8KpUooOZjPCXgHwd4EtU07wd4UstNTAyYIFVj7+v581uM4j3iS5IULgk9Mdcmq2nQrHEZJkCzOdzs7AAn+Z+lZ8cPiC81J1ms1FuHA3XL/LjuyoPw61olFdBN3ZZl1Se4ZJNKU+WWG+4f7rAHoKdHCzz/arm0aU7i26ZsJEfYd+KntoZIl8uSXzCU2guoUZ9gKaL03H7mRI3CHEkYHOfWgluwyNbATxQG42ozMVgC4QnuasPHIIhHEqoBgqyfwinIolUq0bhU5GTnP0pY/PukJ2MibuNw60DKGo6BDfq87ancozD95Iv930FPhfy40WKNxHt2K2/e7Ae38P+92q5IIW3QtKcrzkN19sVHBEFl+yqixK6kmJE5YepoAZF5FtbNG6pDzkpEckfU9z70CLSLxFEzswU5JZsAGnJEbCNhp+njoQCDj659amLukXlLbGRdmZFjUbh+B4NDAgGm6IlybuGxiDsMMV+XzPb3p9tCUfyvNDBTvWFF5A/un1xWe+p2g/0eyDod42LLE0Zz352kflipop9UKbmvLYENzuAP6jrSWgFmWzt7hpJ0tH8yQYIIGFz9aZKGhBjXUUiRECBogu4Hms+9vdfe6WO01TT0J6qImbd9cEYp8cxt70LqaK7Ec+TaPjPtyaYEkd9d2Esdo179pR34LE7+/Qf4UNeplJJoZUkRjw0UoyCe/Y0+C8e4vEjWzvA2SQ3lqqjHTnqKnW9mmZkvAsEgcgLkvgeuelKzAiube3vJQiypGSMyYhBz9c9KVLj7M6pFFAUzhnaRVwO+afIZYThpZG8zjekcbY9/wAKbLqNoQ37i5ZosKzxW+1m9x600A12vp5CtqwEIf5ZIghGPb1qO6S905zFd2aSxSHLPbw7W/76XvU1tdadOH+y2MqnOR8m1mNMOr6hMxWSwMMa8M5kO8foaBN2JbJjcgPBdOx6KJEKkexB6/WmNp0zSPJNbwb16ExFyfy6U2GeRIzdmO8xnAAc7j78mpbVmvMB55I0Xhlmkw1AuYZbRWksJWNGLFsE7CAD9GqlrsFiyC2murJnXK4mQLn2yO9T3cmsWfmTWMSspOQBHncKzLxfFVxIwvbqxKNgpE9sVKn0LDp6UBa5huq6fC00lrcvvtn8lCP4mdentgGlXTZAxga2eIzhQqAfwAjdn2p9raxaPdvql5ayRRoEitrdrgyZkOScZ7ZGa2NLs2Sxe7vHf7XJGjrNnGWYkgfktS3Ya0Jb+MaMkFtDYF2uDttw65VTkbUP+z1b6qKLD+ypWL6uy+U0zLJJIuDcSKDkn/ZBwB+FN07zL21nn1C4lmeGVtwRsseMYX35qPZcW7x6zqr/AL6cpHp9mw+YnPUj2GT+FS3qMXVNYlhupNJs0kknkCSTupxhCDhPqRx9M0+GTT00eR/t9wbd3G52XiYjknP9z+Ef7tVtQtLq3up7RWiEbzYubknlyf8AE4/KotcMZv7fSxau7wRiea3H3UzwAfYgGgDKvbjUb/UDHAJEnnOWTs0P8I/3SM/kKreArmTwr4hktnRTYX0+xtp4hb+Aj24P510scglMmu6lbrETGUiK9WGOFHstY/iyTfp4tIV2KIgbZ0HMr9Qx9h3pW1uaU2k9TtgGBLSjDsfmHv60tYXgLxUfEWkLHeSI97bgJdFOhI6MPrW7kV0RakiZR5WFFFFN6EhRRRQAUUUUAFFFFABRRRQAUUUUAFFFFABRRRQAUUUUAFFFc78RvF8vhXTFg0qISajeNttI2fbgd3P0pN2HFczsY3xf8Z3MCjwJokbyXV4gN28JbECZ7/WneHtB/s7R0jl07zp1iA/duCuD0ziuX8ODUNM1svqFy/mXTZlu3YuST157CvT7TSomthNbal8xjUNM43Kfo3rUwvfUJ1LqyM+0nkSQ2ZuPJMWMRzqyHPsejD2rRkFlO8N1dwPuBPz242EH1IHUUl8mpSmWDWLSOeMHETRHDAdiT60radJdaci2kp/dnpKv3fcHvSMjQi2GIrMzTQquVMiBhk+h7Vl6j4fSGSRI5nWOYxv5I5G7bnJqL7VdWF/byXMsdzbyblmMSlGQrwCQepq3ceIokMVzLumt5UIVRHggjvxQBk6vbammnSSW9pbjeAfNjYExgfxEHnn2qLQPFUEzfYdU/wBL85FFusa4IGOuD2q60a+IktrrTZIPNZV3ZPzDDHC8f7PrVXTrDQWluLa8iaKUSNslfqASf4qCuUi1nS10O8n1fRb+Y280gaS1eTcig+g7A1m6Xq6Saut1pNg0aMu0rIPljPqBWnLb3fhu3c211FexRsAVEg3oo4/Ee9MVIoNRtzYbUkYAuUkBKZbBYerUEnQ2VtdNDHOGaSbyzj7RJ93/AID2q/MZA6XO3zJkQ/vIcZA9MVT0+WFninubnGSRHs+4SOoJ7mp31eE7XityEDAGX7oHtQVzFmOKfId4yv8AsntQwt2lCTo77vugj5QaFuIpo1m4KgncGbp75qhPrMEsrWlgr3Ep4Qo+FY/3Qe1Acw+HVrWa/Pkb0TeUMh6ZHYHt9KtiQLP50FtweGJHFVoWS2tlXUTFbkt8kAGVz3GO596WO6gMgtbOBwpBzKrcfj60BzErW1vNIrrFudXw0rHhPYVYUJaDEUmP9ru1Qx2qGE27uigcr5Ywfx9aI1iKCVDvJ4MbjG73AoKCVpPMDgy4Y7fLYKM+/NOnkt2nWOTaZn4yME7RSMltGwWBo8npGD0pZ/LiwHjAYelAA9pI80bQ3AEQ++GOCaS8jhmVoduyNjkrGOWPuacGj+R12ct8xkPT6VCjSSTl7acvEhO5lfbz7+tPQCR52trdZJ4S+xgojh5Y+nPemLaXPnrI0cEYYk7VX5gM9z61KskpfDYyOhAxTCt5JdfLLtSMcovVs880gJZHEB3urEfwmoZbyRYwZLZ2UHd93OKSOK5SRmnnEqg5ijPRaf50s6ECQ4B5VRQABLaG2E0luWQnzNqpyfwqBtZ06TM8dyqb+BuiIb6VZkneKVFEUwDEFyW+UClljzMEtwFDkkttyDQBGtuhX7ShZgwwVc8c+1Fra21ox8iCIeoqSfarbVlY44JApBHuG7BPuaAFRLVWzGAGPXb0pxd4pVkDkZ44FNjZoZgASPYIDS9HL3M+VzwjkKKAK9/ptvqcqyXNuJNp4Jbb70xNJ+z4MGCsZZkjlGQcg9D7VPJJbqS5jVVAwHLZHNLIspQxO6GNVGAh+bP+FBLVykbTVvJC+eFxGhUwsQZGPXj0AxUz3N/b3McaQSNvkIadyPlAAO7A9en4VPIjMA7xDCjA5xgUyMp0jGBnkZoKIr/V9MtJGkublY0MJkdjAcIgIBOffNMe+s7eZ2uL1GWNwFjjiZinJAPHtirFxAkuA6Ag8EEZyKe8bCVI47cEM2WYybQePSgDDnu/tMTBLq7kUM4CiBlJI5yOR60NNePavp89nqDBVUxvgDGfTk81uuiSIER5MgcZB60xBaRfNJMM/wAased3+cUAVbXSY0tks3tM7DgGWXftOAVP0yTQ1tDG6G9vXZ8BWWPhc5J6CrjFC6MkXzZ+RQevvUFxfxRjZbAynJwsUgJU5HWgCSyRpQ0ivCV3HbtQjH1zRPdMMuu0gHaz9galUMYWE9sNzOQWVs8e9RzSRWkZRJPlUdFXJagCIXjYaNwQq8u8g2KB7GjT4LtInmlmjWH/AJZxQLz+J71JayRXUYa4tHjBHCSnORUhlLArGoAFBLVyCVLxrfzXSPapyYwuWYeme1T27ll3hHXcv8Z3bR7emKZGzxv83ej7PDdS7pAw29GVsYoKGxahZ72VXd9n8bJtVj9aYsFxM8t0l1tMv3tnPA/hz3zTbizgLbLjfdOOUiYfKv1xRJYXt+gjubkxDqYrdtoIHagC6qtABG7oF2jIJ6UxJ4o5eJo1U8bi+CKZAYYYtltDtXoQ3t9aJhCExdKm08AORjP0oAW6DQsIlSVlJyHUBgaatnLJcNLCInhWM/OUYMpPp2P/ANao1jnmhNlqNnEsY5QpKcn8ulMjsbhpY5Y7yRY1PMQlOPb+tAE6JAkfkSx4UAHzBF9761M09ur7FZQwHO0YOO1Vy2rkiN5o0VmO4AnIA6U6KERTlpL2ZlHXEvFAFiQnC+XMeeuKbJC8YErykjuMVDd3Efkqsd4iBidu5uTUiwSSKqYjk46k9KAKjWtrNcMLXUXlGMn/AEhvl/Cp7WaCJBIl3vRM4BlLEGm3U0mmnbFCGLcYRMYp8VxbNv28Khw42+1AELX4uW+yWc0omZtyT7MqPY81IlpdyIzSXUchVsFNhwx/M0y60zTL5Gk2sqlSNzNgfSq+m2CxWfkRoUjj/wBXEtyeg+nWgTVxt3qOn2F6tre3T2zYziO1Yg/jg0+CWwmkNnb6yZDMc7Wwf0IGKfBqEZie4RGcnjy5SSMfU1mvFpspaY6WyvGxZNkmUIoFyk9w0emGWS+ljlQPkSiTG32qlPdW14jTxW00dwT1EmQRjr+VQxSadOGh1jSZUi3bsrA2zitiU6beW4FlJE4jj4baVAHoQaBpWOSisoLjVpFtLmW48vUQtsCp4O3JyfzrVk1GC8u4rG2dtwnw4H3Wxxu/DP5mq7m5gmku7aZIpZrzbDboMKoyuefcZqbRbOSLWVMlmiSRA7UHREyTuJ9cZx71D3GbEkCWwW0tnDRxzEzM7Y3HrjPr3P0rN0ZL/X9fXWbm8aPyJJBFhxhlAwSD2wOM1P4pjaHS4tBjkAeeRRvB+4u8HJ9ypOfwrNlsJbKyTStNkmWFmG6QDnyQ/Kj6nBz7UgNRWsEuzqkhWWziCm0iL8yPuHze+D3qtJNHp9z/AG7qUDTXN4gVoV/5aZJ2ge+Bj8aWyhgl1O41eYYtbZjHDGOAOPur7HqT6ioUmt9SvJNQulMb6fBiKSMZ8rI6gfxN2H1NK7AtXkMk0EVjcWcWNvCl8CPJyEB9QAc1T8TaWjmKDT4pWmkIjgfOSq4O5mHYDGPxq3o1tfajNb6vqTbUSP8Ac2bnDjH8RPqevsM1Tv51uNZOm2126R5LSy25zvb+IA9lXp75pgtHc51ZZfh7N/bsiN9mjlAuUV/lZDwxx9SD+FejQXMF1Ek1tMHjeIMjD+IHnNcT4j0iLWNN/s1ZWkg2NhV6dejfU/ypnw98S6jo9w3h/Wl32sTqkVwY8CPPUA+g4ojJqRsmpqx3lFKx+ckp97kEetJXRe5jqFFFFABRRRQAUUUUAFFFFABRRRQAUUUUAFFFFABRRRQBDqV/FpNjJqt+4SCKMscuOT/dryKG41rxb4ul8XT25mW5cRxwnkQwjpj3rsPjKk+o6dZaLb3DRQyTlrgY4cfWk8Iw2FhGlpBsgljT5RIuQ646giobuNtJF7QLL7LHcWcq4UptMkiAhs+lQTz6zowAu0lFqCFhzwo96kmGoRXEslpJm1YjB9DU9lf6lJcNYahIkyPlVguY+AD70nqjIn01dZQPdeZ56y5J2cqwPbNSXOrRRBLG+lnsyf8AVxheCfrTJI7/AMJRu3mKlmSBHas2QhPYHt+NWhJZ6mRHMomYKSkLNmSM+zdDQBFdT2DpGt9HIhj4LYyrZ70yWza3V/sli0tswyoibbgj+IGmTxb2jBDW88YA8xkJR/qOxqCO61vRr4m5ZAJSYx5ykK2eeCOBQAWVl9teG7S+VGhl8xfJwsgJGcP69eatGUXNt9k1f90WbDTQJ+7J7bh1zVLULW1upSz2iwGU8LnIDf3tw6+1B0zxLp9u9xKPNiEfyP8Af357FR0PvQVzFXX9GuH2xagiI0UbGK7twfmBPHA4OfesjRIbq31s2V4hhYIJWZTw2Oqp/vdKv2Wu6totzDavFJHasDu8/wCdSP7oPal1KaOe+TU7VQykfuMDBT1Un0HY00rkm2jyWbPK+D8uQD8+3P8ACB2IrStmL2UT6gu5N+5Ny/Mx7ZHasbSdRsnWO2aNYdqhkLtwhHPzHua39Nkl1PdI6fuwMguMZ9xSAZqkFxcxrFJLFBCw+bzPvD8BVW1vYYQbTRbR5ZVbPmlcIvv7Gr+zTVUqxUHOQuck/X0pbU2l1G7pGY4idpUcAn39aCuUjk0+3hjW/vHBkiOfPduQT2AqX7XEAsawAswyqKPvilubaK4gKJGyOFAAHIx+NOitYooAtuB5qj5pn4NAcpHHPeSyNGUXajbmkP8AD7U+6sbPUEEN2wGeVCvg1FPdwadAZLuVY0L8R4yz+/vUel3cuoXUt43yRrJhDt+8MfpQUWLXSrCz5soDuHUu2aJ7O/mbzobsCP8AiiCDLfjTri4FuC3lhSVPzMCVX8O9DXcz2qmztS7Y+Z5eB+AoAEtIfNEkiByBwJGxj6UKbq6nEcIiijQ/OWTk0pmZoHffskiT5sLgHvxmoxdwwRq95JzIONw3FvwHSpswIbjStUe8eV75BFtyArHOe36VJEkMCM9iWMxAzLIS27jn/CpnjNwyRtEUzyCW605bwsfLIXjj5elUAyGNFAd2BZlKkAYGT7U8eZDvij2qwAG7Az0pJ5I1UyErHsP3mPWkUGUiVWCMfmZ0GdwFACPDewxn7RqDEOP+eQNQ2+oWrgRyXZJBxGGhKnNXZ0tZZ1uFU5I7nFJcIpUEWynJ4JNACqixfedFDDLtupJGt4iHYsIyerSAj86jktJVQFlUD+6eabMjSqsE0ClFGQe1AEbXkfn5WWJgp+bDEnHbpU6FHO9ZWMbdEMeR+tR4kWAiGxjCjAUZAyafGi/aSJbZBIFHzoxKgmgBoghZzGY1KnnZ0p7RCKEmGNUO7oTzSAXRuXgm04qFIxLvHPvSyr5kzxzqGC4KAKc5oAdHLuLwTOofGePSo8TQhTAwJc7WDPgY/wAaWQmGUTPF827H0p0yNdKwb5Vx8wA5A9aAGynEqoXWNVPV+ST7e1BkVpxhCcEgHGM+9MQQRwvGjPIdoGJPTPWmx2phmD27rFg5JJJ3A8YGaAJikblJ/IZpFHXcemTSy26xqLlo1+ds4xmozBDYsUe6lIc4w/Y+lShHKBCxIA4zQA2UM0oILhcfwU22szDMz2tomSOSCMn6090bYw2KRj727BFMiijtY/NDy5PXJz/KgB8zIUWPG1icsAaWRUiKGOTDlsAYqDY9xmRI2YgjAbgUn2mE3rQBXLAc47H2oAl8t2lCvN90/NkUs6RRuwjUyMRwqtg035ZWWMxMBnl2OMUkxgRz5t7EQOAB1oAI438sFl2k/wAJOSPxp6Rg5WSNWVuMdwfWlSKXZ5qSOVHRgRg1FIjSkh5X5HG2gCaRpmBW3Tax4EgbNNK+WFSa9Mjn7zbePwpIRJBEq20JY/xFu1DLuI2ptA6c0APk8mFPMkZnJIAJ7Gq0k2nw32JmBmAG5xESOelSkrMPIZN2T90nAqM21naTtL86MMfKTkGgCSdLgyIsfluCcsT3/wAKhbULg3QjfSSEZiMpcA5xVi4SC6tiRKwZ/lGDiqRtYbA5luX6hRuQYz9aTeoE9zcXzt5UQVFJ4VjzUgiGxldMMMYI71K4hlfZcR8qoLfJjOemCKjQTEkyb41PUcfhQBDc6hp9u8aX1zGBvC4wMjPpSPdx3kf2ay1iBgqncIxn/Jp4tpZ5MXFsuM/K+0McVThurPTZZD/ZEkEYcgsYByT34pgW4o7uSMR/aW2ED+DaePepLu281t9rIyrjBRcLz680z+1tLeAIt5Eu3szY470qXNzdo3k22FYZiuN+7I9hQAye0luLdYJZWMZYb0Ygq31x0ot9LtbNROltCPlIG4EY/wAaje11nCJJdKy9SZY9oP5daljledMz2sZUcBo5MgfgaAGsJIykljOkgQY8sgbc981j3L311fTQNoLRkMDEIyQrVqahoekatAJZ7Vo5FPyNG+xvrxSLYalahWtNReUAbQtwA2Px70AULzdMDFLp2pWaKPvI2RuHcYNLaMZ2ieO5fEg2gyNkNj696s2zX2nxyG80F2kYk+ZaDcCPoTxUd5cabLbwjyII3VslJo2Dj8qluwGFFHLDPPq9w/mlb2RbKFh/FwAR681tQqul2kbajIst3KolljHBkkJAC/QGsFRHaK1xd3DKVuC0Ss2dg/vVsQ20X2P/AISnUJzJcMhaOIj7qjhfzzmpeoEepWF5HHLHqNyskryHcV5JJ5wPYYFVYbyW7AktpVS5lXy4IyDi3QcO/uSOn1qrYS6lreoyzx33+kSwbPlX5YkHJP1PA/GtCw0wx2EJVVJkyv2hz1IzgH0CgH9KAJLS2867t7PT4gtlGhjj38BiOjH3B/nV02unaHBEjSGR1YuVDAlpe5I9ugHoar32t20NlvsJSxMYjt0VOFb+KU/UgY+tQRwXOnRJHbQpNe3Sl8SKfkH8TZ+hNNNAOuNQlimd5GjYgE35XlYkP8KerHjj60/RrfSbfT5mksmV5gRhR/q1PKr9eOaoW9jcX+o2qWcZjhViI0Iz5uD99/f0rZ17UI9HhwxEl1IcpFGvGR3+tFrgYMsEl0q6TZoyTO/IPHkqO5p3iKHy/D4sbqIE4IjYN0x/FVy202aGIXEsLrLes32u6kbJP+yPQdqg1i2XV7x7BQiRwwp9qZVO5F7L9TT5QTalcn8A+JbnVtFitdYjEd4ibcZ/1iDoRW/kHoa4nXb+5t9ctby3h8iW0iBaEDCYHbPqR2rsrW6W+s0vI0AEq7iM/dNXF2VjSSU/eRJRRRVmYUUUUAFFFFABRRRQAUUUUAFFFFABRRRQAUUUUAY/i6zS5W3M1spjUsGyehxWLGhsoxcCQGALsY/wj+tdhNBDdRvbSgFX7kVz+o2UtoFsJzbyZl2k42hs9PyqeUzk2WdE0Rol+12N2JEZQGhfpz6A06SOeyuXTXYT9lLYDHntxVjSYruxaayuLfeyAFFzwfxFaFxBb3NqIdSKRl/mSItnn0o5QORGraDb6uNLl1CS4t5wAYriM4H4+lbNvpVgsz2NtD5W7DW8sUnH4H1q2+mYUymyiJJ/1cig5FVoY9KuLr7NDL9nuIxlIyp2D39qkB11dX1u01vdyR3IABMhBDx/7Ljv7EVW/tXTZ4fs5ONxAeK4YN5WO5X+Ie4q7qjSpp7XUwRZSQvmqcq/v+NUHXT8ompaPbCSFS1vMDlQT16dM0AWon02wt5EubfFnJ/qpA+5FY9x3FSW7S6NGHgk8+ylYhPLOTnuawRrhto5rSWJYUTOYHXLOOwGf61V0y5u7REFr9p+yuxZY4+sB/uke3tQBvahextcDNis9pKh8tsfdPcFe/1rnljhilMVqxa0eVTGCflQhjx64+takOpLcRpqsWGeJDh1fCtk8Bx/Af51Bq9nDfRvd+V5DqQZtw2sPwHH4047gVH063mgm1q+zJGzBlt4jtxnovPXFdBp1xeXKtNNm1giC45yRx0ArAknl1O6EIjAEZxbAjgD+I1rXOp28thFa3TKqYDCNW+eU+57CkVyl3TZdPuN935al1Z95QnYv1P8R9hRJPdtbi3ErRog3pGU3SA+v+yPrToFdbSN7bybeCM8SZxt+mafNqFpBEUtXa5mZsquzk+59RQUM0CTWri1a5kdIFZztZ2yw+uauBtQuIkR1VI2BMjMcuTnsPSqv2LU7x2k1hly3+rjT5UiUd39TWgI/wDRSkZZmZdscrdCKAM6/nt4Z1W/kExY7FBI+U/hV+2ka1h23MkSRjKso4IOM9e9UbewLXSW8EcZSIDJlXAHPv1NTC5tbu8aKK3E4ifd5SDe+fX0UUAWmKzJHLa7mwRnCnp+NSvIIwZZIssT8pJ61Qu7nWZLlmt2aNQQgji+bt3NWlK24SK5YqQwxvOST70ANuLuUoFuwgD9AwLEfgKfbwKuDulYjuUAFOkF2swMAhVW/wBZ8xJpscmLco8oV3k2RoDzQBM++5cOg4A2jFZ8t80U5gTT5ZSpwTEBgfWrk/nsxt4rkRk+3II4pkNqEbM+bg53Ft3p7UAJFcTzjF1a25j7c5apY5kictHBgEYPOMCnEIeQAQeRxTN8Bl8vcpfHKk4oAI0g80sqZHu1OeSUj92vy9uahBkMogVliwTkH5s/jViFoYlImjVG7YBINADI2lZC0vT3p0jEwkwKXYf8s89fpRDclEKTFSSeMDFRqDnKw5J4BBoAdLbboRJ5QhZVzlmztpjSwzFQu1iBl25GT29qbJDdlhD5PygYbJ6/WpROqW5/dhPLAzjoc0AELSyuxkC7j6mpWCmJYZ+mc5V8GqsVwk12IPJ2P/GwU5x/KpJ5Y43OZBsBwGxjmgCXEJYJF+7+brIc5quskP2poPOG4/3VPP405biBiVmdSCv7smQHn8KsQsDFnA44JyRQBBNK0T/MYo8rhHkY8n8qktzczsEllt2KckYOf1qO5it4CGliD85BPOKfmVohLH34O40ALcsWYs4Cg888801HYxEwEsytnOegppnHmKtwRj0UZzSH9/I0sUcqFD91cAEepoAlkXcBK8oJYdKYI5Inw5+8MjFLgORKIMgAk89Kha1WSJIs/Nn5dzkc9etAFmRWONpOMdAaj2NHJlV5PU06OYMGfcWYDBAOQp9KIZ2kUu8a8DCgffJ9u1ACy7pI9jAYPqahlEUBURwoQfvcA5px8/yS1w555w2AVHpVL+07EuYIZ4vOxwm49PXpQBoAiM7gPlI6DoKFZOJJJNqnjrUMHnM5NxIgjUZGAfzqW0uYrgujhZAehVeKAFjeRpXt4WQqv/LR24HtUbFt3lu3zd8dPwp8cO8sI48EdTikQSyfugi5zyx60AL+9RQIY4y2cEv2ou5bWArbNMEYc7iDhvanXHlqm5wCf9k01Y5im54y6t0DP/KnbS4AxWQ7lZABjaByR/hRtaWZknUOoxgMtRPbStIHaZ4j2VZAcj3p7JEjk+fNKB0I5waNAHSK8oZGYqowflWopZWnl3r8nGH8yPrjp3qSFyZOInUN/FIvAqC6kvpZGj/s87FxtlWVcP8AgaQBE1hOfJRfMP8Ay0LEp9MevenvYW8kYicyLHnIJk3YpI7r96LJkdSycSNGPlNMmvNkblkkXagXMsZCnHU8UCbsOl0jRp4GnvLZWBGPMbj9KqQXWk6dILW1tyrf8sgWJA/DNOn1Gf8AewKkbqF3jETMAMcdfxqCW+t5YoLlrISOjAymKLB+lAuY1pXZ7dRBqDo38RWLr7UhWQQ7Y1Z2AySRjNZ99d3ZtFudLhllVmLFE4/CqBur1JvtOoW90VZcOkalto7YwaA5jZna9iiMhjUHHyqWB2n1zVZ9QWe5QXl2YZT0QJ973PtWZ9q0q5Vh/aJSVOIzdQMFX65qLxBd6ogiuriyQbQAt1ZgHcPYGgadzc1KS4V1udHvZMuDkJgxjjuOtcxf6hfXETXs900cqHbJGyffGf4aq3r6pJqNrqlgzyxhCH8ggZPuPWm63bMmnYcMsp+bG4sAf9rFS1djYzw3BBqGmtf3+4pa5aTzG5MfPHvk4FdHMfP0ganb3J8y4iU7R92JQDgH8Mj6kVj2GmSW3hbT9PuGwZ3Z7sx8B+6/Rcj860LbSdQmuoLXbttLbO6ANkzSbSdp9uc/gKl6AMeWz0XSUgiRvPlfKAHkpgk/kcU7QriLUdOaC9XbGxbyUJxkYOfz6fjWV4lkeYmYQuJYY1zInCrn+Ffc8Ct7w1pN1GqXusxIJEQebbqeIwfur+WSTTSuBCFisJo7W5+ZIolklESnGD92PnuBmlmm1rVZpvKQKGwsTZ5CHoPw6H61Lf3Nvq2pz2Vo4eO3Ia6uGJA3dgD3rUjjSCyXUCxXYhG3A/OnyibsMt7dfDtk08n72V1AUqMnPoKjTS1u7lL+8ZHmgG6ZZG6HqOnHTNW/NihtkuLgnKgsAKxrTVDfI2nac43XZIkl2fdGf500rC5hJtWlunXUordhbBylvEv3Wkzw30qARTSzyJHdfLGxkv51PzTSDnH0FS37wWITTLCFJY7HgmJj8xPb35/lVqz0WMiS6vn8hFXM4C8tTDmMXZe6yz6nNZhYmO63VvvA9Mmt3wvZy2GjLDNMJGZyzMOhPt7UNG98YrJoCsQUHeOPkrQCqiCOOJVVBhAvYU0ik7hRRRVgFFFFABRRRQAUUUUAFFFFABRRRQAUUUUAFFFFACcYBxVbWtKttbsRbzwlgh3LhsNkehq1R3B9OlANJmTFfyaRGHt5mmVWCojD5x/veoFWJZP7T3xalZEyBd0UiOOB+HIqa5sbVgbqaLcg+9Gv3kP94GqNx4ba6ZbixvmtbpTlLmJyVlHow6ZoJ5SVZdSj0xpkcXIyCWXhkUdqW18V6Vc582GKM4wWPDn8+tWtP/tO2h+zataxJKx+eWMDDenT1plzoGjXu+4u9HR3IA6DI+npWYcpHqdguoaa0tqDtGCjQDBx7jODWSjappW4WsUU0b4+0ROvO7t9DWjFoN3pytZaasT2rsX2TMcxsOlUr3WLqS4AluPsjlwJ18rKSDqSD9e9J6El+6istU05Itc0sOxZUmjdsNFxwVPf8ayrbw1cWE0cdlfG7ggLGJVIWWPPUN2YVv8Anxajpax3EoiklIZwUzn057Vl69a6dcQm1uJDaXoi3IwOA/PbH9ab0Aw9WbSbKU39lN5R+60KqVLOOpPbk0/T9cudSjVp186GaMgEDmLsR7jPSl1Ga1SSOHU0jkKZUyZO9f6Gm6BbW9tfeRa3pnAOfs5G1sDo3vRFgVNU1G10eyZZbuSW6k+VViQD5R90exI61N4eZ2ulubqJIpJVyC/zBAeBn1NXL3T9LkaS9vIcIMHzCoDBvpUEMgju1iW28kIR5bGTIjHrjuarlLWxqSgy3sNvPI9xIxxIHH7pfw6k1qRi30pd67VupFAAl5JHtjpWbp08WnqXiiEl1ndJcStkY9gaatrqms6sDp/EDNmWaQ4z/hUjN37HElx9svrvDYzKrHIC/WlmvwbTzEmYCQ4QgDJHqKzHt8I1jd3pa0VijopGXYVPayw+U09lCXnjjOEmHyptHH40AWYZGOVER8kcPJORuI9RSKthaObzzUiXfgCJsCUHp15b8KzL25tobFNQvZp7lpio+zwxjDMfUVoWNjdT3T6hdx7CAscEUbDMS47+h+lAFsTmZcxZiXPII2tJ7+1Cx2WViU7o9+d23OD9aSbT1mtEt0ICYBkGfvH1OetDwhbZDHcSlY22iKEDD+xz0+tADpzDGV8+cZGQuWO0c8YA6/jUccTJKsl1dNIEOfnRVye23AyPSp2shIoKIsWOseM4/Glim8qRY1nDfxSBV+YAe9ADRZBmLu0hAOQGfNMWWC3LSxgRptIdsUNdukzI4CRk5TL5Y59QKVrZJbUnGRnlWUjP4GlqGhIqlyGDhgVBBFOO9DnecduaihS4flAFVRwAKcHk+8cFT8uSe9MByo8rlwcDHUVE+xpMKcgetSNCfILJdOjxqRhWGDn2NNgtgbXEuolnxy2wf0pqXkK6FCui+YjAg8bducU6M+QN4UkH+8O9RRlbWZg160x2jbECFx70NJGy4EznJ7nOPal1C415r6e4WO2WMqcmZ3JGz0x61MAoUCSTcCPmATqarb0hZR5rZ3ZAGc1Ylusw/aWnkQow+8uS3tQ9Bj3cqphEblcZ+akuLeKdUinhUqR8gcZyfpSsrbvtE0j5YZA3HpTZDHc4Pkgsv3SVyRQC1GQ6faRA5s4gynqIQMVI3mMuwpuVumDyMUwTLHmRgzMnVB7+1LaLcmRnluSqgZAFscj/AIFmgBQjl97ShweViIwRSu042oyojMSEjznI9acVikZWEihugLnkj8KjigdLk3PmozKcDjOB+NGoDkdN6hR+72/IduSR606V7NE3tKUbdw7DJPtj0pwRECnzO/YYx7VHehSRtf5g3B+XI/MUAM8sTt5huWYgfcRgpJ+h4qKIafbyNAYojKo58yQswapHt44onaSSSbPJUSc5/CmwDahlFnHFxkmRizn3oB6EiTM+5Yo5G2nEhXACn0pklzHFIqlXYenlE8+maIbpVPnQReYScPuXBqwLm3cmFbZtxXcrM2RmgCs0e+Q3C2uXHUOeAPoaliWKKVlijEZ4yVGM5psc0hkLSwKpA+fHenK0bjynmIYjhsZP0p20B6Dri3WaPapbrztOM03yiq4jkXbjhFGDUa6aY2ET3dyWJyfmA4p62tpHckmJ2zwVMhGfekk2C1FjeQAqQFx0w2T+NI0vlngcnvipMwR3CrBCnlZ5IPOfc96S4VXVhHGOT8p3UutgGBFlUoy7c9GHamXltIY0LajckRHI2gDj8KRlv1ACxhUH3ixyaJrkWFsZ5opQjEBnhXcSfpVX0sAy3Nu9wyCa5B2Ft0p4GaneS1toP3xXgfIxOQfXOKdJbRz24jvI22MASc8+1RC1hSUmOJV4A+VcCpvrYBn2VrhReQ3pkK8rEYwF/A9adIPNVb24gRArDfskPYH86kmhCJ5mUA/iDISW/KhI71ZRKtyixAcQqhXdn60wKb3EUMivdTQvEigtJt54Jx2ps/iFI42hupIJEf7oQE7k9Mdqu3NrPcKYzczRgD/VRjrkgZJ9q5TxV4xsPB2sWHh3T7K41bWr2N3srSFOsKHDSSOcKic4yx5zwDQJq7OgtNQfU8fZtPxFgoqySbQR2qSaxZT9jsZok+TlUz1+vevKrf8AaUl1C7t7LRbTR7qa6nlt7a0bVJYmu7hM7oYZGgEUjjBwA2CQeTXXaL8QLfxV4aPiTRLeS1aGV4ru1uUVZbWZOHjkHOD6EHmgXKbtvpqBQby1d9jHChiVHqSBRealDokW+2tUSJznBZg2fYNXOS/EnTLl44b6zhlR1Jia3uSsiHoc1zPivWngkSXTL7zXPzRxX0u51X0DetAcp38njHTboKqWX2nnbIrquT/9eseS7mtZNsNpLdQx53xSPhlQn+Q9q4fwt4l02W8Z5p3inZ8eWMMB/vetdTBcz3EzWb3BlAYtEQwV1UDqobtQNKxoaLp+lSSSRaXqLHa+Qp/1qDqQAeDWJrHnPd3FtpOoz2ciycxyDKyHsfYkZrfjk0iTAvdsFyyg20p+US8e3A/GsHVria7e4N7cHfGMyvtHygcYX14oG9Sa3v5dctYrWa5KJEQZI053Y6/hXUwG6FpHfwsI4ADsCk75QR0/PH4VzWk6XZ3d9JcW8flWrFdpzgmPAz9CTgfjV/x34jbSNPEcb+VIIwqRRnKxqfu4Prjr9alq7Ao/8JJBJq32I3W+GxlDzeWu5XlOcL+Ga27zUblbE2b3YW7vULNsGdg7ZrmdM02003Shb2BLTTv5krAYBJ6/jTtQvJdFEhsmeW4KjJLZI4/lT2QHVwxR2+kxaLEqSFyPtU6nbx9fXOKW61f7eU0iytpN5AyBzwOM/rXC2moalF9nt7i/bZM3mSkN/F0C/rXdeGoIrV3vLwM1w4G3tsWhO6E1ct61qD2RTRraJ5J3UA8eo6e3/wBaq2lWz2cjS2s8fkxttmuF43MOw9OeKg1XUpX1l7awjRZG6zlvujFMkn+x21vpVgpaaZzmIAETP6n0HfNMlqxoabam6vcLapGFbzJAh4LUajq9tcXYVZfNigk+eIHHmt2Ge4FZOp3Oo6NZDRNElY3UjFppjyC56/QAZxVnw94ds28vVJ5XkWPiPtvbucfXvTTQJXNuAy+WRcqBI/LAdAOwp4AHIFK2QSxH3uw7UlWUlYKKKKBhRRRQAUUUUAFFFFABRRRQAUUUUAFFFFABRRRQAUUUUAGB6VQEM9hqefPLWkyZK4+76j8/0q/TZELxGMHBz1FADry5+zxRQo8AabBSRuVIHXp0Jpl7ciFH8pCk0i5V8ZUiq+nxxRFodPEsiwN89mwA2n+8PUVqQzR3kBON5DEShhtMePSsyeYwrjUr6/VbeRHtnZQRLkkSgdsdqJNVVoY4NT0nZE2VUyHIA9s1a1+0naw8y0kw6HdCij5i3ofbFZOpX+pabpaLq9lHexN8luUzlcdTiqbTRJLquqQ6Xp2TeRmJzsidcs2O+R7HjNULe7h1azV7m83loMouMLn1z/Ss+a1TU7KWLTNVmbK7EiiQKwyckA9cGqsfiFNLA0fUrAIIrckQsBhl7EDoDWcnoBuS2GpSQfZ1W3mZ1/cgQ4HHXPrWdYT2kl5LDf2TWtzGwDrnDW4PQjuR7Vm6hqzaSsV7A00cU5DxGT5tnfHNXYtZ0PxeZJpZYob9sD7XGxySPVe2aIlcpcnneK5SORfP8mMeUQM+axP3j6VShh2Xpa5jeSSFC5jP3fMPQA1f0mVhelbjY06JiVo+Qf6VXuHeO4aLT2McmCqh+oPdyfbtWxRc03T7u7kWfU7hHIVWOwYWPP8AD71q6pq1taWC2kMzqS22RkQZC9+P61g2Or28qx6dBfedhlUooxux/Ef8Km/0PUtQmCXjuE4lvNgAUf3FFZgTWKW955YtrVy7OfLEjcAD+NvrU9nqV1qFxIkl2Vtc7VjiiBLv9akudKWSwNvZXvlI8JGxUw7/AJdKaIbuz04W6ALtxtQLyWxQBoxPBYqkz2oSQON0sjFl/EDofarmy3YeZOmFlO4vgqxPsDyBWfBpyW9r5c0BmYjMjhmJAPYKD1ry39oP9sv9nr9mLTk134w+LRC+0C00zTVM11IASMlQcDkVSi2ZyqRiexy3cgmj89i8Z4KIMHaO/HNRy63DNExtdPWRw3lhEOMD3zX5gfGX/guBqfijxGuifA/wje6LZf27aka7dSBp57TzAJFaLaTH1xgHoAa/UC0mtriyi1C2j+0CVUlCP23KGBXI469qJQcdxwmp7HB/tFftO/Dj9mDwDF44+MOuNFbXV79jtYdOjLSPKIncKvPJwK+M/iP/AMHBHgDTbd7b4a/ArWLyR23Rza1dJbpgjPIXnHtXm/8AwcB/Fgah8V/BfwjtbryodF0SfVNQtkbpPPMscbMB1YIjYPUByO5r86v3eI5LWTCjIUHjgHiumlRTV2c1Sc27I+9/EP8AwXj/AGm9ds7ux0PwX4V0b7SMWEsMc108XzHOTnB7/wAu1ep/8E5P+CjH7Uv7Un7VGmfDT4jeLLO70dLC41G/js9KFuyrEgUA9yCxzg1+Wkc0lzdqXY7A25mB6dq/RL/g398HW198b/HHjK9RWTSvDMFtFJJ0X7ROxZfrtjB/4FTrQjGNxUpSbsfq9CwSJI5rhlYKAwI706eMY/cFCOwKjrVaO9tbhDLbJK245O23bAP1q0Y0WZdoOSBkMK4ztR8Zf8Fe/wBpX4n/ALNPg7wprHwo+Id3our6rd3CSxQRxOkkMYQk7XHXnrUH/BJD9pv47ftWw+J/EPxa8e3F5D4dkitbO0jggj88ugYsxA5PNeFf8HAfiu3vfif4C8Gb2zYaJc3ciA8Zkl2AY9wlev8A/BBPwuNI/Zw8SeKppSn9reKJI0bHOIo1TOfqK3aUaaZjC7k2cF+3N/wUK/aI/Z8/a71v4RfCvx0TpoWxhWK8topfsk020MVJGW5PTtX6G/Dez8SW3gTS7bxRrzanqRso3u75olTzHZQxICjGOa/Gj9ria++J/wDwVH1ext5POeXx9aWMOOfljkUY/IV+1VnHLaWsFhalVEcKo7DrgKB/SpqJKKLju2Sxlx/rVyM96+e/25/+Cgfw8/Ys02z0290mbXPEmqo0mlaNbuECgcF5G6qv+FfQknlFUEZYgDDZY55PWvw+/wCCpPxVu/ih+2x4wkkWVo9IlXS7SN24CxL8wHoDuzSpxuKpKyuj6as/+Cu37cN74Auvj5afs06bc+BrW5MVzfNDMkcRHBHn5w3PU449a+ov2F/2+vhp+2tpd2mn2U2ieJNLTdqnh+e48wiIkYlidMB0z+IrEHws07wZ/wAEr5Ph0qS28LfC95nRYwcO0BlyW655r88P+CQ3iO+8Oftw+D4rO88uPUrS4s7onnzUaDIUjvyoP1AoVmDTVkftpOxKndK0at1VVwQfSuf8eeJNN8A+DNY8c3UBli0rS5ryZJnKrIsSliMkcE/Wt1igXbGQM88jknpn9K8T/wCCifiJ/CX7EvxL1uW+eJv+EXmgjcnad0mEAGP96ptdlyV1ofNMX/BePwFcWE/9hfs763PNDb+f5f8Aatuq7ByXDbicDOTkYwRWdpf/AAX68OSyMt/+zpqBQ4KGHXomLORlRwBnPoOtc3/wTW+Aen+Bf2Efi5+0r4o0aCS71fwxfWWi/aoFYx2ttbMrspYfKGkYg467BnoK+MP2PNMtdT/ah+F+j6jatNFN440aO6jbkSBriIHjoRg4+hrWCTXoYSUotK5+jPhH/gu78Gtd1O00zW/gp4rsjeXsMCMnkOEZ5AnzfvNy4J6EZxg96+6Yp4ztkWObE8YdN6jgEZAJ7GvyY/4Kt/BDTvhp/wAFA/Dvi/QdPjstP8aSaTerHBCEj+0w3kcM4AAxyixsfUsSetfrJDbTLFHHNeycIv7uLaq8ADOTz2rNtPUtJxepPBsiJzGC6nPyuSMe+awfir8RtH+FfgDWfiRrZzZ6RYSXVwkcqqSqg8KW+XP1rblKxRs6bicALtwxz7nvXzv/AMFTPGZ+HX7EHjTUrWQJdarBDpq+cgAzNIoOAPYH86lLmdjR7DP2Qv8AgpV8If2wfiRqHwz8JeDta0y/s9Pa8EupiPZNGHCnaUYj+VfRLI0oCRBgAvBPpX48f8EVtVn0z9ta0tQu77Z4ZvoNwbGMGMg+x61+xaPc+YVeJRleq05RcWJO46K3RI1Zmz2bNcx8YPEXifwL8PdY8a+D9GtdQvNMtHufst5dmBXjjUswD7SAcDiulCbFInmIQ8kAc5riP2irmO2/Z+8Z3cZZtnhq9xuHP+palFXkN6o+Of2Yv+Czd78cf2gtE+GnjH4MWGhWWu3f2SG+XVGmljkP3c5ABzX3d4gk1waHd2nhrUYINRELmFrmEyIrgcZVSCQcdjX86nw+8Uy+CvHWkeM7Oby5dN1C3u1KDBAWQFiCOnGa/of+H/iG28e+A9F8Z6ddo1tqemQ3CAr1VkBrdxUURB3ufmvoP/BYD9sTU/j3F8EJPDXgiN5vFH9kGWXTrhSp87yy+PNPbnBr9OdNjvodMh/tMxz3SRqsk1uhSJmCjcQCx4zX4e+G9Kksf+ClEOkOgWRPi3tKquMf6Vuz+Rr9znkADqRw5x+RIqZpJXFBPmILlnZFWE4JPBHP15qVYPs5w0soBTG5TmkeK3dSkUrIUxwj7ar3EtnHG1xdtIkUS77ifzwsaKvzFjzjGAaxNuhna/qHh7wtoU2q+IfE50+wgzJc313crEiqOcF2PH/1q8X1b/gp7+xRot21m3x90m7IldJnsI2njVlGeGXAHT6cGvzN/wCCmH/BQTxd+0l8Ybjw/wDD7xDdWfgrQLqax0uyXZ5d3NlllnkRuJRtBCZyBknqBXzF4b8RGW3/AOEWh0OKaWa5b7BJbZ89JmjMaopGDKqqWYRk4Zix6qK3p0ebVnJUqtS0P3r8Pf8ABQn9jTxH5Ztf2ivCahgCq3GqrE4YqCAVfHr+ldXp3x8+HHiuWBvDfxM8L3iOgYOmvwtnnrtRsn6e9fgX4J8f3vhrXs6P4Y0nVjDqMk5tdc0FLkvGC0ZBDAsqhTnaclTg9hVLV9asrfx9N4m0Sxs/D4+2LJapbhwlkQVwqthpDyC+NpB6U5U0nYSnUP6JtK8Tabqt79k/tqO9dnXCWOWWLJztY54PHI9xXOeN9VHgbx/Y/Eu70yZ9LNl/ZuozRWu57FRIXWVhnPlHLAkZ2naa/JX4TftufEX4VRSz6P8AEGC+fWNTuL6/1kOIf3aPua6MUkUbxrgpGI2BU4O0Dmv0Y/YO/wCChXgT9tLw7rctho0ml33htooboXFyrfaonA2TpjjYzB8DHGMVFSm46msKl9GUNP8AgJqXgDxDonj+7urvWtMT4jXuox2C3/mWdna3AkkjvOwBjzjP/TTHrXb+A9T1W6i8TeMdKsGTTvEfiCa4tvMhOxoEAjWTB5UsVJ/HNUfEPw18C+IvFM9/dXuura3Dlm8P2fiF4dNupA3Dvbrl+SMmMfIeuK2ZkuL2Ex6pDDaWcYCYhJGCBgKqhPlAGOKxTudHKYPi++vbOIpcaa8kLDISC23Ajtz1Fc/e31tJYG8R/skpUb4ljOAD3IP9K6fV006zjcW7XLtt+adZGOVPQEMBXG65aQMwnkRWdVzHIXwvH8JUcUN2E9CTSdJ1CG6We1K3FmQGkQkAM3c+tdJF4l02KIWsksUahh5Ud0CCp/6ZsO31rmfD9+0M32vyRLGU6xfNKp+h7CrmuzSTaRLN5rQQ713XBCmIn0kB6H3FLmEdrpGq3bXgsoy08cpBNnMQWP8AtKx71Je2iXjuLO8l84Qqhtrlf3qZbHLd65bwXNJcv5Nw9ufJAcQyTB8gdNhrp/sst3q1vcQXcjxy3pPlyL/qwq7j+Axj8aadwOqtrCzsS9nNdOkEZ2Hcg5bJzz647+1c7cNH4p8QLoNq5SytNxmcrkYHTB9TV7XtSElh9lgcb5pNmTLySTy35E1Z0rS47bTBpmkjyWUlnmP/AC2xwM+vUn8KYFazgvJdWttMhhCjYzTOWwrY+6B6EDJPvir9ho9trE1xeiMpBbRbBKes57tz6dKzPIvItPubtr/aYpNis653AnnHvxWxdiMeHYrcXSxec43YXkj0ApNXE3YeugaPHZ2889pt8oHyxhQXbqP5Veia8sbN5J5PNuZ8eRGjhyWPVGHYD17VB+7lu4YLBpvNeIMZUQERAY6g9PX8KmuryDQbCe/tp4ri6mbAlmGME9cAf54oirIE7mda2ssGpm1hV8iTbOznJRyCeD7Ypbh7KyiudStpklupQE+1JkKE53bR+Wajgf8AsrS7nUrxWeMrm4nRiPNYnIUDvzVzwrYy6y39ua0AEkYMbby/ToPoPSqSuDVyNPDur3NkRpREU13EAs8h/wBWncn/AArpLS2FnbrbRvuEcSqZMYLEdTjsKkI3KXUbVJ5HqO1IeW3Hr601EErBRRRVDCiiigAooooAKKKKACiiigAooooAKKKKACiiigAooooAKKKKACiiigDO1iynivU1qwWZngH+kxhR+9B6Y9cVJpd6mqagJTKVcIdpY8TH0I7Y/XFXcAEEDp09qy9Q0q+0+5GoaSiOJVPmIwyAB7evpU8pPKXY9akErxatEsMoG1H3YyemRWfcatDpzCXUryNAi+VaxKS27PBb2qMxReLLfa8QNzCoCNI33QPUHqaxNT/tbRL6OylWDlD+9mfKNn09KkkdeW7aVdfa7adZUzmKSzPzknrk+grE8QX66nPIZrONHjURySnBJQd/Y1IZtf0tzBZolwUQSSpGdyqrc4FZXiTUNMubDy9KtFgvZD84Bxkd8+9TJaAPGp2d2INOurMtHIgd4GPKgjgr6H2ontdP8LXMYLLCJIw8F0yllfP8DCuXtbqSHWxda19rEQlLJfSt8qsT93H9a7W2ub3VLdtIviLi0kX5JkAJX069aSdi1sWItTntrYXFuXaPzlUxqgOSemPVRTtUN1bII9OMsZlc7TKoZnJ+8T6Cn6Bot5p1z/Zl44nRl3W04+X6r7fSp7sWiLJr10/lMNyRps3E84K1utUMrafBa6VZCCzlSbUJQXkZyQI19z61q6PDp8Gl+XKvmR+ZxcY5Zu+BWetvHbQR2sNs6RIyvNk72kyelX9NaJrmaS/uTI2dttAhwUJ7D0rMDcsLmKNBqUkcYk2bYYRISVX+81Mhu7zUtTjvILO5ZZFKogUDB/56D/Z+tV9LS10e0aC5jQvJNiQ+ezY/3vX/AHelWn1/7LO1rkGV+ZjsAG3HAyOn0quUnmPkf/gsT8bPip8F/wBniyb4ZeM7rSbrUtY+z3+o2FztZI9h+QNwy59jX49+MviF4x8ZXEM/iTXrzUDaBo7d7iUuUyxY4cnJ+Yk/Wv1c/wCC4GlXV9+z14Yna8KmTxTH5ksi/ugpVscetfkNrgSLUnhhl8wI5+bn5j3PNduHUTkq2TLWkX0UN6Lq6LOV+ZWU9WU5wfx/lX9FXwJ8fHxp8FfCvimFBi/8J2VzJKvyLCHt0JJLfefIPC1/OTpkyTyhZGMY3BSq8ck8Gv3z/wCCcvxHk8XfsE/DjxXqN5GiWXh54Zwn8P2VnjJ/FUFRikrqxrQtyXPym/4K6ePJ/Gn7eHj1Lm4Dx6Zc2mkQELtbbDBG5J9MsxzXzCPOaLeyEEAHGc446Zrrvjr41f4i/FnxR8Q3ElwNc8SX2o+bI5JZXuXZSc9fkwPpVP4heA7n4eJoFhc3cs8+reFLDW54VhCeT9pMwRM9SCgRse9dNO0IpMxlrdmItw00P2aEIgPynCDJ71+tn/Bvp4Rt7b4H+OvHb6crzah4rgslnYAblgtUfj6FiK/I61liE0UcUx3bsH5eM9v5V+2v/BD7w1a6R+wTpWsyRIs2seItVvPM5CsBceUMg8ZCpj6Vz4l6WNaEb6n2JILqQfvx5bkcFzuUfWoLIoZykU8s0kfVUhCpz796jk1vDxMlvJdrIwDKrgbQecnHBpW064mDONRnILZjSFEiK4J4yBk1xJHQ5an4+f8ABb/xcPEf7bEugxkFdF8P2Vtu7FnzKf8A0KvuL/gjl4P/AOEY/Ya8PXcl3mTUb67viMcNvlOPwxX5vf8ABVzxBFrf7e3jt7O+EsdvfQW4MhDBWjt1Vh+BzX6if8E2LRvDn/BP3wJPHkPH4dM53L13Bm/KuiSvBRMoP3mfmt4Difxd/wAFWbW4S6877T8VJ5Mg5DBWc/0/Sv2xjcRSNujXBz26ccCvxM/4J8aXf+Mf+Ck3h6/+0LK0fibUL6VpPmGBv7Gv2yVIgf3lw0jZ5OMc1NToi49R8U7GyDSKdzLyvYc1+Bf7Wk0cv7Y/ji3u7cuJPGUpYu2Ao3oCT68V++jYMhBckKFbyxwevrX4Vf8ABTLwJceAv23fHWmS7RFfait/b78qfLlUEEdsAqfxoo6XRM1eB+rn7VWv2nhP/gnv4m1CC8EaxfD9Y7fysDO62RVAJ4A5xxX53/8ABHX4DfEDxl+09onxa0nw6zeH/Csck2o6zM37gymEoqIwABYE849a+1/gVbaP/wAFCP8Agn54T8K3HjK6tLGe1ttN8UwWqs1wy2uPMgBB+UuApLdcGvo74eeBfA3wz8D2vw++H/hGGy0exhEcVna24RQV4BYlhuc4BLEZJ71HNZtF8vMlI27a5ulmDTypIGJyYi+M59+K+Z/+CwslxcfsQ69oFgtw9xrGradY2qBQ26WS6jVVwOoOTke1fR91rfiAsnk+FpdhH72V7mPCfQAnk1x/xr+C0/x0i8IQ6zex2VloPiu11q+sSvm/afs5LRxlun3sMfoKzSaZW55V8X/h9afAb/gln4n8ARBYxo3wnvIJJYxt8yd7Rnlc46MZHJPckZPNflp/wT60GTxN+298LtMt2TdF4wt5ULqxwIY2ft7qD9QPQV+q/wDwVA1ltL/YH+J94uo/aHn0Q277D8iiaZV2j3wSD9a/Mj/glZaxz/8ABQf4cholCrqN+0WWyQVsJef++gT9a6KekGZVFeSPuP8A4LL/AA5k1fSfhD8TVlV7rS/iPa6dujhIUQ3siMAc9PnijGf9qvtia2u3ge3a5HlsAU+fDD057nHevOv2nfgFcftBfCkeCbbUhHdQ+INM1K1adQVR7S7jnGPQbUcflXokAgmTzDDkKM4l7DsPwGBWN9C7XLCQzQIqCaRwigMrSEg18S/8Fw9cSX4D+D/h1BOEm8S+ObaPar4PlqMH8AXB+or7YjD481GIDDs3HtX57/8ABYG6fxn+098Bfg5bKj3kutx3MiYyoWW7ijyw74ETfmacN7jex8/f8E6vD9t8Hf8Agp3a/DgOzrZXupaYshfmRlTIz68r+lfsNbXVnHLvudQhQOP9UGO7PpxX44fDGNvDn/BY/wCwx6lueH4mX0TSxfLnPmccV+xNjBZWgaMwoHkfeG281dTcmO5daNUG5d3zH+I157+1NMIf2cPHMjuQB4XvOc9P3Zrv5XKDzWlLYOWLlV//AF15T+2drGkw/sufEVre+Jlj8K3XCPuVcpj86iOk0V0PwQGg6vF4dXxv9g3aUb42BuQOk/l7gp9QR2r9tv8AglL8Upfip+xJ4Rvbm5Mlzo8UulXBaTcd0T4BP4EfgK/MT4afCtvGv/BNLx/4wshG0vhXx5Y3spCDIiaHa+D24PNfXf8AwQA+JJ1LwB43+FuY9unanDqFvE5+bZICrkfiBXRPVPyIiranzRNa7/8AgrILbGWPxYixx/00Q1+00+Ujd5EPzDCAeua/GiCzkP8AwWVisZlC5+K0W1QfdTmv2XM6zEkuzAAYGeBxWdR+6hx0kyle6RZyzJekuXCj5GjZk984rwr/AIKZ/Fp/gd+xJ4z8S6ZLbwX19Yf2bYC1BjIe4YJn64z0r6AMxlUxRL7sS2Pwr4O/4L8+JbiD9m/wf4bMnlR6n42UTxo2N0cVvK447gMFP1xUQXvlS0gfkfq0TNM2nrGZGiwmVbjjr/48CfrUVvaztcbApkSUFJCzAgBhg5z3ztplzftFdGRZsMxbzMcjkk8fnzUFl5MmqRGeaPyjIGOUbhgcj7vuP0r0LJI813crn7Gf8EVPgH8I/Dv7Ktr8fr7w1Y3XiLxNqF6x1Ka0V5LaCKVoVghLAiIcPkDrXPf8Fs/2XfhlrPwFP7SnhfQ7C31zw9qVtb6peWEAj/tDTp2EeyUKArvG20g/7X0r0/8A4JO6jc6X/wAE+/htb22oyiVre/uhFDp80jSbr6YDkHA79eua5r/gs/48vvDP7CviDTNduxI2s+JNKsbeMQGNoiJjM2B9I+1cHM3VPRh/DPx4sPEWj6Zrltd+IbF76BXSOSBeX8sEDKA8M4XcQrfKTn0r7e/4Ic+Iop/2ifFo00Xi2l54VmF60jR+Y6Jcg27FEGEyrEe5Delfn+NUlt5pHhuCwljKvtX76Hn8D/Ov0O/4N+PBVzf+KPiV43cxxpb6Lp2mKzuRh2dpGAP94AAnHrXTVs4mFNNTP0c0u1uWeS7sEjjiLHzmnwMMfTHetC80uG6t9i6pBIyx/vHd23J7r61z1zqcelXk9rpb28i+Zl4kJYkkfeweCa6HRrlJoW8+N5ZUt98hjbYYwfQDgfhXEddzz3xKl5HdtE16blSSN8y7ePQHrmucZJJ42t5pwq7uI0nJdT2I966Lx9JBJqzSaaHRCBvBTOT71yl2k/2h2MJlU8H7GBvUeuDwRUPcT1ZNp73FhfiCe0my65NwXIJH+1jg10Go31gbGPY0cZcgedt+Vj/tAdfxrnH1ePSoUll1NJLccLGBuYn0/wBk/Sq0fiaTUm2WUPkYYKFLEA5PQkdzSEdPFrFlADbQNEt1EdzeU3ytjuo7D2rofDfjWfVkl1FpPMdImgVgMKoyDI/v0AH415xf21pHfpZLqfl3ZGJvLG5rVSeQexYjp6da2dJvrGMf8I5pV1JDbW6BCgBJfnIyexPJpp9AO98OSaX4j1y5tzERb2wU/aCcM+RwF/rXU6Rbavql08MVzHapbofmZsAAemOnFcf4UtI5bqC2tImWaPgBFB3E92NdT4m1dfC0f9n2V1Ctw8WJ9vzNz6mrE3qT3WsaXql5FodtGotoV3XEwcnc4I5qv9t1HUNb+0aZbidMgW0cp2rEo4JJ9f8APasvw1p63Fr5sl28jSkrHGIySxPOfpxj8a6H7JLFo3n6mn2SxVgLmB4SZpWBGGUn8vxoFa5o3Ntf6LIFs4dzykFvMl3YJHOfUVT067tFuptW1V5YjbN5cA2Dy5GP/wCo/lTNRvpL9Ft7W5FtNMdzpICRHGOApb1IOfbBrH1VzqGqHw/4chUQhQN8bEl27n6UDSsaAl1PxbrscFjamSwtZcWyM+BK/VpGHZR0A967pF8lfIjcFF7gY5PX61meF/Dtv4fsBC4zdsB9pfsfQCtPAznFWlYYZJ6miiimAUUUUAFFFFABRRRQAUUUUAFFFFABRRRQAUUUUAFFFFABRRRQAUUUUAFFFFABR1BU9D1FFFAGB4i0S4ivV1fQsi46yw7tomXvz2/rVS1fR9bilMlwIWXJltrjO0t3I/GuonghnjkguoS8ciYODXBarqMXhTVrqzdihVR5CSDjaehP97I7dqybsTylTULu80G7lOjXixCdT5pKh8gdME84Nc1d2MWqxyS32oxy3RXzHiIClAeePetHU77SLqCV79xAmR50kbEMo7cCuV8R6VdLdPfaTqVrfx+ZvM0cpDeUEGFwf5UnK4cpAtji3e0ubWSdUJZIJHywI9z1HtV7wL4ybSNREmpWWGVRviU4Dr2A9CO/rVbTtYLagkF8A0TxbyXHK5HTNZOrtZ2evLaLIZBckkOp/wBWAuQM1JR7bBLBrGlC/trkGB23RhRzC56k+lUdQumtoI4JZE+d8RKi8g9yfaqfw78QWFhpciohaOaNVvomOcehFa0UFkl5PcXPlylotsD5BG09/rW0XdAFnqMWltIVdUM6qRIDu8rJ+9j3q1Zy6ZplkdRNkfMeUx2hcbpWk/vEHoKwY7u3UyXdzDuQYSGHbn5ga3NPYteI2pMsjOQU8rqPY+9HKA60jvUkjleznW7fOxmYAQju7ep9qkuLSygijiW/YWpYtIWT5p5fU+1RQXY13ULueZZYbOG5AEbnDTN7+oFSzRmzZZ9Uud6q5ZYR/cHQfjVE8p8//wDBRjQfB/iD9lDxFq/jjTTe2WgPHqMELruYFDgY9OTX4h+JRc+JfGkp0uwS3XUJx9nto5OACRhAex4/Wv3c/bkjGv8A7IPxN0/SrDyrh/C1xO7JwUZRlAoHXp+lfg7dW+teH9ZstR1TTpo5ZFivY2lQBWTIcEfXBrrw/wALZhVjd2Kl1bXOkarJpupQGKe2mMVwjDBR1YAr+BFfrF+wV8b18H/8Ea/GmuJMLeXwnBrltBPvwY2kUOmD25l4xX5x/tdeGLbw58ctVlt4cQatBaatbsy4BS5tg5I+j5/KvcP2ffi/FZ/8Em/j/wDDVrxVuv7Z0mW0jkOd6XMsUT4Hv5Zz61VZcyi0TTTUWj5astOn8Qala+HrNHaWb7PZqFGD5sp2Hb6YP8q94/4Ke+EV+Hf7YOq/D6C3ihPh3wl4Y06NREAuIdKjUgj/AHgT9TXB/si6GPGv7V3gPQmIuI77x/psUoZfvIbpCePTGR+Jr1v/AILM3Qu/+CiHxGjWQssbaXExTkqRp8ZyfXr+tN3dSwOypny1pM8BvIZJsmRW5A+6T8vb8TX7q/8ABIGx0yL/AIJ2/D/7ZJGDIl8VjVNxYm9nJyOlfhXbxxNqQNtcq0UUpwzRhSR8vGB0x0/Cv3b/AOCOcYl/4J2/D6eGIA+Rf/O55/4/ZulYYkug+h9KQ+H9PKRtcLKQqbQjyEgZ5Hy9BU1rbSWMOyGN5Nj/AC7sIFH4VJcxzo7RwMojLEsz84+lQwvGW8gv5gLrh2Hrn/CuaKNWj8C/+CgWqrqX7aXxNnk2ZPiu8X5OgKkiv2L/AGU0Hhj/AIJ8eEzLIQtp8OVld89hbM39RX4t/tsXEV3+1l8SpQ24yeLNS+Y9j5pFfs5YXF74b/4J5KLOziVLb4XEDaxUj/Qz2raWljNdbH5sf8EgUGrf8FAdMuxCCFs9Sl3E9cnr+tfs3FPGXCM8LOMAgMd1fjf/AMERLSbUP2247qS2RhF4Vv2w4G1SSuDX7G2a3CQqJ7eCIM3yrF396zqu0kaQVok92V3tCd8bMvynrX5w/wDBdn9m271HRvD/AO0po1tlbNP7L8QPHFzsY/upCQOinI59a/Rw3aGbyJdoK/weZ831xXJ/Hz4VeHPjn8Jde+F/iy2ie11nTZLYCRf9W5B2Pg9wcEGiL940snGx+Zv/AAQ9/aZPgn4tap+zz4o1JIbHxTH9p0xppcIt8gxgc4G8YGO+K/V6XeI/3soMhUCUAk8+gH171/OrqNt42/Z6+Nb2FrPJaa34O19ljmKkMksD5Vv+BKB+dfvT+z58VIvj18G/Cvxh0rWnWLxBpcVy6qcFJsbZF46Dcp496uolujKDafKegPNHhbi4leNEHPmHB/DHelM0V4oezuCFU53IOv1J71SvvLhcK+pRhpXJ3GEMRgfnmlhmj1ZtrzzynZzEsZUfrWBd0j5u/wCCwd4LD/gn542iDSD7XNp0CK7Z+9exZI+oyPzr86/+CRUEdz/wUD8HErvS3t9WuGBbaFItCMk/8C/Wvvv/AILVSvpv7BmsiMFPM17SkEZ/6+0P+fpXwr/wRPtrS9/bitLvUY4WEXhLV5U85wF3YhXkH2b9a3j/AAzNu8j9lYLgxaWsl3NbQMygBRLhM8fjmnBbgw+eXjuHkIRnYEhcnsBwfqeagk1WxuQFbU7SDyvlAjYNtI4444p1vdQairQG/mvCDkMkRUD8RXOtjUseQl/D/o8syRhsfuY9qswI4x+HX3r85/2tb9PHf/BaT4beEIbkOdFWyjlTr5ZEU1wQffLK31Ar9G4TY2USWyiOFyDtQZViTkD68mvy/wBJ1KLxn/wXskZpPMXT9buhJIvzjEFgqYHsDkVpHYmTtoeUmWHR/wDgsbJK0ixKvxfnXeW2gKzPx+tfsuksv3Y7iJSCQRu4IHfjvX4d/tG3w8Mf8FUtWugXkWD4twSFix4D3CZ+nDEV+3Olf2clytrC3BAcQkcE465qqmqTBbli21Cw86SOO6DHPeMgD2Lda8V/4KK622k/sXfEbUBtVz4blXft5IJA4PUivbTdN5gmt0WSbcVMQfauPrXzz/wVGuZ0/YV+IUr20cDNpqJlXySDIMjNRHWaHuj4x/4JqeBLT4q/8E8/jz4Cj+eW7wVUpnDJb7x/KuD/AOCH3j8+D/2xj4PvHcJ4n0Ca027iB5seHHHc5U19Bf8ABA3TLbVfgp8S9OuMPFc6xFHKrc7g1uVIPtivir4ReJL39mj/AIKKaZO263j8PfEWWymXO0C3eYqfw2uPwro7ozk+WCZ60thJB/wW0UygxlfihCxJOcHykPSv2NRGYM0EagMeCBjNfkHawy33/Bc7Is3Lt8QVl8vtsFuhD49wOtfri2rTAJLJbFEdyowrHAPfgGsarskWviLCqyyKrBNwPIKZyM81+Z3/AAcJaisOn/DDQIpZ/Lkk1a5cyTEgsscag49fn4r9KWv2aJonV/O3YDLEcEZ/2ttfl9/wcNXsMviX4YWAtHZ00zU5X8xhjkwYwMn3op61ByfuH5nSTjDCOXAB5Drznpn9KLS5mF4qpGjMpDr8nBwelV7q9nu3DSKqOwHyjtxUtlI6M6OxZ/IcxFTzuwcfzr0ZaRbODl1sfvt+wh4fudA/Ya+E0NvdW+nQ/wDCEWc0zSh1G6QGRh8nqzEn1JJrJ/bX/ZP8GftqfDHTfh34m+LMmgf2XrZ1G1fTrQzJLLsKAyCQjcOf51T8W/FfxB+zr/wSvt/G3hTUTaax4e+EWmS2LzxBws7wIqYDehb+VfCXgT/guz+0zoM66b8TvB/hjxPbxSGNmitHspWxgEK0eBnI7153s5Tk2jr9qqas1cf8Vv8Ag39/aU8MRy3Hw18deFfFkTD5YnZ7G5cKpYEZYqcnA4xX19/wTH/ZT8Z/ss/s1w+EPip4Wi0jxTqmtXOqavEsqyNGSQka70+8AqDAPQVy/wAGv+C4/wCyV4ygNr8VfBmueErh4VjMkiC/twQcnkfMvA7/ANK+yvBXifQvHHhPTfH/AIJ11r3TtatI7vTr4LnzopFBHB6Hr19aVTnRcKkJdDgvEmLC7iVb8MJx8rMjbmPTaMenHWtrQJRZWMjJepFIy7PKmXBf6A5BqHx06Xl09hqku1VfJMcKh8jscVl6fJHa+FpQ85TzpyEY9sdh6VmlZFvc5rxdrenprUtpdM4K5DFmXA/LiuD8QeKomY2du+wIf3UgiHmg+/rWp8R9SsrOU23mMwEoZzt5PuKydC8Nt45+IGmaLa3Ikju7hY2b/Z7k+9S/isITSNLN9N/b2sz/AGa1Zd00wc7Qw/uL6nuK09L8Q+HiZbDSEWIXErETyPiZSB1Ufw+teq/Gj9na3bwhFJ4IvbuE6XB+8tcbzKvdvrXhK2FnaSBtXjUuWx5qLsLH1wOnHBpPQDfkuTZQyS2mkzyPj95PdMAWPYn1zUXw41PxBqOozz30sMUzNiOGGQk9entWTq91cx6ZLHp+mTTwqQGw2SfTpV/4f3+om786DSjZoVw0s0RDA465NJayE3Y9m8KXlzodg0cNgGu5m+bkM/4HtT5bW4tryRbtXuL24bPkOMhB6k/561z2hXF/a2zX0oDuSD52en0HY10+mxXE0C6orvE/nKWcjJI9SetaitfUu2Nu9rYFLq6ie4hUq0auS0ann8BnFTwGefUIrmS/czxon2cSZwmT1H+e9QXlndXSST29/BbZfM5nGXdcjr/d9ABUl3q0TXe8wlzDGoVXk2rFjuw6E+goGlYvSxix0ddPFzOZJFzcTo53OxY/KPTPr7V0fhXwvbaNH9tkQGeQAhVXCwj0A9T3qh4G0G6nK+Jta3+U3FtGw5ce/t7V1JDBRvPPJx6CmkMTJxtzwOgoooqwCiiigAooooAKKKKACiiigAooooAKKKKACiiigAooooAKKKKACiiigAooooAKKKKACiiigAAAGMd6y/GHhDTfGWmLDexETRBjb3KHDRMOlalBAJyaGkwPB7m217Q/Eg0bXoWuU2lHlVcuo6ZIPVT61Q8ReFntQJtGjZY4yWZDypB5x78cV7j4j8H6X4mkTUZwYby34huF6keh9RXlnxWgi0mOXS9QjFpcn5kKMds4HRk/un1rBpoDiLfWbTWtTe2vkCm7JjtoVTBjK+tMv9FmFvNZm8FvKISYHl5z6c9qr6FbzXebu2UyXBYBZu8Y710PiDTLW50h4XuRLcsMKYutJagQfCjxHqwun0bWgreSoQyx/wDLQY7+tdjpUkyzMvm5TccoRkLntXkXhPU9Z8IeNERoHkt7hm82N/4MDtXtGitBeznUBC4jkiB+zxj58+p9a1iBo6ZIbS6iiuAHWLkDbySRXQf2bHpqwWUtyGef59zNnJ/pTfCGjwa15mr3M7AlikY27cADAJFVPNa41SWGZA6W33pF4AI7fjVgSTm1t5nRXlUeV+7DDPlr3b3PpUMETarqpOoXweOKLdHGRyWx8u6iKzfUN9wcz87oQhxknsfXFUZ577R5BDbWO+a4l8sAnpkc/hQAeOfDEXinwjrHg1mjSK/0me3lZgNpaRCvPr1/Kvwi/ak+FOk/CnUtN8GSeMINV1TTxPBeNBN5pWFSQgI/gA+7t9q/dqUXCzrHcktFDAdzGQ/PMRgfUDiv5/P2iLTVNG+PXjHRdXDvNF4hvFlebO4/vWZSM/UV0UE2Y1Frc9i/4KDeCUi+HnwU+LkYd18SfDi3trnKn5pLZ9p5Pfaf1rwPw78StU0LwRr/AMP4GBtPEcFoLtkHzp9nmWWNgvQnO4Z9zX2j8afDUXxj/wCCMXw8+Kdkwe/+H3iWW0uQBuIgeTDZ9FwV/KvgwCWKbyZw8EQUoZpB9/HHX3rpg042MJp7n0d/wSe0ux8Uf8FBvhlp95bGSJdZmunK8FZIbWeVPycKR6FR6Vb/AOCsVyLr9v8A+KE0hG865bJkj0sLcAfgCRVj/gjNb27f8FDvAPnYPktqLoc56WM/NQf8FdNHbTf+Cg/xLiuFJ8zWLO4QZ/56WFuQfzqL/v2zTR0rHzFY3JF6GkRmAkRTnueef0H5V+6f/BGjxXYy/wDBOnwd9qd3+zXuqwFFTLqBfOQFB6jB/Wvwo+2zPcxeZH5cedxZOueMZ/Ov2o/4Ig+K9BuP2CLWz1LUi5sPF+rwGzhXdICZFkVQF56Nnn1rHE6xuOj8R9uWeoveQtNDCUSQBkll6N2Ix2I/nU80HnFW84rslQZQ9QM81zFtrE9+yQR2i6daRbvJUNukJJIKlei+uTyK2kuJ7B0stLtGulKg/aWk4Rl5xk9eM81yRlZpG8j+ev8Aa0lkT9pj4iy7WYnxVqOd/XJnfmv23+IBGn/8E59UUNt8r4YNnHp9kr8Qv2k9SufE/wC0L401Ty1Q3Xim9Z1jOQc3JFfth8dhd6V/wT68TGW4PlR/DHa8e0DBNuF4NdFT4kjKC0Z+en/BB20N1+1tql+tvGy2vg+UkyHhizgV+vjTb4kguL23gJGVbcCy/T0r8l/+CA2h2Go/HzxfeXkKs1v4Ti8sO2AoaU5H6V+r8Z0y1UrbXxAZvlEEbMV9s46VjVV5GsdEh6EzXSySatMuFwH3KC+D+dRa74u8KeHdFm1rxN4ls7KztkU3FxcuAkZ3dSfXsB61n+JTpPhvTbrxpq+vXscNlaPcTTNFykSAlsAjrgV+XPi79tbxb/wUF/bY8DfDXSpJdP8AAMfiy3Sx0oylftyxybjNPj72duQp6VKi9yXKzMn/AILlfBix8C/tG6X8WvD8Hl6f440sTTPEPla5hwcj3dSM/Svpr/ghH8WE8S/sz678NtUu1abwpr/mWilmLLb3CbgAOwDK1c1/wX006HUvgr4H8TWVuGNl4pkhScLhY1MTAD8xXmn/AAQM8Wra/FTx14SuLpQLzw5DdhlPIeGXaRj3D4/Gtm70ri2kfqjZ6hFPdbLe0kcjJklCbFAHcE85qL+1oTMzrcxBCckRqzNj64quLu2aNo47t2JQLEiIDgE8kZ9KqTSj7QbC8ju3QswjjeIhSAe+ztWGwM+Uv+C5mqon7DMqIWRrnxbpcURl4LYl3fd444r44/4IY6dHf/ti3d3PbZMPgLVZUUjOC0kA6dAOK+m/+C6mrS2n7Jfh7SmsPLW7+IFt5ZVNuFSCZsfmAa+f/wDg390qG9/ai8S3ktuAsXw/nUsRn79zGD+YGK2TtSbIv+8sfrNbaxbWf7m6EG4uw8vzF4G484xxUk15iVZLuVTA3EcUIaQufcDp9aki0i0ilZ7aWRiw2KojG1e5/Hmpvsdtbt5hjHl4BdjkjPpgVjaxrzIoLqEC6pBZ2Wk8vcIJGMo/dr16Dp909fWvyz/4J5Y8c/8ABXjxb4suWLSwya9ciSM8HNyqgg/7o/U1+nXijxXPoPhfU/Et1HHBa6bpl1ctIOMqkbf1Nfl3/wAERoD4j/bB8Y+P7mYsbTwzM5zzk3V11Pvha0gm0TN6o8e/bckXT/8Agpj4uuLiLyWPxEtJAWHbzImDV+2OlWt1Hai5a7ZY5bdCBHEDkFR3r8Q/+CnOpXOmf8FAvH7tON0XiW3ljdU+ZQqxkHPbtX7P+FvGofwbpDSXqyCfQ7V9sSbnZjEp/I1U1aCHF3kzo7eC+kgeyF0kEWfkkcAEj2FfOf8AwVev7Oy/YA8ahLhmzDBGrF/v/vRXv8ejWupWkchZomUbjIzsTk9sDpXyr/wWbvrHQ/2ENe0y1keWS41myt5ldSuAXJ4J61lF++h9zzf/AIIDzzWXwW+Id7Y2RlmHiG3yrPwP3J4Ar45/4Kt+GW+E37eniq7gV4vts1rrdqdmFDOqswGOuCtfXf8Awb8ajcn4T/ES1tbfzGHiS22q0m0j9yRya8e/4ODvAz6X8dPBvjryYo21jwzLC+HyDJDIOp7nBNdK0qNENc1KxS/ZS+Jun/Gz/gsL4e+JGkzm5i1UwTyXBbguNOUMPbDA/nX69DWbOPFvezWsaKcSAykkDjHHvX4Z/wDBFqJtV/b58HCNt4WK9kbJzjFuf5Yr9wJ/D2jaZjVrvUI1YYZ5HiDs3oOfrWWJXK0hw6GhB4j0ea1ItbxeHwMPj8ga/KD/AIOD9fstU+Mnw/ghmDm38J3krIHwE3XMa5wPUKa/UPWdd8mFJdPsIpJDu8t5MIM44OD71+SX/BezxLfan+0X4Os76ziR4/AhbMeMFmum3A47ZUfnSo/xBz+E+DJpot4uJlDKBkbDyBk4pbeeRoLiWyyj+QwgkMmGRipAI/HFRTNdXnyl41HRcDpyelOtrdraKeZSzmK2dmdVzjGDmvQn8Bx31ufvB+178Jfit8W/+Cel38Fvh14S/tDXNW8EaLBbwwlUACeQXUE9MKv61+MXxw/Zq+PPwCuS/wAXvhfrfh+Ge6MME19ahoHkxvwrr3PNfv5pGr6c3hPSJLXULkF9AtWmZJT0MCDnke1fF3/BeC+sx+yP4J0opIpuvHqtF5z5d44rWTJHJOASPzrhp1HznbaMoan5RaZLFK8r29wyFbV5EZV3Anbx05zz3r+gr9mHwoPCX7Inw+8K6gryvp3hOxjm8piCWaHdhh179vWvwE+FcEd34oisRpLT3N8BZ2MQjDKJJpFjUkGv6FbDRV0Lw7ZW/wDaYaSytLaKeFAyglIUUjHTAINaYiasZUlYyPE1pBps/wBjT5TJ86FEwoOBwT1P41lXFpLYeHYpRA8iSZeRF6oT3qz4q1qe9la2VAAxJVCDxxx1qv4sa8m8PwCyMglhtwD5K5zx3rj5jdu55t4iu1vp3M0IldGIVc5YrVX4XeMtJ8EfGjw3oemzRz3N9qaiUSjd9lQg5z71l+NvEGoeF7WS7lRTdtnyh2QepFecfAFrrW/jt4ZvLu7aW4fXAZpS3LdTU3vMVz9J5bqBbpIdxHnl/LJXIOO3sK+eP2i/hZP4N1xvGei2Qk0u8INxCUz5Mh5P0FfRT4Dkq3UnNU9e0LT/ABNpM+iavarPbXC7Zo2Gc57j3961cboZ8aCw0+S1e5s4TGplyWjuDuU4647itHTdQNvEsSRStzlpJTnI9eaZ8a/hV4i+FXi02FtOZbNm82zmkY5ZM9M+o6VjaXfXeoSeRrU77MnEATO705rJJxlYh7np2i3P9tXy2i3U0ccbRtKCmA6jsDXWX3jm000mxUmO5ncx2yqdxjA746f/AK68+tNTe2trWV98TKoUxE8dRj8av2aSwTy32q6kAVLOZMZ8tfb3PT8a0KWxvXPii8meOaG4CrbSY8pRl5HIPH1Ndt8Pfh7q+ttD4l8ZQvDAr7rawjbG73YdxVf4M/D1bu3j8a+KNGaNic6ZZv0WM9HYep616bhg3zZDD7w9PYVXKxjUUrtAG3apAUdh2FO9eevWgAAk+vWimlYAooopgFFFFABRRRQAUUUUAFFFFABRRRQAUUUUAFFFFABRRRQAUUUUAFFFFABRRRQAUUUUAFFFFABRRRQAEZOT1rB+Jnga2+IXhK40SVFS4WImzuWGWV+oAPat6gcHI9c/jSaTA+XfDw1HQNWl8M6jaqt5HlH28AkcHj3rp9D0QSBr3DwsvCQSj5ge9dx8aPhxY6hPF46t7NnmtwFuoohzIvY8VhaTqEV3EguikM6bQlw/LRruwcjvkd6yjGwGJ4p8IRtaiZkBl2jyrhDggdxXU+AvElvqdotvf3McdxZARxOwx5mODn2qh4m0u2vWNr4evlJQZV1fIPvisLwf4Z8aan40trW6s1mt5H8uWWJtoWMclj754rRID3bSVWGwimKAF0zhRxXOeILMwareFrnZFNEJCix/MzdMA11SRxRoscS4VQAo9BWJ4tSBLyG8nY/c2qB3PWqAydNuo7CyjgXzJLghmiQr/qj3z71Uecz6idQuZCsUKYY4x8/90e/vTYby2n1GWbJYlSdvZWqvcTS6+xtlfYmQAsK5Jbsg/rQA6a7e7Ed3FaGCK2jypc58xyf5V+N3/BX34a2fg79sXULzS7QxnWNNhu3SIYDzsfmI7dBX7OS6fHp1otrfM8kpGxkAwEHuK+Lv+Cvn7Jdp8U/h9o/xO0UKmr6K0sM4jhLNdQuvyA4/unJFaUpcsiJxcjyT/gkzBpP7Rn7FXxl/Y61Eh7u5iMumROACvmQthx/uyxr+dfnX4r0DxJoetSeHNZiZLq1d4LuJBkRSxu0bBgemGQ/hivtf/glI2sfs3ft3xfD/AFS5Fuviewl0mO0eTkyNCZYZH/ur5i4P1Fdb+3j+yunhL9o7Xm0iy0y30Lxokmp2F/Jar58N8ij7ZArEfdby/MB9ZDWykoy9SZQvGzPG/wDgiRoF7qv7e/g7WRbvNbadY6ncXUgyNqfY2UA/iSD75rsf+Czvwd13V/259U8V6S1uLbW/Cem6g0t1ciIBoIXhlzk/e/cjBAr3L/gjx4Mln+MPjLx7Zafb2/8AYemXNj9lYqdhupY5YpOBySruv+7Wf/wW8fwV4J8ReC/FvinRJNQ1rW9BvtPttRtjsijtobqGSeJl6O7LK4Q9txqVP97cLKMD83/DHwwu/E3hk+J/+Ey0i0QTW0BspZz5ymYOqMy4+7kAFs+hr9Tv+CDuuWNv+zV4y8Nfa4nkg8YR3DzxNt+yNPaqg5PXJizkda/Lm2ls4LK7u7O4IuLS/LRwSBWU2x+UZPcoAuV7nBr9Bv8Ag3+8QXWo678R/CEdnEpGl6XfxFxtZxHNJHux0BC8fhTrq8CKWkj9M9Hs7WdDNazvHKZS63EqHMgOeEU9c+tacGiy+bFcXV26CIMymUhCeD8uO/FELW2j6dHLJKZ7pl2K2AxUnsPSpLN9S1AJM+iIhhkKt9oJzggDIH0JriW6Zu9T8APif8I/iNN8Xdcvrbw3ObZ9eknModRuie8ZQwycN06V+w37c4nsP+Ccfi+K3YPdJ4Lt40WMEsMhFK4B69fzr82/2oFsvgb8cPFngLxxDe21/pXiB57K2RD5N7bC5E0OHbgfK3Qepr6n/ai/4Kk/s1fEL9jW/wBE+HPibZ4p1a3toE0qW1YPZyqyszvnhlG0gf71dEnzNMzV46Hln/BBrTodM+J/xB1jVtPuLdI/DdoqmWEoxBlJ4DCv1I07XLm6habS7djCiEh5Dhj7cV8S/wDBGmyudf8AAHi34va/Y3bWeq3cGnwNfSArIY+XaMkZ27jjHQV9nRXekT3TG008wrE2wMVbax/lWU5XkaLY479pO58QRfs6+N769OC3hO+aNM5APlnAwa/ID/glj4Z1q5/br+HP2tVWV52u/LYgBcRHBr9oPir4YsPHHwq8QeGdUjmMV/olzDMI2AYq0Z4X3PrX5cfsG/AzS/An7YvhPx74R8f6JPpOk3S2t6Ly5WGdZZS0XlIrH96RxyOnNEdrESV2fSX/AAXMgu7j9kqw86fTV8nxZbttRuuFbKgepr5t/wCCDtk91+0/4jngLxqvgybcxHA3Txkc+le4f8F07oX/AMO/BHwwtNTtbe7v/FEt7MxPEcEULZeQDnAJ6/Ssr/ghv+z34g8G6j41+LuqXGm6hb32nW+n2L6fcb1JLb2/DG0465rRq1Kwt5n6HR/Y9OeObUb8NMxZEBmyD7AVZc3ssYEcMUe9SC8rcj6Vk3a3N15d1a6NZL5LllMrkkc+lWLW5mlDi51GIyuykFYSoUdwDWDKe58Kf8F9JEh/Zy8B6cJGIPjVjy2clbOc5H6V5D/wb76VKfjL4+1S0z5lt4PtII8d/OvCP02V6l/wcEXaL8I/htab12yeKblwF6fLaSAn/wAerg/+DfeG6Hi74n32lxBpodB0hRk8/wCumJwPqM1vb91YhL95c/TacaxLdiW6DNEsTSKEmZcEcdvpn8arwnUpik0FmrGRcFgxIVRz0PerNxcSpGouNW8veQBAkeSD3BNStqkcxfyNPlCxHC7SRzgfpWL3KPK/20vFMPhb9jz4k6x5TwfZ/Bt8I3ZMZZlCrj6k/pX4wfsb/tx+Of2JvFmueI/AvhbStUk1mxgs7qLViyIixsWBBU+pxj2r9Z/+Cr2v2/h3/gn/AOP31C38tb+ztbSBY+GMkk4GPcYFfIH/AARR/ZZ+D/xt8F+P/FPxK+G+ka3cWeuwWllNrNv5ggXyFdgue5LZreDUY6ierPiT9ob49eIv2l/jR4g+M/inS7SwvNdbzJrWxz5UexFAwT1+5nNfvd+z1qmk6l+z74N16WSB1u/C1k0bEncf3S8jFfjF/wAFVfhX4H+EH7anijwP8OtAs9I0qKxsni0+xi2QqXtgXIHuST+NfrN+wNNNrP7F3w21m4hMw/4RG2SLa2MsBjGaKusExR0mz1ySCdbLZobkBzh5MEKDnPJ618gf8FvGH/DEVxBd38TSS+J7FdkLkhcZ9a+uL6N4WUagQsLcMkMmD/u8dfrXxv8A8FurSxt/2KI3ttMECyeLrTAZ9z9G5Nc9Nc00aPRM89/4IDqF+GfxJkleSRU1+1O0XPlIP3R5LYzU3/BejwNBr3wK8H+PbCFZH0bxE1vNNGxcBJ0PG4jn5sU7/ggFp8d58M/iTDPDhW8QWSg7Rg5iPY17v/wVt8CWnjb9hbxnpVgUln0eKDUbYQxAY8pxk8e2ea3ldVSYu8D85f8AgiNCv/DdeiTSOIjbaFqMhY4AH7kgiv2outQjvrKKHSYLqeMxr5pEAwSR/eb0r8gv+CGnhhNU/bJuNQiuDDJZ+FrydSkQbAYheAe+Div2Gt9AkitHh1LULmRXjwqysF2g5xwPpU1/ekKD0MN9IuoVMt/ZQPs3NuuZ8sVHQcCvyr/4OAtFvbb4xfDzxLJawLHe+E7u3ZrdTtLRXCtgnHXD1+rV9H4a8PIyyXj3OSqlMMoBPqR1r4R/4L1fCCPxZ+zT4f8Ai3o9uqDwd4haO72lmItbsBHPPo6oc9qilJRqalS96LPyJRWmA8lgq5J2+mTmr9vfSxW09vCCzPbMr/7vDEe5OMfjVBkkjceQmMSY3A8Ht/IKfxq0ZbkHe7iPaw+cD7vIOfzA/OvT1lHY4bSuf0PfCHx/oPjr4JeFfHOiWCXGi6t4UsbhbyIrxiGNGiP+2JFbI9SK/M7/AILy/tI6f4m+LHhP4C6Zq8U48HaRLeav5YGIby7I2wjHGViVc/75rwL9n3/gpN+1F+y58NL/AOFnw08U240iW4aa0tdStBcf2dKxJZrct93JIPsa+fNe8Ua3418Wah4o8T389/qGq3rT397dy5eeZ2AZj1IA64HoK540WpXNnVduV6M9c/Yi8L6v41/ai8B+GdJiElzd+LLHDs3CiOQSuAO/yrX73+J2T7SS0aySTSAmDplWyRuP41+bP/BDH4AfDnVLXVfjl4r02SbW9H1oJ4duVbItiIQGlZODvIbj1y3pX6SgXV7MkGm3UnljBWNLbO7BAzk+3FYV5KUrI2pLS5yviayms7mJCIoyckqnzbR9agbUxbRSotu0m6L72/oK3PH2mTQxtf8A9mugCnmRduCD+uf6Vg6ZZLrFsI3JQxkfIBy34+lcr0NlF2PH/ivZreWshi0mR3CkFieDXFfs4eGruT9oLw3PBbiPbqalkRsgAA9q9w8a+CdSm/dxS26q4JEeclj6e1V/gz4W0/wv8QdL1rULdIpIb0dF7nip2lcNEfVgIbn0NL3z7YpWC7iykYJ6CkrqWqEzlPjF8NrP4m+D5tEZkju0TdYzsPuOBwPoen418n6nY694R1iTw/4j06S3nh+WQtnOR6dselfbdZHivwD4Q8c2ps/FOhQXS7cB3j+Zfow5FRKNyWrs+RNLvbkA3MKOqO2S856N2KjufavbPgp8JrrW4bfxH4vtZvsMbeZDFP8AfuWzkMw/u/8A1q7Pwr8Avhh4Suhf2OiefKj7ka7kMu0e2eldnk/wgKuPlQDgCiMWhpWAgbRFsCrjhR2HYUEk9aKKsYUUUUAFFFFABRRRQAUUUUAFFFFABRRRQAUUUUAFFFFABRRRQAUUUUAFFFFABRRRQAUUUUAFFFFABRRRQAUUUUAFFFFACFVZSrKCCCCCOoNcl4j+GEOpTBtJkWEK29Bt5Vs549R7dq66jAxilZAec2nws1a8vZLXWbER+ZlU1G3ugCuO4X0Ndf4R8H23hDTvssMr3ErDD3EvXrmtfJ7GjHGMnr3NMAPXisjxi6QWEU5g8zZPwB1JI6VrkknJrL8X2tze6WsNmfn80bif4RQBy1pp0sckVrZRxxz3LMs29uM+p/CtOx0O0sLeOa2m2ojNulT+J+5FNsYrOKU2+1Y5Wj2wb/1NRyXI0+ZnklYQxkYRex9frQTzIddm3gtZtS1OQtGFURhf4znofWuV8W6KvibwrqNt4ntbjbdWs5t44AN7/uzs256EY4rV1XWZtR1mG4uMCKBSYrdV4P8AvepqjqHiKG51YRT2xc26+Y8wk+8Mj92o7VCbTKPyb+Ofwp1v4N/tHt8XPBeu30dwHW/0S1vGxcmGN0Y5J65c7fqK/Qj46eEfBP7aX7H+h/ETw08Iv5oItb0mXy9zR3QUJc2jAdifMQj1WvOP2xv2Sbz4ieOPDfibSdHTVLy1tryS8glk2mazluVkCIeCrRsFP0r139hP4e+MPA+gTeCvHelWdpHa3b6lpVhYr+4gBYK6Jz82UIY/7TNWrlewKLscd/wS4+GnhzwJ8Fdf8V2HheaG+1DXIRdm4k3s7wxyCMt9F2nHbpXJf8FaPgL48/aP+FfgQfDnQbW61HQfFc/2qecECGGS3PQAHguv6V9ORWPhr4U+EH8PeElS0S9vJZmRBhpZJGZiT/tbWx9MUvgmbUZZWltLSS5UyD92/CZ5wWPqMms+a0roGr6M/Klv+CJn7b3iB/8AhK4LLQbd3CTRQQXwBVVUKuVxgHaAfxr62/4J0f8ABODxn+xr4k1T4nePPHim41vRF01tLtcynPmGTJxwCCTj619pacwe6Da3qf2qXa3k20TbY1fJ4bHWnto1xpynUNQvS0ofzV0+0jwPTr9KJTlLcEoodbtJp2nie2VnikkBj83/AFpJ6cduK1NGkvzE5lsZ1y3HmOATnqefris4vGbQXkCRxzKFVAz5aNcelaVve6X5KXAEt1NENrOgPBPrU2aQHL/E34JfBn4sPDF8UvhppOszRSoYGu7dXfjoWbHIyOmegFYOrfst/sqyaQ1jf/Bjwp5EqDzGm0yPLDjoByK9F1LxDZwQmOWaLGwlkij3n6cdKz4tX0C5tori88PogX7gkj3N9ad2S5B4E8PeAPCHhyz8H/D3w5BY6daJthtbOxCRRjOcit270eC7tvLuGkCBwQGfAB9cVXt9bsVt2jsY5Cm3cRFCVA9jUdvquoXQwNH8qNhxJdSgKD24POKRQ25h0G0uBE10vCMCpyQQBnBr81/2sf8AgkV421r4pah8ZP2ZroPpt/O99baXFcm3msbxm/5Zk8bN2W4r9JY1huIXE8RDuSskdsARx3B96ekS/YQ02lzrEq8DAzGPTFVGTRD3PyM8Xf8ABNX9vP43eONOi+KN/dNKlqLa517Xdc81YEBGQnPIK9vav0j/AGRvgV8PP2XPg1pfwe8H61LctaM82oXiQ5N5cH77k+nQAe1emSXOkzsGaweRwoESPADt4x0qe5hnKxmy0+aGQkFmWNVGO5olJsd1YrWtzBqK+fDbX4BJPmyLsUYq4Lm5+xmX7XbIp+6Qm5lP48VW1myluYzArvdncMwrJgFR7082t80LeRYxxREAC38zHT1IqST8/f8Agt94e1T4vaf4D8F+Df7UvbvRbu8utQNvo8rxKroqA5UY3cN09aw/+CHng2P4c+OPiJ4L8eJeaRqut2mmJpEN5aywteQxyTtKykjBxlR+NfoxdxW0ULzXzWssTRbHSWYthu4Ht0rN0q+0WG5a8vFs5GiXCH7NseJM8gNjNXzu1ivdsb8l/pEMUVnOVjdvliCRktnHoOn+OaTUbvT2sDZziVEnUqu5sHPfjtVTyZ7uCR43jSCVi8KKCrMevJ9OetVYEvmuxcT2sKsyEgoTKT2xz06dai7ZJ8g/8FnNebVP2TrP4Q+B9L1PUNQ1PxDa3L21tbSTP9mi8wlztBwu8D/vmuZ/4Ii6FceEfgF4z0zxZpUtnq0nizz0sL6F4pGj8hEDhWAyMg/ka+3jBcy+Wt1Eis+Y3neFcAegABOOev1pb3wTaXLPqFx5QumwIzDtiG0dTgcmqb0H7p+Qv/BVz4aeO/iZ+2brfjHwR4ZvtU0q8hsbGPU7W0Yx+fHbhXHTsTjNff8A/wAE9NS8SaN+x54I8LazZfYr7QtPazuba6jZdjK5CnB68V7q2gxzyLp8MFhHAkfzr9k3nHrnHWlt9E0S3T7LaRSECT97PMQq568ClzNqw7xRHpFtrFxG08bLNIrZeVVwo+imvmv/AIKxfCLx98Zf2abXwD4C0K41nUm8QRXk0FmmW8tAf619R21how3772UvJwVTIyP6VPbrdeZ5Wm2yrboQqs4xz67u9KPu7BzI+Lv+CM/wo+K/wr0Px1oXxX+HepeG5dYvrS5sJLy3CJKiR7CFYdDX1X8cvh34Y8V/CTxH4DVEn/tbQ7mwCH70juh289ucV0V2qNJJBHqnmOR8ybyyKO4GKp3bW1m6/Zr2X5F+dmgB39+M+lOUm2LQ/Pn/AIJSfsU/tE/suftF6x4l+KHgptPsH8IvDaaiZgUZ2lXaMjuVFfoNe3A09ceINYN1E7fuoIVJIDc/e+tU4NesLu4kiubSSOMLlXu5NqMR6L3qe2k1vU5I2sPsX2ViI1g+y7mxzkknpTcrg7X0CW40m6hS0gs40kD/ALtd4JP1561yPxj+FXhn4reAdd+HnjrbcaBq9g8GrRNCPNAODmM+oI3D/drsdT8OPDGZbjT7XfhQsSrhjjuMVDqWiMYY7y60+JopF2eWZdpU8YJOai2tylsfgV+2F+xB8T/2RPiFdaFrmkXd14fkuP8AiReIUgLW91bnGwFuiSBSoOe+a8iW1M0ZhdGf97t5PIbsvHB781/Rj478O+CfEOg3Xgz4geGdO1bT7pBHLZ6htlt2Bz0z90/7Q6V5hrf7B/7H/j3Qrbwvdfs/aDHpsFwrW40d/JdWU8528twTyTXTHEyirEulTevU/Czwh8PPFPxG8UWPgfwhoz3l5fyyCNIecxxxPLI7N/CoVGy3Ygetc/ZaTFdoWieKIRsqu20mR0ZtuUHRgBjn1Nfv74A/YZ/Zd+ENrqU3w++FdjpFxruiXWkXOqQyGWeC3lDqyRBvuuVbqP7tfMmi/wDBFr4OaS99Yy6vPqETxHyL37YAbd2kXySF7qqHJHqtX9ZZMqCkkdH/AMEYvC+maf8As46r8R/D+iF7fxD4jeOyivY8zPHBGsRkB6AEjj6Gvr+5vNVt3SFvNso1gJmkZQTwewHeuB+BHwg0b4GfDTRPhR4SeCO00OyW3gulibEzjmSVh6u5JNegGTUdQnjN74jjAxt/c2gxgfXkVySneVzRR5VYzvG2radJoe4zXU7soCmfIJ9DiuY8FXFtp16t3ehgYDkJu6nsK6bX7GW9tpDC7TIj8S3TqAuPQCuMNw+n30t6Y1BDDcJBkMvqKh6stOx0Wt+Vr8v2i2iWI7jI8bEAA/3ePWsrT7GCXxFbQ29qxK3cRwh4U7hmt+w1bTJrffLtcOgfasWfpTNMW4fxJZiJ1KyTK0ipB9xc8frStdierPaJipnYA8+mOlNpdxwUK4APHv70lbrYQUEZoopgDfNwaDycnsMUUUAFFFFABRRRQAUUUUAFFFFABRRRQAUUUUAFFFFABRRRQAUUUUAFFFFABRRRQAUUUUAFFFFABRRRQAUUUUAFFFFABRRRQAUUUUAFFFFABRRRQAVS8SG5i0Wb7DEXm4YL2NXap+IJZIdFnljyGTkc8t9KAOTle+v1lhR0Fy6APMRkj/ClltvtyR6ail44SGkdxgzPj+VMgubC3lW2iLeZcKXfcCNgHfPqapx6/Jb6i5tZg8sq7VLnIWgnlY3xDZ21m/2NJlPl/vWCn5l/2aox6KkQFw8Km9++3mHAVMgjn15q7FZWWmTpcareKZmJLM/ILf3sdSO34VC14dSjlcNmC3cA4I3SNn7qk+tZson1Zbi4Buf7P8s4kSOZIQZM4U7I264PGa2PDVrc6JpzQT2i/blXJUHBhjIBCAn+IkDNV9ES4uZJvE2rBBtQpHCrZWIDsB03H+dT6hrULxxXbQhHkH2iRJDksAcDIH0quZC1OT8ZWtvqN0YrmOGEqy4gG5m3HGdp/vDp+FdF4R0h9PCx6hCZbYDEaBiNzepA6kVR1WOWa4fXbq+hhgmCs00mFbaT91R61saLfIbHzxqcxWSUqhf74A6FR2/GpYyzFDH9rEOjxrEzTBpGB3EkDsO1WbqK5aW4jgjffKm0h2O1T6kj169qhnlmtyLPToliR41d/JHmSu+f42/hz147GodcnXSrgzXt/wCRE0Y34kP3seg5PpzQBeumtdPtlgECKqoF8yJNzyuQOAOwzxmoLW61Fbl7DVGW3geMGOFRiVm/DrUOm3H2VobzT43Zp4j5Zmj+eTnHA/h+ta9orRAO0BeUYLybd7xk84z2pt6CuizpGnRtay20di0Rd8H7Qv3uOvFR21m8MTI5YiNTuWOLB+oNOvLfWdQl/c3iwRIv7ydpM4zUdskulyGZdRN0IwA7tJhF98A0hWuNg1GzjtxZTWrwtM+A8jjd9aW+0bTZovLvGubiZeI5NpAA/DimamusSp9v0y1s5mYgBnUfKvcjNVjrfi6dGhg0jySW2pK6gblHcZoHexYhhv7P/RbCycgR/ctlJDe5J71aSysSqG+kmJIDMskpBLehFZxvL2RhHPqkysWCtG9wFGB1YbRk1MfNkctaWM7K45wuXZT3yx4FBL1Zdm1WJPlsbcF+dioi8msnT9Q8Q6nJM0lxFA2dhZ+WHqAKln0hlVLmXSljkjY+U0t0MbR/EwFRapeeHTGs2peIIoNy4C2a/ePpnGaBFpYLXTo/7OtLqWVl/wBYZBgc9xk0SwrDCBdXMMEDHaG38k+4FZQttFuIVMFnJkt8svnMWI9wauyeG7mSASXjOqBf3SxDHY8mgBmqanoNgkdqLyBpVkwVtoN2D9P605M7jJJqCqJD08oFiD2Oeg9qo29rbC3jNpoZmljG+SRZATwAcZ989KtWVpZ6hFM2qO7xOMpFHIAOcYB4zkHNAD728e/k+x/2nKhhk2GV1KjOBwMZ7EVcbQVFgI76dmj6Km/y/MH164qvHrkLW7W9lAlqsa8FmCEsOOpHzdKpRW2pPcprlzeXBaPO2Nh8sgPTlvu/lQBp21zoOkySWltncEAKxqzY9g2KoXkN/qMwvILiGKPcBHJNIEZRg5GO5qSKG6upUj1PWBCqIZFUPu5z0yMA1euotIMCm9ktGhjXeXdR1P07igDJ+wC5HkTanMI8BpjFIMS8f3j0+lVF0WwtrSRp7eXa53RO0hkOc8dKna68M2ksdxaRtesRtaIWrNkZ7dB7VJ/aWrXzvb/YrmKDd+7ijCh0UDqRj+tAFoXdybqJv7KuGMiALLLKEHp09KWFblbw24EKx7irrG5O0kZzzx+lV28ss4ZFjuJUHlA3JZhj1A6U77TeWzCNNQeSUpjybe0wM+pZu9AF6XSvMjWKytwYyMxkv5YLe5HIFQQpdWaEQ2CIythmjg3ByewdutJa69qErGwt3begHm4IYj23DpWglq6sZrzV0VUO4Kkm5gfx44oAyLvwxd3xMclorsZAwEvJTPr2pLuybSWKvdkhXx5MR5c/h6Vcu7GKKRprnxFcyq4yirLyxz0OBT9Oaa0OG0wozOQCm0MM9+c0AZ9/reto8f2azkJjwCogOQuPWubv7zVtUuwFu9ihw00UikYAzzXU6xezv5jT3hhiT5VkEoJ567sGs6fUNCtbnc18knloVIigLblx0yQcUFrY4PxHoulXF8bi0v4rjfuMkKszZ6du2M10HhrS9EtrK0hv7kRuPuyLCytuHbj60sfiGfRpRe2WmWS2bod0YtiX5PGSF9qfb/EeBDJPrFnIVHMawWLOc/iBilbUZp29pCIXt4SscMTmTznQ5zkEH9KoakmhfbVttGsYjsHM/lbh09ByavWGu2uuypdfZ9SZWAMscln5alO+cn6VFZ3MVlJM+oMtm6s+0hgm5O2BjOfxplJpIyRHLdagxuJTCoX93IpCIZMjaDjnB5qK2hvbdTNLHbSybyLhRkqCCeAevFX7Xw+2oz/b9I+zqSxc/a7jmQgEgbcY5/pUb2mt6azXF/baeYGXaWW5G4seT8vXvUtNsT1ZVub3TdRiazS3UOpDSywp9zFcl4rEUNw0kQMhzzlMcV0NxbXCyGKwjkwync6A9T7Dms2/WGIJbXpjSbGCu4sT9f8ACpegJNmdp91fzTobPasYUK0m7BANdd4esbga1YySXcKiO4RSsT5MgrzvUgdM2zMWVXkO5QeCtdh8O7u0l1iyna4RIpLlBGrAktjsKcdxPQ9sEpfKtgEHoetFLvVxuUY9iuDSVstgCiiimAUUUUAFFFFABRRRQAUUUUAFFFFABRRRQAUUUUAFFFFABRRRQAUUUUAFFFFABRRRQAUUUUAFFFFABRRRQAUUUUAFFFFABRRRQAUUUUAFFFFABRRRQAUFA8TRsoOeeRn8KKMn8jQB55qJXEijImeQ+Yr9I4wfvVVstFs7f/TbSZd5gLpu6EZ61p+PdOe0vntbOFpGv2BcL2UdRVKyl09dQSR5JQIUJlDqMk9AB7UuZAY91p+rF4xPh5W5eQchE9B7VtaZYW2n6ZG6hCm/AWTu45LfQCs6/wBSvA5sopcbmw8oAwB1wKDfXsMWILb55o9gWVsjIP3m/ur39+lQBattRvdV1Fbq0hK2luS1tZAY8yQH77f7Jzn8KvXFjaaZp8tzHfTXUjzfN9nhEjySnqeeFQdPwqqJfsFkhhvFQNOoe5BAaQAZIUH7q5JAB5xWpeQm508aRCPKimIZYIoi77scZTuvqSaAOJlRbfxILmeMXSzzxIIHlLgNk7h6Dt0AxXfS2OjJBHeNcTSTeUUa3hXgOBj5vp6DmszSvD+maPctc3EyyymQAuVJ8pvWupiuoZJUeFJlMZLb0iXcW9duO/qaErgQ6UqaUlvc3bCKUQBolYAuw9FH8P8AOmvbyB/tctnHJdzMzbpnXbAvXcd3U44qtfX/AIhudYWK1sfs5YkLIsPmlxj1/hNNl0K7s7dp9SYxtKwZzdHl+Ox6DBGfxoAt6U8alr4StbtJx9slHJHoinqK2Lb7JZpg3jJn/ls7j588/dFc1HpC601tqNxdT3TStviTzAixcfdHHT6Yq28vlXCW0Vks0yuCylsKvuT7fXmgze5p3+s2zn7FbeH3nQMDNK0GF+uKkjneF2kj0UuGYqqQQhcdwTmmyanqTyETXapEq8snJI/DtVCfWbWS5Cvqly5wdqqpXf8ATjpQWti62sMJYp7w20SR53wFmY/QYBGaz9X8W6RNLGkSSM4TAkdCRFn/AGTgmpLPwrZX5a9aeQOz7m3p/gQM/hVhPDOlwyrcQREFH2styoy2e6nr+tBL3K1nLpvmBYjKJHiG+e3s2UY9jzg1cuLh7Sw/dieWeTm3WVM4HckVHdWNsk8llKrGMHKMi5x9eaz1v4bG7Frdyw4UctHDIWb8vlH4UCEeDxNemO+2KGjlAjV4QgdT1yDnpT4vBdhrF+ZpNVLsvIWNAET6EADPXtUj+ILcyiSLSJnjIGZCoQp7Lyc1OmpXkzpHa6RLAxJdGEZULjsWYAE80AW4NIsdMjafTSMqPmeRg7N6kZ6Y9Kpx3saB3l1cTCQkbwCwPHQKO3vRZsZJpn1HUQ3lg4RUyDnr8ysR/wDqpY7nRrjbbaRcAFIcPGisCBk9wMUARHVPDVlFG0upOpjTISC32hT05GMn6k1Ru9dgURnS9B/1SlpJ7zcCvJIOF9yauxW9jCstrNMkAliLCQkHABGN2fxqCCfRrSFXuzGxkST95sDHgkAheSw46mgCe2nu7xxc3JhfYFfBj2xjPYFh17/jVrWf7JvY5Jr5hIbeMbRArSEjr9KhlmuZtNji0u2ba6qxe5tAq7TxwGA549KzLz7dBKdKj1VYfLkAaWSbb8pBJ+6P69qALv8AaEUU/mWHhKZrcIHRWABIx1wenOaoT+J7WR40lsIkV8yNEcZj59AR+tWp9K1C5RbmHXy8HlBnKrggYxjJPP8A9enpp1l/ZoSGFcMuHMjAFx79x/KgDPbxx84W2nRFcDyVEDOAc456c/SoYvE2us5ur69SVQ5RFSMZI+lWxpPh+2g26xZtavI4MNsjYkAHrgY59qddalZKFOk6YsOW4jjtzI5PTJPQCgCY6xa2NsLpNPjRwuS5Qbvpz0pJL7Xb20C6Vo6b5OfMP7z889Kq3tpcNOFlSPzJGG8T4AB9h1I/Grceg6hcr5+qeKhahiVW3tdv3R70ALDpGpwQJDq0yoSSWtrZQpPHXI60tmLHSrIJJCZ5JGKrG0gVST2JNR2mk+D4Ll7e3e7uHjGftF1eFcn0zSX90lxZ4mFrBEp4IgaXceg56CgCKfxEttdG3udNDIRhbayPQj1arNvq9/KrSx6UsQb/AFQbLnd6MaqWksgla+FqAiPiLy4AQB34Nadxd+ILqMDS4nVQMySeUMKPof6UDsytaGe3vSo0+5i3MRIYocoD35IP61blv0srFxJMz7dzyCUkZA6jjAP0rM1dvEcoFtFN5wZyxDwFs8jsOKkSw8YyTHyXhtIlOPJaxVQ3H+1QUtEc94j8QQXxVrB5jD8rwiT5GeMZ4II+tTWmreG2j+0aherFOFJCLKdp9BwO39aXWL+8V4bK7uIY3mfa95NECiHscLz26dK5TxVqF2uob0ljcKdrPDG0agdyQfpx+NJtIZ1iSy392Lu31TeBFmKNj8h/764q6dPt5J0i1K5tD9pgdi27zAG44PqfQfWuT0CwsL9vt0d7CgChVj1C4CAkd+f6Ct+2ezGnpaWtzDlHMipbQyEFx6OwA/KnuBlJc6vY3ywNJc2kKybokMIVdoBGR1NU7m8kvrpbl0gQADaZrc+Y4B4JrTkdBKkWqxJE5Jk81rjzCPbgfpVnTbnQ7hfN/tG3mddyoHkIAz3ORQA6C0j1HTUmtLCGNuS05c5/LNc9rtra2qCyigtGZ23NIABtz146mrut67Z3UH9nWFxBH5QYNJEWPmP7f/WrDj0W7tZo7y4uI5Gdfm87IOT3FQ9yk7IxNTgiuLY/2bK8zL8jOvG7nooNaHgQXEHivTLZ1ZlW7XJLD5f/AK9PuLMCAncAhPEkP3lGegqx8P0tk8U2kQC4e8XAk+99TQnZierPcRw7AsTzxnNLS/w43A89jSVuhBRRRQAUUUUAFFFFABRRRQAUUUUAFFFFABRRRQAUUUUAFFFFABRRRQAUUUUAFFFFABRRRQAUUUUAFFFFABRRRQAUUUUAFFFFABRRRQAUUUUAFFFFABRRRQAUUUUAYHxFiH9iJfxjDxSFQ69RmuN8Oz3WoTxx3kiIsQJvSw+7jpzXomv2Saho11ZyhSrQk7t2CpHIrzCLVLW1Y2vkGWN3OFU/e92IqeVgQeKNVgV5UtrWTzbhDHbpCQVTn7xz0rd8L6Itr4dji1PUBvXBlYR7mnbqEJPb6VlrZLeviCKNXmHBLABF9fWr2nf2tPMlq+AlquPLEw2Z9R61IGqNN077Y2oanCHaOPdFCUBCjsWHQnNP17WtW0XSfJjsZLiSZgWZvljKkZwcEE/5FRo5t2WOeJSrTBpTvJMhHOf93t9RTPEd9PdT+beW8CqrAo3mA5UjOFGOPqeaAM7TrHxBqN1Dd6vdR2YkLCNZeG2j+JIV+ZwPUkV22kvHZaX50l7N8q7fPeMK8p9dvUj+QrjPCVzM+tQZntbKVrhhEVlMstxxwSw7AcY6cdK6/U/Ckt0o1B7i5SUPhIlkHmZ/veij2GBimnYChq/iG/0y3NzLcQpbMjOvkgK8jg42579O1VbXXrzXvLk1O1DxIAxWYFI4wQAQVPzP061csvDFhbXK3tzHGswfFvcXDCeQ85bZEvCnOeSPeppNHgh1RL26e7uptrPE9yQ0+M8KidFX/aYHFG7AuW+rGaHPkKtuflCwnyy2f7xPQentRMdOuDDpemW0TRqNzQqpVAR6kkZ+uTmqqaVd3c6XusLJGZAymNgCkadgR0Zu+T68cVbkt4NTVbC2spbz5AqvIQIowOMHPRvYUiHuWJL3T1hS1jcL97eunwBgCP4dxqhqmurlrFfD93K5bCI0hRQPTK8g/Q1e/wCEfaSUCQxRxqmwxwIxYjuCScflU1/cpounGKeJraGPCoxnxhj0xjOTQO6MOPxRDp4ZpdNaJV4wwM5Qj+9ukGKfF4s0y7mW7bUVwqnOY8Kh7HAJA/Om30VrHOGv2mmjl+6v9neYGb/ec8mq9lpl0+5I/CerXcKNk+f5cKY9FUdfxoJerNWDxPaXMsds9vFcXEoKhmIQbfWrUyyWy+bFDBGqnCJEy5LfXrTdNbUYzlPDdhZqP9SZLkMx9sBeD9aLi0mkP2jU7+yilJO2SG2JbA7fNn86AKGrNpTOr3GqGSRyCY7i/mcI3+5GMfrTzqKod2sX0O0LmJhCzBgPZzn9KSXSdDF3GzXszSSHc6STbFYemFGf1qR7LwclzGp0aKZ84OU27T2+ZjzQALrnh37NGNIfYpTKuYCADznPr9KqPqGoXiALcz+Tku6oDGX7fLtX26E1oX97prfu5UijOcKJJwqg9iAOB9RWRPrENrdLFb2qXswDFpWjklVD7CNMHj1NAEZ0uaGIzz2sipIMAhWuZZMnurYAFaVnCbJEtTPeYzzHCiLnPU4iT5fpntVKU7LmJrRIIpJIiTKbVEKr9H3N1zV8WMslpv1vVFjt4EBW4jlYMynpljgYzngCgA1RbOP98ulmWTOR9rucBfclug9qx7/WRfbLYzCW32FvLgGAxXvwMnqR17U7WdV8MR2DNo1gmodFZkiJjV88k7cFzjH9aztTvtXhU3Nx5Gn2wRf9HDb3kPoqoPlHvnFAGjBq4hjlhFkJZkWMKbm2PAbpgdSB9cVZshe6nZXFrresxlpHwYGUxIoHQ7Uwx/PFUrfSoZIkumutbdgA08cChcjIwNx7c1qWNsusXdzp1xewxTRnLG2RiR6Dd3OMUAMjsnjYv9r+yQhcCRYlQSkdstk9KitvDen3Akli/tW6DjIPnBVHqAQQTV+fQLeBjPDZXl1csm0+ado/CoU0zV4thltLaBt2FMqmXafdVIJ6evegCMaL4ilMo0Owht4DjJnBkYn6Ek/iCKkvfC0NutvdaztYR8hURIlVvUfxE/WpZtVlMyWck4jdlBneCPaMegUZI/OkOpWmmr9pt9GZYwNy3N0gZn9lXOc0AYlz/bkCBNMjM7BiS8sRcIpPQ9AD6cVat9FGq2mL+W4XONwnk2LnPUBeAPwqzceI7q9VjLbO8LcNJqE5gRe+cck49MVJpPiDR4CYbPUJZZHUlxZ2uwYHbe2DQAy30uGECS1t22RZCiBSSeeuT1qbUEvb+JbO6nkKyYxDI/zY79xSXWv68y+VYW0kUTtt+0yxNIfXkg/hxUUc14yNcXV3qio2CBEVjVj6D+L9aCk1YG0K5ZCbfTJXk3ALst1yoHuzEU+78J3EzB9Q8tkJBkcBQ4/Dt6VHG73qK0ls9tGj4xcTtK/Pdck+lSLYabZb7iHT7u7ZG277gkZJ6Yz1HXrQHMjO1/Qri10829vELdN21fNkQqjjGADnP/664nxHoQa8DajrMTXUrqJ42lyjD+9nOBj+tdZqXha3v1EQitUJk3P9sEmFx/ughv0rA1bw94eliY3PjK2t/mZDHZaQ5z0/vL8w/l+NS1qUh2iaZ4WupVtJdQkknWUASWzYIA6YYkCt+G68K6Pqhml1O8vJ1OBHLMXOO/Cnb+lc7YC801AIvFDNDaAHFhYOiup6CQhcKevp3rS07x3qEUZgSa1aIu/krFbGV0HGQzdV/H3prRAUre8SK/kls5Z/LkuGYmVfmA9ADxUraiC7R3MUPJbZl1DsOOwHGP601tWN5qxFyywwyR5Z2BOCOgA98/pVi9t9DFxDBaTRpJhXaaWNlk/3QBgEfWhtICGWytzGzh7K2Y8RLczlpWwOoUYA/Ks7Vbc2dst5cC4uLonMSiPgj27VpeItTh06KRoba22SfekcfvWJ7AsDj8K5tvEKTOsUGqz+eHWNIZEZgM9MnGMVNr6gR3c32Jcx6b9nZoyZAwZ2J9sHFXvAqzX/AIgsbmXSfJMV0g8yVTub8Khni1+zmWMO91JExMzLtVV9hxWv4Chivdetbi+nZHN0GSMSk5bHfFFtQPVtwdyysCP93FFK+S25gQSOmaStlsAUUUUwCiiigAooooAKKKKACiiigAooooAKKKKACiiigAooooAKKKKACiiigAooooAKKKKACiiigAooooAKKKKACiiigAooooAKKKKACiiigAooooAKKKKACiiigBl1DFc2rW8kYYMrZBHXivMr3Q7KNoz5gt4IHLT+WMMxzwoHpXqA4dTjJbIUV5L4uvYw05vmW3db1sWyOS20Hrk8fhQB0GnvptrpT6rc28ISTJjcqCdvYYNULaGYqdaNuiRKC5Eq4VlH8AA5LGudGs32vYLQC3gt1/dBjhSo9qu2+oatqt9bWmY9zkBPnO2MDuPQ1mwOp0S11EiS6vbdWmmCzLBGB+4iPRT2/D86p+I5bxJpYNUu1WKSPItrQpvY+uQMge1WtGvYrO3aCxluJHErLcbyC0hHIXAHyjP51QTRlv7lhfB7adsuzeUHlIzyuBgKPxoA1fh/ptppiDU7S1iuLpVCo4jwE3Hu39/FdFcIyl7nUpGmMSlWS3JABPIDt0PGOlZeka3Lp1m1vY21u0MZGyOA+axPqxXCg59QTTdQaS6kjha+nlMxLpZWA3d+TtwMnOeSQo9KACe71q4lEaRWelqyjynLiNmToWzkkn8q19E0fT9PjdreRmKKTNOVKsY/TJJJB9CcHriuWi8P6iLjGpz2lsjvzHPie6mweB8n3cdMZxXRRppNm0FqZ2jA+cWoU75GJwM7ThVHXmnHcChe+Ilk1K2SCKeZZJCsdsOkaj/lofbHHt2rQtbjyke6u544bfrG5GU+oBPJ9zzWZDeD+0JUtzDAokMU0xBLsc54zwE+lWJbvR7jUY7BNMW8uShWGa4QJD74GMH8qT3Ie5svPpd7bBpbmS4C43GNAM55GfbFVL3XLJFI07dvQGJws3lKhPOcAc/jUE0uuwyfYNOsLUvtw4h/doP8+tEtxqsjRRX99pemog2tFKQ5lP8A31n9KBGev2iWOSa4hgJk5BmnEoBHflgaLz+0khh1OXxXY2uwYKpBtx9T81M1K/uH1FLPQtdgaV23NHBEG6d84P5ZqnqDeNtpGp35MT4laR4E3sB6AD+dAF+48QbLY3UfjS4cJgMILeNkz9Tgn8RWdcLdahcRXV2+oy4fdGTOI0kGOBjnFbel6rdw6c9zd3CyQlBIP3qE7foO/tVya8t7yJjBY3k7t/qZIkXAGOmTQBmjS7qd/tF6VtYmX5jLrBAXIHQAYzTUsdKjmmmOoWEsLKPIN3cefuI/ugjk1bu9Ru9PtVmg0LU7qVsKsU0OFQ+pycGlV77UtOWS/XS7DaDmOYrIyD1AXoaAOcm1vy1khjvo3klcIIo9P2hce2MD61q6aqzTJc6LoMvmISk9xLHgAkDODkZ+hFX4oNPigSObWoZvMGMQ22N3vkdKZcQyzy2sK2qQJH91gu95MdOO/vQAxLe4eZluZUSKJCsvkXJLEkHAMYHXIqtfWEogR77QpzbrGpcMmV4GcNk5x3/GnXl3qcd08EOpSwSyuGL2tt5Q49yOePWs2ebUEmOoskzENy17qUah16EElhwOv40AaU2qaheaSX0Dw8WbAZZYpjEijoVBxxwB09as6Dp+pzfO18LG3Kr5cSxYM2c5yc8j34+lY815qk9vDp9l4vhRfMAm+xyszBScjkHbg9Me3vSpqOrWtlNHDcvCQ2JdltuAGcDLHoT7e1AGnbT2kGoTRXpmkSPcqzmcqD+f+eKng8Uqswg0+LzAOOZvmB9jgDFZbWuqT2SWdrbwtIA3Ee55CcA53McDr0qu2nNYWSXOuXlxLM6ZtoSp5bOCDQBua94j8RedjSLOV5PLL7I7ZpX7DjkCqFtpOuvem+8QW0sihf3yXF2iqAf+maFefqTUbmcWivLPcrb7eYHmcK2eo4oOl6TOS9+lttA3pBJGSHxzjcST+PFAF9dcsFtpYfDckF3LGSDFp6FQre7HHOOxJqgbG4kuI7nXZ9NtwH8yJZZfnLY7kA/oRUgsbbXrBxeyJDbL8ywqhwv02Y/I0mm6ZZQ/utLuHcN8sTyIqIG+n8X1NAFcLcxzk6bfZuW4VEtvMK57q7AkVYk0TVp2W21xGlkYDdK0y7vUFt+c/StB0u7edJjqTy3GBvit1VPLA+g5qtqWpwXpkgmeMkgAzSxjcB3OTnBoAdFNo8CC3gmnkuYmAaKGFtpI6YUEH8c4qaHT2up2/tKznTzSWOJF3qT/ALPIrmRcQae4XTVfVGJHlie5LZOcfNtAwPY5rce78QTwCytbKGz+QFlt7QHbnOQC2fTtQBJc6ZJp87XFsZTGg5ikABftkntj2ptjrRt7gWtwxlDSbYmmn3gH12jr1qnrHhvUb6GGa6ubtEzhvMuB8w+i81FbaDfaCjp4ct5Hk2fKZJCN3B6FVLfiTQBc8Qm5iSSRpLm8iXcXgjg8lAfXc2ePbFc9Fpfidwsmh3UdnbSAt5lurIX9QWc44+neuktbrxa8csV7aLDMjKoBgeRlBUdXbj6EdO/aua8TWlzDqDtq1hLM6qCkl5fGRM+pCEDA9KTdi1sZRvLqxvTYTeMZ54jKGfF2smD2DADHFaSeJmj8yymnuJxcsQVa4aIH3UDjj2xXJ6hq+iS3kU+my6fDGH23XlQsBv8A72Gzjv7V0sWtaRa2qXF9rtnBISFh85t249ivHGe/0FCd1cY2+jNxpiO6QoVl27Szlm/3sYx7GtGXUb69sIbCWezNxFGG8/HzgA8Acc/jUt46alpc1/Nqc92fLGZI0WNFK9hj73Ws/TCdS09bmJfsjKTgRyYd4/cmpe4EOrJNdX7G3KlWXesNzNuZmA7bAB+FUbqZ5Y/MllbLEPhZdkansMnOa35okjtJYLB7u+SYB4/sUbLGkncEgFue/I6VzcVnqIcQ3dqIbcggFbZgTnuWfrTTSQFO5XUJ5gGUFnGDIk5YJn9D9Tmtz4eabMNZs5Jb8DybvbxGuX4PtWVe2ohVZpL5jEi7U2uCfpgfzNavw7aePxHYpfWkjZuN0RjlXaowevvQtWB6y5/eYIzx96ilc/vCuG655FJWq2AKKKKYBRRRQAUUUUAFFFFABRRRQAUUUUAFFFFABRRRQAUUUUAFFFFABRRRQAUUUUAFFFFABRRRQAUUUUAFFFFABRRRQAUUUUAFFFFABRRRQAUUUUAFFFFABRRRQALneFP3Sf1ryfx5Y2k2u3sMoDzm4yykfIFx1PvXrHp7HIrzD4h6ZNf+LZ5JrxEtwyloo0IZjjqT3+lAHOaarXc32WFfORxiQbjwB2z2rY0fQdRgK6pcywofN8vykByB0BHapLvQl02wVIHjgkl2skaN84HvW/ClhbhY5bouzRozqG/1YHp+NZvcCxb3Fxb2s1tbWKbmO11VseYfUsefyrLm1gW9yLK7toLqVwcabFF8rOBwWPQ496nlv9UiCxwWCyK8jFGkP+r5PI/nVTTDqr37eXIoUklndVDse+BjmgDe0xtbl054LjS7ZZPLD7EQrHEvuzcM3oOlMvdUdYRbXV+0zYB+xW0vl+cuPuu5+ZvouB2qxD9psLPDnzfLYSs0kx2qDwCc/wAQ9B2qtqOoIl4s8Lx3V/JKPJMMYAU4HJJH44FAEMN29isupRW50eDoDd/Ky8fdAHzY9PbFWbKGOSzBgknAabcJE2hGJH8TDqD1wapS6IniDUZ9V8QtcSyW/wDyyRVRWbHYelaLaQ0Vh5cdzBHCse6eWBf3USZzj1Zz0pp2AZqWn2cphMRkjKvkyNKAHIP3Rx8w+mK1E1W1kmWKSZ47mVMLFDCoxjjn+ID3zVG4tLK9haWS8ktsxbflfEoX+EKR9zjHXk0yK1k0q3jSOD7M7qEWUYaQoe7O2evXikybMv6lo+qXdlslSKOFdxle2Rg59MHBzWPd2T2mpJbaVot4Gi2s1yiq7gHuxbGKvtLDBavFJqd3c47RozNj05+WqssWq3MzE+HmigwC73l0qEjtgAUEj7e+0y8U3F9qN3MyN/qbVFLbvcqo/KpW0yK6nWSKzvo0K7lE5CFv9kHJFJHaWkFsiLq8Ubs/3Y7pmCr+HWmzT+HLfzGOvIWjcZWKN2eUehzQBI2l2izwFvDphVmyyQoBx/tHn8xT0sXhln0u1hSNWOQZr5eP90EHFZ92o1C6Eui6fdtE6nbG0hjQn8DU1vpviqQL9m1OzsuRvElvvZT3wRQBduvD08kSyNPJKFTGLzUG2Me4GMGpLLwhbvcBxBp9qDgyfYlYsfzqe3tzaDGq6he3coPyO0e0fgB2qdb/AFTUI3FvY3UWG27o9uSvY5b8aALUwXSbSWSDTmn2qW2kKgx9elYMuoa7IjeVNa2mFBSSMGV8H0I6enFXVt/tphZ4JpSiM7eafuduRnB6VVuNNsWeKwF3NuzuMQYqNh9x75oAwLqyggme58S6/c3QVd0Fu975YPseSQOtXoNBs9chgCWcEccqsGje3Z1UkcMHJ5x61rQWOn6bdTT2Oh2FuFUeZPJgu49c96gn1bSZpRbLLdXh2lHjhbYAp/i9Mf4UAUJ7Xw9ZWM9tqGpXTNFsDuAAI8HA2gHpkHtWlpOo6U1yLS0s7qd4VBlmYZVhj6YqGxtLWS7eaPw1aookAFxcSZyABwfU1buvE5slMd0ImWM8i3yMqenJzmgAvdQYwtHJoNy8Er7QsaB3I9c9v/rVWuNbuIrkWVvplpaiNQ3+lckr06djxVeHxP4iv79oINOAtgf3ciRFNw+tLeaNDcRtPqbLDGp3SbbpR19cDJoAgvvEdzfs4g8QQo33U+wx4bHf3NFpp2gQQvc58zcoE9wQFK89SWBy39KjTStIktxbaHCTGu7yXs4Cz5xnlzUelGa2tmttVvFhO8fI8nzHHqRkUAacdzplgUa1t5Jg4JC3DFgRn2IH6Usl9qVzMy6JolqsqDJVkDYHqFqIadYXO0mxR0ZTmSSZ2yeoHqalTSr2O2EWp67a2cTcyR28ABcY4z3oAhkt/ElxNu+2ljIfmW32Ko9s44/OptJh0W3WX+0LCMSp/EYvMKn69DRAJruB7PTHWaNSB5ZGwY7npiqD+Hbixj23NzMIvNOTGm/b6D0NAEtvrto7GBra5MKEkqG25GeoGeTUq31mjeXHp14OPkNyxySeQNuBkfSsw3tza3AszrMsJK/fggVGz2yMc1d0/TWUJdL9ueVc5nu78s+fUYwBQA1LDUjMLgfaLcFP3ptoQrLn2oi0W98wlfEGp3O1GJEiKpC+h7mpbye9jvU+x2oaaWMqzsxJIA96ytQ8P6pNdlwzo/UOWBCfLn8aB2Z1OlX6W9ozQzLNFs+fejIFOMHIBwelcr4l8KQ62j2FprsiiQ7lNvbMqLnqA3AXt9a6TQtMvNLhW2tNct3SQA4kjHLYG7r9aqeKNG8R6zIYJLxAI1LeXBceWuB644pNaFLRHmJ8EW8N7JaxeIFYA4miZiMgdy2OetTDwlCkJeLUf7RlglAWBT90fUinX2/Sr+e1m1qExLghZL4Dbk88456DpUGi+LPG19e3Nhp+p6ZEz7ljkVScnjDHPB4qYuysM6Xw54PvLa4W8ljtGiVvOWGe4cDI65xxVWe5t5rra0EbMl6xljziMKeQBTtH03xNdmR/EHi9ZYkby0js5GVXYjsen1o8Ty3dvdNbxMS527gwVuQMZ9OBina+oEWreIHvYmtdMmNshBBkDNlvYKDjHvUf2O5s7Mw3FwttGzAnYN4Yfj0pF0MQQec+ouZG/jAAGPpTdTvTcl7ad0UIdmOR0GQcj1qXoBhTWssvmQISEeYlZCoUEfhzXR/Du1itddsohsbNzuyoyOh7mssxXUsnm30aQxMgWMggrjHXJ/rW14GijTxLYQQl1CTcb1GDwehFOO4HqhGCVHTPSihs7yDRWy2AKKKKYBRRRQAUUUUAFFFFABRRRQAUUUUAFFFFABRRRQAUUUUAFFFFABRRRQAUUUUAFFFFABRRRQAUUUUAFFFFABRRRQAUUUUAFFFFABRRRQAUUUUAFFFFABRRRQAV5p8Rtbl0vxROLc+ZII0IG3Kxjnk+pr0uvOviPd21nrVyJJUV5EXYpH3zz1oA5zTVunt11yeVpJpn2xow5C/3j6Vt+GNMuYppNT1W4MsoO2GFBwPfPf6dKwrXXZ7fSgITHNI/339vStvwcl9rl7bRgSqrOTJzhEAHr61m9wLTi8DuFvEkCPuVScBD1OT/AEFW9G8QfZ7gQ6XYSXkj8vd4+X3RFPf36VL4m0UX0kNi1mVtklBWJX2+axPH1GeamtvDfkzKNUvIQ4Ur9mtmIRVB6tigC0Zta1FLbzZgd87eTCgDeW4GcMP4j+gqjqlvdaKDe6hZgyPIJEVpQShwPT+VbEazQgX0chjjVdguFGCyei56elZ8kEd3dSA6QIJH5hmunLkr/eA6D8aAIdP0efxLdSaxfTzmNWXc+dvYcf8A6q6HdaRCG4kjVILV8xwc7ZWIwM56nvWTa2uvwiOJJI41LZAu2zlR3Crx71Z1C38u0EkeqNdM0xGWTCR8ckAcdOAaErgMhv7KN5DDMbdjnzriV8KD7t/QVQXxLHLOtxaJHd8mIzhCyj6A9fqau3GjadqunxPqzZtm4gsS+1cjue5z157mnx3kUxXTLLRBZ27qpZ4z36D9AKAGXWv3kEFuly88ILgmVphwP9xR0+tO/ti0a5YjU2Cs3DzRkgH6ds1QvoZ7C8WRX2K6DcWkzn3xViG0mkh8+KWOWFuGLSbQT9KCHuXjqmnlTbwX58xRuZYbRc/TJFZU+vad9rbYTuaPl5ZUXH1OOtTarqmkNMqz6rCJFUIsMD5ycdCc1FYaToVzG4stNt0Yks7XY3ruzyQB0oEaOheJLG/ZFtDBJJGuGYKcg+uaTXLq6i/06W8ggw6j5GMhYnqSAeMUajPpICK2rw2phx5gR0G/8AM1Sh0XwpqQe8ScymQ4PmbmQ/QdM0AX9E1wTXU0ll9puY2XBklZUQ5/u8Vfgt450VZ4YdseVcyXO5s1SOjaLbxJak3AUcxRSTLEp9hzT4LLT7XebVlUupYxtGXPHoTkUALq1rbWls88ckaIqnLBs8HtWDqviO7SO2zqz20CriRbdASR/e6f5xWpq8mgrAkEkTOpHmiJJW5I6qVHesu4OpsFkh0doYppONkYBA44IPOPpQBMuoQX2y7a2ub8QruQBlHmex4/Sop9F1R5xdTKkMRPzhW+ZM8hf1q8NI1CK3knRDIysGjUDdz6c9BWYdM1LUBJb3jyqpdVlLShRGCc/U9etADrLUbm21MQ3+m+fbxxkb2nAXk9Qo6nHWtc+J7KKddRl+yW4OY4gEzv4+XDDtz09c1naf4MvIiIrbVoGEEnmBrdN7v2xn6Vbmg0KxuC93C7tkFYiE/dkDrigCo3iS1kvHuIbeV/KQHYGOC+Tk8/hTLvWtc1S7NwNEt1hEe9/O+X5eR296ZLHcanciKO9toEVsNJLlmZM54A4HU1ftrXTJpJdPguN6ovlxmZmVSp647k/XigAY3E1tLbSXtunmwKNqNhYvXHc0vh+ws7S5eKDWHkcxhXmigAGB3ywP51Pb6Hb6fN9kisJZlkJPnTnCpx1JqhqepW2juRJqbR7Y/nt7dCQT25oA07xbbw9EWa4nd2z+9kueTnuAOlUjqcUEBF9bQr8wYywku7DHGQarWGry61Gb/TtMkmYgBTJMBv9eD0ra+wa9qMIup9PtrPDZZ2O47RxjmgDLh8VJDA9n5eoXJY5eRIVjUDPHAFS211Dql00WLt1Vfkd7gbVz2x2q69g1vLuudQ3ArykcwUH0BJpy3tlFCEuLm1sxG3VnBY+2e9ADLXQ47SSXWLb7HJdLFsGAWOPx4zTbW6k1C1KXKCMRoSPNbDZ9lWlPibTJz8mo3DLvAKw2jBT9DxUD66LSXZp2iMMvy80ZLkdySKAC11a1uURIXaQI2xrj7ORsJ7H296sGPTryd4725s0hhXJjm2hycYzkdvSs69uru8muL64S7Nu0exVhbylX15zzWZJ4c8MaiptZrC+kjD7hKv3yBjjORmgpNWOhXTrq4ma2jtoXtniVkmhjKnI9CTj0pniGyhW2WGwieR5diyxBnIfB/iI4HBNGkWWh5t/s5uoljY7I5p1AGcZJGTnoKl1651GO2a80iYSRROfKVmKJnuxPfHpQ9UVued6jb+HZIrl7rRwqyFkk3klcbiONo+XpWQZbaAtbWtrAqqA26NnLOOgAJxgev4V1eqlLmEWlxPp9uqxlpVErHjJJcge54rnJLDSQuTqHnxSMCDFhRgdCMnODn9KzegHS+AtNkvVET3UMUZVkKzAhQ/ZgD1+tP8Y6IvmRRzKjFCqtc2+VBIzjpUfhxtLjQLLf2Yj2AZlnbzNo7frWjqTw6vpkken3iyW6xswljBIOOi/N3681SdkBi215bT6JNNKNqKDHNKzKSD2CisO4e1lhaO2W7lkzzGwxwB39cZrS0HRNOaKSJ7BpPLI3FpgEB6/Un3qLU5GeSe2S6ZSg6mMLyeMKerdKm9wMWbb9pije1d43jHys2VZR6it34ftPceJNOe3kt0iW6IMMchIAwe5rL1BntrNbeFTaMI2WRp1BbbjkitD4UxW8Wt6dJOxO+5O2LbgLxwffNOO4HsWdx3DoTRRhQCA3KnBFFbLYAooopgFFFFABRRRQAUUUUAFFFFABRRRQAUUUUAFFFFABRRRQAUUUUAFFFFABRRRQAUUUUAFFFFABRRRQAUUUUAFFFFABRRRQAUUUUAFFFFABRRRQAUUUUAFFFFABXl/wAWbOwGszsweWeQJkE8RL6ivUK8z+JsUMviaWOaaNAyR5Lde9JuwGDpfh+fVbWJBbi3hiI8yQfxr6V2FtPNpwhtrdW8sRFn8sAY9M+pxXO6frYsxHFZW8ksMvyxJt4PbP0zW5p7s0JLxxyTliyktwMY4H51ADUv72bUX+y3L7S4EMn8Rz7dq6jR9MuobWCR4oolZN8+eWmPpntWVcCSOCOQz2loBKpZm+aZsdgoq3JPcFDcRLNDbi2KoCR5khByTjscfpTswLGp2lzf3Ek1hOZyqAGCT/VRD0+tZ1xd6fohMUjS3EhLbWjfaCBjjnkgEkfhU51uT7LHAtniGMCXy4zjd3BY9/fHesUX+pWWt/2lqVzFcS4aRIZo/kjibnPuP1oasBqWVtqk7T3EkZjgVmBSL7209No/nVm7utSbTbeyEHlWsYxK+MNIc5wB6+tO03xHe36SS6vKUt5ZAqGWPYGzyCoHOP6Vo3Ss7PdrbMkEK7YW3YLueSaI7gVo9Dmnuxc3dup3QjyVlP3TnsB7Vaj0FZZ/PnVlZZAcSHGR9BxVKbVZ7KUXSOSzOFBQZOSMZqa2N7pUitd6meA24SsZGyeRgD60nuBoR2enWt4ZGiMoVT1Tr+dV9WurK2gEs88S/ODGnlg59jiqy3IsovOe8uN0gy7zJyQe4B6YrK1C6svKa2M14/nNhZFfC4PQ4oM3uKYhHdS3FjYxyee+fMW3GVPYKcU+KTyYJX1SCSRgxDi4lHH4LiqMUFyjxadpWrBCgOcRnk981Y0/w7PBclb+WZhLkP5agb8980AaMCW7QPcytpkYIHlPgcDHQ96tXF8unQjbFbO+zKyzcg59MVj3EZ0j91p/h1vLhYlpHQMTjqeahu/Fi6haFoRBH5hAikUY/H8MUAa1lpkCzLfzX3mSCQsF8pVCscZALdq0Z01ExEEwyRlSSPM4x2BrnLOSz8T7dQvtSQiI4WTnHHGSKu6rp+n21usQ1iUiUblSCPhh3IzQBVl1GQEX8lzaxSb/APUoC5THQACltNM8ReJboSS/aoIdxIn2gfkO1WNGkttMtjJp2nCCLoZ7pl3H39a0ILu7ngcT6j5mRlBAPmI+tAFa+0S6n04Wt1qnlW6PiWSSXBl9OfWqQHhjTLc2NzcedcCQbfIj3FgOQMmq+vW93eyCGXUZVtWjVFj3AEPk5J/DFLo9noViUvdOthJI52x+eCxUjgn07UAWLie/kEzOZI45H+XYOVTjg4/Gq8nh/SRJ9oiVA1wAWQnLx9jk9T/9ereparbWBlg1LXdivHiFWZeWz04571GbmaONn0+xmd3JAlhCjvjknrxQBm28NvYX0tlYWO9fvtJNJkbB1xityCHxHNJFHYXUcMCrkyrFgeoHqaiFlps1gLWaS28wsGMKSfNKf7rMOla+ma5pVkTZsY4do27VcHj15/L8KAMO+8NNI7Pq+r3UofAZfMKqc9wBSLouh7zJbeZIyOCofqQPUnpWvepo2tXTTW7NcOU+QohJ47+grCv7Wxt7Uz21gyyxkqxuZSWPPTjtQBpatrltoqRxp9lhmkb92qS5Ve5OBVG58ZLcxYk+2SoUU7bePhyfTNZentc32no97Ja2ZMhETBBu4PvzW3pMum6NaRyXJaSRZQ/mM3Ve2KAILPQ7e8X7TcQXGxowzrcTg59sDvWjHpkFndx311KrPs2xI8I3IKbNeSa07Siwmjt05jfzQiyfU9TVS4lltgHt3gVfMA3u/CD69TQBpS6fBcMLyBkRBnmVuXPfg1j6veiyTyrJr2Ug5e1tchR9faluLiGSfEmpTSrGdzC0gBBHcA9jVgeK7RfLg02yvZpA2SrqMoPfPWgdmzOje/MyNeeHLswkbvMgUYA9cH0qeW8ktIxdy6bcQBW4Z7lQZFPQ4GcVYvPEviNY3mkube3D5WPfKu9c+o6ViTajNqNqY9X8YRSPG2REkYZwfw7UC2LS65o0Fy0VxIxuXYxb7VSzqTyOoxW5NBa3OkrHqCTzStHmO1DnO3tnBAzxWT4ehikmQ2yIkQ2+e95Hg455B681ussIsvtkEUErfeUsvGfYelBa2OP8WaVd6xKLuHRYLdUtzEn2hwJAMc5GenSs+38FeH9LIVtRid0UbD5mATtBI/DP611uurZy23mXNpH58nJRkyV+mPX+lchrvhqJvNhs7G48uT53lDhQjAds8nPt6VD3GadhAtzFuttMheNDkPEy/My9jmo9Tk1rWJo11B/Ijjbf9mVsjOOMha5rw74cv4JElby4f3xZXldscew611NnqVwlw9tNr0aD70bLDw79gSe1F9LAc5pBu3kliaVQYjuDsnOCTwRVbVIEbW0n3uXBAUh9xB/HoPatixj8vxFMLm72ibl5YAOD6E9qz9Ri8jV5Ft93kIdzyRjJx9O5NStEAzXhHJZyNDp/mMrDe80gPzd8elaHwyu4rjxXYstm0qrOygi4XCnHYVQ1i50yPTEtrKdsTPuaPJLn6+lXPhXFYJ4ntiIE3i5LKVXGOKqO4HrhKZ2gYI65Iz+lFLuLLlutJWy2AKKKKYBRRRQAUUUUAFFFFABRRRQAUUUUAFFFFABRRRQAUUUUAFFFFABRRRQAUUUUAFFFFABRRRQAUUUUAFFFFABRRRQAUUUUAFFFFABRRRQAUUUUAFFFFABRRRQAV5/8V9O8zXIr1LcOfIXK554zzXoFct8SDaqsKTOse6Nt8xHQZ6D1NJq4HE6BDI2ste3s7pCq7VjToCBzXX6bZWUMUcUcsQSZGZyXAYZ7Y7DGOawrKyur23laGFYI4yGzKfmYZ647Vo397FopjMKhmki2u8gGzcf5jFQBcsolN5s0qG33LLzdznKAd8Z71PPJC7yy3VrIGD+WbpmP7xT2A7Vm6Z51xdC4Znuj91XK7VBI7AV0tjp9zJFb27BCsEvmDeMmRh257VV0K6KFzb6pdadAw8uyghlxDxl2X6HpWfI0EDeTYl4C9xtlnK+bP+Gfuip9e1i3v9Q+yTvLMUmLGK1+7H/vv2+g7VnX8GuRynUoUtFh3+WI2kY788hsDqRQ3cZ0+mw6RBGLlJCwiYgzzNvfr27CnXuo/bkFvb7hEzkFnHr/ABfX2rO0CytLC0F14hn85nV5PIBxwpxjFWr2+i2RRWdh5JlZvItgTuAyfnPpQkK6JJrWztpRA91sjVRsmA+bgdSv1qWF7GwmilvtQiEhyy5ILOv07cVVvrCOF49TjUz3AG2Rm4VR059eec046tpdtn7RHbNJGOfKj3MCP8al7jJL/WvDwVd0IyQSrlssR6CsO4uI79JX02+RTs/cs67j9COgrdjn0u+iE11Jbwr9/wAtlAyPQ+lNm1LwfbhpktpJFdgWjjXIOPTA7UEPc56HX9SsY1SJppJdu2VYkSIFj6HqRV26ubu+tkN/PHbNGnRJcs2Pf1rRur/Rdwu206JFbmFpDgt9fesW8/sQ3fmR6aZ5ZQd5dyQD7fSgRDZXGmXl0xJnuFH+slunYKvqAF610uj6OJ7Z/K0mKKIKfKUxDJH+znvWRH4gjFrGsTRr5fybY4h19c9zUlv4jnjlk0/yZbp2GMPcBST6Y7fhQBq3Hhl7iCMLbiJ0yVLy9AO2AMVz11oV/K8t5qPiZY0LD7LBzz6jip7vVvF13PHAbaO0SLCrEJt2QeuaibULyC9S3+xAFZSPOWBpOP7wHSgC1az2sTpaQPbrMCPlFuTv/OtSDTNSkd/tl3cGMndHEsCxov1PeqV/daxehnt5Z4NqhV+RVYk9Pcf/AF6rC3WO2Vb6S6lkEe9oftBkJPTHv0/WgCaXR7ZtS85grzBT5eJhtHvitK4ZWgjN5cQRI6HZFEygsemB2zxWLptusFmfK0u/VZ33GN02Aeoz19KsWFmkpaeWG2jZAxRI8uVHGM5zz1oAhtra3t9QS7jgt1URlGEgDupzksR0z0/Kn/bFivmgtZ/PJXcDdrtUkk5xircstyLho4fCMbiIIVuHl2K2fXPv2pV1TUrIs88dhEVkwVOGJz2UDtjFAGZqpvraET2qWsSldpj2MST/AHsgcjn9KqLourOIr1pWRQMEiAKH/wCBNXStrN9cWZgtODt3P5ce3aMkck1DdM8UKwX8MswzzK0mIsY9xQBmQJ9htmgbUr3YVwERRnHX8s96sg28jxyxaPPc56B5AFXH8TH0quJJrp1jfU51XcfMMEO/K+gboB7VJePa6cgQT3CRScgecAf0zigBsMuqakgt47dLRVlJeaK3DZH+yW7U1rPT9Km8+S6aQk5LyuGcj0CjpVi0n/tK33pIywHqCp5A96vIi/ZUjt9K3M/CEELkj14zQBnARXqfal0ZYWY4WS4kIV1x0A7Gq0NzplvbyX72kdzNEdoQKSqfnwav6jHJKRdT3FnHLHybdnG0Y9yc5p8Go6QSBNJFArDc3lxlsevJ4NAGbY6jq73siSNBHBsDI0a7c57cdaSDxZrkY8qTTrAK7FQ0jkvgdyKla/8ACdxE2bi5meJi0ZIAGM4wOgFRahJpok2W1nbugTEkwk3SIT7DigpNWKGransme+udLjkhkxGXEWVRvYdv/rU/TRZJIs9xGF8sZjKBQU/2j9Kux2ul3lp9nvjDEisCjliTn1IqBrbw/pJlS01x5nZwHWNCN5PRen1oC1y7dXemxJ9msr5ZmfDeYcuWPfAAxVu3mZjFqGp2HmMz+VCCSPxIHTGP1qiVtYLRY5ZpkjWVQrsdu126L79K6Oy1O1Zks4kUKkRV5H5G444+vFA1ojP1e9a9tsW6QRu/yhSDkDsSfbB/OsLXbttPsIptP0t96qFmkKBySScsAexrpdRvrayZ5obRWlCEeYik546YHp3z61wOsXXxMaIRtHttFl/dzhNuFY9++Bj9alptjFtNVsLgvatok17KWO12m2gevStDSbKy1J0k1jSoLWBW5OCcsOgGa5rRxrtrdzW+pa3FApc+S1ouwyE99x9auQXdm9w1ok7hwf3kplaRw47AAYpWYEnjk6PFewWmlRFNr/vAnAbI6H8qyrW9vbm8P2G1IhjQYKyYBPvWl4isjdaIL200145oxulfBLOemSO1ZGjx728swhQjYMgU5DEdh3pAN1i2uJHWOCKQl1JcoMbW9q0/hNPet4nsoJYI0ZJiGJ6ng9abqYRNPe2llyC2HuMjzG9gB0FT/Cy3sT4rskhiff5zFjL8p4H6047getEkudwH4GijMZJ2LjJOB7UVstgCiiimAUUUUAFFFFABRRRQAUUUUAFFFFABRRRQAUUUUAFFFFABRRRQAUUUUAFFFFABRRRQAUUUUAFFFFABRRRQAUUUUAFFFFABRRRQAUUUUAFFFFABRRRQAUUUUAFc98QSsNvBdIMPkoGEe4+vH+NdDWR42S9GkJPZlcrJ95h93NAHGLeX0fkvcwGOO4bHlt0/OtcT2GiWSwyWMcbNnzZJzuzzxj07VgGfU7+ZYrtsxQTfugOnFXL+/wBR127isY7R1QR4MwT5QPcnpWYG5outJplvuitTLdl90YdAAF/vbR/L8aS8m1m4d7dtQjRmkDSZkxtQnnPt7VBpUMeg6VKLoebI/EV0q5CfRv4j706wij8m51TVhClqsX7yWdiOR3PBJ/CnZkPcmkurFLaa2jsXJJwkxTbGuO49TTtPmFtGDHnYDzNPySO5Uduc1n6pqV5qFu9zYWjvECoWa6QiPGONgHfHQGq1tp1tqtwuo69qkmVKxxxxE/KTn7wHH6mkUmjT1SXRRPHNa20jOWYBgNzupAztXPPNWrS41a8vhcvbeUix/vZCQCvHAOenGOKZFFaWEEUqWzEo4zKPmd2KjCKB0BGOanuLeKaG3h1JWzJIWa3GQwGeAcVa2Js2Tf27awwMFQXH7webI8gRF44BY9aJdd0wOLexlsYiPmMijeDx0Jxg1Yh8NaLZw/2hqNqQN/7lZVyF/wB5elYd9bQ6ndKsEEUcXnEyiCQEuAMY2KOBUPcsswlJ5vsZvopnuTvZIYQVXjPJPSqV74gmSILZTDfnbsitcsB6DFSN4fhgL3DaFLHbgB1aSQwr06Y6tUR+3vDnT4GlyCY4bWQAKvqGbqRQQ9yMve2yedq17LHDtBTZAqupPru5qK613R5A1rZ2cqOAcXMr/NI2OgA9aq6vLbT4tpdEuLi5KgBpJQS3sQP51L4d8MaqWkWWzdSrb1hZxx7ZxQIvLZafYw/bNauLdY5Yd32Xlyp9AB3q1a+K9ARIoU0aafav7lvs+FU/U85quNI86U2+6QAIWmaMYVQO2408XekzTfZ1t2ITDI7bpAv4e9AFO48U395I8ENz5iMdzIFUGP8A2dw70kery34Yy6O4TI+feTtx2J44q7DJb3OoPJbaXDEI2PmB0Ee8nuB1OKjFhPPtU30Y2k7pbxyBnPGAKAKl1qF692t1cSrAg+Vh5q5P0H070G81R7tf7IuJVWT5Ysx4AODwP8fepn8KW0TNK+uxSzTSfvPLBQLnoVzWpa2H9kWrNdeIPtXkHI3oX2YHPPfg0AV4k1Kxson1K4upbhwFMYlwEDdWxUg3RMtra6jIQJCTFAo3MAV5Lfn+VVNa1DWhIiaXZSLE2A9yloXYcfLkE8VUsLfxDe2wvALpQGICOQhC55LDHqKANm40W+vLiWVbCVlM26FZLj7wBPH6dKpxadrrTwXcQ02xzcEbZW3yA9sjsc5qxZaZeWtgmYnlP35kikLMSWOAOflFTWtvfwoYtSuLewXzT5ccqZOSBznnmgBHhvpkSfV/FTuzTYAghEabs9DjJb+VLqUyvCYUuomdzjzbrLZA6qFHQ4qa3tvDqq17LfPdSIwxlCoJx97HpUdxq9lBJHY6c7BnLPuSNQQAMn7xGR+NAFS90ye5thBDrlxBDwQqWe1pB6Bu1VVsLS0Mf2nQ5LkCTPmXNxgKOmTircPiE/6+G1fUGLAkzTEleeD8vAp11baxeXMn2zTUkLRndCsbIgU9896B2ZVPibWNPK2VrZ2aReYditnao655rTstVOuymdm83HEiWyFd2P7prPm0O3heCcFyQAqvCn3fb5iamubHU3R2n1LFuE2vGzCMkE9tooDlZZ1DUREZEtdItIggwJZgC/0we9Ya6p4h1K6McOnSXUZ+UgqFWMepOBgVrWljZXUoitrtVtosBIwhbLdxuIz+NSMnkrJa21/HOWb5mQEqPb3oE9DLtYLAXKpdaPZxQ20ZZ2kn37mPH3R1HpV59N0xyITHO6KnzlAI41Pp0ziobh9LsIyq3VyGV8tFa2mMk+pHNZWpSQ38ypFpVwwiwWlunaQtnsVLUAbCax4K0USCza3DRLl4j85P4k1UXx7oWqQC6+0Sl4iWigSQIW5AzhR2qb7D4RitGsHt5LozH51trcBF9eVGePc1C93pumMPseh3McqYRIxAmHXsdzcgUFJqxnand3l4jzz6Yx8uYlCzsWLcEsM+mRWr4Wuddu1eOfT0AAEgmabc0gH+zxz/AI1LDdRwlNS1CSO2bDKVEvmAg4zjjrxz+FR6lrDX13DBY+WsEKnMpbDEHHoOKCtzc1eXVgsUljpaRCSPDF5ggVT1ZsdK5XW00cQPdXVxGSWEZaO7bB68gE10OnC0urPz7VEchgJDMW+cc9SeMD+tcz4w1NdOk8ryIZxHkyRLGOSegz3FAHNrq2rW11JGumLdRZ229w0yEADuo7kZre01Jhtkg0yR5Nm45dYixPfArm9Q8Q6oIvIttAmQEFzFaMMnp69K2dFbXZpsTrIpS2/eq13uZcc449jSuhXRoTeHLtNOkS91B080EqlvuOOpIZj2rl4zbf2k9nDDudEGVR2A6c12sd1oc1r9kguHuif9TBGXL5x345ribJ4YtZZLpZRgsJYk/hPT61L1Y9yewAsiUtYYZwDuDu+MHuOetaXw0ljbxNF5kMZmuLlsMGyQAOfwrL1K2gjAuI7KRIMFd7nOT9O1a3wvW3k8V2ksQUiON+VHfFEdwPUwSc8YxRSKc8Z7DtS1stgCiiimAUUUUAFFFFABRRRQAUUUUAFFFFABRRRQAUUUUAFFFFABRRRQAUUUUAFFFFABRRRQAUUUUAFFFFABRRRQAUUUUAFFFFABRRRQAUUUUAFFFFABRRRQAUUUUAFZ3i1BJ4duRKrOiqGZE61o1Hd4NnMrKGXyzuHrQBwgvo7m4t7GC0ijYLvKIOVTHU+9WtQUWcTR3txiHywI7aL5i+TnJxjFSQJPYu97cMqiKPcsIA3Pn3qa0shd2rXurW7KpkG2CFOAOoJPeosxXQthAt5pXn35mItFyECcKM8ADvUk9rql8ySRaVNIZsCONXwojxz9Ks289zqEwS14hwd8jdFUdvekn126uE/s/wAKRC3QoQ15NuYs2f4UAyfzFO6IZT1DRbm9UJfxSpAi7Vg3FEI/3uM1Bo9lpXh0C5u5ri8xylruAhiAJ+Y9M4z702RdSWKN9ckcStn/AJCEpCyYPURg8fSrGlXljdySRwWklwY5AHup4MRKMD5VXuPpjmpHZkw8UPcXy2FpGiSO67biNCVRNo+Vc9T79qdGC14biANNLIzIWlGRGc4GD3OOatXs7MUU2/kkN5cRKbZJTjOxE7L3JOeKotKs6QWkflqIwwUrKSQ+45PA9c1a2HdItaq+gafapBeSy3chcb1d2YKfTANSweKFgjENvZPAgiYMixqBz0xz6VXjOmm1W1luwjISGSMZMr5zkk9Kr6xPZSAW6WVlNCoG5ZJSXRu+QO2feoe5Q601DR5ZUnvY7hyqlQ1y3Cr3GOc1TvJbHWENtpaP5TnESwJsYMO+WPAq7aSQKEeCzitysZzMLUqF+hLEn8qhuLObV9NZYtQS1UHCO9gxIx1YNnvQQ9xdG0LUNMtvtumT2ZTJ82aZw0g9t2MfXirFzqkgkUxXsbSMMJ9n+Y7vbp/KsODQtEjd/M8UajfsBjyLZMID6kAAfrVywl1G2TZb6csSR/6lnjaRgfUgNjn6UCL0mr3dlETqF9HE5HzLc25y3qAARUU3j62jjWKO8ZYXO1/MVYRuP3QOpIpfsHibVt14kUSykBZWktVUEHuueAalvfCsUkKR3jhRHxlZhk+uQO/vQBmLql5eXvmaTpsDushKSAiRsj/bYhcVDNqt7JcoJr+3juVm3OkJMgGeoYAYz9K2R4a8Mx2LQ22lSbAM72LzED1wTxULWOiLZK0tjdDBCIISIwOCQ3y4/GgDPAbWp2uFLkq20ShS3HbjA5q7YjWo44oNUmcxHJzMoj3Y6dCSah0+O9MMrWWjtcW7kCKae9fHHfCr0yTViSyulljWa/hgccobdCyLjkgs/Ofw9KAFs01K73QaddkzEESh52B9jz1xVC7tdRuZfLvvE7OzTqsk0bgK6EHKAdQRjrnvU0Wo6W0s89xPHKSfkuBKZJEPQ4VcAZqS3W8aPy9D01SgZd8soCsucjnJoAfHqEUckVrHcSSROuZbeyhJfAHALZptolzqMsl+ujtbwuCFmv7zJGOi7Bk++feobnW5tFhnt5rzT4HxlQu55eCBgAYz9f8ACoJ9fm1ApIk4KmTYXKiIxjPqvP4UAaNppeuSy3MKXUdvbsMSTJCSzcDkbj+HHpULeHNN+yLJdyXFyIBlizbQefQ//X+tSJH9pVn1bXGRo+oRC5QDocsTn61aWfRL5Vitrj7efvbpJf5g9v8AZFAFKKa+tBJBY6cjW6ICQZEXC+xPb6VHaXmoyyzpqGo3N5bkAww2S7Y/o7ZGMVsbXuY3ju9bhjXaFjESCER/nnNBsYJ5sXWtPMrqNiRxEgY7HsR36UFJogtIvEd9FG1ho9pFbqBiV2Z88diSMfrUSzXVpcPHrN/bsIyRsQ7t2fYCmjTQ1xi1uLoqqcmeRtvHoq8D6Uy0sbpJs2MjKqnIl8sNn1z0oHzIaIbaGRpNU1SWWNv9TbmQqhPp8o/mavPc+H7e0A2Q2ZcjZumyzt0x14qjdzaaZF0y5N0WV9zyzYCsT6BcVeso9IuLZln0GFNxKiWVDICR9Rx+dBL3JJbqztzv06Gd1PyO0eBkjqSST+HFU1Gn2uoslnos7yyjnzpTuz2ycACm/wBkarC7TQ6hLNGjfNCnyg+ikDr/ADqDR7G6tYpbq80ubBkJAYY2HtknBx+dAizbXGuWBlmuNM0+xR2K+XKS28HvgCmX1xKY1eBLaZouN0duMZPTGOuMGrV5qVwtktu2gSyyOflgimBb64HY1VmtdTfF+fDstrHjYyLIBuP0yMH86AMu7sPFN7M7LbBEC5+0XTxxop9AM9PwqTSNA1W2uRf3s9uGwCzJch0PpwKln0TRwo22moPPK4EmJkOAPYt1rO1XwfpuoqtxJDeQXEJUqXvSzuOcYjU+360FrY6ez1LxTPbPcQWqCEvsKwS7SF9cHuagl0ma8gN5qlxcBHcOVmiMhQf73QdPal0TTRaSQlLqMuil5Fe5YlQB6Y5znp2x71aOiXE7rDc+I5JYj+8jtEhDxgE9MkgN9D0oGcR4mg0P7YBazSM28goFBcj1G0ng/wBKzpZLy2shaafrMccBXcYozh2GfmDYGfTvXS69r/iiNZo7FLaMQXRjjikhVZFjx1CqD/Ouet7vxZfCaJ9EvCE3BPKt0jO31JOTz/Soe5LTbNTSruy0y18mwju592Cq2+4gZ7k8H9a5XUTcWesPKihT5nJUEk56HGc12ui2PiJk22iQWsDL+9WSfdKhA744x7YrlfGUdlZ6m08Fxucp/rmUgBu+0UhrYmlS9it/PuYpGQHLsf4vw7Vr/CGLS5NfMmlO77g5IVOFOOma5qSad7OOZoh5hTmaS4yx9wOh/Kui+DmlS/2quopeCPZuZyT80mR0wOlOO4z08MxIVmHC9M80tIMjjHBGQT1pa2WwBRRRTAKKKKACiiigAooooAKKKKACiiigAooooAKKKKACiiigAooooAKKKKACiiigAooooAKKKKACiiigAooooAKKKKACiiigAooooAKKKKACiiigAooooAKKKKACor6Iz2M8cZZcxMC0YyRxmpaVQM7Ou7GVzgEdO1AHHaWfOtrm8js5LiZlCo7DAJAHBFRS3kkd1br4guHluIk8yHTrInao/wBr/wCuat2e7TNRurA3KJbRSsY4GYgnjqW5wvuRVKS+XUr6MkwAO2EnijZFYd+TywH4Z7UGb3NKzvJ70G5tZFCbeUAwofPT34psl9cyW7w2c01vuY+Y6uUJPTAxg/jTplvktoobK3Vij/uo3XYMH/lo57eoHpiq+ozLsYvJ5spQxtN0kYZ+4qen+0ahqw7Mx7RfsN68x1EzMpJbfIJTGvoMj5T+da9pqVnb6fJJpyXM1wXDIsjfKv1bAX8hWH58GuTramzeIwcRW8C8Sf7xxk11unxWmgWiWtwTCWh8zz52EoQZPCrkAH8KRZJYWVxqFkL3UneB3cskzKTIQFwQu7kDjHTkDis1oEurlWgnZI4MktHlVPHCsfWtWKOynt01v7TeTJlkEtyCMgkjIyTVa4huYo7SHTE3OGY28SsAGBJyxJyM9euatbGb3KzC00PT/LsLGM3F3mQrcFiPzG4k/lVdJNfW3jW+0kxLMu9EjiI8z69x+daVjZ6vpZkH20GXkm1svmdhjoz/AOFEb6lHBFHdzmzWQhjtumlf6Hnioe5SaKltDfaXE11JpVxucZZVBPXpy2aim1fX7gbWE0O5MRxSuDuHtSXesSq9y7aw93DE4XypLlA3TJON2cCsy/v9FZYdUGjAIp/1x8yQkH+7hgKCWbVtdagsQj1RRGrKBshI2ue2cHr61Yhvta0eMpHpqKJG/d273KqZPfaFJA/GsfT9e0a609riCUSJHJnzZYthz6YbOakHiCa4uBeW93JDclCIDbweYG9s9E/EGgCO51LXtRvZIF0MQypIGRY2klz78sqj9auxeILdke31vxVDZqG/fw+SpkPsMDj8zWNqEc915Q13XLy4LnMlvLlI0Pv6/hinpLfWL+Vp8sITqqWlqJHXHTBfNAG9fa5oC6cTYX08EIUl5mVgG9Mk1gT3GnpOtzLqk91tTdG0AZkjBHQgDnP1pdXuvGOo2X7y7VImTM5vCgOO2EABqXSrLWzGkt9fJJbAfIY8wRvkdD3NAGro97pFjIk8ulpbiSIbC0bSc+nUAHv071Pq2sG8AaLRZZDEoLBbZEQ5z1LHjjvg1SuLJ47dYl1RY3I/dpb5bjrgk5qlNc3d5pKJd61d+c8u5Q0jRxIM45weenegC/p1xJ9mE1rbW0MMrEN5ZQrkdty8ZHX8afPDHdTeYdQgmAGRM0iqM9O2D/Os690zwtb22+W0bUrqNATb2lw7rJknkhR8v9ahju3llSWDwmto0DESRTqI5JcgYYBm+UDuMH1zzQBZitNC0+GP7U8dw0e5AunwvOy5OerEY/Orra9oenW6rJbBmlTMR8hQyHcTlg2Bnn36CqWj6tNGBPfwQq4cjZcT7gP9rCqBj9auyaqNSlSG+1zyFSTEb21o7IwPUbWyM++O9AFXUUsdduXttKuLt2hQF0hUMCDjgkABRkn+I0LoMEFmx1NJTMmQkcDqBGcnuPvcd61pbGa+uSlv/al8Y8K5uj5UKoMEDbjDeuPeoIopEvThbC3kMp8kCMySEenl54Gc0AZg/txYHittLijCnEcspLvKcdT1GPbioYmt9KVn1PxPeLNkvKLS1IKjHTJJFbf9h6lcXaXet+coAODNdrbwA+8a4Y8e9UriHTUkI0maOWPJ+1SRQOyfTc7cigBlncZgN7a2FyzyAFVvtXji3++wEZqzeRa19gMc97Y6dbEj94z7vmPYjJOafDf6JY24mvZFh+UeY9tYqzj0zycD3FZ0+oxXjSLpmm3uprszBI7bwrZzwGxnigdmRWd/dT34gg8Q6ZcJExGbSDMmfUgk5/Cr9jMLW78+51yaTaBuimjeNd2evOAarzCRUMepaVqNpuiDurqluj+25efw61lwXVm9z5lv4aKhzhZnTzCp9fnJ4oEdJc+JWuZhBBfwOxXAaORUYHPGQrdfTNUoJ9SS5ktL19QkQDczz6iUVh3AwBUkPhlrHRVk1CZ44lfeWeYL+YUcj61mqmhwSPdXkkNyxyBHCp2HPQNwDn8aALMj6VdsXvooGuD8sZluTO6J7cjH4VWl1XTNKV7XSdVtvMUrsV4N+xvfnrUOo6npykJLpxtSidZbcAbfQNj+tW7RYgkQ0+SCCORd0ULxxpGx7sWPJxQBLbyeJJZ4YJNTupDNMNqJaRxrtI5O/A2/rVpXvYGlnm1RwbdcLmRH456Nnn3xiq8dsWlaw1XX0uVCAp9nVpQOvGRwRzWfMfCNjejSxPFK+VD28VtI7HOfuqq8H1yeeKC1sa9r4guNc0gLaX0hLzASx3EccSEf72QasCJjILeSy89VPzLFcJsCjtx1Pp9KitJ9O0xxHDoX2I5/cvdxPGGHfC5GT060l4G8TSmzuE8yLrHPJc+VGp+gGSaBmRf6/bXs7RR3tzbRiYnyI1jGSOg5x09c/gaziFuY5Lz7ddu7SctNMoRT7ADLn8h6Vpy+G9OFrJI/kwySN5LzNfEqw9Su3n61lX2heG4rkRtf3U6RKElUTSOSB/dzzgfWpadxNpGvDqXlRraXHjV1zy1vBYLuOexOOPbOaqfFK2glsra9CsDGqoS4UyEH1AAAP4U7Sb3wRaXQXTNKuLny1BF7du+Fb02feOPrU3irfqekSz3lr5svDxuky8Adyo5H4mp2HucVNYJPb+YkzoipzH5PX3//AFV13wihfTdThtzcB1eNixjXAHHTnJrkdKup7iGWW/nwiHgh8Hr0ArtvhRawR6qz/ZoyZA22dJCcj0I7U47gd+rMwBY5JHJNLQeHIAxxRWy2AKKKKYBRRRQAUUUUAFFFFABRRRQAUUUUAFFFFABRRRQAUUUUAFFFFABRRRQAUUUUAFFFFABRRRQAUUUUAFFFFABRRRQAUUUUAFFFFABRRRQAUUUUAFFFFABRRRQAUBtrM7cbUJJ9gM0VDqkwh0q4ldTjysAqeaAOTFnc63OYbWV47d33zM+QGJ/3eT+YHtWgsOkWyy2gt1QRgAGZ/Mmdh0yAfkHfFU1hn1C3ijivpIEwB5cLYbA9duM/jmm2UtjYWzXM9t5ZLH59w8xue/H86V0ZvctugvS+pXF08cSANcyqCxIHYDoay73VtVnhnXwlok07TjbJdTgb9v1ONo+manu769uiI7hgqygmG0jkC4X3IB69fxrLlg1SS0McUao8TAoUdikeTgA7uvNTJqxa2NO0n1CGU25dPtTRqvm2bKYk+UcF2A3e+O+a0bLSbGe5Fxr+oxSYAVLUgKrY7jcMkZ689c1kaZ4burZFXxBewSOsu50hO8k54wDkKPoK3YdIFxcSJ5cYEif6+dyWjH90E8YpDH6utnPYAztIIY5fkiWJtqfgD07/AI1Bb3F/qBlijUJNuUpyAqIAPX161feBrDQmW2ufMVm2iTdne3YL7dvwrO0/S7BbW4a7nEJLhZZGJ2xgjJx3J/GrWxLTuVZX0u3uYrOa+nvJ5JCypYqS3oQSMAD65qwo0WwjaMQQ25zuA1O8J+u0L3+uasWg0q0WRNKJKKQG8rLM49ccYzUDW0VrMHttKmjMpJ25jaVh9Nvyioe5Jl634qhs3i+x6/ZwTnq9vbABIzz1IGSazb3xB4k1qx8nTUllh3nZcGM7Dg9MmunfwnaSw/aLnT7e1ych7iQSOMnnh8gfhWfc+DvB8l1JC08UqI4dw0w+TA9M8k9h0oA52ytIJrc22o6nHbSl9ySeUWdWHUdcfpWtaX0dtEJ7FLu4nKZ82Fdqt+mP0qwNJ02Jlu9K0S9hyS6sLSNWf6ZIAH51HJe2Edk19dRTtIr/AD/6YMoPTaqkmgBtzo114gSM3d7a2UDDc/nyO8m49OgwKsNp9ppVtHZ654oMzwDfDFbW7DYPXcBn86wF8T2l3qLi30W2gjydouXMjOfpgfyqXTtf1COSR4pJYto2ywLGIUOfqOaAN1rU3tt/alvbRrE4zHc3zbivHUDIPOO+ap6bHqct1LI91PcGIj93DbEjoOQDldv61CupSuUln+xxQw9FdvO3H35GOvStGKW+1a1Yx+LpwhUDybUqFI6YG0fzzQBGNWvopjb2VtJNOzgqyzRjA/3cdKuR6Zrup3gnvtL4GFKXcojizz2Iyalm0K4i06K1sIGuGgGeG2gr7qAM/Wq39p+IkjaHTJ7eMghgILYSMn1yeKAJJ/DOuK32i/8AEkdvFkt5OnrsCdsBgBn8c0tjpPheyYahdXdvLOoJX7QGnZFPBALHdk+hJFZUup+IbnzYrm9v76ZPnmit7cMQvooyAPxJq5pbarbv5V/4djtFMoLtczKsjBhxkdjQBcjvoXEcMMd9Mkfe7EccZX+HkKOOo65p0vjK7kt/tNrewWygbFhiiNw6DOMEADvnoadfrZRgpea7ZwlkO2PJn5zxlCcceuKqSWE004trDWLhyFBieCMRjBHLMOB+FADtQ1qa6nVLybUhuAbbcXEUMeMdlLF+3XFXLO31UIbldKSaPBMb+YEf/vrGTWb/AGfbaXdRra6rPJGAWeaWRAV9eEG4jPvUsF88zPdRWepXuchBu8uNfU5J5NAFi4uZQ/2pG022kGAwlV7qXPoBmo57mbWJJI7TS2uI4yBMkieUgPX7pOcew/Oqjtrd7MW0rS2iwN0TXN2Iyx6E8DJ/MVWXT4Jbkz+INat448glVnbzXbvzuJI+nFA7Mu3xvNKV0uW/ezLiM2kEccSt2BZixIxViO88Z3Kgw3drbqIsZWVSwP124GfYVA1v4ds5o47BYZSTv+0SW7MGA7Bm4z7YP1o1CS11K3a+vrwnHCqGEZbB6Kqjmgq6Q288M7447rXT500sgzP/AGl5m0Y6bMAY/Wl/tltKiOkaERKVPzMLA/kGcmoreW8/tBo9I8NTzBUBWbpgn3btV5BqdhDJ/a6wQM3O5wzqGPsDQJpsydQudVkRWuZGctIN8nnKkfTowXOcUovb2/tjpt86SW6YffDbMwJ9AeM1cvvt1rYfY7DV1fdl1SztEjQHHO4spNZmkS31lLK8epWUZ4WWKW4knIyM5wMBfwoFysuLZaclr9sSC73h/k+3TIi4HorNyKoRw3sN4Y4tWtmnIL5WRcMh7fK2Bj+taMVqxcrLLGXYljcTR7UIPbBwaybjVdQeRdI0mDT3aVmTzltwzRDjp83FAi6niJkjNnd+Io3jJCCITSkIeepVTjOO2OlVU8Xbr+OxtdO01YguDcwRTvtb/aYjcPbGe9EnhBJLVo9f1q4jVCFREdEYtzz0PFT29tpdisVtpOtzRCJSrHzhGzN2JYYpXRSasauiiSFHW9trNldSTP5T7z7gt6e4706502ygWO+sNYtogefLcO7OR1+VT1/Ks2wfUtLnZl1x7i5m+WQSS+cWHbBPXHPT1rQtr680XdLnYGUhgIiJC3boOB1plFsI19bm/NvbwQAfvJ5tysD2Ow/pXLXn2hrx7ufz54SSqO58pGPrnkgfhXRw3Q1RFuNPhmeRiPtP2mVic+ynris3X5SYZJ3aCRlbbtluAny+ygA5H1oIe5Rnm0+xj2nUEgLJiV7UGUewU5G4/hViO70w6a1ratHFIYdoe4QK5z6gZLH2qpE800Pk6Vo8Ywu4ukS4f0yzHOajCW2nQGOPRIrOUyl7icTlnY445wePyqWmNNWORhtIkZ5VukJhm2s5hYFufQ9K9J+HM+nrqX2a3tAryQFnkC4z9K82nkv5NRnWKWVw0rMWSQYX67ga7D4X6xDHqUS3ZuHkD+XtUBjyOvAHFKO5W56YedpOM7R0pKWTAk27skCkrZbAFFFFMAooooAKKKKACiiigAooooAKKKKACiiigAooooAKKKKACiiigAooooAKKKKACiiigAooooAKKKKACiiigAooooAKKKKACiiigAooooAKKKKACiiigAooooAKx/HE0NvpdvDJdCFri4Cgls5HfA7n2rYrnfGwea8t0hQBkjYhjjdn/Zz0+tAGXLqUiEWeiRSJ8+JZXwGJ+mOKfaaeGuFhtXG4P5kzyHcWb0z0xTdK0m/aH+2bHVoYomXy3uJV3FvXavUntmrelxppu6BSsjnLJHGf5k9M9aze5LTuWU0GzeF7y88uMt1nBbLNnttPTH0ov4i/lxw6uLaDYVDTDLyHPYYJ/M1SEl7fW08MDG3eXcZGRyUXjvjvVnT7nQNM01JjfBZI1BlVX8yRuOqrVOzRSKP2zS9FtZhpmZbpj8zyqUZj3wDWrpUurG1YNpDSOiCVFkOF544z15qOFJLthNoOiiEuCftl+DI2DzkKeQfrVi/t5rOGSS8uprqdYuJx8px6Kg71IDtbnmsjbNfXqvKx3G1jAxEe/T3rFl1CMv8AabndOGlZRbowAX3c44qdLLVHuwl+zyPLEojwAzgYHLY4B9qln32twdP0fT0mltyDcHblVJA+8ehOMH26dqpNAOsbe9visD2qwQhcjcWAOecADlj75xV67lNlAF+1woBhdkMeCw9WcnIxVKx0mQSvear4oaU+Zt8tWIKrjIQben4Co9QWG3l8+S1MzBdqF+FCnsS33vyqWS07mXren2lzN5RlmnkZgEVpsqfoM1LPY39nbpZQy2VuHcuUFmHlwOvHX9aZdanplrcKX1CNZlUFPJtfM29sAduakOlahPG0l9qckW+PL+agXOfTbjFBJm6pqNjA0Vql+07scySXEeQB2AByF/KrlvrpuLMwRRvHGRtaQIIy3+zhTkg+tK2lWDSpMuo28ybQqJCdp/Hufxq6tlZ2DRvbQ2sZjG5vMYHJ/OgDMsroSSraSaaizDIiaKywsY7ckZJ9yau4htxFe6raX97OseURoUWNPc5pL6aS+Jmn8XIu84McSnK/jg1nxSeFp76azSG7u7hFALXUz4kH04FACXd5p9xHJdyWWmgBc7bhsu/0EY5NaFpql41uIfD+jSIu0eXdG3ESA99oIyT7mn6ZGtnLEbKySE9QlpGcrntnvVq6WXzv+JhqVzbqi/KZcZJPYZPFAFDUvI0uRb/xj4gu0ULlYoW8oMPQkHnvWfHr0mpxEeDvB6mMMALm5lfLDsc9+tamoPoemwKTpsdxKA2+a5XzmJ9FGcCpdL1nSbqxt3luXMQQkQtMsW3noVXn9aAIYpL2CCS48S3aC4LBfJtyoRRg/KBjJ+pqrJrGjswhkiaZxh8ygsc46Zz29MVc1J4pLmQaNpKXMpYLGZGLBXAyTjOcYYVB9l8Y29w01npdpBKyKFuprddmBwc7jQBUtrOdLWSa3spC0rfLM0B+Un/aA6dKtXNvqEl8gu47mXhd0EHyoc8ZGcZ6dM06MeJLqeU23iEXK5VHWMHB9SApAx75p6XniLT5zDfX9uYSeFe6VyuPbnB6+9AFyyiubNJbS2msLRXB3bEDsVHQHjg57Ul5d6Qxhgv7y4nZGzIBCcLx1Cg9Kel74egsfMaSRvmxt2naQT7Ac1Gb+51S7lit9PighcZxvCsygce/60AV5NWtWma3/wCEduXG7bGJGEaj3Oegq5azTWzJFNNYQfP8sdpbGQr9cg5+tUbmDfp32qHVbe6dmJYrbM7jHGMsTUZs9WgdvOu7i3t3jDK4HljGPUcUFrY2odKtEJktb1ml3k7VhAjBPfGOP51niGa1YtNf24CMTti2lhn+7uqpFr9vFcixtLh1OBlt+TIf6/Wkl02Y3EctzoqSGT7zS4AjX+8DkUCabZbtYG3Kmpr5RfJBluiGYevy8VYuNR0zd9j+zg+THu2pIW5981nDWvCuhvKdR1i1Z4xiWQ7nVM9CAnJqxaavp04m1DTZbrayr5kz2m1XwP4c80DukOWyt9QuDOPtEUbr951Kpg9QTxVqw8P+GxctNJfOZSmCsaM3GOORxn61ky3gvIzFNBqMu4ZC3MhjUenDE4FW4bwzSmC1ksIl8sbtjmY7gOASMD8qAuhZ7Lw3cSoZLK4lk3Hyxcgk/L/vMBzn0p48PaTcLKk2jpHNIMiRWRAB6fLk/qKbp7a7bTyNdTrIhXP7mx8vb7g4OfxqqL+8gDRQajbod+7M5csR3z0/Sgl7mc2ia1PaTWFsbSO1RuCWO9Md8seR6fSq1toPhyZg98mWCEu3zbHI6Hrz3q1P43uX1Mi9s/tcTIYwot8D8z2FXoNWsGZI7mOG3hjTGUUYP0Ht3qHuFmQxaBoZWGe2vrO3jYbZHkZvyXuP/wBVbk0Fpo8EMMWpXLLHzKxR8lTjGATnHvVOGfw5o6/bbO8swxGftTncBnsB0zWXc6drHiWYXaXsjRu/EvnsQ69x14HSqWw07HVWuq3ESuLa0j3xnBaOXezZ9D0FZHiuxsJoDejTII2Qgs8jjeM9ST0/SrGnNq2j2iaXpCRsCW+VE4J45Yn/ABqDUovFc8Zhj0aEyyDGZeQp9R2NMT3M2HXNG0aIHR7W3vpj1i2PK2T3HAUD8KtW+pHVLV9S1i2u5GlfMMNtGqLtHZgOTWZd+H5rNHn1fxDi5iX57cgIhHqCB1+lS6c0Xk7LK+lut3zCCEuVVT/tdBQ9gs2YniHS7fT9YeXzVjW4+aSMds9BitPwhY3cSxTw3VujLNvLySbCFHUD14rK8Z22o6W9tHeWUcbs25okk3MOeMk54/GrukLCJEXWDE8W7cpzgIO+fX8KhOzsUlZHq25XO9VABAKkc5BGetFR2Fxb3WmwXFk5aEoAh6Yx29akrZbDCiiimAUUUUAFFFFABRRRQAUUUUAFFFFABRRRQAUUUUAFFFFABRRRQAUUUUAFFFFABRRRQAUUUUAFFFFABRRRQAUUUUAFFFFABRRRQAUUUUAFFFFABRRRQAUUUUAISc9OK4/xnMl5rzQSMY0iCrv3ct3wPauyQ7jtxwTzjrXCa1YwalrTvcfLvlyVLYbA4oAvGdJbN7CyUkJ/qxGATkjkjFNsbO3tF36ojMyqNkPJLNjvijR5biOGXSNHg8iOI5MxXkj+6CaZda7NFq6W2kFTIDmWMjLZ9ST0HvWYFm7mgSYXfiM/ZuP3MakIp46bRyfxqnea1dybfsljHbQgjbc/ZwuF9C3UVatod1xLqUgE9yw3FT8wY/8A1qr3dg+qYk1y9lgjZSSJNoXA5OFH9aLAX9F1fU7Vy819viI42qN5+g64qypuLsNfTXSQIsoY5k3O+B3Hb6Csy01GFZRa2OlySSyRjyp1hy7jHHPbjFabaPqclikbyRWiyDM7RnLNyRge9AFdNTUzu6A7gxGRkM4JyMD+tKojsYDaT3X2T7TLuaEnLMccM34dup61G+l3EPiD+zdOy7xKAZHOdgwDkn1xUElgI5HmnCzKs2xr+UGQnPZR0XHTPPSgCvquo6VpTCD7W10QdqwrP8mDwThcHPf2qvqfiLVoLuK007w9GV4KC6KsSoGOvWrgtrCaUXKxQrsR1U7PnXBPOMd/eoINBkwLuLQJpvPGVa5nwpb0HcCgV0VEj16aVpJLe2SaUkn7MithfQ9DT5LC6kU5uFeUYCgu2FJHcdM1p2wvrGPaNC0+C4Y/KqtvYEelRS3msK3l6hFldwZleXv64Wgh7mJBpOs2V5H/AKI0pEmCUj4x61uJAtj82q2sI3MCMqCyj1xzmrkEd3LZljdonn/6syKwCj0APWqUNtewyTNdOCrgjcEChR3POTigA1AeD5Z1WHTd7ZJby7cnf6cL0pslnq04zo+gy2SAASXDjgj0x1ptrretWp+xaTc+YcfI8EAyVHbcakF54r1FzqOoX6WKIuCsrEsP9rGQKAK09lqVqgs5dRvmZ+d9uhHlgfWqt5a6pqESxLeusQYtMJId7sPX2NTxy2uoXscE3jlZVYnz2hcbpT26Zx9KvXuh2SzRS2+o3JJjwrzOyrgep4oAwrXw5Y3MgZbuUoBlzNIE6dh71Wkmg+3IlppcR8tioSOAkFcdWPb6+9dBcTaJLZz2dnaLvQhfNlcYLeo7c/0rLuZLeN4DLdx+U4KyiFssz8YXCkcHFADNITUZpCqziNpG5aBt0mzA4Hpznmti20SEOLK3aNXZSnl3NwZZpO+Au7C9e4rOa9/cyWkelvDE5+ZLdwrYz0B6jntStoeoW1k17baakYYqxWG9Al+pPX0oAvzeDpLCya3i1NIi4DmGGMEryeP8mobXQ4I4/MFrLKIgWd5HAw3PYD3rLFprE92lxdXsm5j5kkc1xuwOgAA47V0r2lrqGnxwXdn84UlgyYBJH3SfTv8AjQBQudd8NxMukSmW6nULhAzBUwM9O/1qWz1y5nj2aVo0MryNtiln+VFA+8OOScVr2UFpoVrmKzsYwq/NIqBmIwPXnFZWoWdyL6a1tEJZmUxLDHlVXGfwPP8AKgdmEU+pKZZbm3gso4x8lvbn5iCepFLKbPYkl7Ok0UgwoubgbPy6iqd1pL27rLe3AiDnDt5wLtz0OPyqEjwrABbwu87yEq6CUjaOvbnNBaNK3vNE00P5X2TziuPIsouSPTc2f0FRzLYTRxuPDAAxtBu7ovg9c4PBH4Vmrf29rJFBp2ny483hRCVx9Wxk1qR3mpLP5CTW9tvHJWz3sR9W6GgBi7rEFYLCJmbjfDaldv8A3yvH4mhtQ1eIC206GV2QgyNLAMEd8EmrCmG6k+xz6zK52nBeUKX9uOlWLK6sLSIw2z2cbRn97512SQPeglptmHMyJfm7vtGiZyRmSadn3Htxxj6Vatdav5o5LbT/AAywkVv3DW8AUMe5x3AFOu9euLlxFZX9lIyyYk22ZYAeobpTr/8AtREbGqHa64EaOqEE9OnTvQSQyf8ACRrCP7U02Z/OBy0UoU4J4woOT0qJYngkke68PkJBGADcyAgk+pFQ3Euo+e7Q6vMrwR5eK1TGOOm7vTILh763WXVFndG4d57oZH/Ae9K6AoeJtF1PU7fLy+QglXH2eckAE+g5NU9L8H/2Dcqlt5t9NIHPmAYAGcchq2dTn0yJ/NXUzbq0ip5m7AUdegGe1PNz4chC6hP4guZJhEURRIEQ5PPzMc+nbtUvcpNWItLMv2YwCximKEgw3NvwPf5a1LaTUNKtGikvIYlYD/WEBQDngAURa5PPaCK11+NoljAZ7WFpBGOeC38RH9ax5vE09zalLQwlQu5ZriMBmI747U01YT3Om0q/WWQR2cjszqVwUPlnHcg9etTCLV50YXU6tsOI9jnI+iD/ABrJ0O/8SxKk9zOshkUMPOlXaF9AB/WtTR7i4vklvJL9oEST/VxoFRvQE9BT5kIqQabpFrcI17gTZYvJfNyenCqc1ftryI225Xm8tTtSIEpEB7gDmm6jb6QJpLqJrISn5o3kud5U+o7Vl22tj7RHcpPJOxfOAzfLjruHT6UcyLWxjfFBYJraO+hkXcvTa56/Sqeh6tP/AGbHHFYs8xXYEWENn/aJPT8K3PiZHbyeHGKQrBPHIGYE54PfP9K5/wANTXF0/lPclcBcMpxkZ74qPtXGeo+GPtf9h241AYnVMPnr+JrQrO8No8UE0JmV1WQbSDnt61o1tHVAFFFFUAUUUUAFFFFABRRRQAUUUUAFFFFABRRRQAUUUUAFFFFABRRRQAUUUUAFFFFABRRRQAUUUUAFFFFABRRRQAUUUUAFFFFABRRRQAUUUUAFFFFABRRRQAUUUUAHEf74sBtBbJ9hXGHXYTd+d9kx5rHddSrkr7AV113MttYzz5VdsZKlm4B6c1yOlaKdUk/tW6kdyiFWO3b5voAD0HvSugHT3epXs6f2ZaF0DbYlV8Ek9c/Trk1Zs9EtY5lh09Ul2sTcXEp2qfVSf4hmq0WNHLW1pdq9xLgyZIAx2X6fzrStLF4LJL3WtXdixPlRRrxgnsOlQBDPbDTITPLqKxMXKkwD5SvbA7elUBrHh6KD95ZT3cxBXc2SiE/rVrVvINlLczxlFJCxszbsH1NYEd5q6ZaziaTbLxIi7Y9uMn6mm2rAdt4Zj1byo7rUQkVoOIFUYcjpjNV2ttRGpzyO4ZlwYx2QFuD9c1laXc61q9wIPtkjIAGzB0B9PatS+itrAIInZJVQyNEJt24joWP1zxSAfpMBa4mea/G95ts8wU4JHBH9KralqepXF1Lp+j3S21vEpxOY8nd1JA7VQ+2ajaXayxsS4cyRs5+V8seuOlTahazTsDfTvL5zHKIu1QCeWJ7jtQBHpWhXFrMdWk12a581fMbaASy4x+BpniC6vIljbcI1K7kSaXdKvocCp1uppCbfSIIba3Q7X8lcl1HFR3v2a1haOEi3Gd8szRAyH0AJ9qCHuRRMVijuJ7G/uJF5MjOEVc9yOuK0V8M6xet/a82oRWwVP9H2EkDvk96x31WxngMjT3O1T8z3cwG7gHgDqM06DxHb2dtJDbLcTHcN4t1IyD9aBFt0bT8B9elu3AzJJjb9Rk9Khlu0umzZW77gSqumTuB6hsVWkBvA8csaRRAfMk0rM/qDxUEKz25Atp0t43UEu8m1c/Qc80Aak9nr1ragNqlpYIi8JEo3EeufWsi3Xw9qc6PrOvy3TbiqI0ZJye+OlaMdlafYpYbi6SW6ZdybFYjPoaotaXMhWF91s4VkJEYVQexDGgC1Ba+DdNkW0tTcRR5zE2MDP4dKNfl0eS3Mgt4CwwrNdXrHI9lrAstAN7FIjXkkqbwvnT3WAD7Ada1rPwrpNteRX2s6nb4jUjy7WIkbuxJNAEet/wBhzW8aWtykcTgZCx7VUjoeetJqVhYSLb7NVJLkAQQQBQrD+LP9a0PEdnoclpthsW3KcZWPBk4457CqeiWtpeSCGTS4iIUw6sxGCP8Aa9aAFi0DS4UnhjlkSYxkO93ccEnqV9DVhLXRtMiT+0JEWArtcKrHaoAySTyTVu7sdJ1OTyodfW3jjO1RbxjIIGeSfrWdc6dpMskkd1PcTxthZC7NgnJyOPwoA04NQ0K2jW00+Cd2fCyeRHwRjK8npxjmodT1aCxZJrkHdGwEkEs/QfQdfrUZ0aO2Vp7SxkkjgQE5chSDwAc9QKhafS7GJLa5udPtJlYyS/Z1Mhcken0AoAll1m8mDz6bpfmBFBt3ZcALnLYz1PPFUrzWNaeXF9fi2iZ9iRRjJwR1JH4VejvNI1XTvPhgluGRxtDybAzg8AKOQOelM1fTooCGW1KqwYFoItzFs5zyeMHjNK6LTQzRfD01wiJfJ5kQcGHKbSz9eT6c1evbsaFJvuBp1t5Mu6NwoJYHrkgHvWQ2o6cjfY729u7qYsCqbyMZ7HbxWlNY6RDaCzvA7FiCsG3j8WpjGW/iQeI7+d7TUW224G4SMVBJ/u7uoqa20LTZ4mbU9fJaR+LeBxvP4ikfQ7bUY/s8ZhTADHceEA9T6VHHq3gjwpb+Xf8AiCCS4cnyltl+Zm9QaAGCaw0+5mt9PgUpjy5DIjO4H1P9KSLSZr3UjqbRyCMRhFZ4Bj2Bz1rQ0bX77U71TY2E0gYYjlMYwT9TV+Wx8RyK0v2OdmD4bzZQE/AdKAKcmma2YhawaPC6nHEIOD71PcaV4tgsi4ttNgIGPMMeWGOmah1G/wDE0I8mS+WJXiwVEmMDvjFY0mtWqKIFtHYROC873JJP0Hegh7mqYvEt2Q93aRKF2gyxw5D+owMdaztSe1S2Pn6XmRZckLHhl9OBzRLrOpXcJmhNzJGCTFGz8Ej1Aqxpk07R/b7rV44JZAcqydMdRzUtO4jnPE76kfKuLbRLiUB9yRw253P9CTxiqcH/AAkVlEZzo6Q5GZJbmFXkRfQBj1rp5pILqdYYNXD5Yhim7LZ9MdKWPw2iQ7re0EsiOTGZASDj1J9f6UrMDHs7ya+uPIm1C+ugIwyR2m2JD1wDjgd81dtNNn1BVshpVtp21d0jynzpZT6DsKkg0q30zLTG0V5JN0sQkI69QMdabOdJR5biWFjGi4CRRsQw9M0WYF6Gzm0xRHqlxHNcnHlzNhvKQ/wlF6GpbvQdT1uH7Hcai8aKflhiTaJF9MViaRq+v2+sRJYeGvstrIh2+cu8N6cdc+ma6EfaJNj6hcm3IJxAqfOT6ccUWYFXVPD13byCzS0L/ZolCKWVVZfdj0xVVdchugRLp0UcfBJUFzN2+mKvS6DqceHk1eOIHmJHXLMffNVotMudPuVub+7TdMCQ0zblUDsFAGKLMtbGX4p0u6v7C4YwsoUZCiIrkdutZPgvTb6+0qT7PFJviyNu3lsV1U9zea4Hu4XjaNVYEOSSTjHArB0aSSOCW0ZSroSG4Ix7nFIZ13w51P7Q81k6T+ZsydyjaGHauqxgYY8+1ee/D2ZoNehFtdM+4ss21Tjp716DklgMYwMYrWDVgFoooqwCiiigAooooAKKKKACiiigAooooAKKKKACiiigAooooAKKKKACiiigAooooAKKKKACiiigAooooAKKKKACiiigAooooAKKKKACiiigAooooAKKKKACiiigCrrccMmmzCeFHUqBhzhc57+9ZN9cSLas905ZVxt2nGf9n3FWvG84i0uBDCrB5gMMcc+vvWRdyyW9kwePfI7hZbhj8oQ/88x2NZgUYpGj8yfTtPVncfvpphuKk/3akGhTTX9uNY1KQYjYReY5wvPYdKuW0SQLJLcjykWElQ/AjUn17k/1pNPFlqE6ahd2vkqqkC5nUuSP9kDgcUCuh9/FY6bbskcrahcBB+62kJt9zVG30jxHql4dQnsglnHDtSCN9iSEjpz6e3Nb0uv+Gre2aGyuPKMa7pd0O53H9Kgh1wX7+XbwtLFjIaaYAA9ifWgZUg0LXm8m0jvltLVF3PIiFRn+4e5+vStCbToISJLgRQbVGUDZLg52k+gJz+QqnNcyxbrldR+1zSgoqeYQIx6fT2qtLNcWsLSyTo8u0oSR8x/ukn0XnAoAnLnyd8FsjQom2SZm+UjOQT68YqG4ufEN3ZmW3u4RZl8tJcDjA44xyfTFO0C0n8gm3RWcvtLMhKZPOCKluZY7B3acfa5ogWEaphR6gAcCgV0JHqdpastpaabPKjp9+IbIt397P9KzLu6uppzb/wBmQlXbLM5J6e9XGk1S8s3vdVtJ3gblYYPkRR2HFJai6k2ppmiMxYcxt0P40EMzRcXMV2yvb20YEZEcTQ7tv+1k1OyWCzRtqXiMrJLggRPgLnt0/KqWrw67NcGxvdMW2gVt7ylSXz2GR29qzXsomnY6hd+aSp8knA5PYDqDQBrWNn4YhvZ2eXUp5HORKF4BHYkVqabBppkiD6e0SgHYs4JO7ucHrWHZprfEOyeCNQGMMHfHQsT3roNJk0OGye4nvW80uDK1wGZ1P+yAOlAE1xdTK8cWj24j3oRNLjbnHfIrA1m4sJmknvZY2ZVG7ypGZgc46ck/hW3NNoEsRtbme6mO4lcrsz9Pastbq4spn/szSxbxkhWmmClmGexpXQDdOhsbRg9hHFFGcFS8J+Y9+D3rSh8QaUlmI5bElyhG+UbV6+lV7uV7dBLc6ossYlLqltECy569TyayZ9N1DU7gpZxMsRBaKe8bBYd8f4UwN0a1bajHFcENuX5Y2EI2v9fpTZdAurq/ik1HxFbGOMqWWJMFjk/KQOlYW6/0m1SZ5Q6Lny5FDbcD2IpkviSxmaSZ5cMpVlkMDAbvw+8PaldAdKug6Ukmy3neZnGQpIXuePp71M9pq0V0IbMRQsVwIxubaB3J6VzzBL6yV21q8iU4LuyLEgz3HUgVettMXTIswa/c3AZsSxxMW3/UnpTAtW5uBPLLqNnPdNMuxI7qTEZ59BUklgy3EcAisYTj9yHG4oPYDn15qtek3ERt2m8pk4DydU98DrSxaNaXSiS/1GRwEGFjYqM59RzQA9oYtKWYy5uW24L2siqHJP389Rika+gkscXF3FGdx8yOV94fP61bvNN0eztHNtCkLKcebIeGYgY4FZ02ls92J7qa2kZxgrCg3kAc4Hapadx2ZNIun6YRfXN7ZQRhB5YVeQP91eap6uNCvVaSC9naVzkmdWWP8qzby70zVHAtWeO13/vFCYaTBwME85zmtG3txdO9zd65M0MR2pA2PvAY5+lNbFou6N4a02O0+0x2t5cNKuGCvtjYe+e1Qa1beG1uIm1XTrSA2y7oGtolYq3uaW2uTfRiyur15LaLiWWG3I2A9s0raL4Wtwx+1yQR9CLhDvHvgd6YElvfXMSKbGwuZzKhYFZhGir3IqKbWdbd2itjDs4CRMHkI9SO1WLXS9PuLB/7HubmYgYTzmY59xnt7U6S91i2cWquQnlgsyoqjI7e1Arozb6HUrJ4xqVsFDndIz46egA6cVa/tDwqhGLLy3KZjZmAAU9/Wo3uYbu5DXGnxSzqMpIbgsw9yAanDeGAVZ9Kt2feBgRsT78ntQS9xBr1ujFY7+GJSAoCQliB/ez+VVl1fQYnWJrmWacEbg0PAP8A9etbUm03yBaJDhWPEcQAJHfmsy7FjbKiQyRxMUwP4izdt3pQIln1+WK62qriNhkJDalcAdcHHNOsb6DV90UtzdW9u5yluOpA6lvrms+OPxBfK1tJ4i8qRziOMJlCR/CG6gmpHa28Oaef7Q8QJ5ocec4X5gf7vPp/WgCUad4dspDeRaq6IJPl+0Rj5T6c+v8ASqWoa5qMrS2tjq8cVu5x5SRb2BHf2q5Ff+GdSmYRxNduVUnzZcLnnBHGPWmm4trZpILXw9brM4ykzS7iSPYUrpAZS3PiXUYJJEvrwzLHtWTygoUDv7VsWE+t6TYR3Op6jArCMfvbhufqPXNRWq6zfIIdRWa3yfn2SBEx7k9avQaFZww+XayKCrk+ZPIJJAfYdMUXQC6VrX2q3SfULHz2E4+fknHqBTrjRrHWL2a/uYmURkrGsbNwPUg8UJb3dvD9st7ueaeN87JCEZvwx0+tS3N/qtyRs1WBGPzeRbQFnB926Ci6LWxTkuylrJFYRzRsowJI4+R6fnWJoccKXtzBqcrbyd5CngfWtm+0i7eZLuXUIwVXc6XDktn8MCsGwZ9O8SxrOg2T5UzdfmPtUvcZqWuqLbapHfaYqRwl1ygGT1xnivQXGJSfXpnqRXEQ2lkbgGG0eNETDyqeZOf0rtwyOqvG4IZARnr0qogFFFFagFFFFABRRRQAUUUUAFFFFABRRRQAUUUUAFFFFABRRRQAUUUUAFFFFABRRRQAUUUUAFFFFABRRRQAUUUUAFFFFABRRRQAUUUUAFFFFABRRRQAUUUUAFFFFAGV4s+aK3RJYQ+4lVmTczY7LWFNvd1ae5iZYslYSDuYn1Fa/ibTLSbUI7y5v44WWLClySVHqo9axdSuYE1FNM0mYh0TdPdTDgJ3bHpWYrouqLq7RrK3tvLt2ALXU3zDf/dxWguyw01Y4dPabe+xiWH3voP/AK1ZEer6PbWpkmju5ltgTlOhLf07/jUd1f3mpQKui6RKsAXzGKHG7tkk4JP0oIe5Nr1teQhHgvbe3mY7UgQDcV77utVNL0iC2AW+lWUGTcJhGfyA61Rtr6HRN8Uls1tPM25NqH94f9onJ/lWpoNzqV1Ni2S4mnAOZxFgrz0XNBa2NmwsVhtJ433RLLKPJBUGSTAycDHTFZF2ZdXui4ST7Op8uFOA5b1PqK1za3O94Lidrb7QoRG83fM7Hr7KvbNVbz+z0cRi0IitlCeUn3ic469/rQF0W7bRrsWavI0B8ohQHJf6jauOc9zRrmsQ6cscFzqSWwf5Skagsw9OAcUtlAdWuQ080yoqlIYM7dp9cLyT9ahuNPit/NEVnJKTzgjDPgYJy2AOlBD3M3TNW1W6mkXQNMljt0Yqbi8PBb3/AA9qffrqjv58vidTjGUjXaFB+uM81Ti1O+u4ZILZ1gikk2osJ81omHBPHBNWU0m0SL7VfvPdvC+5Lm/nVSAOyj6/WgDNvIIriWT7ZqElwFX5oEc5zTrNI1RnjU2+CBGJoN2APc96kS90y9vBGrSySvlvJgURjGc5JbGfwqvJp8OoagbfUrpyhydsOWJHYHkAUAX5ILeYCKZ1mk7PMDxn3FakF9baJZGW7S2M0cY2pAhYsPTmsSNbWO0kij1CUlR8kUR3MAPwx+tQQN4gll+0lnt4NpdZJvm/QAnPtQBPfeIddnb7fZ6FFbRb8IHi3Mc+uTxVVxd3Beb7FNJvOUUzhV9ztAORTr/UJ5/LYapeTMRuKhFRT77eaqJNqQvC9nLcCRnwMzBcR/3sZqGncDVtNG1O6USraiVin7vaNoXHucD8KW3svFFvP5iXx+98iwRg+We4JalUTzNC41mQhAfNLIHVPbJyKnutNtYoPtGkNNJLIgygmADE98DtVoDD8U3muXDvbz3Zk2go2+UKvPpgcUzTdNdNPQX/AM+wbYn3ngjnitP+x9fWLyLqytIB/CmwsWPck+tF/dT2ls0FvJI5nTapVANpHXFQ9wIHvdQnVLSLRI8vGW3MdxkZSMg56HGKkN7r99B5guPLjZDny05iIJAB4HPHas9NK1OTZcwyRWiBfmdpQrlieScnnpWvZyeGNM/dXeutdXDMyssJJAY8naegGCB3qk1YC7a2NkixnUbxopvLHnKrqdzHp0yfxqtfT6UIRYC4W3mjcnzoplBc9z3PTHpUV5F4Ze/MsFkLURxgLumDbR6AKcmrWkafDGwuLeO0jt1yRcGEI2D2y/OT9KYEd0lgEhMv2y5YAmV2k2qW/hOTVG48ttNYQLbQ3TEGTGWlznseO2KvXEWiORaSJPfS53Mhnyg56ngcAYqC8/tFr790bIQIh8vLqDjHpnNK6LWxlT2d9O0d3dWbsrE7GJSJccfNjccdKsWX2LTb4Kl0q/xKiShzIT1zioLKLSbh86jcvKHz/o9rCW+bpjJ6etbmnaVY2Eq3KaWtgu35J7hlZx7BVBNMY6Swu9a057cXMzEncIIFKFR7k4zVSTRtQjjRbIKHZhtmmuQz59D6CpPEWnxTQi4n1W8vnDgkKQFXj03Aiq1h4fu7+4V7M28czjAKhpie+D0AoAhvLG+hvxaah4glkfcAbe2k5x35FTQ2UNpCbgaOgjSQhJbu6ZmJ/wB2rVvb3N4hkubGSO5yU8wQeWeD15qJtIMO6e/hvvIUnbL5wJB7npQS02ypLbPbJLc3dnbxu67TPEPvKfQGmaXdR6Xfw6fPdGVZV+VGhO3PYEgc1bjt/DyRiFnk+Xkhhucj1zuq1H4h0SARtpsVzdBTjLMRt9sCldElfU76xnkj8m0ZX3BtscRO0DoRz35q/psqXEbTJp0Shj+7M2AwPcirKXdhqtq1rpvhl4gBh5LjLFR7HJqhDppgAS5eVbbfysUscZ9j8wBOaYFqa0+32kkAu4YG27lYD51Yd8iqwudJdQLu9Et5sAUfZVJYj0JBHPc/So7nVrC01E2puLkxyOgkhLCTIwf7o61nQ3XiU37xLo8sVqSXh3oUULnucZzz0pXQGpqmtT3yNa6Rp9ywRAzSjaoXH3h29u1Yd7AjT/bL+0mUmL5FiuCWOe/HT3rejto/La0vryOKXl8tlsDjqcc59Mdqa+ozTzrY2UMMsYG7KJxhevJxx04qXuBk2q6rYwh/7Fs0UKCt1elmJPbknnv2q7pOryrPLLfavpk43DKRTAnb2PA4qC+mmur8rbeFnlRlPkskgHzcdN7YxUcPhlrO7d7PTbaCVkMhglukIh9cqo/rSA3b1jJCrXDj963ygyBY3Ttz1/CsNtSv7fU2jsdTdrZSVNvbDaqnHc9TViC7u722SzubmzHzbX325ITHYYzk1Guu23h0FL2ziL+cSriEr8uOD14NOzKTViy8iXkEYuDH5agFnZmJT8MZNZ2s6VOl6mtvE6QRNvjG7GQP4selSSano0xW7i07fcSPlJDM2Rx0xTdasb64d40lhPmhV2oCTg9sk/0pFGu2pwzIt60E7lo8kgYQKe39a6bQrv7fo8NykW1CCFzjJxXn1vNqVrAmjoW3W7gSTO4XI9M/Su58JSB9J2R2SwxpJhCoOX9zVxA06KKK1AKKKKACiiigAooooAKKKKACiiigAooooAKKKKACiiigAooooAKKKKACiiigAooooAKKKKACiiigAooooAKKKKACiiigAooooAKKKKACiiigAooooAKCeDjr2HrRSxAM3LYK9DQBz3iCZbfWXmuISjQoBE9www2e6jvWfKkEl3HG0ijzeJZ3GPK9Rj3qvc2DajrlzPelghkH+kzKSAR/CgHJP4Y96cN8+o74IBPI/wAhMgDiPH8RwcZ46Vm9zN7m3Y2do8AMcCTxZxGJziPg/wB0Dn61m+LfFlzYzLp2nX8JyxEtpbxbnkT6/wAIp9xdWUlmj6nqt5OsbDKRMsEQPuepqhfQpfsLfQ9LW2iICvPbyZGD3Y8kn8aB2ZS8O6fK1wNVvIra1ZpsgeXJLPIM+hOBW9d+IbTSpPKtbq+upriT5fMGxY/9nAFZn9pjw1C2kNf3NxcAbxHYwMZCme7dB9KlkvJDCZ47D+z1JV917MDNI3sBk5x60Fo2dAhuru0n8mzMXBbMhwpGeck8tznjiqVxaSXd3bwW4QgndI2SMbfWr+ladfXzx6nq13ItvD832Y/Kz88MT+uMUutW811qU0MSghbcuHT5eSOFJ+mKCHuSo7x6XIr6ujTtJlFhPKA89hk9a5u9huJpUhv7lLpdx3m5uiFUZ67Bkk/XFGmy6ol3FbWPlKRERmHlhzz8zAA85q2syae2NAmmvCcm6kWBC3TJUsev4dKBFbT1+xRtLp0Lxwq5BkhOze3YBADxz1qG/a4kn36X4ZaW4jmwZZ4ihYdTw/H48Vct9enMAMdpJjDYWS5A8vP+yBn9az7zVtajhk1K90tJIVY+Ur+Y4PqTk8/nQ9ABLfWkibUp00+UrysaZkZQTypVQcVKNG1m6y9nePapziSwswrH1BLZNGl68L6NJLaxhtyijezzpEPw5XI9smpJ/Eeqs7Sv4mshGBhntGZz9MbcE/jQBPpmiC1K3l/cxbUON9xPksfUjI5qxqDaO8p8u4vXY/Mwg4ViPTHOKx28QWFguNTuxN5jZIeNRuHbgnIqzeeO3bZbabeW1ooU+XOSNi8d2A60AVdS069nl+1qUiQAlZbnlhnqMcVHbwXmpTCKwsYrhwpVHEf5/n9a0ILi3uomkub2a/kIBDWyby59iwAqxLd+Jo4PsMAjt0lThBcAyH2ZUQnP+c0AW9NiltLQG6QQGMBZEKB8exHAqtq3iKy0Rm+0XpBJzDbwp8z+uNqkjtxVP+yb+5mhs9a1Ccu7ErBCAvHYMSRt/Lmp/EHhGGWzj2yLauX2v59xl9p/uhOpP1oegGKW1XxDefbZJ5Ykd8LFcX6xqB3znBHHtVm9msrcNaWFxYsVUbPJuDKwP+904rI1bwjb4CXBvbog8CS2WPC+5JP51FFFa6XHEtro0LRuWVAzcKQP9kfNWb3AfrNvfybQ+q/a12sZGRlKKcdMAdenesnTNLkWYR6nq8VtCBiNWkZmC9egH1rXWTX/AC9lvpRuYwcsIoTGCD+GP1p8el2r3M19FCsVxwRBDcbnAwODnGO/agdmbWla/oGlJBFZTGVkPVLJVLn/AHmOauy+IrG6ugz+HI2llBZPMfcOOx67fWsaKy02RkaDzVuI/wB4u1RKM99x7dOnNaGlW01688tutyEkUEXMUQXzc8cKcYOQe9WthE2s6Zf6qrMusR5WMF4YYCAB/dBGOawZdH12zR5mhSDI4mlhG6T3yc10SyEuIdaMsStwpu59pJHchM9u2aS68QaCWWGzR5lRuPJtZCN3rk5qXuWtjmrHw34mvJUuGklCr8ygSY3H8gMVtz6VJZRL9qnQ3KIW3yTKgQepOaqalql9c6g0N7HctEnzKksmMjHUIozgfWpLWzuLy1YNr9t8h8z7LFCzMVxx94qD+dNNWGVYfEQldbddXkvMKSgtZCE3D+9IBg/QmrOl3sEYMPmL57KWKLuDA+gZuv4VXlt9XuZYEtLudYHJJF4Qi56fInTH4mrdnb2mkt5I1LT7yZ/urIrPj1wOi/gad0BZ0/V4LuFYgjtESSTJIV5HXnHJqO98SaBY26m+k+VmPyqSTj3GadrljqN95cMmtQWxkIEcESAAjrwoOc1Xu9H0vS3jN/pyPNJxGZ5gzuP93tTFdFW68QLISdP0ZZGK4WR0+UZ5BwKrS3Pip4jNeW9oSApxbziNnH+1gH8q07+XTNNliuJZLaNM4wLd2K/lx+dOh8rUl/4l/nS+Y2NsYjROD1Y5JH0qWncl7j7MXcEijW7iKFJCoWO1Yq2D6En86k1XUtGU/Y2s2eRZAI55Wd2wPpxUr2eiW0f+lQQ3U3mBTbwziVlz1PUfpTrn7JFFstNDuGgQEr5ZZQcdc8HFNbCI1jlu7kTtY3OWGEbYRu+nPHXrVS6sruyu0mvNS1B5dwSNd5MaDP8AEO5q45t5tNj3+F7+HDF3cSSFCPQ9M5qOSEQ2vnNoJgt2cGA3G5jk9du4fT9Kl7gPuL/UH862a9W1i37hLIwRj64OQefpx+NZsF5afazaJPJOJFPmotwZN3pg5+tV7u5uYtTjkj8OwQMyYdWijDSE9N2SR64+pq9cXBSZLa9triKbjIjliRWA6gYGfSkBO8c1lpr291oM7O0f7uaecHaO3btVQ+GXkFveIqszDEiLASH/AOBcAfjVyZtThg8vTfD1jDJLEWhe4umkLezcdfp0rCvZPGCIsLNGbZ0yUtcxL7nLyfN9ADQBv+V4lZinmW9rbpgN5IbI9CX27R+dV30WwNvMmqXtqVZgZUjLSFvQkqCOab4Zubu6szBfafm3VCIxNe7lJ9SoIH55qS91K0s9EFnFr1pE7Nxax3aswPb5UUcfU8VSasBpWMFrBaLJbeHreFUwEnYAGQe2e9QNbfapDFYwyon3i8jZyf8AZFZ+lXfnus+paUzuuVaUzuyk/wCwoX9c1s3F5bSNHp8+ly2rCPcp6Aj+9k4/Kk9y1sc1d2U0WtxC43RsJd0azciT3I/pXc+G5GPnIzKTkFiEKkn6ZOBXMamIpHhmj1FLl2YgLGSX478jitrwo8UV6v2q6IlnjI/fy5OBzgADrVRYzoaKASe3bvRWoBRRRQAUUUUAFFFFABRRRQAUUUUAFFFFABRRRQAUUUUAFFFFABRRRQAUUUUAFFFFABRRRQAUUUUAFFFFABRRRQAUUUUAFFFFABRRRQAUUUUAFFFFABTWdo0klKkhULHbzwKdVXXpRDod3L5rJiA5aMc9cYoA44Xkt5cTypcusaYZESTBBz19fwzU6XumaXp0jLMLNnkyxbair7nJySfQA1XsdHSaO3dtLKxtgvK5wXI7E5qjquo3xuJpdOmt4rnz9qYjR2HbqwOB+ArNkNO5KdRtZ1OogQzmMZzIu+InsdpximLq+r6hM93cahcMPLyoto1WAY7YXBP6VTP2i1C2uowos8rbnWFcKf8Aeb/AGpWstWW3KCay0+Bn/wBc4cNID/d+XLfULigtG3putWV6n2OHRrmaYkGRo5GjjC46sxySPatDSb3S/DkbXTNHKFOAmnxqVQk5+Znyx4rK0/SNN02JxN4hvo7cRDzJrkkqR6KoGRWvaQ2sMsMdj4aLwyR7n1C/lEZT0xkAcj0zRcDRh1G9uYTeXWkyRg5eEHBA54ye/HtWT4hnuJo2XTdTkLsMxpFwue5J7AHIx7VqtbRgG4tsF2wWDOenSsi60q2SaeJGCLgo8okCfMeeWYgDrTsyHuUNLe1gDnVdctXH3ZoBlkU+p6c96dD4j0qW5EFlaXOooqt8jjyY/QbVUH+fNQyXWn6XDFpel2El5uQ/vTCRHkMc5JALHOcdPbirS+JJRB9l0v7FanaDIzqxKN0yMLj8M0hE8c2o2lt59n4Ugtd6jzppYSzL6fpWF4jnvUVmvvJaVyOYtwDLj/ewPyrb1a28N3Nik2v6xcThus8czqjEdeB159h+NYu3QZXkOh2SKij99LMjtlcY+UsQOtD1AXRbCOcILXw/9pDJuae7uwET82wv4Cqet67cW0xhvtZ0yBCpSO3s4mmyf97PNWn0AS2yrdXVvG2R5cU1wr/L6lUHT8akhTTNNkWCe8mcRgsiCBY4+f7uQTg/ShAZGnWK3Ea7LbUr4L80SRIwR89zzx+da9lpN6bZV1fRYbKMyFvLDh846ZJYnNMubmeefbpa3CxJGX3R3GCo9DwAR+FM0vW7uWJUYlWckG8dF2p6AcHJ/CgCa71C2N6Lb7dcSNJ/ywjhLDHYYGABTWTUbq7jilujCZAUSB7koVA6HauMZ9TmtJ9FupHT7abq6+XC/aJWxn1CDav61WYSWiG2/sjTbUscAzXsYkb32qCR+dA7Mz9S0nU9MIuNR1wlo1H7pSqKAOx4y596taJ4wluCLXSIVLBgym2h8xlA64J4z+VVRotnfPJLeWcCTQPw0js5bPfbycVek0uU6bLZW6pZwMAWZZRF5p+ihic+mR9aS1dhEWp+L5473ff6yy25UlkuNhJbuCvXd7ZrOF7/AG66HQ71reQSgRz3TgCI5PRFUgA/XNTXGk+GNHs5LsaLcTXzOuw29oVCuRjHz5/OsBdWmvtVS20vQTDcFtwnlcLgjjc44yM54qXowNDUfCevLcSX994ia+hZC0Qhunc7wTnCAKMU/T4dd1ZYbaPTp1baTJlUtiT0GWO7itDTZvGdjpsq315DcICSptl4B7464Fa+l+HY763leDVrJZWCvL5xJO09h6HOe1ItbFPRtEvtOVbjUNLtbcIdk4m1ESSKf7y7AM8Y5IqWW8tLdxdrq9rPEW+fzbeQlQCccFgCPyo8R6IdEmRrnxKAjyhZJQowMDO1QFG78x1qgJ9BSBTPJcXRdcGIgEA9cEbuBz1x68cVa2E07mff+N75Lsz2U7iXOIFntQ0a5JztC7tox0zk5qcXviPWHSSB5wUXH72N0Eh77QAAPxzWhaXkk8Md1oGjW1isSHzLmGHJU9MHcVU/nVW/uvEs6rC2o3JiLbpW84sR/tfLxz7Gpe5SCwsr6zdmMqCZ8gTs2FORyu4nIq9YW7R2wgs9aijGeUhzPID6gtx+lZpbSoXaMSwmUsDHHDA+B7kM3WrNg8tnEEsNGu/NfcfMNxHAFI7/ADEkrSAuzaTbTWpmvrCS5yPlvL68C8/7n+HFYkFzbRLJaLqpY4wkNpZu+1iem8CodUuNKv4optT1c3UqNtlNrJuiX/ZU9T74FXbCOTT7cwwabIsZh3JvsndSAeu8jg/hQBJHo2qwJ580+qKQPmT7OsWB2JdufyxRBbw6p5eo2OqwokbMklushd93dvlJ/I029vNKa0KrYSygEbna3xk+m9ulKt5d6cBPb6N5UZbEeLxWZjjqAvQVa2JadyS50Cx0yVXFzZ3DtkmF7IOUz/EXZf0o07U7yN1hu7WEDzCocmONVTGc4HXpTI9VnurZrKaws1ikGdt4sssknrgJ6e5qDZYWMccz3E0aRMy5jtPLXnsN+4jqKLoVmaVp4htIHNrohtCd5KSC2Rix69ypP1rXi/tfU0LPdQjzgpaUbXJAzuBGSBjj0/GuXv8Ax5Y2ofS7FDaQiMM9xbj58gYB3YGfpis6HxtpMZjhub3V/NlZU8wglSOeVwCefpRdCOwltWtLNojr4eV5CEiRyGA7EBcY/HNZklvrc8rSyanC5C7C9zIwI99uTWXplxa3tibg6ndWUgmYebNcKjDHUHgnuME460lxb+F7WJ9QTxNdzO6kMTKArHjuetS9wMu/t9VuLuS1vfEIdBKTHFaxYRPoeT+Zra8P+CrLUYjdX63UsZB84SS4zj0YAlT+FQ6f56boNOFjBFGu5Gmk8x39T8n171e0S18cT3Ri0+5muUwzxebYRxRZGMkFyS2Pw60gL9ubDRoF0rTdNSVlj/0RLiSYvn/ayVH48/SoYdVL2ph1p7NnD4VbRgojPoGAJOO+RUFvp2uTXDyXt7G3ysXFtGr+ae/Tpj0/nT7nR47y6F5LJM3lIA0stuIMjsoHr70AMfVLPVNQWHT7MXSIdsy3Ur4dh1GSMYrY0uG5JM2n6fo1rID+7RrUNs/4Eo5/E1mR+ILbi1ihuZhHzgqpVe2M8DI75Bq9JeW0twItR8NWsgmUIjxz+YduOu0ABTQOzNXffudyaspRlxKtpwFbvj0FVptJ0ad44lnlubjqk5LM8YPuxAH61Vs9P8OQlrKYMFj6QxSiEjHPJC5NWLfVNGknFrpdosQZGMgec5z7s2QPwFBS2HXWjvBEVWeQCI4d0dXk2/gKo+HpL2w11Fs1jEPnAtcySAtsP8P1zWz4Su7mK2lWKJJ4+d0klwgVB35AJP5VieIpNPg1m1ls9NtkWQb2I3fMAfvGnHcZ3jht5LKxOTl2/lSUiSCaNZtq5cA5T7vSlrZbAAxnBOKc0bKu5sdeOaY6qykMPpSyRSiZZQP3Xl4B3Z5pgFFFFABRRRQAUUUUAFFFFABRRRQAUUUUAFFFFABRRRQAUUUUAFFFFABRRRQAUUUUAFFFFABRRRQAUUUUAFFFFABRRRQAUUUUAFFFFABRRRQAVQ8T3cNvozC5zsaRVKoOW56Zq/WN41ktk0yGG+JSKa5AyDg5HcUr2ApFjfhbK4tPIhj/AHoaSRcZ9Sciq9naXut6hNFo+oxCLyv9JlsY1CYHbLD9Qaq282n3MlxYRxgyMRg3cXmIg9SOMn8a07qS0+zrDc28t4kfBgt2Ea9PQAcfnUAZk+oWuiRJNDeXUkrOY/NtrdXJ+hOQB9MVX003YhnuXil+1NJhCvyTKP8Aaf5ig+hH0qSK4ukl8trd47djug0+3QjeP945/lVy10fXL9pFg8Nw6TA/Mc1xcESlvUKPvH6/lQA/T/KEI+1akba73bBDD+9ZgeeHZjn6/wAulXdI0WS4uVm1SR2ZH+QnLEj0y/yr/wABBqktppmiJM+rag7GMgGC1A8xWx1yBgZ69O9WtCX+0b1r29F19lhUSIJ2OAfYk4P4AUkrAaMktiCbnT7uLyA3lliDjdnpk1i3k9hLJ532I3N/h/JRSrlQG7K3ygc/eINaurzpc7UsGZo4x5ixRxYQe7Huc1gaTo+qXCTOsn7zzGLXDgLjdghd56LitLoze5Lcw+NjcFdP0u0tQ4CuGzLM3bIG7Gffj6VBf+HfFko8/WL4W8QGzy3u0jDEHuOME9e/WrdsuoNFJeWmuKTJIQ0a/LGpDdDgFmHHX5ax9Tis5L2W4u9QQqJlefyoxgTADbhnZuMY7Coe4FvTfC91aXIvLHUjM3O+O3idlYe7sMcdOBUN3o2o3N55k5SeIKyrDJyHJOcYBGcH2FWYdes7CIMJxOzRt5pkunPOT0UbRVR9asbueOaeWUHyyHXyyiMPryfxzQAsVnq0JFvG1rafu8gWsAjUkdTzkkg1Tu9M0/TFluZCt3cygM93eWwfHHQZzk/lV2LWtHnlT7I1rI0PzJ5rM7KR2/yKkl1DUnuftaRXNxI5/wCXaELGM9sHnge1AFEXEF60XkaQDGY/3rzhYUB9lGK1NIv9BVjp95exllXMVrYAOc+54p0sukzxiOaGIu4K4ljJJ9cnGBVuDRJJrSOx09/stuhBeSGBFAwPpk/nQOzIZU0KNxcR6BBJIxzjU7jzSPcLzt/M1BbS3lihkstFt5CGJDQWMS7M+pIHFLqfhfRbN5ZDPcTPKPk+z44J/ix1qlPo+rapMkVtqcsMSffhkG0N+fNK6LRS1jXNWkcy3U1hCVXjyDnLf7W0gj8z9K0NL1nUL7T0CTAh4wyrAVjDN6lipJHtx9aisbXTrS9e0uHs2dDuQNGGKn16itIXGkEPsuY0iiTOEtWAJPfIyPwpLch7lbWr/U4NFuYNa8RwsVKsohJVlYcjnn1rk7K31vXLkNay3Y2/OJo1YdT1DA4/OuhuvMvXlibTreGMRlxK5B83PHGSMH8DWBNBd297HpEc+oTLImCn2kBR/wABTtSe4WZe8nU9CV21SO8uFMgVZZbsky8d1HSrPh7xNp8OniAeEyrtO0f3yoZj3xkknGPQVn7b6xcWsujWVsqKGIuboliAfvdTjP17dKvw6xFZ5XTrDzGCYkkji4PfHP160i1sWtE0y3vrgh4jA6s/l7Q8pU8cfMcA+/PWjUrV4bCXT9Bgt1ckm4eaJRKiZ6liQCM+nNLAhsbBZX1sw71J8sziPbnnAPJ/DFS6ZHHbR/aG8SiV1iysrWplRMk9SRgn8KtbAYuh+EvE94Z7g3RVZAADFBv3Af3S2VA/Gr19JYaSI01XULy73cCKZ2VVx3AHAP04q+rRkeep2kPnzdRkTDZHOI+n6Vz+urFdReXbTRvHEzN55YRoB6AAetS9wLcHiOzZtq6XJcnfnzXYDAHqxratLz+3iXlsLSKAwkbJJyefQ4INefpbPeyCzUxFjhs7yePTPH8q6nSTd6MRLbTQW6qmQwg3tj0yxAFIDZtbCaC1hntVt0ZDgXDR7jj0ySf6Va1qS8NsxfxJPDCF4iFxwR3Of6YrOj8Z3krrYR2kkgK5eeVlVfqFAwfzqne6xpKLm8hnuBKdgxOigH6HnFOzAJNS8NwxG21PVJbm4f5o1d2ZAOx+7+lRXFklzcreWaXt0rofmt7ZYEx3G5gcflUlrrMbajGRp6JFjy/3EodlA6DOK1Tbw6hCILOVJLh3BeF5XYKO2e35U00gM37fpmj2aX5ttsp/dB7m8yUPtsxnj2qR9TXUHSFhEEaMbsRu5kPcj9K0YPCF0tyZoLrSUIXJaCxZ2LdgNxwD707VdOvoFWa9192LgJI7zJCqe2FBNJq4HMazaWtlFJdrpk0cLqVEty4wD6DjjPv6Vy9xpWvSx+bY3Lh5GCyfZ42VtnPBfoPwrr9SuHV2OlW1vCsbL/pjF5OOcn5gVx+FYGq6jrEMzWupXFtcRpl4kkdlBB7gIRwaRLTuVIotWhsE0u206S6COPPhWNc+7Fick/Unp2q3e6gtnbH+0IWVHwiWitjA9flJ/I0mnanFDbq91rVpBDneQoI2e3PNX10LT9URrbRilxJtM0kqW7tgMOu5T7Hg0EiaDbNqdsbjR0Nt8wDTuknc8YyT6GtPXtC11J2uHvDMm8BmbcEyo6nJ9+2M1n+HPDuq2+lrcxxskZj2oLjBDnPYOeOnrTPGOtanFNHFPGNgTBWKRERcAdQud35igDX0rxL4ZkYW8ltciVGBMwAXJHUDBGB0x1qz9i0PxEWvbnXI4UXKrDdTEMT67cnp2rz/AES91ITyebp0byhwZD5JOxc+5/zmvQNJuvD9xbbbzSrhrlSB50MCggjsWwcUAP8AD+heFrVC1vrF3cIWKSC0t2VST3YsP5VoQ3UlvqBsdM2REjZHM+0AD3OBzTxbaTqMYWGNlfvEssjM2PXoD+GKda6JrmoBW0y2treNHG3zYisjHv1LUFJqwk1lZ3FoIZ5GuZthLTRQnAI6Atxnmql2nh2aGOO9mH2hAGljtm2nI/2ipFXrqz1KwLNrBt7woTsjE+zkduD/AEqjcy6TrmnSTpYmFlHMahsA9+cGgrcgk1jQ44X/ALMQRmVwFlD5kZh9ABUVzplw9lLfPe3ZkQZ8sOiRgHuSx/QVBaaZc3Ey6fAYxE5y0cKNkAdiSBV7WrDRsRS6xcRwRIQBATlT9VPWmtwOx0e5F3pFtcIRhohnBzz+HX61ZrG8CXMFx4fC2zoVjmdQqdueOO1bNbJ3QACQf50iLsBAJ5OeTS0UwCiiigAooooAKKKKACiiigAooooAKKKKACiiigAooooAKKKKACiiigAooooAKKKKACiiigAooooAKKKKACiiigAooooAKKKKACiiigAooooAKw/GJ2vbqVyAC20c856kVuVQurRG1WW/lRj5VmdoK5XOM/hUyAwtMsZ7zTJJUvymHLCAR8bh2J61QvNQ1aQQ3eluJZotymCCPaCD6s/9K3vD863ulbXllQnL7IY8YJ9T3p8t/YWVkH/s9HkX7jysMZ9gSeaVmBzVvc+IosX10j2kdvhjiQAgnvubk/QCpV8VySSF7KEPK0gRprpySCfQdf0qa4s7bWJo7uONLqWUEb5HyynsfTA9MVZtdPvEWJLTTzCIyBczIijd6sC2SDSAhsbey1G6N28skxt3+d2Xyoge/L4J/KugMln4ghW2s54wARuVdzfL3OcDFc2/h611SaHUtTto/LLFkhecuzDP3m54PFdDa2dykTXNl5ka7P3UTPtD+59vai1wKerXENpdHSradxFAokuHU/e9B+WOKfezwFEtn0NGRiGjSd9oLY4OPTviqN2BbWDpbIWmlkDShvmY4PUe3bFVr6LX3jTU4bJfnk4nvMk4AHRR+X4UENO4SRahPbyXGpsJS5I2JPshRQcYCqf51XiH2+SK102zg8uPlvJtgqBvqRzRLe3rTz6b9rRYI5gtwy2mNxIB+Vj9aS41yLSpY7S8tJVQndCsk33gOM8YxQFmTSaN4ikPk2trCxLbnmMR49gMVSn0S11a6muL24ui8ShTxiIHHTAI/lTL/wAX61cwslpqAiUy5iUzFncf3QFzVW2luQjX2o3C4SYFTyJFb0wT81K6CzOi0BtLsQ1tbWcKShQT8gz0568/rUOp+JL8Sy2mmapboiR70mhUb9x6jnrisoJb6ndJNErKzKS8krYAP0HNOsdKnWMWt7LbgtIVjYkKHB5yT2phZkd9NqWriB5ILqWLIV2eUIrH6Ac1taTptzEduoaiLaEZDQByQOPxNZ17NaWMDyXmp28SxuREEVnIPp2B+tU3bRZLUagNTv5Sp6DI5PbI7UFXSOguLyGzl8q38VW5mb/U20SsWcenPFQyLcwwNPeTW6kqWCNMNxPoQBWI3h+eSNL6GwjWSThy94WGO2cc1n3aalobgvNbQDcRuhJbI/Gs3uM1YLjUbTUGazFtI02MhUA2AdyzcVordT2tqx1KBiJ5Plk2hFJ9sdR9K5eXWbN51htnjdmIZ5Sp+U+oBOP0rrNHs9MQrfz3zznZl3B4H0B4X8KV2Q07mLq9zeal9osnQnyiNsjoZBj2PXH4CsJLnXNMVwtvdvCG5lim2fMegAHOD9a7rUdXGnxrdIba2HO1pW+/7HHJFYI1PTLi5P27xPBCWBZtttlVOCQcdcdapu6LWxltG01rLPNGAzghopjkq2B3ySa3NGNtf6akUWmzvG7p88K7Txwep6ZBH4Vn6e+g3yta6PqlxdyTKCxjjUBj2IYjjnParsel22kq0BlVJg24vcTkpEo5JPPJ56VKAltYNMmvnXVLSG0eJiyCa4UgKeOSAcnjpU941hcWy6XZyXNjaodsVzbOfmY5wcc5yRj8KyZHsVhe2t9Vju5h8/l28OcZPAyQAfX8a2PDeueIIFa2iCwM5+fbB/q8DjJPH8XatE0hXRmadpNjbp5mpXCAFcho4hI2eem49az7m40O5iTToLFfmnYLEz4aQ+p4xV240KOe5eytbc3x847Zp32MjZ+YgA8jOapaxDb6FcPCmrRlmGVSMDC4HOOpFS9xjr2HSUhjklS8DKxzFHAMBsY6+lRWltqWpWxaHw6oOw4e5kJ3c9l3EfpVeO4uLq1I33B3LiWRsqgHvnvVK01ZtAnWG21FY2LfKEbe4z+HSkB0VppG2O3tr+YM4++qucr3wFHatGW40qC4jElnG8THG1VKMpH4c5qHwBpt9d3h1OdSsjknzCxy3vzWvdeHo5rqbU7/AC/lAlf3uRj3BNWtgMa7uLW6jSTTdOija3bgqTuJPblv1q1fW+uQwxrcPHFlAzHfuP8A47jJq7BpGi/ZVuYbG0Mx4dyeM9up5NVJnvrJx5abnSTb8+AMkcdM1L3As6dcysiW83ifULsbcm2CYGD6AcnFXl0TTINPF1b6e6IzHa91jIPrg1yN7d+MkuAdPsmBaP78ERXB9NxxVW38P+KdUnS+1qJrOMttkdbtpS31HQdO1NNWA6LWtKvpkWwElkFfAxLdbM4zk4UkDH9azhpXh+yCTxXdt5oyJTAhYOR2JPenaha6XZ2QgEQkcxnyy2R83Hzcc/nWBLpc946wTXkcEIfeVSTAY+nrSe4Gm+i6DqFxG1xbpIWYsu4qpz6AV0OneHEtdMEMEdmvLF/tIYHaewYEA/lWTY2tvaQi2t/BEt7OyEm5WRgqjtUUuk+IRp0yQ6ZDDGg8wtLJk47jg/zpEPcdc2728P2CK3hlRnVPuHy1UZJ+prO1SzluNMZV1VQrsFjSOFBGiDrlgCc5xWkLzUmsYrJLjaCwVYgQSkmO65zitfw14W0zSdMii1m+jJlJMsDSqu4k8ngZHbrQFmcJZ2rvciG5029LSKY5LgMESRvQFj9O1aF5Bq0cQg0yDyNxIctqIZgwxnhfwrR1m+j+2zqsOlxW+8K0yySSTSkZ4UZGPxrL02w1DVNQe4n1e5WEHakYhA8tewzg/wA6OoifwtL4nt7xo7+e5NtFJta4mLKgP869BtZre8tQ6X9zBg4xEuQ30PGa5/SZNTe3Mmm6a14mSmZXOOnUjvV67l1J7GFX0uCRgmNrW7ZHrzk/oKB2ZNdW2m6eWnk0y7d3cZMzoQR6kDJFT3F1p0Q+yRWLjd8yooAX/vkk1mSa5JpkqWdjZ3MSSDDu9ucqfbcf6VULanbzNPqOt3Uao29I1tlbKf73HNA00kaeseLX07TzCljLAzLtPkmNGx27ZpLDWbnVtKES2dlPc2ybmeVdzEehPTNM09dNvJ2nilaaFhlZntBKc46ZBwtRXzaT5yw6PdMp2kzB12Jv+vf6U7Mo1vhzqM14L23eNFxMHIjGBmulyM4zzXI/D+6it9YntJf3MkkQ2xlTlvf2FddtGd3BJHJByK1hsAUUUVQBRRRQAUUUUAFFFFABRRRQAUUUUAFFFFABRRRQAUUUUAFFFFABRRRQAUUUUAFFFFABRRRQAUUUUAFFFFABRRRQAUUUUAFFFFABRRRQAUUUUAHsK5bXNWvk1+XTbW8d45mCSRoM8Dt9a6pATIjKMgMQwri70LHfyyJdCMvMzB0PIPepkBuz3emNYNb6rq62pQ7fLgO0KB2NYL3OnW8cj+GtMWVd2WkPzlj68/0plzqNi0WywuUkKxDcskWC7eue9X7GK7g0xL7WtVjtLdBlgqZkH0J6Cs7sCjp15rOqSIYrRooipO2KHZtPpn3rpbHTWls411iQxtgkxOwwRnuxPNYVhqOmX94I9Hnnu50O9pZW4IHTApED3muqY7nz5DlpCcOiexJ+VfwFUB0cFvoz3LzpDCSpwI1UkbfT3+tM1a9lUyQWtrlUjAAdvuZ96z/t3kQyXGps1xcDlYoSRhegwB2pzaldtE8txYqjFQfsueMdQWPaqSFdEEM5QLc2roCgKl5BktJnoB6c0up6jf2cguISvnRh0ZbljjOcZA/Cq1vLd3LSW2nR8SxH5kAIVi3YnpjGM+1VNUsdRglWW61FGwzeTFbfMxOTn5jx70mhlfUPD+p6uz3UmrruuJjsjQlhnGc8elUv+EfaEravcpcyQt888pO4L12hT9cVq6dLdSzRGW/nEY3EGMgBT05xUV/azSyGSC/JnaPCbcgLg+vvSAdb6JczXKS3FnsjUB+nlrwOOntT7ufwo9zHJf3x2xgsqRwj75HY96pXMFu00Y1nxA8e0hmG8uxBGMYHvT5NW8IWtv8A2faPJcTqfl8xOFPofSoadwLEGs6Ncypc6d4ZUn7nnXEnll/fHerJ1ZJjHEot2QsSsH2YZ44J/OsmJ9Q1Jy0llHIqf6sSKFA4wMdz61Zi06x06RJ21GaW5jQFYLUAAHHOSapbAXn0jTLwrd3bKhH3AyhAR6+tUNRg8QC4zpNvDsXISe3VnLL6EH5alvtD1fVGFzc6haxFx8oXLsF9OOhqS00ae38mOW5v5dm7YjTkKB/ujg/jTJadzK1ZNY0wJJqgnninjwiSyKgDf7qc1hpaXmo2TWwjd23kEQW+REe2T/Wu4GnoMskMSSsNyPPIC2O+B2BrIk1KN7oWomKI7lZILSNsZ9zUNO5SOJXTPElmGi+1Qwyo5CM0YLH6etdXoFzbXenta6z4klvrh1AMdugQDHbgVrReH/tgRIrERsMHZOm92/EdBVlPA0qSPd6dcR2yEA/6PtVFPckk8UWYFWw0TRZ49t8VjQ5MYmmLFfYjpVLUdC+H+mwmdXjM7MPmhQkgnI796saho0tzdEW92JniYENFJuLfgKju7O7XZc3fhyQLu+aVkOV/4DRZgYcN/penXSSRahLJsJUbn2EAAdlHNWLO5trkCa38PyTPc5d2kDFcr0yWPAP9KSPw9qA3XiaRdSBTvKbAo5J5xV7yrVdPnQ6JcS8jzEmlO0j0AHSktGA2HWL63mjv9Rmt7FE+VktQsjAHt6d+tPudRsJYTHaXdzOqocSTqcuc5HAOBimaXaXt3H5ENrb267P3beQNoQc+nXqPwq2mjRT2zu0Ubh05ecFVJHcBcmqabZD3OZsIJdQvSt1f3EVvHITGiQn94WPTjnNS6x4N1+Syjm0m0lsQhJ8yQpuZM8ghjnmtq00u9NpLdMZ4skBXjjKRgDtk81mXniqzsXlW3lZ3AxJh9/H41JS2KOueHbl9PSG+iE0hXLmSYkv6DjgcVyl+txbzpBYxSMxb5xa/eUDtk9RXpljqUer2zTaiZEeOMFWkcLn2x6VT01NBOsmE6aZ2K4A3AL19aBmb4P1+8SGOG3kuC6k7/MBOB6Ct9rVNQKX8unO2RuUXE+zHvjv9K6zS5tIgVbPTtAt0l2jarHOPx71X1aHT47o3U0KPOf4CMBfbpVrYDF0fUbBlW0t4LeeVicyPGQAPQk8Ut1rN9qM7R2UsVpCDtSGEANkdTuP86bdTSTlktrwRKcjfFGFUDuOaoXOjy6fKj2Vyry5xuIy2D39Kl7iuh6hobVidYnuJDJtaeaclD/sjtmnpZxxQJps9lcuWk3L5UhIXjuRwBVA22pwXCprEQaLkmQsFDc+la1suoOgSNlS1WM7dkhCuPfuaLMZXuBDprAwaVaNJHFlpHm3MOfQ5p0t3qT2nlfZreMg7nuJZ0VQO2ATRbaD4ZuLCfUNRuY/KTJWNpdp+nqRUdpZeEUumuoNLglQqHUNvbB9MGizFdFS3v9R+0sn29ZvMOJJYANqr9c8/hWhYyXUd3BZ3TRR25jLsEzI7x98jt261oLcxXatZ2kVta4ICMtqeT1AGeOagktdSvWkS+up4BKhVViRQcHtx1HH60iXuEXhmD7Yt9YTbrg4l826CrnOemBnpiqFxYXRuX2ukjkgO2zBOc/xH0rsNEfSWsILXVMxyQpsLbNgAHTJPJyeK5jxvrul3mnyG3vPs08LYEaMT5injcCPQg07MaasVrvTP7FJtrfy5Q5XPkxgtznPJ4pXglaT99dyQwKMMCwC/iork9P1ywuI3hvtVvJEjOQfMHB9h1q/qGvTG3jgt90ocDajOFGPfvSSsxPc67TdZS1gX7BqDNGrAOsNqQD9D6mto6+r2a2kVnewhjgSsQrKT6Vxenx6kUFlGPLDqHKJKcD0NbdtYR74ry5uJ5pUbGzdu3npjA9Kb3GmrF7VtE05rRoTdzm4ALB/OLbj2BJOa89ubnxfc6i2imwgiZOSJLwyKR7j3ruGlZ7uQQaId+CdztjH0FQw+Bblla+uZpIp5VLIFiXBPbrSE9zL0STxR4ZgittUmXDg+ZHZ8bV7cAYo8RbdNtl1S6juZDKdudmcZ6E80zVYvFlpatbvDO8iDcXdgQR+FQWeuW11HHbaggkVgCyISzEg+x6VSaSKWx0XgbX53ubb7JI5DsEkAA4yMZJPJx7V27L5b+WBgYHbr71wultpaIl7Zr5skcieSkQIjjbPI9+K7tidxX2B2+hrSLQxKKKKoAooooAKKKKACiiigAooooAKKKKACiiigAooooAKKKKACiiigAooooAKKKKACiiigAooooAKKKKACiiigAooooAKKKKACiiigAooooAKKKKAEdSoJK5UIWO047V59Ok1tc3L2t7bRGOEsskxDDLHoPeu/uyyWcrKTlYyc+gIry6/vI7vXJJQRMwwsKqoBJH6CpbuBd0Q2dvaG4bUCzb8Fth5P0AyKsX3n6sDa31w8bJhjEPmZk+lRWzakXEerJLaxMxDfZ32yOPdu9XIdPk0+KSZNNis4pQP9JnLMxPqB6n1qQL9hpMV/E8B3mCMAhoSATx0OORV638O6THGhttVKoeAUwWz7is+w1G0s2jsY7CV7iRt5bfgY9T61ofarFrlvs+lZn27Vjl+VQvc+vXNAD40v5186zuI4dqkSXchBJwcYJ+g6Vl3kzSz/AGVJXlikzvYjAJHP165rWtIlvQ8upzhI0H7i3RcIPYj+I1U1cTbRbpC6vJKv7pU5K8cfQ1aaIadyO30pJLUm3leOMgh5SgHmMRnaB3GfWqOptqlqIIoruUlAA7TRAKMjB/DHH4VrXF/9lgaSdNpAIERGCnYAe9c5da3rFzG1tNJEj+ZtBnl3syD1A6f4Um0y0OEQh2SpHBMY5SQkZIRVA6tjrU41q18o6petbwvn5NhLA+iisxWuLwSwJEzSPIqlI0+UqOvsKtxaHcmBbi+WOGNZWa0QMHK49un51IFe8uNDnaXVL/TZWxgCVRgjuAB354qSx8R6cJ1az8NRQzupbLYZlboT+NQx6TLKrXDSvJHISHhdgquM5zjqDmtHTNKeaExKLSKY/NE0Y3sR3BoApw63Hbs99PArGPlUKksp7dOKvadcTXdylzbaM0slx8waQiNF4681DHqFxM7WCho4hkSuYAiqfqeear+Zp87j7PeT3KD5JBaZ3Bu2SeAKALD3uqStJdHTX2RSFRtkCqzeg9qZD4t19LV0k0G3tFY/LLczgc/j1qlq3h/VLhhJdStZwTEfO7kuFH8KjoCaemj6abuOW7hkMhBeHzSRnHt6UroDO1jxFr1rNGdTvoY1kJ4tYBjn0asux1S4uNT8pbm8Krlh5a8g+p7Gui1C3g1CUoxyH2kSww4wfQA/zqa08MiNyZ3JVTlIZJNpB9eKYGZb+LoRcAPPc/u3+YSttyxHXFXLW+tJ4xDHps1w6glFkcgBc5PTr+NWdQs724UpY6PCr8eW8doXLkdiTwKxL9/FyS/Zrm4t7JAhDoFG4n2pXQG/J4yuLOOK10xrbTo5MbVVAGAHU5qrqGtW2sQyldcv5iZT5Qtl3bzgcn0Ga5e1sZrgedeWrEB+JZhge4FdHaC5t7fyIJH8qQYiSH5R+JHai6AXTLi/SHydWad7h2xGvnqEwPXvUttrl5FeXM0Z8rap2yqASCByuO9Yt5od3bO00uiyIT96WSUnHPUZq9APE1tEZHureBUTI2RAllPQj34qHuBNeatKwSeSC9ID5eORhHnPb/63vVu01a+sRNDpMM4ZI8/uRjGewJ61mQ2lzd3DalNC80pIYtJly5wOQO30rVvjr0+itNBPHbspyw8oFvqEq1sQ9zCaTxVqFrINQmuW3/cS4kPJz044HrUK6Tb2NqILqzaRJWx5gkCgsOenU1tiaKa1isLm71GdmcEzOnljeR2Hp0pbqxjt7ZDPZw3DrkxhJM49ee9S9ylsYE1rYXEp1FLSNCuAUeRnL9vlFSxie2dkhgu5GZgRGItgHHT1rT1TWjZQRW+jaJsHVrgqPl+lVLa68S390d6mUygBTLPg0hl7QtVisZHn1SykTYmfLMjSMG9h0FXv+Ex0ue0cwWUs07cuZXIVfTpxn2qhjUNNlJl0a0Jf5QHuN2D6n3qaeXRYraSfU76KP5chIJMZYegq1sBVEd9qbRTSQpDM1wPLnMRZFGOgB61MNIvp5ZZbXXGYxKWl3RhAfYYqJdQGozhbLTo4kKFYkurjIY4+8B2NVguoTvJYprW3CgIIcpHnvn1pNO5LTuR7bjfJarJAw3AyMjF3HvzxitC1GpXsscEejG7VhiNiSFA9SBU+neHNQCuTqluiMMMzNuPI5A4q1BfS2tpEmjl3eNfLAuLgRqxHU4FNbDTsXTZS6XZiLWfsiW4H3IbcfLn3PNO028gdBBZLbxOrf64/Nle3AFYdxqWuec0c+q2AZ2A8tiZNvqBnua0DDd6Yrtd6qF81V4QDKkdMe3NMl7lHxBqkmoXwiWdXaDr5cRULj+IZ/Cql6fE1vDCLZt2xARI+RyevPboK1pr/AFeO8jW3ghkkkZU84xctnPHp2pl5a6je292t60i+XvM7vgKzHAwB6DH61LTuId4bOpz2q2Wo3NuzmYEndvc5yQM9ByBU2p6RpejWki3yoHBYl7ggsD1OPbJNVLaSxi0lNPt7qOJI8EbYzvZvTIqK0tLXVp/s13pc0rmT5t6lyc+n9aa2HZnMXMGn6rqBubBYQhXBKp94jrV3T/C8sFis91eq8JcsEKKNn9TWz4tsPDmj2pN/bfZVDYSOOQbj64ArjNU1bS0/0HT9ILMPm/eSknB6E+lS9xGukO7UzHHqZReGjMB7g8j2FaGnal4hur9pLbTDiEs3l56j1zXM6Tb3rDy3vLWEnDMEXOF9ciuu0O5gSyEL6tdPIG+UwRgBh9euDSA27HVruTTYDNItnFJk7beAs7N/vGmaump2CK97cXI80Ao8gySPTHanadqhuIP3unPAA+E3vkk+ozUk6/bArX11cJgkmdWyVHoOxp2YGRa69q99PJp9poslzuypnePAAqO90LTNK06RLWF1mj+88cWNpPOM96tW+g2El8/nX+pFHJKPJdhPx2jtVbWbaCzicSXjm3kI2ruyf8TRZlrYl0GxsbW1TU9XvXYKQY+doH4CvQLWdbm1iuIh8kkSspznNec6EYUmlSS3WWK2IaNNmQRjoc13fhq7a80aJpY0jeMlGjjTAXuKqKGX6KKK1AKKKKACiiigAooooAKKKKACiiigAooooAKKKKACiiigAooooAKKKKACiiigAooooAKKKKACiiigAooooAKKKKACiiigAooooAKKKKACiiigDO8VXslnoU3lvseX5FJ4HQ/4Vwnh/wAMb5hqCyuGaPEjMuFU+oJ4rrPiXIU0OEFtpa4XaSc54Irn7s29rYQPqFzJcTbQsNmG3Y9+OFH1rMCfRptRujJDc3UMqRBihlIwT/vVq6K63qf6RfFxGfvIhZVPoM9ayLTTmkljhvbJ/LVsrEoyB9TWxEJbSxdH1EzP1W3s12Io9z3oAuan5MUjPamVZioEj+Vjj6DnNZmk6bdPMZ5PMa4kJAa9kCkjPQAfd/GrVhIdQmfUJ9YltINoXZbHALDuzHqarzadL53/ABTs9xKJZf3k65b8s9/fpQBo3Op3NjbrkWkTq2NhcMdo7n0qg15OVF8JN0k5IEgfkYGQR7VZXw1Zm3kN5C0s+0hmPfP8LHpiq1tdyRLHJc2UcTwnyEiZDtRO5Hcn0oAqz6PdpaxXusXKXCSyh2gYlPMfryepHbimaho1qQ1zL5Gnjez+TCuzzMDOMnlsngCrniOa5ECraxzK8eJAjAAyDHH0/CudvdL17UoRPeasFi37fsrna543bRnlTk9aALkKLdRiz8wxxBUkmEa42hhnacd/Wqcl9pguBNYaFKFi+8nLjkdSf1/GtDR7fxDJbmw0pTEjFiZiA+9gqnBY9QOR+FFvaQ2l20eHnlRm80zS7YwM8nA7DpQBk3j20luNTl0ozFSNolkKqv4CtCGbUZmMSrHao8akLbMPTuTSPp9nJIra54hjEJl+W0tdu3B78nJrZiutPuUFloNoYreHJk81D84x1BI9eaAOUmOppc+Ra3DyxsT5pEBfkdN1Ngnv0mFnJqt1AjoWRowqLu/3V5/Ouij8NbNs15r7s0n3YYB8xHocdqjOnQW2NMtIIeVO6aQgtn09qAMq1t722h3W5vbtzJmR5pBnn+6CalsbHxU91LdXNqqTsMRPPMzMi+mOgrRkjedo4IHAHCypECWYD37Gi8ku7R2ZUng2LndcTLj+v61DTuBiR3utabdC4u5FeNWIbawQfiWqlqvjjSLK6Ek5guGOTsNwxI9Bu4Bp+u6Xa3lu6G8e7ldw6CWf5F9eFPNZ1z4c8LkxRvfDzWOZUg42/jgmqukK6Hw+MtX1QCWKVrSFWyIxKc89q1jGby5TVtS8WXMiou1I4oFAB9PXPvWfpXhvwlHDPBF4litd7ZMot2lYj2J4q7PbWMemSS6Bb6hdSbdjSyYhX67jUPcLodcap4diT91az+YMlpri4z9Tg1A3iOLULX7PbXE5jwBHg5xycms1NL0jTtt54lm8pyhHkWzCQk+rEmrVobFbD7HoOjEOw4aWQuD6kA4A/OgZcGs2WkySrcaUl55wxHJcSttA+makHjy3eILFJAZFjxHFHalsN/d3e3X8aytZ0dYlS7ltZmdFVTFJJnaM9Qq9Rz0q1Y6NqUlw1tHo92EkYCKaK32KMjqSeBTsxXRdsv8AhKrmdJJLyBNgLyedMFKZ6EY7VLbXBtHLahqh8wMQ91KxUSf7C8c+v41Np9qdLsJLXWhCJwMKPODtJzx0qSaW9uwDdaVdXbEhRGu2FEPrkj9apbEvcfpurJJdizRLubBzIfK3jHoS3C/gKnNr4eghnuTp03mgnKSSYKk88L6fSqlkdU0+5a4VLNVuDtZJJmdlA9+Mmtq0htVLT6vrMAcLgBIBnaenfnmpe5SasYF+Y9XKqlrHCrRneWkPAHoBUA03wnaAJd629xvVcKp2qH/3qn8SpoMj26Q2UtzLAGYz7XTacnBAA5+hrlryyvZrlNRhdxLOcCDytwXnqFFIZ0pttDvZkiSQQjlROkvCfX1NUrnSPDwlks9HleXerKzzOGJPcjFWfDPgaSFfPuLW5kkXJklKlNuee/FWtQs9YiRGtY7O1jjkGxnuE3sCfvH1Jq1sBm6JocFmqxzadMsStvbYdxxjHXrmtOHT7CNisNgsO0ZVpLguyg99opk0+r28f2K7lthukKhYYCxP/wBfvUd7BZzQqdFtbomNSJXln2Aj/dGT1pgNlkaQmQrIGVcMZWCqAfYnrxVZba/vZhciNYLZOIw8nX1PvU9npVoJFWdpCr8h/K5DH/aOeK0rPSYJ5fNf7QVYFAG4Un8f/rUEtO5i3unX01yq2riWLcGMgi4A9q0rJJAm2SYTl2wGljI2/nV240S1tMQX97DbRRkYP2rcT+Haqc11ZSXTx6PA10WG2PIO0H1pXQrMvNb3sMK2sJGxG3bmbPI6fh9KoXVzIlw0mp6pGCoyzYOzB6gDr271eSHxjAsKWt/p0QiY5SaZCV6Z785/pVa70rxPNI1y19Yyq0nI+TBHoaYi6Do7RRtpdw86PukUkBVzxx6nFNgi01ZTahp42ZC5nRmbaT1AHGc/0rNj0u/F1ElzqMUbI5229oCzgcZ9vSt23tksGjvZIcxxtkS3U6Bhnr8uc0Fpqxlajc6OpksYLK5BXAImAXef73fFc7/witjdal9tvtVs7Y4IG/MkhB9B/jXSeO7zUbrTD/Y80TzSDDs8qggdjwOlcZDNMjrDqemiS58oqAbnBDDvjv8ASpadyXudBb6R4R0tGD6wsrqBhNgUEf7vcVIbi2aIXGj6VEwyMrvx+IHQCsgS+ITbrPJPp9vAI8OfJBc/gAf0p2kQeFXcNqcN7dgjB8suFXPT5eKVmI0z4g0ezugNRaHzN2HEUm58HqAOa1bRreG1RbO8uokkJbyGjBGPUHtVLTtN8NQF7yzikQxZ2okCL+pOa1YtQFxp8d1eAr8w8qKOYOdvv2NUtgKIjee7a6tvtzRlCryeUrjPpWZ4ikRJ4dOlkMSjGGdQGJP06Vv+I7eOyje9tY32NHuCQjb19cGuY1JrF7ZHvtKe2nkIPmzyjjH40yk1YkubaISmWW9DeXCQHlGAnPYL1/Guu+FmsTanpV3byxHbBcDy5WGN4I/+tXn1zbWiObybUxhmBX5srj8OtehfDiz+ypMDKXZ4kO7oOOwFC3KOnooBBJHpiitACiiigAooooAKKKKACiiigAooooAKKKKACiiigAooooAKKKKACiiigAooooAKKKKACiiigAooooAKKKKACiiigAooooAKKKKACiiigAooooA5j4jXkKxQac8bSsytKFUcrg+lYej3MbymTIVsbmn2ZCj8OtX/AImXE6X0floBmARIwOGYk54PoKzLY6g9tHHY2mISNklyx8sIR3GeprMDp7a20i+gU6hf3I3EbgFMY/H2qzPb2joLLTdOjYQnkeftUL/Wud0KSxijlvL3UftFxuAjgkVm3KP0zXQafqY1F0jiVoY2BX/VhVA9/T8aAIn0u7s3S4VIJgozEVjLKT6DOAT70x/EF1pxaCN5mcDdIIWDAsT91mXhfwpk/htILQT3V7czRCc+Uq3BCAehxzj6A1YtLextlabOY3XDRRIYwSPRTy3+8cUAKst/dXMd1NeeUJBukWDkNj/ZPT0zS2LQrH9sskEsstyT/pDbhGcYDZ9ajilvpYjq1rYG2WSJlijOGZs5Hrx0p9jLb21jBZtGs04h3LhtiITzhj680AMublzcf6XrCPcodrBFDMQeh9qwjrjx3TWKWn2iSWRhLNu3Mp6AfXitieG/iS4uLO28l3iBMgZTkg5425HHuRWfJFeNL5Gr+M7UKV810sLdQ7sT60AU2TVElSzkR7eN5Q3mHJbaBg8CnLodpdWxH2G4uI0B8555vKXjrwOSD1qSebwloSxzA3UkiuXWS4nyGOemBmrb3r3yLcR6dM6PG8jFY22KAOASQATQBFommraSrNbtDbxjhfLiVQqsvTc2Sx+grQi0r7FCtw/iSdEhRh5lwgVGY8/xYz14rF0/UPFl7YS3Mcb7VQMkUCASrgY27QD+fT3qnqn/AAkGoESanpPzLEGFq83mEg8bmGeDkelAGxea7pdnGVuNSmmuGOAbMAYx2yM1Vtrq4ihk1S38PsEQEh7242tu9eDzUNquqzR/6LHpmnS5G52PmMPTKjoaml01xKrXutXt80ikOlpCIIhx/Ezc4/CgAvk8RXyx3EMM6q4DCNcRLk+jE5NTT2mpadZLcT/YmfJ3xTS7tw9CT1qm+rwx30lla2looVQGunnacrx7kCodU8Q6VA0dvrWtT3USDeFgttoPt0pXQropal4s1G2titpbWrOVwqQRDPvgDJrm5LXV735xp037xixwpRifqcZHtXVt4y0OwmdodIhgMYG25uH+cg9BtA6VctNcXVYGulYySbvlkghJWId+DUPcTTbON0vT71HZHeRyHyLbZhR6njk10l3fX62gs4tKR7cLlpTPuHHtUlpPb3eoyWsGhyXJD5LPMIz9c54z6Vr3M9larHBJpNkkkpI8szHKjj7oUHP407Mk46aCRbl9Qme1RSACJX3J+IAyK14m0L7EGvdSjWRhtEcFqwjI/wBk9fXrVyIy6k1zBaeHrLZHynnlY2cjrxn9a0I9R8QWVo1vbadYqwUPsE4wR+YwKRaaMe5Gk2FvDNpUc80zAglID8mOfmJ4rL/4S/Vb+Q24gkdlILwyytjIPb8MV011HrF2Z5bmyt5HkRdoN1hVHXA5we9UbOZrmUi9e1hS2O6WS1jwF44BJ6/hmrTViXuQ2FzfJaiQeGrcSluZjIx8sHoeAcfU1fa6aGP+z9Qv555tysfsLAFx6Bj29eKgj1TThJI1+/mGTGyGYNPtGeoVQAPrk/SpUtdVvLgx2OmzJDM+EeSSOEcgZPGW6Y9KYjL1izuJTstbdbeaWYkxvc7nz9eg4wfxqFxexWsiW0aPMrBo38suXI6jP8NdJfeHo7S/jjluLaJyP30xUytwOOWP61Vaazt9siXUt08UhMo83bGT0yQo9McVLTuBlnUfFcsBt7i3M3njcI4Bgg+gbvVOe98S2U2yG2ezAjG0yFQ5HfHfNa6ePA6GysNMjBRzvNvGR17jPQ+9ZWsQ6v4o1BJcGONBkkxsxUdDlsVJa2J7WRprVZ9Wup5DHJkASyOzZHcLxitcHTPs8Ultpt3BJKdokitN7ADkcN05qjo41mzP2a0spWKn5xtIV1HTk1p3niTXLSUJcQWqecmAqRYZfqTmrWwy3d2Wh3llJL4ghvWlCHbLcTYKtjkgIOD7Vhx3miWUMci3XluiERSCDZIB2yxJyfwqSfXNWubQCJWSBSVcwwAkn1z1P1rPXwXqOsSow08Oijd59xcYY/RRTAvWGvWepJ5xivSd2MRLuJb1J4qW8sL0SNdXE0rZx5cb3KqFJ9s1HZeG9csZEjFs7BwQBG/Uf0q/p3he00+ZtSexkxGpOwxllZvqx60roDOtvDd8ygPNbwK0oZmMzMxOcf1rUtNPsoPNbUbQTuWKgJE68g9Qc9KjTWImiN08qLHE+SHjVTkg4HB5xUd/47v/ALOIF1ARu2AvkE9O5Py1L1YroqxefDeTGbw27qsm4TLDhVz0H6VDqL+M724EULxWyOQfK2qAV9vetZruzW18u713zxLGS0ck5wx/AA55rKv9YtJH/sbT9FlnlCqyhLZyy9ejHjn+lUtiXuPi8M3VxlbzXQiL8xjV/nb1x0z+BrSgv3tdNkh0NgwXblpUVAQM5HzZOa5q9X4gPdiax0mC2WR1A+0zKjYGex5HX8a1PDc2p38lxa67CksgOGlhg+6O3zdDTETz2l3e+bNbaGj3IH3zOrHb24IwKzde1nxdpdzHcpolmSQvmsgjLE9x93jiuo1nU7mxtI4UuZyrpvMaOm7A6A7ASM89ax457PVGR73QLhJASxFxKxVMjrwPagDIn8RaNqqRQ3mnxxNuLFo513+4wAMU+71Hw/YgQQ2ZyPmjV3Z9x98dKszarYS2QWz8MNGQpXd9mVckHqG64rHurzVL3ITQikaKN7Gcbn9Oe9AG/a38BiT7VY2kBkjJZobRpSfbGeDVqB55NNXS9NjuYzKSytfCNCB3CqDkVjWH9o2tg8s1xHaq6hxD5m6Rv++c1f0e216V/tdlab1ZPmndMMnp8zdKAJLrw1dalGZbmSJRCQFBcsPxHY1UOg3dhdreWmnWSog5d0Gfr9a3LfTWW48vVNfW2jbDS+XdKWJpbiyFtcvLa6teXSBQ22SDajD2JAzQBymoWYSB9Q1OZpGi/eFTHjK+g4Arpvh1f3Emo2cs8BRJEdULNjcp5H41zvivT702kt/dQSSRMCMRE4HHANP8AX93Dc2+oXhZUFwpAZdygcDC5oT1LWx6sBn5sdVB/nRTnK7iqjjsQMDH+TTa0GFFFFABRRRQAUUUUAFFFFABRRRQAUUUUAFFFFABRRRQAUUUUAFFFFABRRRQAUUUUAFFFFABRRRQAUUUUAFFFFABRRRQAUUUUAFFFFABQeBn3Aop0cZaQEjjOTz7UAcT4guI7rXrma6jWbyfkj39F29OlEWj6p4mVPt+sx5X94kVpCAiD/ackYNNtmhv9Vnn89I4ond53J6nPT61Ytbi51OB5rWO5EIGGmkChG54CDj8zWYEcfhjUNLvTfWTQxJwz3Lz+YXJ77QOfrVzfdS3x0zTniuHb/npKdmfUkD5vpU4s99w8up4hjdQQltjzSB6vn+QrEltYpnUtYzvaiQhI4pdshPqxH9KAN3UNOa1hjF1qR3MfnwMEP8A7I9PpUNvpGoXMhmkUSPGx2G7lJ3NgYLD+hIp1no9pplkb/U7aFABujmvJSzxj+6uSMmrOn3LHTgE1GUwTyEmS5gyVPbC9SPc07MV0V7qC/tllP2kmRyPMlH3SMY2DsPwoGk6vY2CyW0Vuwlwsn2p8IpAxye9Nv4HitRPe3chfz9yrJJg4xwWIGPyFV7k6ncmKXQbgrdAESybTI6qTyBuAQDvnBNIZnanaGK4W01vxg92yZIt7WHyIVz/AAkj73H51NJbalfW0Mdjpk8UDFVWeOBI1VQSPmYnC9O55znvUlvpMMFzK9vePd3ZT55hbqzIfTaWCn61U1RdQt45LvUtQntzswjXMjSySscAeWi4Ve/ZqAIJ7PxJdu39n6WIt0uFuBOGXHu2No/A1J/Zmsl0s9Z1aS9lIbMME5ZP9kELxU76TqVrCzvY+WcbkS7aNQ6+pVup+oFVtIsJ4rdbW213dH5pkZbBRtVifuGQAAn27dO1AF+z0G5nthbapqcOmxu37+2t4iGlIGfncHlfYEULN4SExMVuZJcLGJxCd8gViQvXp6D0q7aeGIILeT7TC5jLN800zfIcZOOOeapX2peErWFZr7WIfMiSP93s4CngccHdxQK6Kb20UInlkiMCsxeRF3KVYnjgHNFvrekWU0Stbea0kZLvcyOY3x2O41Us9Z8LarrZtNMSR3VS7yXFyIYgPU5JyfbPNa66Hp8ebmXUFbKExKmmRsOvQE5P5gUBdGNq2vWkFqbee/gT7Q/y22nWgLAHpym7H1JrIkt7PWLn7LFG21VwXlm3EY9h/LFdHeaNcXg2Sxu/GFV5ShT0PlxbcCseLTb3T54nk0sCfny3MhRceoBJz+JqGncl7mRqnh7eFjF3MszEhZ1sWOz0Jz2rKbR7y3dLa/1GTJfGw3XleZjqeD0rqrrSn1W4Lajr1xHMcrusoWJYemScD+tYGseBZdMR9S1vWJGTf8zXEilkXGOAuT+AzSKTVgsby6sbyWKIptAUAFyysD0wwzn8a6e3im0uVLqeW1UyKOrEyLjpgdhXInUtDihC2Npd3MUajYLeF/mI+qj9a2fD81o0Jv77T7tPNXAjnuEjJ9iScj8BRdkvc6CS40fVImEkjktu86WJxuDcYA+tVbi50yQvBHZXe4RhDhs7vY98fSsHU9a0pdqadakLG43C3kLAP2BYgZ/Kui0LUNZ0n5f7ODII96+bPuJPX5uP60WbEF0LmG2W9ttOkiK4UC4jLKF/2R3P1qymo6jHbeYtuSYRiIzQxR7l9MDLHqamu/EET3URupbe3nMXmSJId3HoFz/PFZOt+M0025SSC+hkdBuCiNVUluME5PIAFOzAv2xvL6YXX9kMEVMMiMxZR6Bjjvk496n0y41LT7keZpEUUZTBeSRJSBk88MRn8axNG1q5vZxJHNM5R9oO5nJLdVxgAD3rTihOno8VvpvmOh+SJWwIPqeh5yfXmqWwEt1e6bfTPAGtrjaMujWbz/Q4BAB9s1R1G51mS1W1T7VCgGXiiiWLvjAB6DHvWd4l1K9W4gt5NV1GUMczRWqmNB9W2gkfhVRtfh0i0is5tTWACc/M25pGJ7EN1HvRdAaFlplxZ3Ek0tg7EkNulvQVK+vAyO/GKbL4n1m3laK3tooohJt8tnZ9wPfqBj60+HWdIiCNaaVFqE5Yo0dwxjiIIzk56/hWFqWloVlEVvaRuDuaKyid93P3cZz+PFSk73LWx19r45ghePS5tNaTOQX86MZ9cYBwKiHjLwS5M4sbdG8zCOkb3LgjqPuqo/Wua0XT9XjhjmWzsrMFsIv2MlgvruJwK1/7FtblDDb6ssr5KstuGIXPc7Vxn8aq6Ga8vj6ylnW2061uXbgEJaBAAR168UXWtajDHvFu0Mch4QyhXb3yM4FUtO8JLG39n+Qbh5UwjRsWdgBzwD/OtBLCTTsW66dDAm0RtLPjch/M4+mKYFY3fiF4glszqsjFTDHeGRv+BFVIx+OavQ6dqcNkj6zE0yyHa3njYkS/7xYfrSNBJMQknis7B8u62KKp+oGDWTrlzYWVu8enyy3QUAMgicuxHXHJFQ07gbEthpRiJtPD1xLt3IXM0aQx4x8245zn2PartkukefHHBoFkHEfzTSXZlY+687R+FctZ6v4huZBJFoU0MPBWCS4IZz2B2naM810P23VIYYp9YhsoQyZaG2snnlUH+HdnA/T8apbEPclu9Z07T7Qzro2n4WcoTd3A+f3AUE1m6v421+5uvs+iaXbWsIABu0DY9lG4D3q4dZv3Kvb+H5omjYKJZYEGMdwnJOc/pSzPqizTrf3dk8kx2gzzIoB7EKSCOvpTEYV/eQ6govr6zsy5byy8i5kLeu5mAPT8K0dEivLyGMWGmSNk4zNO21D/AHgFBX9TVe6bxDqNz5MTROEXCjTlQlWX+IsQQM/0pL3+0rZi+oyXcgfG1EuvNY49lAx+VAHTWP8AwkOkWyy3Goafbqh2yNLArMx9ciszXPEETAy3Gt3107ybAYkKRYP0XJrPn1ya6nh0i6N3aQEDdMVAC/Xgt+lLNqN/pFz5EWt6pNAW/dNKyKi+44z+lAFuWNbUlbKwRY/L/wBfOrMVHsO5+tZd3rN3ZzCdZLi5CJthXyU2jPsucfjVm1tYdZ2SziS6IHzfbZHYnn+HYMKP50+1ivZZpWi0Kyt4YWI3EuoOOnAHNAFrR7jWTaJeW3htYcEeYzMAx+mRwKi1LVtO1AzWWrvBbKXGYI3LFvfd0z7Vfi1C5mAW9+yhRF/qorRnb6/MQP1rJ8RQW2oGGKwiunifmWTaqbD6BVzg/jQApg8O6esc1vNKqHgRsofA9cd6T/hFL7zVuLnTLqWIgeUZ71jkdsqPuj2qSC/hs7PyjpWpTpEpR3VgG57ggEj8qtwyePrr9/ZpB9nKAqNQnJcKBjpgHOO9AGF8QUvtM8P/AOnXoyowsEdwCoB9FU5/E1T8P3NtbaOswt4oVjQH5pCT65xzR4ht79bOZrs2TSM+2N8MCB3wCOabp95YwaWNO+0JKCdhX7OcuSOpI71P2i47HrlhdQ3thBeQyBllgRgR9KlrK8FXa3nhaxdYtm2Irtx0wa1a1TuhhRRRTAKKKKACiiigAooooAKKKKACiiigAooooAKKKKACiiigAooooAKKKKACiiigAooooAKKKKACiiigAooooAKKKKACiiigAooooAKZdyLa28k8gAVImbcW68dPrT6p+ILprDQ7y7iC+YsJAWRNynIwDzQByGm6TqF7bQyQTW8G8lmZmDZGe4PerllbaaZSdZ8RS3sRk/cRhQsYYewPArK0qNr6FrVr25kaZA1+YG2KvOdgBHAHsa0INNjspwthAyxKf+Pg/MSfQj+tZgbltaaTqFz5jK6KI9qoWAIP0zT5JTp3lvo2nRxgAhr6Y8r9Bzmqilo7Jpxp4WfzPkJQltvqAOtPubGxljgju7meSfzM4L7VB9wCQPxoAz7eytb7U0v76WbUtsmVE44J9QM8Vf1jVtY1H5YZ/KydiW6x9FHq2OOPTNXLzVNNsEZ3eJ7hUAEcUWfLz3z3FYmpnVdQuI47Ca4uowuZZlAjWNc84zyTVpohp3LMt3b3NyDrdwUgSIKY1TqfT60mp6zqN6s7aPp5W1WMLHJ5m0gdOBioI7O0sb6W81GaV0tog0SuhZpHbjBHsMUusQ3dxpqi7nS0ieRQsbSBZXA/2QelQ9y1sXrVL/TLYSaHbxwPLF+8nuBuJPc4Gcc1Ul1LxDBZefLqMBKykzTvMIlQY4HCs34Ac1nQxaZLIX1i7vXhwURbZzHkZ7k9a0INZ8JSWqQ3tilsseVTdCZHbnjr3oAwbqDVL0/bT4gWWZzuUWGlEbV9PMfk5xnP8ulR2OpaxaQM9zJclVYYwC7K27htgGG/EiukWe2u13WeiPH8hMZvpSMqDywVc4FZ+u6ykkX2K1M8pnhzDbWK+UG2nBJJ5xkHvQK6M/Ubt9R1Erdxz3JVT8tzNJjOOrRxg7fxNZeneH454vPi022aBeZGd0VThj8q4dmz9QK1otCN1JEkdu9pAHDvFHcM7jI5yRycnnk96mTQbKx1DEvhmS5kX54bmWUbcDsVFBLTZVsbSSFXeWdLO2WMFoCy7APfKliT69qkHjCGIT2Wg6Ul4jrtzHZqmz33tkt9ePwq9fxa5LJI9r4ZsYYmVSzFThu/U1S1GPxJe3QtLNkkjMXMFrjap+tAWZJca5f3Wk/ZLhBbSxyFTHGAm/ju6jms8W2rRhLWys4FjlQmeVAJXXHYFm4/Crs3hrxRc3SO0VvZopzJK53OSBj7ozWfP4c0ueT7PFrOo3l0WJaKGHy13exOCPyoEF++nWaCQ39wXIyIvtXQ+nygj8K52/v7e5coAjjcTukdEZXP935v1xXSWfw/aS4fz9Chj3R/6yZSpU+4BwT71Sk0SxNsthaRwySxsyuILQdfXPJqGncDGgjitJVMurEuRk+RO0hOfXAAq9pVnaXN2sclrI8Zbhy3DH1Abmrtv4Tg8OWJvruWZGHLRhVAJ/3mK8VDfar4i03ytQgtG+zz4TBlAC5/iUkZx70WYGnI1vbRkaZ4Tg3DIMlzdjJ9yMcfhmpNO1DVL4rFGkFqqRlZ7iBGfaeoIUj5j2/Cqmj6tc2yuLhVcyZUFrqOQ/gGwasyXFld2yfaLeZxuwXmlZhH9FQcH05qlsBKkOpy3gvrlZrtuwheKIv25UbnB46EAdKdrGmaNcSGTUWkglJBWHyVLq2OnzBfzwat2VlaNBJDBJepKyYhaaZIjLjnDHrWTqNil69uILC3jnidvPZ4XlIGMfeJ+bHX05pgULiwt5Z3iubO6uJGkA26rqoWKIdiUUKD9N1bOiW5sIF0uPWPJkyd0ujQsXI64XdkbeffnNYVt4UtmnMGqeIbi4DMMNbwLCzAk9SxPHbpWzY2el6Z966uI2jJa3sxMJGB4UswU9+O/bpQBNqHhe1v0knhvMqw+aeaVpJSPoOhz24qK38O6VZxr5OrSSyMMvF9nQY98sc5qt4hurq0tTcWxSBV5eaZfnPPOASBj2yTWXZ694ekeSSZ7q6KMHL20giUnvkZJqHuBtQX+iSyL9m1meIKxUvcx+fub0VFU4PvVi3uks7P+0JUlZXY7J5/LgI/3iDnHsRTLLxB4WeGAaVaxosT7syB5eDnphVGcnuaTWY5bi0M+mQTFmIAmVFX8gS1UmrFpqxSuvFenk+RbOjEIcPHZyTDH5bf1qTw9qNtMrm4iv5ol+Y+RiMN26LnioZNN166VrOOd4R5fzAttyP7x29fpgUyz8FxaJG95quu28TRgEkQsfM77Qqtwal6sZs2+k+KJ7nNnYJbWwbczT3CwoFx3OdzH34qS08K6K1yL6bVkvJGYKI7eQyhB3I6Y59aNOk0hbQz2SPIr/NLP5eCw9ArselXIU1Wac3kuoXlxuQEL5aRDHYHAAwPXmqWwrodcaCt8wNzbJAI2+XYnO3tnA4Jps3hyC1eOdbvy1ILAPIm8D8NxA9uKdJFczzG1n1F0DL8pjbzCfUbUyTT5tNlgX/RdIilRvl+0T/u3P8AvLkn9KYXRk3fiWzsFFxdafdX7LiNVRWKnrllGcDHHpTpPGbR2DQXUsMAKLswhXPPQ9yfwp0t5qc7C2urF4wCVRLW3LLge7FaW28M6Pb3jarexW8LeUWiWVtzZHUkZOOtBL3Kn9tPe6mdRsVlZuheFTG2Mc4ZyAM/0qfQZLYRG6kt7eF9xEiy5mmJP8TNtIx9D3qXUdC8JahtJ1q4uQYQEi804J7DHA/WszxJHoum26aWdCMauoWWMXOxyOvGDx+tAjd1KC2ubVFk1iRInwJPJmWMjPUcAH07VRMN1aGNdFv4g6llt3e+dyo4/wCmYwfzrn7cajPKZdF8GfZoyCzzXGWAI7gsct+VWtAuTPEHns5ribzsyRL8oI9qANK/g8TXDJbazqsBd3BchgJAP94gZqWa38Nwsou5Revg+WZbiQsrHt+7/rWqgt1gaK30OOK6jJZJZp97KMemDVWwtdyrNB563DAhpxGqq30zjNAGSdB1S2aJblnijxwAs0hXJ4x83Aq4qaqLkNFJfhoF48qIqjDucEHP6Vcl0uGziaSDUZmct87S3gI9+9VWWydiYL2Sa5Hyp/pD4YHtxwfwNAFO9vr27ZdL+y3IWV94ZrfBOP8Aa3f0qSRdSCC4nh1FFU/IrFEHHsCc1HPa+I2lCzxmAKCF3cEKB1yTVGPxl4cSPyNS1qWV0OAsKsxJHbpigDd07Xg48+LWZVHI8kL82fTIzUGk6p9uuLgy6LJPIM7IfMJZ/fccY/KuauNe0K8m82zkaFmbJEbEEH1IAOa2dJvL3T4otTgu5GUqSTKu3j8eaANKe3AUFfD9vBCi4IuLsSGMnvzjmuMtI2t7+4m05HkKSNulM2FB9gM8V1EMl3qR/tGO7g2SuMRW0W/n6kda57xRczR6+9rAsyxXKYZZFCcjrwOlQ9y47Ho/wyupJ/DLRTSbmjuWBz9P5V0Fcd8JrtJI7u2hi2xqIyu48k4Of6V2NaQ+EYUUUVYBRRRQAUUUUAFFFFABRRRQAUUUUAFFFFABRRRQAUUUUAFFFFABRRRQAUUUUAFFFFABRRRQAUUUUAFFFFABRRRQAUUUUAFFFFABWR42ljTw9Itwm4tIFUHgY61r1h+PrhY7C1hYoTJOdoY8cDFTIDnop7uEqBGkdtHGDI+flHtz1q7a+ItL1GSF0keVzwHQGNIx6eufwrNLXF/A0srgvHFgxbMqPoO596u2dpNp1uss2nkK0QMAkPLH196kC3dXdvChj028uGWQbS7Ph89wGPP6U3Q1hgsHukiCWrtta4mkP3vdcZY+9T6TJ/aP2ez1C1V5lkLIoiJKkjBI9KsatYXs1xtXTjsjAK5IVhjpjFOO4FzSLXTprR2hVxCyb3kfAaQjt7Cn6u0jiO4CIkJUHc5Hzewx3oso7mG3ijNpHcTvlgpfai5/vetIba2RljleN5GbaxQEKo/uqv8AWkBk204k12TUDdNKIIhswR8zHgj8qu3Flb2UL3LWaJcyrvEhbzZF9MEjA4qpb6RDPeTxWTiJGfDkLllHoPWtq3gttM0wWqxtbmV8P5j5LAD73sKAOSn8ParfK9xplxMpY/v59TmyCvcgY4qot9odqwtLJUv70HaoZCyr7k1rT61ptxdm0udRScuSqsWO0L/jVWOea/upB4esSsMKkO4g8oMBwcZ60AQLZX1tPJqV7rESMy/KC+ASAPk5/pS6npEmqYjufEzocDhBhQOm0E44qheaP9paILCZiXZpFkLMR05AxweKuy3Ut2rvbohAciPeA5IHHTjHNBm9yex8Px6fbmUeJBuBIjWMbQcerdT+VMupItIjkktdULTPgAspOcj3qG2YWt0hv7sSkx5ZY4jhfy6U6PS9Y815hNLbqWwrIQuc9DlvagtbDbWXV7uMm4neID7rSJsQn0JYj+VXbTxBqMNsbW2vLKEn5S6lSQc9Saw7z4f6Oty15qF9c3U0/wApH2kuB7YJ4+tXI9P0DSkjjj024e4GESBpFbI9T7UBdFxtP1DVZmkv/FSrEG+WOFvmY+uQOn41NCugWEjQLNK7RLlm3ksCe4PeluU1BbB2s9NituAMkBjIPQE4rltQ1/XtMuGjsp0BXiFo0BOfTjJNBL3OguJLS4tQFsL65bdxJcTGNB+dILAhgbdbK3DKRKbbc8n58CuZuYPHt3EbrUcHzVz/AKZk4I6fIOlZQh8aO5hi1VbWM4EgtYyC574zSuhHYPa20Km3WBzIV+eWUFt3p9/5QKrJoup386T6sLCG2CgBlmU7VGccEgfkfwrM03Rb2acCPT2uHiBDve3JdSfdQcCtrS9Jvba3k+1GEFhnyLaBQF+hIJH4UXQC2fhC7nUNbQ2qbTmOeO13M4z1BCk/rTm8E3FrdS6kmu3DuVH7maJwT7cnp6VdtzqcUIl064AMYAAjSR2OfXcwH6Ul5JqFjdrcajqM0D7fnCAHOenFF0BQ1PwrDas9xqupJCeGTcud+fXJ4NLps2n2t55kMN06IpAZJhtGRyPWrsGkeHtQvW+3TSXM2RKPtL4X9eO1Sxa+41eXTLPRLaAlAodIM5A9O1MDBvPhel/ew31tqF4Y2YsFlmLKoOcgk4wPT8aqXOgxaW3lnUxC7Nt8y2yZHG4c7hnsMfhXZ3Nrqs9tLd3MTxwhf3PmyBcAd9oPNYOs3RsFDnTLeRUXcZfJKscj0BoAoX3hq11S5kvI5mlaFQsJuwXIGc7gpwM89alexs7d4LTT7aSQoD50xRVZzyMHt+tVtO8SXHkxSXFsiM7E7gmTtyMDFSyajqWoQki4Hl72JhaADIz97rUPcBz6lqdlavp+n6VC7pw0dxMMqvXOB1/Wq6jxDeLvtHjt8fMrQQN0/Hg1nXmlX8Wor5WsoxDAl/KLOP8A63tVjUo/FF6ipeNPJE/yoWcoCvrheaQ7Muxx3Ilks/EuqXrKyhh9nIjLj0Lc0lnbeEo7mOL+zLm7bnaXu2aRQPp1qSzh0eyufJ1QFYljUKHlIyR9auWes6PbyCDSNWdJHflIbb7vsXwatNWLWxNa2HlRG4g8KXUUITKNNcBA2fUE5Jqz/Z13d2w+0FIS3AiUlzj3OeKSSdDMTumlfHAA3Y/76pPtGvKj21uu24kjJWVyCcfQDimS07mg0GrWcKW+kX4hAXO1UAOR79f1rPsYZo7l5da1K6lkL5ZVl+X8cAmqDPe2F95c9zJcTMgwOxPetLTk1C2h3675axSfIUUhDz/tDJ/Sgkt6pfyNGxsZ7e1hGPnuCcn6c1gzzaT/AGiuy7nubgjAAjyhHfkdPxrWeC4mgZNMhaTJ2CEruyPXcwFR22gavbSKsltDC8fT7TMMMD1+UdaB2Zj391LCxZbmGOPeBGGwM+uCPSs+6RL/AHX9i91PNGfveSWAx+f+RXbajo1kkARriCKR8FY7NAPrw3X9KpXt5pelXcNlHaLllJeYtycY7AgUCOe0mHxTq5FpcabPAn8c7Ic89MKxHp2rU0LwhrLW1xcQpNJsJUebIsW859M1FLqeq6lavNDoETFpCI5RcEMwHQjLce9Gl3GpW06wXmo20IJBZFmDFvxyeR/WgDVTWBpUBivraxhuU+bykZpHf2bArGLa25muQkMdow3kiN1256gZ61os+l6fJ52oawbqV3byomhO4Dj0FLqGqa2Vij0eyhSAH95JNzgemDQBmQ3WkeH4BbT6ZG/nMMySgvkn2rXt7y2k002WjacZrsNmP7NOEQfgarPZNdQJPf6PZSEPnzZlbaPcYxj8at2sutRRraaTaQpgEtJaRrz+OaAM640G4vGNxq8bQysCGP2gkr9cZqnb2Gm6LCFuZk+YnYhQLn3JNaz6P4g1O/z/AGsbdSvzB0z/ACHWqnirwRawQfawst7MkeTJLNxn/doAyrXS44bw6naQRQhWO0EgsxPcVYF3ca1bvp1rI0mw4knuDnn0GOorMDT21vFbzOAejbUxj8e9b/hSKyti8MMIgJIMkrgNz64oASxmNna7LO2lhYptnktbnywSPbBx9a5LxxayRmHUhbFW3YEhkZ3JPUlvT8K6xbZbzXbh9PFtcS7tqi4BSMj1+tc/4xsfJ02S8jljMiP80MKkBR3AJ60nsUjovgfOZNSul3ls25yRnHDCvSTgMVyDgA8e9eS/Au6u7DxYLS9idFmhKBScgA4Iz6GvWIwu3cueR0PXqadPSJQ6iiitACiiigAooooAKKKKACiiigAooooAKKKKACiiigAooooAKKKKACiiigAooooAKKKKACiiigAooooAKKKKACiiigAooooAKKKKACuZ+ISiW7sLVomwMyhh064rpq5T4gXsOnXS6hIdwjiVNhPGSf51MgFsZ7cqLl4xtwVB28g+mO9S3NzLqMiiVW8xMCPzBgj8BVbRdRs7GAyTwzOMZEJOevv2+lW7KDVr5he/2fBFCD8rvn5akC5dPd6UGNg0+dgG4pnn+lRR6ZrVxbq+oMYwWydrksR7YqS51WKx02STU9VLseY4oUwG/qaNO8SareRC5h0GeONejO4CAfTrQBYs9Phz5kOlyqFBBmllxjHtUaagxhe3sIyFwf37Jnd71FfSeJ7+ZYbGKJLdoi0so4Uk9hUoBsrWXzTgQxgKQMKOOaBXRlaHci3+0xzB5PMl+UjqT7UzU5IpZ86hPNJGqlZIEJPbue1QWktrMglaeUGQlljgTc3Xr7VNDOJLSSxezk8hjllikGZP95vX2oGVLvWNE0KeGWx0+IOzBSJhnZwOc9qqX3iLxNrLq+maFHcFZSqzTSkxqM+2K2rjVvDtvCILazJkaLaUjQOPbk1RvtVvjp8cX/CMSkgktCDhQB3yMA+tAFaD/hIklA8XeI7a1ijDFVtmCYHXHGc0kV9pMcP2qweNpCf3flrlz7nNT2+hwyWUN/dadEv2hsS5UsyrkleD+VQ3fh+yhvk1Tf5L/MkrLnBOTjjHHGKCHuWIb3U7/AntWiRV2qPPVfMOc4wMn86uvBdR2coXUbbe54g2ebt9h6Uum6Rp9srRW0TXDSrmV/NCj6DrUi6xbxsIrKaK28sYfy7bc3XAG7uaClsVrPRru7iyLHeEIL+a4iVPUknkinCxhgDS6fe2e9sgNbRlmx3AJpsl1PfPIbxrmSINskMrgK4PoKjjW7sZoNN07TpcEsQyDhV+tBLTuTamtnZ28Z1GOVkGGQyE8H6CuWu/GElpeSLp2lIQPkR44dvyno2T3rbuvDet3zyX1/FmFH/d+dPjPsaoXtjobEW1zNJKM5SGzjZst6DA/nQILPWNVAWC5mgjjYYebJdz+HNZU+saFZ3jm0lupyzFZpJfl+mMZp811q0rvb6RH9kSIHcVUb8e/vUuieFNRuWFx9kjkEnzmedSoP1JxWb3AhsfFCAqvkQQRhsrIxKAn3LYzWlYeNPtl35p1v7RIpwsMEW2P6Zxz9azrvwJf3d/BHd3ETpuJjwNyfQg1s2fgXT7C08zxP4hRVjGUjtYtig56ZoswHXHi6+sQ8EbqOMlUXLD2qnP4uW5gRp3ihdvv3Fw3QdhirJfQ0M0cNpIFUZDFwS4HUiqs9vYasiT2OjTIgOQfL3FxjIHNACTJa6pbqlpqyXUwYeYmSIyPUcVemk1MQLmYWsK4CmI5YisOyu47izM1xpV3GY5Cm1xsU49Tiup8N6XoUsK3ckbPMBvX95uQD+7/n1q1sBTuI7tdpSydo3X5JJpCxb39h7U+fxVb6YCNWiM25giJ5YO0ADj+dWtW1S4wF0q5I8zrEAMJ7gmseS2123WS5vbJvK/5+JmBI9wKLoDQa80bWLUJbaXOY/LDBkUIByf4utLFp8VtOGsdPiZTGVD53dvesW48RfZottrFiMHCqzbefYd6sWus3z2bDV7SOFgMpIJeCfcCpe4FHUda1CzkUHR/wB5u2K0YCk/UjPFTw6vfSXaQBHjaQcMTyp9AafY3WmX11LbvqMMjqAx8nkIfer7JpUb5hbz2jG4OoO38DSLWxRuzo2lSCbUtOEru/zG6+cE+oqlq3iFI5VudJ08RxLwSBtDfQVPf6Xqmqw/bdgacSZgGNwxVnRvDtq91i+SWeSL5xFs6N/ICgZlWmtaoJ9kFlK2/wD54hj19a37J9St7SOObT7mKV2yWRDl/SpXvdcsbmQaUBApjw+xQxX8qag1O/tXmvbu5k+U/M9zgZHsOlUmrAU3vm02f99YSCXJOXk+6M0S+M7OK+it4tLSaWNdwdkJAPanI8du0WzT45mf7zupJ/EmrB1SYOlo+nQRSOTg7F+b05JqiWncSLxpql+HvL7SXZPuiFZNoJ9fYVsaRqVrdsY7xJbc7AeAGMR+p61mQ21tGWh1aSGR2+/DE+CBnI6fSti1urfbu0t7K1fO6RpjvYDHQDv0pXGrIztd0iwvtQF5LqFzMuVCSeaFVvbpT5PD9hqUvkWVpFgrtkEZLMPx9/6UWaafPNMNV1N7kKSyCGL7v0HaldrK1bNjZzyyKAyxtNtB+uKZL3K914dthGlo8sdnPHkQQtKA2O+R78VBZ+CC7G5tnty4wQWiyc1Zl1J0vP7U1HRdPQYGJh87q3YE5+tSXHjW0klDWiqjBf3hRvlB9qBCTLrGqW5jN3ZxvGMbXiwTjtkdKrT6dOtmX8pophjCoCQfcZpxvWFx5283Ucq/OiDaR+NWVvoCiW6RXVvgZDl/0oAoSaNeX9owuv7QfanyxSTYTP8AugdKgsrnXtI2RaPDEZMBTEnb1ro7TxDcGJY4L/7TcE7RF5fb3NUtQlu7FWnjgsjMHy+3075oARLieBDqF4Z8sDmPfgZ/GqUuq2Eg+wCCQuRktuJYZ7elaH2q21vTW8zw1MzQxkpNczFEz2PuK5u+h8QaZaIzTMzEhmihQBcHsD1oAuPa6fski1aSBADhGkB3E/QCk0ZNN0+68qDUVmLH5iISce1R3Oq6n9mMZmhWJU+aFYdzfnVPRdT1uz5dSIWYhlVRvNAGpeavP/aiodPIi6OcBd1U/EK6FdxyPAYWuGQiSNS2FH4jk1DqetX96pthbvGFGNzD5s07zP7SsDH5aAriN1c4YnrkCgCt8Pv+RqsCsjFpJ9khY9sgjP5V7AVyTN/eJwPbJxXjHgi7k0/xRFc6eqT4vlZ1LdFGc/yr2eRVDb484fkg/wAPfH60LctbCUUUVoMKKKKACiiigAooooAKKKKACiiigAooooAKKKKACiiigAooooAKKKKACiiigAooooAKKKKACiiigAooooAKKKKACiiigAooooAOxPp1rjPHUV7BqM0k9sZreQrmPHz5XoR7V2kf3xno2QcVxOtanqNnfyajqUX7gTFIpd2f0qZAO8ORwWmnvJvKgjjc+Sn4VetNfguEkOmAzTRYUzXL/KPotQXNpdanaRyqTEmcmWJR/k1JptnqegvJNDZx3nmsAjSIFx9amzAkktrq6vjLb7ZCEBIUcH39qu2CO0ktk0jkPy/PP4mn2Wr3qI73NvaxhTghcDIqG1Y6ldtNCU2Yw6qpKt/stjrRZgaMtzYRGKFJV8qM5CIOWPvWTrOpXd8JIGhIjc8IwwAPetedVAFhHYCZ3ADvjGwVXvLNnnMrR7YouZAx+8AOnvQQ07lB4C9qqm2IBTA2odx+gHao7SLTmjlF9F5RUgornHOO4qC70rxR4iTydM1I2STKSL2CTDIASNvtwKsad4Y0fTUUQrc6ncouC0j/ACbu5OaC1sSqlisL/YIYJGA3D7JGSzeo54BpZ0jkaGWXQZUDIV3XtxjaSOMAUxBr8imATQWUK5IWPAxj+n9aqRzwh3ed5LspgrwTyR60ARTXGrzo8FjKAEjERnKYTOegNVprS7t3T+3dYD4fmKNCxfnjNXbae5ZpB/YjRhyCrO3yk/3sdsVWn1U2d21vcXguLhjlY4kC5znGTQQ07mppWoJaIGW1VJjnykx8zCopptTu3D6fZwqNpeeWQ8Aen1rK0+XX9TvHvZBb2luUAYg73J9B6cVq2l7bOjx3Ng7Kh+9u2hh2zQWtjKu7vXJw5abcVTc6wQjn0xmp7bUtdns4YdPSWN2XLCUgkGr13q2jW8XnfbYmcDJjj+b5fTiqVxcy3KGaztZrZVOAwTA59zQF0V5bbV9SjeLUtUihQZLhux9qoRzPfTNp2nytiFQJvKfBf3460T+E7G1nN1d3U9xI53eUXJXmkN3rFoGsdM0Voo0b5nifav4nrQQ9y5DZ2dmVntrGzimXo11KSc+u0dalkv5I2xq00l0SuI4Io9oOfrwBXO3R1V70tFdqgxukaEbmI9Mmm6bqNyrk2ts7bcsv2iYsWPsoqGncR0vk3d2kdoY7eIhT+6iYlh+Oaqag1i0C2d3bRyKDtdgSzqfUdhRoVjqGozxX9+ohAG797xknsAKkuNM0me+YX2rswbkJbLgfnVrYdmJp66LGPLhRY2C/LJIdznrxitK1XT9QjeJdajt8hArE/MMDBIrJuUs7iRLe105dkS8yNL8xH0rOkbTDG8kNiGkjYj5HIB/PvUPcR0FrodrdR3Fjca5E6oWVTM/3x1z+tO0zQr1oY7K0n/dSZETRYVWArP0pEnt0uZ9Bi86QbY3Em4/hWjdNctbGC1sJ4mtn3JHuGOe1UtgLsek6ZaWLW03kRTBefNk3knJycCuY8X/a72xlhs4JSg4iMrbVIHcZ7V01oGkspM2kNrNsDbnZTn3rE8R6Fea/dm2Ekkvlw/u40fCseec1LWoHCwG1UxXOsxwSNyIoxcYAx3I9a6LStV0S50t5bnS4vu53sSefb1pNP+HupWO2Z1toQxJEckakj6+lNuNM+zyCOyVjK3Qbcgc/ex2FIDV0tNFeFbmz0ZpDJzwuzJ96uXniO2sY1gex8pMcLtH5GueaS80+cJq2q3TCL5mEYwPoMU27126mQCx8POsU333lyWcfXtQWtiyPHkLXgjW2FvDEMhUbGTmt+18YnVozHLAgQoCxA5OOmcVkafptnMqXF1a28QxzAyZx9T3qWKWytZWMNsGIbMkNuc8UWYy7f3d3BcRzaZJb2aOhYkjcSfTbVaG4lvrpnvdWlZlUl40iCL+PrT2ia7KzRW8VgZfuuTvcj0AHSq8umWiSKZ4L8FT80s8u0N+HWizAstc3U6x3Nlax5QffdSF2jqOetRtCJkmuLuD7RnBh2Lkfl7cVGIdfllW0s4Y1wxKgozbV+p4qte6b4onjFmt9crOGLNHbqNoXPT8atbAa+j2Wp38RFzoQ2xg7WbCk+lB0q4tnMmoWlqXY7o487cAf7VZ0VvfRrI7Peq0mATJIAB+tS2tpAbhJdREh2/L++kypzUtO5LTuWiLIHfZaksGPnkjjbd9RnFOl0xrxvNS0upHMi7ZC2FZe+R37VOJrHTVe3sJ4PKYgSoI8YU5zjNUpb1r+6UWl7exx4CFkHygjpVLYkg1zSsStbTW6wryRDC2Q3TGamGgWNikdvY6BHcXbxbmEqlkUetP0+zjS7aK5tbq6feAS8oXI9alu726RZhpVsyEZAG87lH1NMBkVneQ32Y3giREG9EjwqnngAVYaCO8uPLGpysxIHlRwEBvxNUodQ1G1tkkE4ZGHMLSfNnvyP606aexBF0mp7VA+YFWMm7sKANWXw2jqVt5jbMoweTu59aonw1cwzf2heXscko/dpthJBHqfeooPGpSF4FW7uZAuDHGQuT2yaC2rX5juri/VEZPmiV+fYHFACvZsmY9T1t12jb5YyAR9KSGaa4uWjsVaUxjaHcAKB261oR2VrFbxvqUFq6sDuJYmQ+nWsW7i0WK4ffrdxM5BAtuiqPUfSgC5epqkdkwuJo4ifvt5q4/So7HT7eyBv1nSabGUJb5Sfxp1ppdpcWsdvaMJ1T5knkI+9Wf4hvr1LPN8Yh5DkApySOvagA1oSX2mkyTxicv+8SCLkfjXOR36aVdyidXlkYfurdG+Zj61qv4seaw2/ZkgEq/JHGvzN7k9qxdRW0soDqE6rEzcbgcsfYGhgU/Asd83jLT7WI/M5bei9QDngnv2r6AXahMSnI45zkjgDBrwn4dRm48exXaXEcZUAwq3OBkfrXvDDDNtxgkEkDGT60olrYSiiitRhRRRQAUUUUAFFFFABRRRQAUUUUAFFFFABRRRQAUUUUAFFFFABRRRQAUUUUAFFFFABRRRQAUUUUAFFFFABRRRQAUUUUAFFFFACSSeRG77htCFjzyOK4G1s5b66Ml7MTliU3t/D6AV3tzHO9rNHBGpcw/KCetcrd3cUCeVJuR048tkx+RrOzAguZYAptbORo9jAR28mdhq1JLJdtHbaxqkcJAzGkXT8+9MtYoIQ139hkM7k7Flffx2x6Vbu9A0+8hjuL2F9wbcw2AkH8O1aLYCobLwzqF28EcEkuOWmjkOM/StPRNQn0yzeK1sw0JOQVj2Hd6knrTrTw0EUyW8xgDtlWXCgfhVDxHJcWGIluTcIygSsG2haV0BbXxHqsQMVxpzhWfG6JwWNSX2qoyFI7e4ACfvFfBK+/vWOt7cPMHezlmeTCiJVyEGOuadql3a2+x9TjeNSuxFVSMH/aNRZgWL3xLHawtY6fJsVYN+wfeZvoKyDFqtzLHbWz3E5dBcbIsrjnGPfmtFdX8K2iC8hjEhRlTEaZYseBz6Uaj4qls440W3njEjyIJGfbgjnAPpQBVhtHtZpIdSupomEfmSqgJwoOdo/GprjXNKjSU+TcT5UPlW2qBjoPXHSq9j4r0KEwyy3FwXusBWfs2eRz2qTUvEVkJRDp9oZDI5ZPMXpjggDuMg0ARXlyt4We2uZ4I4o1Y4y28EA4Hv2qlqcUMGnoYtMmMpO9mCncynpz2q8NYuI7FrmOxjJ3YQHgbuwwKyTr/i7U7yS3OqxKUQBoIVBCHrj8uaAui3pbXP2qWQ2ckcQkURo7YOMeldha+H9LMW++XzMrllZgMZrn9BbxDPPIk8NvsRlDzzkAkkZx9amk1bR9Kmf7dercJLOFaNSSQe4FStwNTUbLTtMsiloILbfkNtAJAPSsyOw1u8upHtg00BPztdSBQfTioNZ8SaCrvBYMI3CllyhdjjoKwrbV5jA98mhTymaQNJ9ruzGMDqQB1HtVEPc6XUNNS2hME+sRrhQWjgGcH0B9azLyO+v4GtLK1u0DngMfvemfSqVr4huoJbu8lls7eNSDCkX8Xvk9TUNz4vknlKPqUkjGQEm1yCcHpQIln0LxRM62MTxwhsLIFTBA+tWdG8GWun3QlhW4lmyQhWYDPr1rMXXNWW7MNs8FuplLPJLI5Jz2+tWNJt7BtbFzqt7JI8aHaEJGM9aAOkm8OtOnM6wlSGdo5wzFfxqhfeGZFtzBLqsdrCp48pgW56e5NQTeK7C2lMdvoBby49qHHDg+tOXVPs8c01zZRpujBjiMY35H+0TgUFpqxnDwhp9rJuje/uZUfB+TaD7ZNa8PhvRbiwaSLzI327iQmeehFc7e+KnsZJUWS4MzpuLRNu2se/1A7U/TfGEM9qdIMV0nzD9+8i8jgkn06mjlTJe5uwaTDbQRstl5fzfIr3IAT34p8Xh231G9SO11GDzC2ZV+0lvzPb6Vcew0G9i+0Wes2jCJAxWXkj3PpUdnZ6TbTtfQXUA86PB8hCBnmldCCXwbo2/wDf60jPGd0scMhJ9h9Koyahpcmn/bLa7u0cZVIypDLgkdKvzaDCtsZLKKUxzp88kXJLDpk9hUi+HL+5i2WxuE/dLtlRBuJ/Gh6oDHsbXTxNK9xbXEjvHuAmYjPuKoWN/FqTFZ7Z4xu2MkJww56GtHV/AtozRX2t6peEs5GyS42KCO5xWWuhwWjCXRZ8mTILM7MVI5FRZgTzXGmKxj0zS51kBw7ySbm29xin6RJrF5aeVe2yRRHISOIZdxnjNUL++vNOf7XezyJII/3jKoVVPoR61reHrrWGtIpDrMUMbgMXJHc0WZa2NO08L30Fr9qv7RmjROAflUVNYeHjHC09jbDfMfn8uP5iPqegq1a6rLGy+Zr8c+HyUzkOD7U/UfGVhbyCK8u5Xc/8soAAD7EjpVrYYmny6fok37nTF81+yKGfI/2u1EN4k8pkksbaCSTLMs2Xc4756ZqMXNvYFZLTS0HBw8zncxPYetO0+11nVLXzYPs9njcZJGAzx6ZpgNtJEmbzb+6uLkly8cbLgEdgMVm6tHaXF9Ja7bndjfIY5dmc/wAOKNWddPtUl1nxDK2Pmj8hcE44zWWblLK2adoriRz+8W7bPI9M9zQBLB4TvL26eSxshbJgYM0hY/jn1rQsPDmiaUY7a71iS5JO7ymIwH9PoKxov7X1MvcS3LCVI/NiTfw6/wB361ow6NqkdkuoQxhmK72IcHk/w/hQBbmi8PWMcl1c2B3FDsZmBIY98elZ8bSFfMXXTOzRMGjRAqnOMEfT196zra0n1i4ZbsO8ix7GkdCoXOeDn6da1rCx/s6NJbjSYigITa8+VYevHSglp3HwWek2TRzzauI7sQHeoYtuX/GobnXIIf8ASZJ5JYiu1S8gUAf3qmv7WyniSae8R2SUhUtkCqyngLnrx/WuW8Qw2cHl2lno8LiJGhH7wvnJyCaLMk6a61zw1p2mA6dEpdsAyCXd8x71S0y31xFa7E5kE4+Taowp7Hmq2jadqlxHHp9v4ZRYhEFkfZtBx3rbN3Z5EQuY7OUrseLduWP1PH0FFmBA0Op2mk5vNAuLlnySYosMx9c1ZtdBkvNMS6tNMmt3ZcSK/LDHQY9agOozFmjk8RPIScJslKqAPWnG3uWvUfT9diVNmZoRcklz6j3oAba+Ftekm83U5jEoU+W0mPwyKgg1OW1mNlHd2a3Sg/vJEXkela8UcN0I4LiQovO8u4Ib2zmrcmg+GYIUY29g80v3ZWbHA96AMO8ilgtEu4bBTK3UGXC/8BA61mJqaO81jdxLdEON6oMAZ7e9dNNbW1/G1ut9E20HAjYlsegrDlsl0+XZZLbrNIcqsgJZvfigDPns7CBn8y8KK3IgWI5HsM1heI7cWVtuns5NquH2y84Fbwv4rbU3v7q7MkyDb5aRZUGs7xr4nhvbY2V75QEnAZR830NDApfCqyGo/Em2aOMMpOdo4wAK9xOW+c8ZJ+WvMPgZ4YjXUpNdl3ZtEKKQcZc9PwxmvTk3ADI6jJ9jSimaLYWiiitRLYKKKKBhRRRQAUUUUAFFFFABRRRQAUUUUAFFFFABRRRQAUUUUAFFFFABRRRQAUUUUAFFFFABRRRQAUUUUAFFFFABRRRQAUUUUAHP94g9m9KjurO3voTDfRxzA8gsmCPoakooAp3GjxNGfsKbWxhUY8AfWsK+0vWrKGSCaYRo5++hJJ/wrqCWH3RQTI0e2UI4J+6R0oAytJso7K2W5mgadCgRjOw/76681leKLOS5vYrGI4ic7mUdCO3Supa0tWDA8bhxjoD9Kytf0zW5YdunRhwxXcwA3Y9qizAxoLSSC7WCKY+WW+aSMnk/88x6mrVwtvNHJI8QLK20xMc5Pv6VoSaHcOiSWlsRcbQpd8jaO+B/XrTG8NS2q/ZI9kcs6nc6AkdevNWtgMW5litJmgs5AhIxtaLg5HY+1ZV3D9t06RmmdnRv3a53Fsd+emfatbVtC12KHFzftKI2wgMBJ/Aj+tVrDw3riRkW+jl5WyfOvH+79AKizA5208hL5CglhJ42KPMOTyetb2nzR21w4tdIhUCM7rqd8Sf8BzT38LeIrGQXs8BuCGybaOJdp9yetVm8NX2oTS3l7pkv2hhgK8W1dv8AdA7cd6VmBXufEUsdyTM6u8ZzFEFLOvHqOOevPrVvQL7UpZmmttFtLfLiSRWfO89NxP8ASpo/D1to8KefYXckrjiG3jBx7U2Ge9keW0tNBkiBUDM0n3Tn0FBDTuajR3M8strDMisw3ukcIAye+496qjT7CB1N5EU8hy5ZpN2WIwfu/nVm2udStLY+dawSSMMpIxKLkHplsZrIv/Et9a3jh47dzO3y+Wp4/WgtbBfS+HdsP2WC5WMP96EEFj3ySOlYGsLDqd863ELwqWKxs1xgBcdea2pNQ8SLHv023iuppDhI3jIC+p9KzNQ0XxLqKSXHiKS1twOAtuw3fmeKCGnciFp4Ns1aG7cusf3EL5B96guPFOjQSCLSGf5H3hIEVSfbcaWz8A2HyPPcqVkzl3uGyPwUH+dX7PTdF02OWOd45XhGI18raT+tFmFmUItdktJ0nEf2ZSWwJSGZwevX9K2NNuLC5KjSNGEzSId88zHCfl3rH1Hw9FrdzFd3emGSKMBowrFdh75Jq9pljq93K9hZXSWto33o4TknHcntUrcLMztUuLfT7ie51W5keMKIxbo2QvPbPHFZ+oeNbV53VrN5rdmV5IZWLliv3T7CtfxHYeF7CELFK16Sn72RcnB561x1nfS6rqElvHE6IBtAji5YelUFmb9v4y0i9bz9QmZjExlEVuMCUkAfN6enpxVrQ5fDmp/u7TT/ALMskZUmZicHOevc81Rl8KZtRcttVQnARTvJ9Dg1Hodve22ooRPER2jlUkKP1oFZnVW0Gl6GGvLe0kldsq0UROx+BjNR2+ualp1q2oQzMZtvzQZygOemPpipm1q6tbdYo9SgEc8gWRURgVH5VYn8OaHOZdWu9UEMSgMdxOWJ44qGncdmPtPGeuy2JkS02AgtKjFh8igHP6n8qlg+JGs28jjybYRIqsY/MJYhh8uD6dat6V4d0l4mnXU52Xy8kRjhh6ZPFVrnwxJIy2un6PbeUg+WWRid4ySAffJPtVLYLMzdc8QaZrMkV9OboJK2wQgZG4ckc/WsrXNcv722K22m3j25kA27vLVsd+OtS3Om3/2qSP8AsaNWhba6spOwdcp2711tjoWkz6XHf6neiWSJC0dupC4PsophZnl2tSai9k815cRq6zCQIXLCRRwBV/Rdc820l0+N2ZyuFniGBk84GfTNdMmjWU4b7Pp6QrIxA3ru6/wj0qGx8L3dpfz6fcWMKbOEaY/Lz3Cr6UFrYk8L6XdxwB5tdi2xtukj25Yr65/pU2sWkKMt5ZTQliwMjKrM+0HsPWrUJ/sphp1s0EpJA3lAqHHc96h1jxVaaQWSS6S4u3YBo7R8BR7KBzQBUkt/EUsou7bU3BjzKHlUl8Hjp6gdK3/CtydLs3me6knVUPzXw65PIA96ydH1HUvNOowaVeMDw5mcLv8AwPNXLjTtY1mWO4XS9n7wF4pZzsK+4oA2r3xHpa2e5YYnd+B5cIXC+nNZLXltEG+1yRKh+aKGRmYgj1GMVOx10SGW301DDkKsKwbUyO+TyadqNnqEkHl6rfJDLjKrBFnHtwKAI4bjwutl/aN/cPEWkAxHEeD9B2NRX/ieyEGNItJcI+EQfxHuay7jwbq17chkSafeCFAdgB79RV2Lw/4z0RD5cjLlMIjKpwfrQBSh1W+1CR5L63EZYklDkdPp1qxHpdrfTsz3U8bGPIj84lG9BirMPhfXPs/2u6WLgZZ5cklj2AFSDQNUjtdqSIXYbnDKxA9uKV0A6LTPDOm2OJryGJ9oMkMR3MSfp0rIvtT8MRXH2GzWSNc4DNgkP3/nVm00W505mMNrJK5YMxSD5ST1HPPFWF03U4ZJJrfw5KzSSltyADf9c9KXPYhp3C0nisUIaa9lgWPJbds3Z6gY69qs2VsjESwQKyshdYnQs233JqtJ4e8Y3Mnmw6PGoYYKzyk7fpir9r4e8VrHghImYbX8uXGVoVR9hWZHHpHn2gWO3Mpd92EhGV+uaz9RsV0m7e31TQ7hUdd28KoyfY11Vj4c1y3t/IJtgv8AfaYliPSln8Mm7mD3t1G5UYUZYhRTUm+g7M56Gx8Nx28N9p2jSzwkf6TJu+4x7HJ/lUKQaHaSNHJFHNGTlEjkLlBXSweB9HtU8pLiXYzZeONiFY+uDVu08OaBYkGKx3kA43ACnqwszn20qO6UyaZpMUEKgbpix3bfYVb0q1SWQ2k2jYj24iZvvEfWujAt4VZIY8q4HykDikEzlVBG3aeAoFFmFmc0/giK3fz9M0oJt4Cl8Ak9SSetU734WDUZkuJWtoChyCqliT+Ndi7HPyjr1OaQEk8j9apIauQ6fY2umWa2VrEqhfvMq43n1qaiimlYthRRRTEFFFFABRRRQAUUUUAFFFFABRRRQAUUUUAFFFFABRRRQAUUUUAFFFFABRRRQAUUUUAFFFFABRRRQAUUUUAFFFFABRRRQAUUUUAFFFFABRRRQAUZYehHoCQaKKAFSR0OVLD23UGSU5y2c9z2pKKAHCQjK469TSNJKfvTFvUCkooAdJKxTy0U4+uKRHdVCs3A7Zz+tJRQA7zSMHncG+QgD5R3z60jYDkiOI7jksF/xpKKfKgIrjT9NusG506CQjoXTNRHQtFVt8WnxKR90rGAatUVLigMu88KWd8ctqN3F/sx7QP0qlP8NNBmGHmd89WcZOa6GilyoDnV+G8ESMsF+jZI2748BR9BVa++F17cMot9dgh25yUtt2fxPNdUVJOd1G0/3zS9m+4HF/8ACodSmGy/8TeepGChUoMf8BrRtPhkkUSwyamvlqmzywCMj6iuj2n++aNp/vmlyAc//wAK30pmYXF0wjZcGKGMAY+tSWnw28LWsquiSIEHyiJRz9TW4AQOTmlquVAZcvgvw8x82CB43PXnNRXXgXRblVj8yZVBy23Ckn8K2aKOVAZ0XhTRIbRbMWqsuOS5z+PSnT+FNDkgEUUCRsFK744+CPoe9X6KOVAYll8PtHtLFrNdRuRuOWIbr/hUqeDdOt1It5TIysCn2nJH6VrUUcqAxfE/gqTxFaeUustCRjIgjCfhVPw58NrPQrgTTSmUkYYvITx9K6Ugk8NigAgcnNHKgKMvh+0jlU2Aiij3ZkUR8t/n86ivfCseokM+qzQAHIjh6AemetalFHKgObPwo8KyDFzJdSnnLtOck1e0vwP4W0RR/Z+l7WHVw2WY+uTWtRRyoAjitYjv8nee3mHOKdv+8DHGQegC9KbRVKKsA4TOg8pVBQDgEdKQ7P4I0B7uyZNJRT5UA5biSNwVXp/FgDNK9xNKxMm0/wC8M0yipcVcB7XEjKFYJgdgnWk86RzvKqp9No/pTaKXLEBxml2kLtH4UedcBQBckeoAptFNRgA4TSD/AJaNz1yaaQgOQpJPcmiiqUYgLhMf40n/AAED6UUUrWAKKKKACiiigAooooAKKKKACiiigAooooAKKKKACiiigAooooAKKKKACiiigAooooAKKKKACiiigAooooAKKKKACiiigAooooAKKKKACiiigAooooAKKKKACiiigAooooAKKKKACiiigAooooAKKKKACiiigAooooAKKKKACiiigAooooAKKKKACiiigAooooAKKKKACiiigAooooAKKKKACiiigAooooAKKKKACiiigAooooAKKKKACiiigAooooAKKKKACiiigAooooAKKKKACiiigAooooAKKKKACiiigAooooAKKKKACiiigAooooAKKKKACiiigAooooAKKKKACiiigAooooAKKKKACiiigAooooAKKKKACiiigAooooAKKKKACiiigAooooAKKKKACiiigAooooAKKKKACiiigAooooAKKKKACiiigAooooAKKKKACiiigAooooAKKKKACiiigAooooAKKKKACiiigAooooAKKKKACiiigAooooAKKKKACiiigAooooAKKKKACiiigAooooAKKKKACiiigAooooAKKKKACiiigAooooAKKKKACiiigAooooAKKKKACiiigAooooAKKKKACiiigAooooAKKKKACiiigAooooAKKKKACiiigAooooAKKKKACiiigAooooAKKKKACiiigAooooAKKKKACiiigAooooAKKKKACiiigAooooAKKKKACiiigAooooAKKKKACiiigAooooAKKKKACiiigAooooAKKKKACiiigAooooAKKKKACiiigAooooAKKKKACiiigAooooAKKKKACiiigAooooAKKKKACiiigAooooAKKKKACiiigAooooAKKKKACiiigAooooAKKKKACiiigAooooAKKKKACiiigAooooAKKKKACiiigAooooAKKKKACiiigAooooAKKKKACiiigAooooAKKKKACiiigAooooAKKKKACiiigAooooAKKKKACiiigAooooAKKKKACiiigAooooAKKKKACiiigAooooAKKKKACiiigAooooAKKKKACiiigAooooAKKKKACiiigAooooAKKKKACiiigAooooAKKKKACiiigAooooAKKKKACiiigAooooAKKKKACiiigAooooAKKKKACiiigAooooAKKKKACiiigAooooAKKKKACiiigAooooAKKKKACiiigAooooAKKKKACiiigAooooAKKKKACiiigAooooAKKKKACiiigAooooAKKKKACiiigAooooAKKKKACiiigAooooAKKKKACiiigAooooAKKKKACiiigAooooAKKKKACiiigAooooAKKKKACiiigAooooAKKKKACiiigAooooAKKKKACiiigAooooAKKKKACiiigAooooAKKKKACiiigAooooAKKKKACiiigAooooAKKKKACiiigAooooAKKKKACiiigAooooAKKKKACiiigAooooAKKKKACiiigAooooAKKKKACiiigAooooAKKKKACiiigAooooAKKKKACiiigAooooAKKKKACiiigAooooAKKKKACiiigAooooAKKKKACiiigAooooAKKKKAP//Z;" vertex="1" parent="1">
          <mxGeometry x="582" y="335" width="413.25" height="551" as="geometry" />
        </mxCell>
      </root>
    </mxGraphModel>
  </diagram>
</mxfile>
